<?xml version="1.0" encoding="UTF-8" standalone="no"?>
<!-- Created with Inkscape (http://www.inkscape.org/) -->

<svg
   xmlns:dc="http://purl.org/dc/elements/1.1/"
   xmlns:cc="http://creativecommons.org/ns#"
   xmlns:rdf="http://www.w3.org/1999/02/22-rdf-syntax-ns#"
   xmlns:svg="http://www.w3.org/2000/svg"
   xmlns="http://www.w3.org/2000/svg"
   xmlns:sodipodi="http://sodipodi.sourceforge.net/DTD/sodipodi-0.dtd"
   xmlns:inkscape="http://www.inkscape.org/namespaces/inkscape"
   width="210mm"
   height="297mm"
   viewBox="0 0 744.09448819 1052.3622047"
   id="svg4301"
   version="1.1"
   inkscape:version="0.91 r13725"
   sodipodi:docname="arthur logo.svg">
  <defs
     id="defs4303" />
  <sodipodi:namedview
     id="base"
     pagecolor="#ffffff"
     bordercolor="#666666"
     borderopacity="1.0"
     inkscape:pageopacity="0.0"
     inkscape:pageshadow="2"
     inkscape:zoom="0.49497475"
     inkscape:cx="269.04589"
     inkscape:cy="524.81798"
     inkscape:document-units="px"
     inkscape:current-layer="layer1"
     showgrid="false"
     inkscape:window-width="1366"
     inkscape:window-height="745"
     inkscape:window-x="-8"
     inkscape:window-y="-8"
     inkscape:window-maximized="1" />
  <metadata
     id="metadata4306">
    <rdf:RDF>
      <cc:Work
         rdf:about="">
        <dc:format>image/svg+xml</dc:format>
        <dc:type
           rdf:resource="http://purl.org/dc/dcmitype/StillImage" />
        <dc:title></dc:title>
      </cc:Work>
    </rdf:RDF>
  </metadata>
  <g
     inkscape:label="Layer 1"
     inkscape:groupmode="layer"
     id="layer1">
    <g
       transform="translate(-63.201229,-275.13903)"
       id="g4453">
      <path
         sodipodi:nodetypes="cscczccc"
         inkscape:connector-curvature="0"
         id="path4737-5-3-9-7-9-1-3"
         d="m 487.98273,660.81998 c 6.50152,15.17061 8.41223,34.83338 9.75257,58.87634 1.32759,23.81366 -0.36126,65.12002 2.18122,96.24172 L 617.7195,641.6628 c 0,0 4.52259,-8.41799 0.52706,-13.56077 -3.99612,-5.14279 -13.4871,-5.28727 -13.4871,-5.28727 l -145.6913,3e-5 c 13.38269,9.67149 22.65359,22.59377 28.91457,38.00519 z"
         style="font-style:normal;font-variant:normal;font-weight:normal;font-stretch:normal;font-size:medium;line-height:125%;font-family:Georgia;-inkscape-font-specification:Georgia;letter-spacing:0px;word-spacing:0px;fill:#1a1a1a;fill-opacity:1;stroke:none;stroke-width:1px;stroke-linecap:butt;stroke-linejoin:miter;stroke-opacity:1" />
      <path
         id="path4735-1-0-1-7-0-5-1"
         d="m 435.02677,785.67236 c -20.46822,6.02005 -38.40791,11.91977 -53.81936,17.699 -15.41145,5.77929 -29.73911,13.0034 -42.98329,21.67231 -12.04027,8.18732 -21.55201,17.93986 -28.53521,29.25761 -6.9832,11.07694 -10.47481,24.32109 -10.47481,39.73251 0,19.98663 5.1772,34.67561 15.53158,44.06693 10.59552,9.39134 23.96012,14.087 40.0938,14.087 17.09704,0 32.14723,-4.09364 45.15056,-12.28096 13.00334,-8.4281 23.96012,-18.30104 32.86976,-29.61879 z"
         style="font-style:normal;font-variant:normal;font-weight:normal;font-stretch:normal;font-size:medium;line-height:125%;font-family:Georgia;-inkscape-font-specification:Georgia;letter-spacing:0px;word-spacing:0px;fill:#1a1a1a;fill-opacity:1;stroke:none;stroke-width:1px;stroke-linecap:butt;stroke-linejoin:miter;stroke-opacity:1"
         inkscape:connector-curvature="0" />
      <path
         id="path4381-0-1-6-2-4-0-3-5-5"
         d="m 295.07858,728.42965 c 6.17644,-5.87382 11.60041,-8.49255 15.33285,-11.98418 7.70573,-6.98329 11.55859,-14.68902 11.55859,-23.11709 0,-7.94651 -1.20421,-16.61542 -3.61202,-26.00676 -2.16727,-9.39129 -3.25106,-16.49497 -3.25106,-21.31105 3.85286,-4.09364 10.4751,-7.94651 19.86642,-11.55853 9.63215,-3.85286 19.98654,-5.77929 31.06344,-5.77929 16.13398,0 28.53521,3.37124 37.2043,10.11372 8.90934,6.50167 15.77242,14.20739 20.58835,23.11711 4.33454,7.94648 7.10392,16.37461 8.30782,25.2843 1.44505,8.90973 2.16728,14.9298 2.16728,18.06026 l 0,35.75925 c -11.55859,6.26086 -27.68663,12.6917 -60.91765,23.76861 -23.14209,8.39123 -52.85155,27.46154 -56.33899,30.36542 0,0 -8.59346,6.05724 -14.80757,3.4426 -6.96422,-2.93034 -7.16176,-11.01764 -7.16176,-11.01764 z"
         style="font-style:normal;font-variant:normal;font-weight:normal;font-stretch:normal;font-size:medium;line-height:125%;font-family:Georgia;-inkscape-font-specification:Georgia;letter-spacing:0px;word-spacing:0px;fill:#1a1a1a;fill-opacity:1;stroke:none;stroke-width:1px;stroke-linecap:butt;stroke-linejoin:miter;stroke-opacity:1"
         inkscape:connector-curvature="0"
         sodipodi:nodetypes="ccscccscccsccsscc" />
    </g>
  </g>
</svg>
