<?xml version="1.0" encoding="UTF-8" standalone="no"?>
<svg
   xmlns:dc="http://purl.org/dc/elements/1.1/"
   xmlns:cc="http://creativecommons.org/ns#"
   xmlns:rdf="http://www.w3.org/1999/02/22-rdf-syntax-ns#"
   xmlns:svg="http://www.w3.org/2000/svg"
   xmlns="http://www.w3.org/2000/svg"
   xmlns:sodipodi="http://sodipodi.sourceforge.net/DTD/sodipodi-0.dtd"
   xmlns:inkscape="http://www.inkscape.org/namespaces/inkscape"
   width="793.700787402"
   height="1122.51968504"
   version="1.1"
   id="svg430"
   sodipodi:docname="Drfraz.svg"
   inkscape:version="0.92.2 (5c3e80d, 2017-08-06)">
  <metadata
     id="metadata434">
    <rdf:RDF>
      <cc:Work
         rdf:about="">
        <dc:format>image/svg+xml</dc:format>
        <dc:type
           rdf:resource="http://purl.org/dc/dcmitype/StillImage" />
        <dc:title></dc:title>
      </cc:Work>
    </rdf:RDF>
  </metadata>
  <sodipodi:namedview
     pagecolor="#ffffff"
     bordercolor="#666666"
     borderopacity="1"
     objecttolerance="10"
     gridtolerance="10"
     guidetolerance="10"
     inkscape:pageopacity="0"
     inkscape:pageshadow="2"
     inkscape:window-width="1920"
     inkscape:window-height="1001"
     id="namedview432"
     showgrid="false"
     inkscape:zoom="5.7584738"
     inkscape:cx="147.3171"
     inkscape:cy="1003.3187"
     inkscape:window-x="-9"
     inkscape:window-y="-9"
     inkscape:window-maximized="1"
     inkscape:current-layer="g428" />
  <desc
     id="desc10">F:\Drfraz.dxf - scale = 1.000000, origin = (0.000000, 0.000000), method = manual</desc>
  <defs
     id="defs24">
    <marker
       id="DistanceX"
       orient="auto"
       refX="0.0"
       refY="0.0"
       style="overflow:visible">
      <path
         d="M 3,-3 L -3,3 M 0,-5 L  0,5"
         style="stroke:#000000; stroke-width:0.5"
         id="path12" />
    </marker>
    <pattern
       height="8"
       id="Hatch"
       patternUnits="userSpaceOnUse"
       width="8"
       x="0"
       y="0">
      <path
         d="M8 4 l-4,4"
         linecap="square"
         stroke="#000000"
         stroke-width="0.25"
         id="path15" />
      <path
         d="M6 2 l-4,4"
         linecap="square"
         stroke="#000000"
         stroke-width="0.25"
         id="path17" />
      <path
         d="M4 0 l-4,4"
         linecap="square"
         stroke="#000000"
         stroke-width="0.25"
         id="path19" />
    </pattern>
    <symbol
       id="*MODEL_SPACE" />
    <symbol
       id="*PAPER_SPACE" />
  </defs>
  <g
     inkscape:groupmode="layer"
     inkscape:label="0"
     id="g26" />
  <g
     inkscape:groupmode="layer"
     inkscape:label="Layer_1"
     id="g428">
    <g
       id="g4326"
       style="fill:none;stroke:#000000;stroke-width:0.62362206;stroke-miterlimit:4;stroke-dasharray:none;stroke-opacity:1"
       transform="matrix(1.0066222,0,0,1.0066222,-0.51954045,-0.97463179)">
      <path
         id="path426"
         style="fill:none;fill-opacity:1;stroke:#000000;stroke-width:0.62362206;stroke-miterlimit:4;stroke-dasharray:none;stroke-opacity:1"
         d="m 138.58962,131.99377 v 0 m 2.1646,-0.90717 c -0.66263,0.43199 -1.41362,0.77758 -2.1646,0.90717 m 1.36944,-1.33916 c 0.26505,0.1296 0.53011,0.30239 0.79516,0.43199 m -2.56218,-0.0864 c 0.48593,-0.43199 1.14856,-0.69118 1.76702,-0.34559 m -2.12042,1.29596 c -0.39758,-0.21599 0.13252,-0.77757 0.3534,-0.95037 m 0.39758,0.99357 c -0.22088,0.0432 -0.53011,0.0432 -0.75098,-0.0432 m 16.12406,-7.04141 v 0 m -2.69471,3.11032 c 0.22088,-0.1728 2.87141,-2.98072 2.69471,-3.11032 m -6.75885,6.60943 c 1.54614,-0.95038 2.82723,-2.20314 4.06414,-3.49911 m -6.44962,4.44948 c 0.88351,-0.1296 1.67867,-0.47519 2.38548,-0.95037 m -4.90349,0.43198 c 0.79516,0.38879 1.6345,0.64799 2.51801,0.51839 m -3.75492,-1.16637 c 0.39758,0.216 0.79516,0.47519 1.23691,0.64798 m -2.03207,-0.21599 c 0.26505,-0.12959 0.53011,-0.30239 0.79516,-0.43199 m -2.73888,1.03677 c 0.66263,0 1.36944,-0.30239 1.94372,-0.60478 m -2.91559,-0.21599 c -0.1767,0.64798 0.48594,0.82077 0.97187,0.82077 m 0.88351,-2.33273 c -0.75099,0.17279 -1.6345,0.77758 -1.85538,1.51196 m 4.06415,-0.86398 c -0.75098,-0.30239 -1.45779,-0.82078 -2.20877,-0.64798 m 6.27292,-2.67833 c -1.28109,1.16637 -2.60635,2.37594 -4.06415,3.32631 m 6.97973,-6.09103 c -0.97186,0.90717 -1.89954,1.85755 -2.91558,2.76472 m 4.06415,-3.88789 c -0.39758,0.38878 -0.75099,0.77757 -1.14857,1.12317 m -1.54614,-0.64799 c 0.88351,-0.1296 1.8112,-0.21599 2.69471,-0.47518 m -7.02391,1.25276 c 1.23692,-0.51838 2.87141,-0.56158 4.3292,-0.77758 m -4.59425,2.15994 c -0.48593,-0.47518 -0.26505,-1.07997 0.26505,-1.38236 m 0.70681,1.90075 c -0.53011,-0.1296 -0.70681,-0.25919 -0.97186,-0.51839 m 1.63449,0.60479 c 0,-0.0432 -0.44175,-0.0432 -0.66263,-0.0864 m 0.13253,0.216 c 0.0442,0 0.57428,-0.0432 0.5301,-0.1296 m -2.42965,-0.90718 c 0.30923,0.73438 1.14856,1.03678 1.89955,1.03678 m -0.48593,-3.02393 c -0.83934,0.2592 -1.8112,0.99358 -1.41362,1.98715 m 8.57005,-3.15351 c -2.3413,0.64798 -4.85931,0.34559 -7.15643,1.16636 m 8.17247,-1.51195 c -0.26506,0 -0.66264,0.25919 -1.01604,0.34559 m 0.83933,0.51838 c 0.44176,-0.25919 0.75099,-0.86397 0.17671,-0.86397 m -1.72285,2.11674 c 0.0883,-0.0864 0.97186,-0.77758 1.54614,-1.25277 m -5.87534,5.14066 c 1.50197,-1.25276 2.91558,-2.59192 4.3292,-3.88789 m -7.55401,6.43662 c 1.14856,-0.73438 2.20877,-1.64155 3.22481,-2.54873 m -1.23691,3.32632 c -0.70681,-0.1728 -1.36944,-0.43199 -1.9879,-0.77759 m 4.77095,0.51839 c -0.92768,0.38879 -1.81119,0.47519 -2.78305,0.2592 m 7.15643,-3.58551 c -1.28109,1.25277 -2.69471,2.59193 -4.37338,3.32631 m 7.42149,-6.43663 c -0.0442,-0.0432 -2.78306,2.85113 -3.04811,3.11032 m -8.96971,-3.02392 v 0 m 0.17671,0 c 0.0883,-0.17279 -0.13253,-0.0432 -0.17671,0 m -0.97186,1.29597 c 0.39758,-0.43199 0.83934,-0.82078 1.14857,-1.29597 m -3.04812,3.19672 c 0.61846,-0.64798 1.28109,-1.29597 1.89955,-1.90075 m -6.09622,5.65904 c 1.50197,-1.07997 2.87141,-2.46233 4.19667,-3.75829 m -5.61029,3.7151 c 0.0442,0.90717 1.01604,0.34559 1.41362,0.0432 m -0.79516,-2.20313 c -0.30923,0.64798 -0.66264,1.42556 -0.61846,2.15994 m 1.45779,-3.7151 c -0.30923,0.51838 -0.57428,1.03677 -0.83933,1.55516 m -5.65447,2.72152 c 1.76702,0 5.34524,-3.15351 6.4938,-4.27668 m -7.50983,2.37593 c -0.13253,0.77758 -0.0442,1.90075 1.01603,1.90075 m -0.0442,-4.44948 c -0.44176,0.77758 -0.83934,1.64156 -0.97186,2.54873 m 4.72677,-6.60942 c -1.50196,0.99357 -2.82723,2.50553 -3.75491,4.06069 m 8.92345,-5.57265 c -1.81119,-0.34559 -3.71074,0.56159 -5.16854,1.51196 m 6.71469,-0.47518 c -0.26506,-0.60479 -0.92769,-0.95038 -1.54615,-1.03678 m 1.4578,1.72796 c 0.26505,-0.0864 0.13252,-0.51839 0.0883,-0.69118 m -0.57429,0.17279 c 0.0884,0.17279 0.22088,0.60478 0.48594,0.51839 m -4.37338,-0.99358 c 1.28109,-0.56158 3.00393,-0.82077 3.88744,0.47519 m -7.37731,2.20314 c 0.97186,-1.07997 2.12043,-2.11674 3.48987,-2.67833 m -5.9637,6.69582 c 0.61846,-1.38236 1.45779,-2.85112 2.47383,-4.01749 m -2.29713,6.09103 c -1.06021,0.0864 -0.39758,-1.59835 -0.1767,-2.07354 m 6.58215,-2.41913 c -1.36944,1.59835 -4.41755,4.31988 -6.40545,4.49267 m 7.68655,-5.96143 c -0.39758,0.51838 -0.83934,0.99357 -1.2811,1.46876 m 1.36945,-1.72795 c 0.0442,0 -0.0442,0.17279 -0.0883,0.25919 m 0.92768,-0.99358 c -0.3534,0.216 -0.61846,0.47519 -0.83933,0.73439 m 1.54614,-0.60479 c 0,-0.38879 -0.53011,-0.216 -0.70681,-0.1296 m 0.22088,1.07997 c 0.1767,-0.25919 0.44175,-0.60478 0.48593,-0.95037 m -3.84327,6.47983 c 0.83933,-1.98715 2.20878,-3.7151 3.35734,-5.52946 m -3.44569,5.87504 c 0,-0.0864 0.0442,-0.25919 0.0883,-0.34558 m 0.92768,-0.1728 c -0.30922,0.21599 -0.66263,0.51838 -1.01603,0.51838 m 2.25295,-1.51195 c -0.39758,0.34559 -0.79516,0.69118 -1.23692,0.99357 m 3.66657,-3.23991 c -0.79516,0.77757 -1.59032,1.51196 -2.42965,2.24634 m 4.41755,-4.23349 c -0.66263,0.64799 -1.32526,1.33917 -1.9879,1.98715 m 3.00394,-2.93752 c -0.3534,0.30239 -0.66263,0.60478 -1.01604,0.95037 m 1.28109,-1.20957 -0.26505,0.2592 m -11.09772,-2.07355 v 0 m -0.26505,0.64798 c 0.30922,-0.0432 0.30922,-0.43198 0.26505,-0.64798 m -0.83934,0.0432 c 0.13253,0.1296 0.35341,0.60478 0.57429,0.60478 m -1.45779,-1.07997 c 0.30922,0.0432 0.66263,0.216 0.8835,0.47519 m -3.44569,0.1296 c 0.75099,-0.38879 1.67867,-0.77758 2.56219,-0.60479 m -7.99578,5.78865 c 1.54615,-1.98715 3.26899,-4.06069 5.43359,-5.18386 m -8.305,9.15815 c 0.70681,-0.82078 2.25296,-3.11032 2.87141,-3.97429 m -3.09229,4.01749 c 0.0442,0.1296 0.17671,0 0.22088,-0.0432 m 4.68261,-9.15815 c -1.72285,2.93752 -3.62239,6.09103 -4.90349,9.20135 m 5.69865,-9.71974 c -0.3534,0.0432 -0.61846,0.216 -0.79516,0.51839 m 1.23691,-0.1296 c 0.0884,-0.25919 -0.22087,-0.38879 -0.44175,-0.38879 m -1.89955,4.36308 c 0.75099,-1.29596 1.6345,-2.63512 2.3413,-3.97429 m 2.25296,-0.25919 c -2.03208,1.25276 -3.35734,2.76473 -4.59426,4.23348 m 8.39335,-4.79507 c -1.19274,-0.77758 -2.73888,-0.12959 -3.79909,0.56159 m 4.41755,0.21599 c -0.0883,-0.30239 -0.30923,-0.60478 -0.61846,-0.77758 m -20.13782,14.7308 v 0 m 2.60636,-5.27025 c -0.88352,1.77115 -1.72285,3.5423 -2.60636,5.27025 m -3.22482,0.60479 c 1.72285,-2.15994 3.71075,-4.10389 5.83118,-5.87504 m -8.79094,10.23812 c 0.83934,-1.51195 1.85537,-2.98072 2.95976,-4.36308 m -4.1525,8.33737 c -0.30923,-0.90717 0.57428,-2.72152 1.19274,-3.97429 m 1.76702,2.28954 c -0.66263,0.82078 -2.60635,2.80792 -2.95976,1.68475 m 4.55008,-3.88789 c -0.48593,0.73438 -1.01603,1.51196 -1.59032,2.20314 m 4.41756,-7.25741 c -0.88351,1.72796 -1.76702,3.41271 -2.82724,5.05427 M 128.4679,109.012 v 0 m -0.30923,-0.99358 c 0.44176,0.0432 0.35341,0.69118 0.30923,0.99358 m -1.41362,-0.51839 c 0.26506,-0.216 0.70681,-0.51839 1.10439,-0.47519 m -4.81513,4.88147 c 1.01604,-1.55516 2.20878,-3.23991 3.71074,-4.40628 m -6.62632,9.41734 c 0.92768,-1.68475 1.85537,-3.36951 2.91558,-5.01106 m -6.4938,12.05247 c 1.14856,-2.33273 2.29713,-4.70867 3.57822,-7.04141 m -0.97186,4.49268 c -0.83934,0.86398 -1.72285,1.72796 -2.60636,2.54873 m 8.17247,-9.15815 c -1.67867,2.37594 -3.53404,4.53588 -5.56611,6.60942 m 8.08411,-10.71331 c -0.7068,1.46876 -1.63449,2.80793 -2.518,4.10389 m 3.44569,-6.78221 c -0.13253,0.95037 -0.53011,1.85755 -0.92769,2.67832 m 1.10439,-4.06069 v 0 m 0.39758,0.99358 c 0,-0.3888 -0.0883,-0.73439 -0.39758,-0.99358 m -0.3534,3.6287 c 0.3534,-0.82077 0.75098,-1.72795 0.75098,-2.63512 m -4.19667,8.03498 c 1.28109,-1.68476 2.56218,-3.45591 3.44569,-5.39986 m -7.59819,10.32452 c 1.50197,-1.55515 2.87141,-3.19671 4.1525,-4.92466 m -8.305,8.98536 c 1.41362,-1.33917 2.82723,-2.63513 4.1525,-4.0607 m -6.1404,8.16459 c 0.61846,-1.38237 1.32527,-2.76473 1.9879,-4.10389 m 2.03208,1.29596 c -1.36945,0.90717 -2.73889,1.81435 -4.01998,2.80793 m 7.37731,-4.75188 c -0.0442,-0.0864 -3.13646,1.81436 -3.35733,1.94395 m 0.1767,0.25919 c 0.22087,-0.17279 3.26899,-2.07354 3.18063,-2.20314 m -7.68654,5.39986 c 1.45779,-1.12317 2.95976,-2.15994 4.50591,-3.19672 M 109.87,139.03519 c 1.59032,-2.80793 2.95976,-5.74545 4.37338,-8.63977 m -7.46566,13.39164 c 1.19274,-1.46877 2.20877,-3.06712 3.09228,-4.75187 m -6.84721,7.81898 c 1.19274,-0.17279 2.73889,-1.85755 3.75493,-3.06711 m -4.81514,1.42556 c -0.13253,0.73438 0.0442,1.77115 1.06021,1.64155 m -0.13252,-4.10389 c -0.39758,0.77758 -0.79516,1.64156 -0.92769,2.46234 m 3.9758,-7.12781 c -1.14856,1.46876 -2.20878,3.02392 -3.04811,4.66547 m 9.89532,-11.57728 c -2.56218,2.03034 -4.85931,4.31988 -6.84721,6.91181 m 8.87928,-11.1021 c -0.57428,1.07997 -1.36944,2.80793 -2.03207,4.19029 m 4.72678,-9.59015 c -0.92768,1.77116 -1.8112,3.58551 -2.69471,5.39986 m 8.74676,-15.59478 c -2.3413,3.19671 -4.19668,6.69582 -6.05205,10.19492 m 9.93949,-13.99642 c -1.45779,0.73438 -2.82723,2.46234 -3.88744,3.8015 m 5.08018,-3.7583 c -0.3534,-0.25919 -0.83933,-0.21599 -1.19274,-0.0432 m -11.45112,15.59478 v 0 m -0.26505,0.64798 c 0.30923,-0.0432 0.30923,-0.43198 0.26505,-0.64798 m -0.83934,0.0432 c 0.13253,0.1296 0.35341,0.60478 0.57429,0.60478 m -1.4578,-1.07997 c 0.30923,0.0432 0.66264,0.216 0.88351,0.47519 m -3.44569,0.1296 c 0.75099,-0.38879 1.67867,-0.77758 2.56218,-0.60479 m -7.99577,5.78865 c 1.54615,-1.98715 3.26899,-4.06069 5.43359,-5.18386 m -8.305,9.15815 c 0.70681,-0.82078 2.25295,-3.11032 2.87141,-3.97429 m -3.09229,4.01749 c 0.0442,0.1296 0.1767,0 0.22088,-0.0432 m 4.68261,-9.15815 c -1.72285,2.93752 -3.6224,6.09103 -4.90349,9.20135 m 5.69865,-9.71974 c -0.3534,0.0432 -0.61845,0.216 -0.79516,0.51839 m 1.23692,-0.1296 c 0.0883,-0.25919 -0.22088,-0.38879 -0.44176,-0.38879 m -1.89955,4.36308 c 0.75099,-1.29596 1.6345,-2.63512 2.34131,-3.97429 m 2.25295,-0.25919 c -2.03208,1.25276 -3.35734,2.76473 -4.59426,4.23348 m 8.39335,-4.79507 c -1.19274,-0.77758 -2.73888,-0.12959 -3.79909,0.56159 m 4.41755,0.21599 c -0.0883,-0.30239 -0.30923,-0.60478 -0.61846,-0.77758 m -27.421959,3.6719 v 0 m -2.871409,4.49268 c 1.104386,-1.55516 1.987899,-3.06711 2.871409,-4.49268 m -3.445693,5.18386 c 0.132529,-0.0864 0.441755,-0.47518 0.574284,-0.69118 m -0.48593,0.25919 c 0,0 -0.220879,0.51839 -0.08835,0.43199 m 2.385479,-4.88146 c -0.750984,1.46875 -1.634494,2.89432 -2.297125,4.44947 m -0.618459,-3.3263 c 0.97186,-0.43199 1.943724,-0.82078 2.915584,-1.12317 m -6.891383,3.97429 c 1.10439,-1.25277 2.518005,-2.15994 3.975799,-2.85112 m -4.815133,4.96786 c -0.220876,-0.77758 0.309229,-1.55516 0.839334,-2.11674 m 1.19274,3.5855 c -0.79516,-0.17279 -1.811195,-0.56158 -2.032074,-1.46876 m 7.377312,1.12317 c -1.722844,0.43199 -3.622393,0.69118 -5.345238,0.34559 m 10.513776,-2.03034 c -1.678669,0.73438 -3.401514,1.25276 -5.168538,1.68475 m 14.622094,-7.90538 c -2.783052,2.63512 -5.963691,4.75187 -9.453556,6.22063 m -3.754919,-5.83185 c 4.461729,-1.12317 9.100158,-1.38236 13.208475,-0.38878 m -1.281083,-19.74188 v 0 m -2.47383,4.1903 c 0.839335,-1.42557 1.67867,-2.80793 2.47383,-4.1903 m -11.706516,19.74188 c 3.136463,-5.14066 6.184573,-10.36773 9.232686,-15.55158 m 4.019973,15.29238 c -4.373377,-0.99357 -9.055981,-0.77758 -13.252659,0.2592 m 18.862949,-8.16459 c -1.23692,2.93752 -3.26899,5.65905 -5.61029,7.90539 m 6.36127,-14.7308 c 0.88352,2.33273 0.17671,4.62227 -0.75098,6.82541 m -2.73888,-10.49731 c 1.59032,0.77758 2.87141,2.03034 3.48986,3.6719 m -7.907413,-4.75188 c 1.546143,0.0864 3.048103,0.38879 4.417553,1.07998 m -1.89955,18.6619 v 0 m 1.94372,0.86397 c -0.61846,-0.34559 -1.28109,-0.64798 -1.94372,-0.86397 m 3.35734,2.15993 c 0.1767,-0.12959 -0.97186,-1.03676 -1.41362,-1.29596 m 1.06021,1.03677 c 0.13253,0.0864 0.30923,0.25919 0.35341,0.25919 m -3.6224,-1.90074 c 1.19274,0.34559 2.34131,0.86398 3.26899,1.64155 m -14.798795,5.31346 c 4.240853,-1.51196 8.260823,-3.8879 11.529805,-6.95501 m -17.095919,8.38057 c 1.899545,-0.25919 3.754919,-0.77758 5.566114,-1.42556 m -8.570052,1.55516 c 1.016039,0.0864 2.032074,0 3.003938,-0.1296 m -5.521943,-0.73438 c 0.662635,0.56158 1.634495,0.77758 2.518005,0.86398 m -3.13646,-3.11032 c -0.30923,0.82078 -0.132529,1.68475 0.618455,2.24634 m 0.750985,-4.01749 c -0.530105,0.51838 -1.104389,1.07997 -1.36944,1.77115 m 6.228748,-4.66547 c -1.76702,0.64798 -3.489868,1.59835 -4.859308,2.89432 m 6.847207,-3.5855 c -0.662634,0.17279 -1.325268,0.43199 -1.987899,0.69118 m 5.875344,-7.5166 c -1.325265,2.24634 -2.606355,4.53588 -3.887445,6.82542 m 9.276858,-16.11317 c -1.811195,3.06712 -3.666568,6.17744 -5.389413,9.28775 m 7.730717,-13.26205 c -0.265054,0.51839 -1.590319,2.67834 -2.341304,3.9743 m -12.810901,1.81435 c 3.843269,-3.88789 9.674442,-5.70225 15.152205,-5.78865 m -17.493509,9.37415 c 0.265055,-1.38236 1.369444,-2.63512 2.341304,-3.5855 m -2.120425,4.79507 c -0.309229,-0.34559 -0.309229,-0.82078 -0.220879,-1.20957 m 1.369444,1.51196 c -0.39758,0 -0.839335,-0.0432 -1.148565,-0.30239 m 2.429655,0.216 c -0.39758,-0.0432 -0.839335,0.0864 -1.28109,0.0864 m 1.016035,0.47519 c 0.176704,-0.0864 0.750985,-0.47519 0.265055,-0.56158 m -2.606359,0.47519 c 0.662635,0.47518 1.634495,0.43198 2.341304,0.0864 m -2.915584,-2.37593 c -0.265055,0.82077 -0.22088,1.77115 0.57428,2.28954 m 2.783059,-6.52303 c -1.36944,1.07997 -2.827234,2.54873 -3.357339,4.23349 m 7.863243,-6.99822 c -1.634495,0.69119 -3.13646,1.64156 -4.505904,2.76473 m 14.887155,-5.05426 c -3.578219,0.0432 -7.112262,0.86397 -10.381251,2.28953 m 11.308936,-3.5855 c -0.353405,0.38879 -0.662635,0.82078 -0.927685,1.29597 m 1.678668,-1.90075 c -0.30923,0.12959 -0.53011,0.38878 -0.750983,0.60478 m 0.662633,0.47518 c 0.0884,-0.12959 0.7068,-1.29596 0.0884,-1.07996 m -0.57429,1.94394 c 0.17671,-0.30239 0.35341,-0.60478 0.48594,-0.86398 m 4.81513,2.20315 c -1.6345,-0.86398 -3.44569,-1.25277 -5.30107,-1.33917 m 7.64237,3.32632 c -0.61846,-0.77758 -1.41361,-1.51196 -2.3413,-1.98715 m 3.71075,7.2574 c 0.22087,-1.85755 -0.17671,-3.7583 -1.36945,-5.27025 m 0.53011,8.33737 c 0.39758,-0.99357 0.70681,-2.03035 0.83934,-3.06712 m -6.67051,11.4477 c 2.47383,-2.33274 4.55008,-5.27027 5.83117,-8.38058"
         inkscape:connector-curvature="0" />
    </g>
  </g>
</svg>
