<?xml version="1.0" encoding="UTF-8" standalone="no"?>
<!-- Created with Inkscape (http://www.inkscape.org/) -->

<svg
   xmlns:dc="http://purl.org/dc/elements/1.1/"
   xmlns:cc="http://creativecommons.org/ns#"
   xmlns:rdf="http://www.w3.org/1999/02/22-rdf-syntax-ns#"
   xmlns:svg="http://www.w3.org/2000/svg"
   xmlns="http://www.w3.org/2000/svg"
   xmlns:sodipodi="http://sodipodi.sourceforge.net/DTD/sodipodi-0.dtd"
   xmlns:inkscape="http://www.inkscape.org/namespaces/inkscape"
   width="354.33069"
   height="354.33069"
   id="svg2"
   version="1.1"
   inkscape:version="0.48.4 r9939"
   sodipodi:docname="41mm_ruler.svg">
  <defs
     id="defs4" />
  <sodipodi:namedview
     id="base"
     pagecolor="#ffffff"
     bordercolor="#666666"
     borderopacity="1.0"
     inkscape:pageopacity="0.0"
     inkscape:pageshadow="2"
     inkscape:zoom="3.2720178"
     inkscape:cx="52.294852"
     inkscape:cy="67.08887"
     inkscape:document-units="mm"
     inkscape:current-layer="layer1"
     showgrid="true"
     inkscape:window-width="1366"
     inkscape:window-height="702"
     inkscape:window-x="0"
     inkscape:window-y="27"
     inkscape:window-maximized="1"
     units="mm"
     inkscape:object-nodes="true">
    <inkscape:grid
       type="xygrid"
       id="grid3004"
       empspacing="5"
       visible="true"
       enabled="true"
       snapvisiblegridlinesonly="true"
       units="mm"
       spacingx="1mm"
       spacingy="1mm" />
  </sodipodi:namedview>
  <metadata
     id="metadata7">
    <rdf:RDF>
      <cc:Work
         rdf:about="">
        <dc:format>image/svg+xml</dc:format>
        <dc:type
           rdf:resource="http://purl.org/dc/dcmitype/StillImage" />
        <dc:title></dc:title>
      </cc:Work>
    </rdf:RDF>
  </metadata>
  <g
     inkscape:label="Layer 1"
     inkscape:groupmode="layer"
     id="layer1"
     transform="translate(0,-698.03148)">
    <path
       style="fill:none;stroke:#ff0000;stroke-width:1px;stroke-linecap:butt;stroke-linejoin:miter;stroke-opacity:1"
       d="m 0,354.33069 0,-152.36221 53.149606,0 10.629922,5.31497 -10.629922,5.31496 0,42.51968 17.716536,0 21.259842,65.55118 19.488186,0 7.08662,-7.08662 7.08661,7.08662 0,26.5748 -7.08661,7.08662 -7.08662,-7.08662 -8.85826,7.08662 z"
       id="path3006"
       inkscape:connector-curvature="0"
       transform="translate(0,698.03148)"
       sodipodi:nodetypes="cccccccccccccccc" />
    <path
       style="fill:none;stroke:#b3b3b3;stroke-width:1px;stroke-linecap:butt;stroke-linejoin:miter;stroke-opacity:1"
       d="m 63.779528,209.0551 0,35.43307 15.944881,0"
       id="path3008"
       inkscape:connector-curvature="0"
       transform="translate(0,698.03148)"
       sodipodi:nodetypes="ccc" />
    <path
       style="fill:none;stroke:#b3b3b3;stroke-width:1px;stroke-linecap:butt;stroke-linejoin:miter;stroke-opacity:1"
       d="m 79.724409,942.51965 17.716542,60.07415 17.716529,0.1621 3.54331,3.5433 3.54331,-3.5433 17.71654,-0.1621 17.71653,-60.07415 z"
       id="path3782"
       inkscape:connector-curvature="0"
       sodipodi:nodetypes="cccccccc" />
    <path
       style="fill:none;stroke:#000000;stroke-width:0.70866142;stroke-linecap:butt;stroke-linejoin:miter;stroke-opacity:1;stroke-miterlimit:4;stroke-dasharray:none"
       d="m 118.70433,1012.8744 0,10.9089"
       id="path3784"
       inkscape:connector-curvature="0" />
    <path
       inkscape:connector-curvature="0"
       id="path3786"
       d="m 118.70433,1027.4195 0,10.9089"
       style="fill:none;stroke:#000000;stroke-width:0.70866142;stroke-linecap:butt;stroke-linejoin:miter;stroke-opacity:1;stroke-miterlimit:4;stroke-dasharray:none" />
    <path
       style="fill:none;stroke:#000000;stroke-width:0.70866142;stroke-linecap:butt;stroke-linejoin:miter;stroke-opacity:1;stroke-miterlimit:4;stroke-dasharray:none"
       d="m 118.70433,1041.9646 0,10.9088"
       id="path3788"
       inkscape:connector-curvature="0" />
    <path
       sodipodi:type="arc"
       style="opacity:1;fill:none;stroke:#0000ff;stroke-width:0.70866143999999998;stroke-linecap:round;stroke-linejoin:miter;stroke-miterlimit:4;stroke-dasharray:none"
       id="path3790"
       sodipodi:cx="17.716536"
       sodipodi:cy="336.61417"
       sodipodi:rx="10.629921"
       sodipodi:ry="10.629921"
       d="m 28.346457,336.61417 a 10.629921,10.629921 0 1 1 -21.2598424,0 10.629921,10.629921 0 1 1 21.2598424,0 z"
       transform="matrix(0.66666669,0,0,0.66666669,5.9055114,810.23618)" />
    <g
       style="font-size:16px;font-style:normal;font-variant:normal;font-weight:normal;font-stretch:normal;text-align:start;line-height:125%;letter-spacing:0px;word-spacing:0px;text-anchor:start;fill:none;stroke:#00ff00;font-family:Linux Libertine O;-inkscape-font-specification:Linux Libertine O"
       id="text3792">
      <path
         d="m 20.532536,1011.2011 c -0.032,-0.64 -0.064,-1.04 -0.128,-1.216 -0.048,-0.064 -0.064,-0.128 -0.192,-0.128 -0.448,0.176 -0.864002,0.32 -1.968,0.464 -0.032,0.096 0,0.352 0.032,0.448 0.863999,0.08 1.04,0.16 1.04,1.088 l 0,3.12 c 0,1.328 -0.192001,1.392 -1.184,1.456 -0.096,0.096 -0.096,0.432 0,0.528 0.559999,-0.016 1.184,-0.032 1.824,-0.032 0.639999,0 1.376,0.016 1.936,0.032 0.096,-0.096 0.096,-0.432 0,-0.528 -1.119999,-0.08 -1.312,-0.128 -1.312,-1.456 l 0,-2.224 c 0,-0.416 0.192,-0.784 0.384,-1.072 0.175999,-0.256 0.544,-0.784 0.736,-0.784 0.143999,0 0.288,0.048 0.4,0.208 0.127999,0.16 0.304,0.368 0.592,0.368 0.383999,0 0.752,-0.4 0.752,-0.8 0,-0.304 -0.288001,-0.768 -0.96,-0.768 -0.752,0 -1.408001,0.704 -1.776,1.328 -0.096,0.176 -0.176,0.048 -0.176,-0.032"
         style=""
         id="path3816" />
      <path
         d="m 27.126036,1017.0891 c 0.623999,0 1.376,-0.32 2.16,-0.96 0.08,-0.064 0.224,-0.096 0.24,0.016 0.032,0.416 0.176,0.944 0.176,0.944 0.127999,0.048 0.192,0.048 0.304,0 0.351999,-0.288 0.912001,-0.528 1.888,-0.64 0.096,-0.096 0.096,-0.336 0,-0.432 -1.023999,-0.08 -1.168,-0.384 -1.168,-1.168 l 0,-3.072 c 0,-0.48 0.064,-1.648 0.064,-1.648 0,-0.048 -0.048,-0.096 -0.128,-0.096 -0.08,0.016 -0.320001,0.032 -0.56,0.032 -0.512,0 -1.088001,-0.016 -1.632,-0.032 -0.096,0.096 -0.096,0.432 0,0.528 0.783999,0.048 0.992,0.24 0.992,1.296 l 0,3.088 c 0,0.304 -0.032,0.432 -0.256,0.624 -0.592,0.512 -1.200001,0.768 -1.6,0.768 -0.48,0 -1.28,-0.224 -1.28,-1.648 l 0,-2.912 c 0,-0.48 0.064,-1.648 0.064,-1.648 0,-0.048 -0.048,-0.096 -0.128,-0.096 -0.08,0.016 -0.320001,0.032 -0.56,0.032 -0.512,0 -1.088001,-0.016 -1.632,-0.032 -0.096,0.096 -0.096,0.432 0,0.528 0.767999,0.064 0.992,0.24 0.992,1.28 l 0,3.072 c 0,1.104 0.480001,2.176 2.064,2.176"
         style=""
         id="path3818" />
      <path
         d="m 33.674036,1014.9771 c 0,1.328 -0.176001,1.408 -1.152,1.456 -0.096,0.096 -0.096,0.432 0,0.528 0.559999,-0.016 1.152,-0.032 1.792,-0.032 0.639999,0 1.248,0.016 1.776,0.032 0.096,-0.096 0.096,-0.432 0,-0.528 -0.975999,-0.048 -1.152,-0.128 -1.152,-1.456 l 0,-7.376 c 0,-1.04 0.064,-1.68 0.064,-1.68 0,-0.112 -0.064,-0.16 -0.208,-0.16 -0.4,0.16 -1.600001,0.384 -2.24,0.432 -0.032,0.128 0,0.384 0.096,0.48 0.927999,0.064 1.024,0.112 1.024,1.312 l 0,6.992"
         style=""
         id="path3820" />
      <path
         d="m 38.356786,1012.4171 c 0.303999,-1.808 1.424,-1.952 1.808,-1.952 0.607999,0 1.328,0.336 1.328,1.68 0,0.144 -0.064,0.224 -0.24,0.224 l -2.896,0.048 m 4.192,3.024 c -0.592,0.608 -1.056001,0.864 -1.984,0.864 -0.576,0 -1.248001,-0.336 -1.744,-1.152 -0.32,-0.528 -0.512,-1.264 -0.512,-2.192 l 4.256,0.032 c 0.191999,0 0.304,-0.096 0.304,-0.272 0,-1.344 -0.480003,-2.784 -2.704,-2.784 -1.391999,0 -3.2,1.328 -3.2,3.76 0,0.896 0.224,1.76 0.752,2.368 0.543999,0.64 1.296001,1.024 2.448,1.024 1.215998,0 2.08,-0.56 2.72,-1.392 -0.048,-0.16 -0.144001,-0.24 -0.336,-0.256"
         style=""
         id="path3822" />
      <path
         d="m 46.345036,1011.2011 c -0.032,-0.64 -0.064,-1.04 -0.128,-1.216 -0.048,-0.064 -0.064,-0.128 -0.192,-0.128 -0.448,0.176 -0.864002,0.32 -1.968,0.464 -0.032,0.096 0,0.352 0.032,0.448 0.863999,0.08 1.04,0.16 1.04,1.088 l 0,3.12 c 0,1.328 -0.192001,1.392 -1.184,1.456 -0.096,0.096 -0.096,0.432 0,0.528 0.559999,-0.016 1.184,-0.032 1.824,-0.032 0.639999,0 1.376,0.016 1.936,0.032 0.096,-0.096 0.096,-0.432 0,-0.528 -1.119999,-0.08 -1.312,-0.128 -1.312,-1.456 l 0,-2.224 c 0,-0.416 0.192,-0.784 0.384,-1.072 0.175999,-0.256 0.544,-0.784 0.736,-0.784 0.143999,0 0.288,0.048 0.4,0.208 0.127999,0.16 0.304,0.368 0.592,0.368 0.383999,0 0.752,-0.4 0.752,-0.8 0,-0.304 -0.288001,-0.768 -0.96,-0.768 -0.752,0 -1.408001,0.704 -1.776,1.328 -0.096,0.176 -0.176,0.048 -0.176,-0.032"
         style=""
         id="path3824" />
    </g>
  </g>
</svg>
