<?xml version="1.0" encoding="UTF-8" standalone="no"?>
<!-- Created with Inkscape (http://www.inkscape.org/) -->

<svg
   xmlns:dc="http://purl.org/dc/elements/1.1/"
   xmlns:cc="http://creativecommons.org/ns#"
   xmlns:rdf="http://www.w3.org/1999/02/22-rdf-syntax-ns#"
   xmlns:svg="http://www.w3.org/2000/svg"
   xmlns="http://www.w3.org/2000/svg"
   xmlns:sodipodi="http://sodipodi.sourceforge.net/DTD/sodipodi-0.dtd"
   xmlns:inkscape="http://www.inkscape.org/namespaces/inkscape"
   width="1062.9921"
   height="1062.9921"
   id="svg2"
   version="1.1"
   inkscape:version="0.48.4 r9939"
   sodipodi:docname="Gerald_Ruler_608.svg">
  <defs
     id="defs4">
    <inkscape:perspective
       sodipodi:type="inkscape:persp3d"
       inkscape:vp_x="0 : 531.49603 : 1"
       inkscape:vp_y="0 : 1000 : 0"
       inkscape:vp_z="1062.9921 : 531.49603 : 1"
       inkscape:persp3d-origin="531.49603 : 354.33069 : 1"
       id="perspective3773" />
  </defs>
  <sodipodi:namedview
     id="base"
     pagecolor="#ffffff"
     bordercolor="#666666"
     borderopacity="1.0"
     inkscape:pageopacity="0.0"
     inkscape:pageshadow="2"
     inkscape:zoom="1.2858494"
     inkscape:cx="162.97559"
     inkscape:cy="117.82618"
     inkscape:document-units="mm"
     inkscape:current-layer="layer1"
     showgrid="true"
     units="mm"
     inkscape:object-nodes="true"
     inkscape:object-paths="true"
     inkscape:snap-smooth-nodes="true"
     inkscape:snap-intersection-paths="true"
     inkscape:window-width="1366"
     inkscape:window-height="702"
     inkscape:window-x="0"
     inkscape:window-y="27"
     inkscape:window-maximized="1">
    <inkscape:grid
       type="xygrid"
       id="grid2985"
       empspacing="5"
       visible="true"
       enabled="true"
       snapvisiblegridlinesonly="true"
       units="mm"
       spacingx="1mm"
       spacingy="1mm" />
  </sodipodi:namedview>
  <metadata
     id="metadata7">
    <rdf:RDF>
      <cc:Work
         rdf:about="">
        <dc:format>image/svg+xml</dc:format>
        <dc:type
           rdf:resource="http://purl.org/dc/dcmitype/StillImage" />
        <dc:title></dc:title>
      </cc:Work>
    </rdf:RDF>
  </metadata>
  <g
     inkscape:groupmode="layer"
     id="layer2"
     inkscape:label="Layout"
     style="display:none">
    <rect
       transform="translate(0,10.629915)"
       style="fill:none;stroke:#ffff00;stroke-width:0.70866144;stroke-linecap:round;stroke-linejoin:round;stroke-miterlimit:4;stroke-dasharray:none"
       id="rect3024"
       width="106.29921"
       height="194.8819"
       x="3.0036986e-06"
       y="857.48029" />
    <g
       id="g3037"
       transform="translate(-172.73623,20.678737)">
      <path
         sodipodi:nodetypes="ccccc"
         inkscape:connector-curvature="0"
         id="rect3026"
         d="m 190.45276,938.97626 70.86615,0 -26.5748,24.80321 -17.71654,0 z"
         style="fill:none;stroke:#000000;stroke-width:0.70866144;stroke-linecap:round;stroke-linejoin:round;stroke-miterlimit:4" />
      <rect
         y="885.82666"
         x="190.45276"
         height="53.149605"
         width="70.866142"
         id="rect3028"
         style="fill:none;stroke:#000000;stroke-width:0.70866144;stroke-linecap:round;stroke-linejoin:round;stroke-miterlimit:4;stroke-dasharray:none" />
      <path
         style="fill:none;stroke:#000000;stroke-width:0.70866144;stroke-linecap:round;stroke-linejoin:round;stroke-miterlimit:4"
         d="m 180.70867,850.39368 90.35433,0 3.54331,3.5433 0,28.34646 -3.54331,3.54331 -90.35433,0 -3.54331,-3.54331 0,-28.34646 z"
         id="rect3030"
         inkscape:connector-curvature="0"
         sodipodi:nodetypes="ccccccccc" />
      <rect
         y="844.37006"
         x="186.90947"
         height="6.023622"
         width="77.952744"
         id="rect3032"
         style="fill:none;stroke:#000000;stroke-width:0.6647833;stroke-linecap:round;stroke-linejoin:round;stroke-miterlimit:4;stroke-dasharray:none" />
      <path
         style="fill:none;stroke:#000000;stroke-width:0.70866144;stroke-linecap:round;stroke-linejoin:round;stroke-miterlimit:4"
         d="m 180.70867,794.76373 90.35433,0 3.54331,3.54331 0,42.51969 -3.54331,3.5433 -90.35433,0 -3.54331,-3.5433 0,-42.51969 z"
         id="rect3034"
         inkscape:connector-curvature="0"
         sodipodi:nodetypes="ccccccccc" />
    </g>
  </g>
  <g
     inkscape:label="3mm"
     inkscape:groupmode="layer"
     id="layer1"
     transform="translate(0,10.629915)">
    <path
       style="fill:none;stroke:#ff0000;stroke-width:0.70866142;stroke-linecap:butt;stroke-linejoin:miter;stroke-opacity:1;stroke-miterlimit:4;stroke-dasharray:none"
       d="m 109.84252,914.17317 -14.173229,0 0,53.1496 -31.889763,28.34646 -3.543308,0 -7.086614,-3.54331 -7.086614,3.54331 0,63.77957 7.086614,3.5433 7.086614,-3.5433 7.086615,3.5433 92.125985,0 0,-205.51185 -49.6063,0 -12.18627,10.64474 12.18627,10.61511 z"
       id="path3080"
       inkscape:connector-curvature="0"
       transform="translate(0,-10.629915)"
       sodipodi:nodetypes="ccccccccccccccccc" />
    <g
       id="g3102"
       transform="translate(-0.0066437,3.549152)"
       style="stroke-width:0.70866142;stroke-miterlimit:4;stroke-dasharray:none">
      <path
         id="path3093"
         transform="translate(0,-10.629915)"
         d="m 53.15625,992.125 0,10.625 0,-10.625 z m 0,17.7188 0,10.625 0,-10.625 z m 0,17.7187 0,10.625 0,-10.625 z m 0,17.7187 0,10.625 0,-10.625 z"
         style="fill:none;stroke:#000000;stroke-width:0.70866142;stroke-linecap:butt;stroke-linejoin:miter;stroke-opacity:1;stroke-miterlimit:4;stroke-dasharray:none"
         inkscape:connector-curvature="0" />
    </g>
    <g
       style="font-size:14px;font-style:normal;font-variant:normal;font-weight:normal;font-stretch:normal;text-align:start;line-height:125%;letter-spacing:0px;word-spacing:0px;text-anchor:start;fill:none;stroke:#00ff00;font-family:Linux Libertine O;-inkscape-font-specification:Linux Libertine O;stroke-width:0.70866142;stroke-miterlimit:4;stroke-dasharray:none"
       id="text3110">
      <path
         d="m 118.45402,854.97356 c 0.602,0 1.162,0.364 1.162,1.274 0,0.7 -0.812,1.764 -2.198,1.96 l 0.07,0.448 c 0.238,-0.028 0.49,-0.028 0.672,-0.028 0.798,0 1.834,0.224 1.834,1.806 0,1.862 -1.246,2.24 -1.736,2.24 -0.714,0 -0.84,-0.322 -1.008,-0.574 -0.14,-0.196 -0.322,-0.364 -0.602,-0.364 -0.294,0 -0.588,0.266 -0.588,0.49 0,0.56 1.176,0.938 2.016,0.938 1.666,0 3.15,-1.078 3.15,-2.926 0,-1.526 -1.148,-2.072 -1.974,-2.212 l -0.014,-0.028 c 1.148,-0.532 1.47,-1.12 1.47,-1.848 0,-0.42 -0.098,-0.77 -0.434,-1.12 -0.308,-0.308 -0.798,-0.546 -1.526,-0.546 -2.05799,0 -2.646,1.344 -2.646,1.806 0,0.196 0.14,0.476 0.476,0.476 0.49,0 0.546,-0.462 0.546,-0.728 0,-0.896 0.966,-1.064 1.33,-1.064"
         style="stroke-width:0.70866142;stroke-miterlimit:4;stroke-dasharray:none"
         id="path3142" />
      <path
         d="m 127.83184,858.01156 c -0.028,-0.406 -0.056,-0.91 -0.112,-1.064 -0.042,-0.056 -0.056,-0.112 -0.168,-0.112 -0.392,0.154 -0.75601,0.28 -1.722,0.406 -0.028,0.084 0,0.308 0.028,0.392 0.75599,0.07 0.91,0.14 0.91,0.952 l 0,2.73 c 0,1.148 -0.18201,1.218 -0.952,1.274 -0.084,0.084 -0.084,0.378 0,0.462 0.42,-0.014 0.952,-0.028 1.512,-0.028 0.56,0 0.98,0.014 1.4,0.028 0.084,-0.084 0.084,-0.378 0,-0.462 -0.7,-0.07 -0.854,-0.126 -0.854,-1.274 l 0,-2.296 c 0,-0.294 0.126,-0.462 0.238,-0.588 0.546,-0.532 1.078,-0.826 1.512,-0.826 0.532,0 0.924,0.336 0.924,1.274 l 0,2.436 c 0,1.148 -0.11201,1.218 -0.868,1.274 -0.07,0.084 -0.07,0.378 0,0.462 0.35,-0.014 0.868,-0.028 1.428,-0.028 0.56,0 1.022,0.014 1.372,0.028 0.07,-0.084 0.07,-0.378 0,-0.462 -0.7,-0.056 -0.826,-0.126 -0.826,-1.274 l 0,-2.226 c 0,-0.196 0,-0.392 -0.014,-0.56 0.67199,-0.742 1.302,-0.924 1.848,-0.924 0.532,0 0.84,0.308 0.84,1.246 l 0,2.464 c 0,1.148 -0.14001,1.218 -0.868,1.274 -0.07,0.084 -0.07,0.378 0,0.462 0.35,-0.014 0.868,-0.028 1.428,-0.028 0.56,0 1.05,0.014 1.442,0.028 0.07,-0.084 0.07,-0.378 0,-0.462 -0.77,-0.056 -0.896,-0.126 -0.896,-1.274 l 0,-2.212 c 0,-1.246 -0.21001,-2.226 -1.442,-2.226 -0.728,0 -1.58201,0.266 -2.31,1.036 -0.042,0.042 -0.126,0.112 -0.154,0 -0.14,-0.574 -0.67201,-1.036 -1.4,-1.036 -0.812,0 -1.554,0.49 -2.128,1.134 -0.07,0.084 -0.168,0.168 -0.168,0"
         style="stroke-width:0.70866142;stroke-miterlimit:4;stroke-dasharray:none"
         id="path3144" />
      <path
         d="m 138.87871,858.01156 c -0.028,-0.406 -0.056,-0.91 -0.112,-1.064 -0.042,-0.056 -0.056,-0.112 -0.168,-0.112 -0.392,0.154 -0.756,0.28 -1.722,0.406 -0.028,0.084 0,0.308 0.028,0.392 0.756,0.07 0.91,0.14 0.91,0.952 l 0,2.73 c 0,1.148 -0.182,1.218 -0.952,1.274 -0.084,0.084 -0.084,0.378 0,0.462 0.42,-0.014 0.952,-0.028 1.512,-0.028 0.56,0 0.98,0.014 1.4,0.028 0.084,-0.084 0.084,-0.378 0,-0.462 -0.7,-0.07 -0.854,-0.126 -0.854,-1.274 l 0,-2.296 c 0,-0.294 0.126,-0.462 0.238,-0.588 0.546,-0.532 1.078,-0.826 1.512,-0.826 0.532,0 0.924,0.336 0.924,1.274 l 0,2.436 c 0,1.148 -0.112,1.218 -0.868,1.274 -0.07,0.084 -0.07,0.378 0,0.462 0.35,-0.014 0.868,-0.028 1.428,-0.028 0.56,0 1.022,0.014 1.372,0.028 0.07,-0.084 0.07,-0.378 0,-0.462 -0.7,-0.056 -0.826,-0.126 -0.826,-1.274 l 0,-2.226 c 0,-0.196 0,-0.392 -0.014,-0.56 0.672,-0.742 1.302,-0.924 1.848,-0.924 0.532,0 0.84,0.308 0.84,1.246 l 0,2.464 c 0,1.148 -0.14,1.218 -0.868,1.274 -0.07,0.084 -0.07,0.378 0,0.462 0.35,-0.014 0.868,-0.028 1.428,-0.028 0.56,0 1.05,0.014 1.442,0.028 0.07,-0.084 0.07,-0.378 0,-0.462 -0.77,-0.056 -0.896,-0.126 -0.896,-1.274 l 0,-2.212 c 0,-1.246 -0.21,-2.226 -1.442,-2.226 -0.728,0 -1.582,0.266 -2.31,1.036 -0.042,0.042 -0.126,0.112 -0.154,0 -0.14,-0.574 -0.672,-1.036 -1.4,-1.036 -0.812,0 -1.554,0.49 -2.128,1.134 -0.07,0.084 -0.168,0.168 -0.168,0"
         style="stroke-width:0.70866142;stroke-miterlimit:4;stroke-dasharray:none"
         id="path3146" />
    </g>
    <path
       sodipodi:type="arc"
       style="fill:none;stroke:#0000ff;stroke-width:1.18110237;stroke-linecap:round;stroke-linejoin:round;stroke-miterlimit:4;stroke-dasharray:none"
       id="path3167"
       sodipodi:cx="124.01575"
       sodipodi:cy="1027.559"
       sodipodi:rx="35.433071"
       sodipodi:ry="35.433071"
       d="m 159.44882,1027.559 a 35.433071,35.433071 0 1 1 -70.866144,0 35.433071,35.433071 0 1 1 70.866144,0 z"
       transform="matrix(0.6,0,0,0.6,46.062993,396.8504)" />
  </g>
</svg>
