<?xml version="1.0" encoding="UTF-8" standalone="no"?>
<!-- Created with Inkscape (http://www.inkscape.org/) -->

<svg
   xmlns:dc="http://purl.org/dc/elements/1.1/"
   xmlns:cc="http://creativecommons.org/ns#"
   xmlns:rdf="http://www.w3.org/1999/02/22-rdf-syntax-ns#"
   xmlns:svg="http://www.w3.org/2000/svg"
   xmlns="http://www.w3.org/2000/svg"
   xmlns:sodipodi="http://sodipodi.sourceforge.net/DTD/sodipodi-0.dtd"
   xmlns:inkscape="http://www.inkscape.org/namespaces/inkscape"
   id="svg2"
   version="1.1"
   inkscape:version="0.48.4 r9939"
   width="1488.75"
   height="1052.5"
   xml:space="preserve"
   sodipodi:docname="Laser Mount - Drawing 1.pdf"><metadata
     id="metadata8"><rdf:RDF><cc:Work
         rdf:about=""><dc:format>image/svg+xml</dc:format><dc:type
           rdf:resource="http://purl.org/dc/dcmitype/StillImage" /><dc:title></dc:title></cc:Work></rdf:RDF></metadata><defs
     id="defs6"><clipPath
       clipPathUnits="userSpaceOnUse"
       id="clipPath16"><path
         d="m 0,0 1190,0 0,841 L 0,841 0,0 z"
         id="path18" /></clipPath></defs><sodipodi:namedview
     pagecolor="#ffffff"
     bordercolor="#666666"
     borderopacity="1"
     objecttolerance="10"
     gridtolerance="10"
     guidetolerance="10"
     inkscape:pageopacity="0"
     inkscape:pageshadow="2"
     inkscape:window-width="1920"
     inkscape:window-height="1018"
     id="namedview4"
     showgrid="false"
     inkscape:zoom="0.76027316"
     inkscape:cx="747.00563"
     inkscape:cy="526.25"
     inkscape:window-x="0"
     inkscape:window-y="27"
     inkscape:window-maximized="1"
     inkscape:current-layer="g10" /><g
     id="g10"
     inkscape:groupmode="layer"
     inkscape:label="Laser Mount - Drawing 1"
     transform="matrix(1.25,0,0,-1.25,0,1052.5)"><path
       d="m 397.09388,456.12848 -9.06128,0 0,-35.39562 9.06128,0 z"
       style="fill:none;stroke:#0000ff;stroke-width:1.13385796999999999;stroke-linecap:round;stroke-linejoin:round;stroke-miterlimit:10;stroke-opacity:1;stroke-dasharray:none"
       id="path26"
       inkscape:connector-curvature="0"
       sodipodi:nodetypes="ccccc" /><path
       d="m 397.09388,633.1066 0,-35.39562 -9.06128,0 0,35.39562 z"
       style="fill:none;stroke:#0000ff;stroke-width:1.13385796999999999;stroke-linecap:round;stroke-linejoin:round;stroke-miterlimit:10;stroke-opacity:1;stroke-dasharray:none"
       id="path30"
       inkscape:connector-curvature="0"
       sodipodi:nodetypes="ccccc" /><path
       d="m 104.86762,456.12848 -9.061278,0 0,-35.39562 9.061278,0 z"
       style="fill:none;stroke:#0000ff;stroke-width:1.13385796999999999;stroke-linecap:round;stroke-linejoin:round;stroke-miterlimit:10;stroke-opacity:1;stroke-dasharray:none"
       id="path38"
       inkscape:connector-curvature="0"
       sodipodi:nodetypes="ccccc" /><path
       d="m 104.86762,633.1066 0,-35.39562 -9.061278,0 0,35.39562 z"
       style="fill:none;stroke:#0000ff;stroke-width:1.13385796999999999;stroke-linecap:round;stroke-linejoin:round;stroke-miterlimit:10;stroke-opacity:1;stroke-dasharray:none"
       id="path50"
       inkscape:connector-curvature="0"
       sodipodi:nodetypes="ccccc" /><path
       d="m 393.55432,373.16114 0,-9.06128 -28.3165,0 0,9.06128 -12.60084,0 0,19.25522 c 0,46.91631 -38.03318,84.9495 -84.94949,84.9495 l -42.47475,0 c -46.91631,0 -84.9495,-38.03319 -84.9495,-84.9495 l 0,-19.25522 -12.60084,0 0,-9.06128 -28.316496,0 0,9.06128 -12.600842,0 0,316.57845 40.775758,0 c 0,-65.68283 53.24646,-118.92929 118.92929,-118.92929 65.68284,0 118.9293,53.24646 118.9293,118.92929 l 40.77575,0 0,-316.57845 z"
       style="fill:none;stroke:#ff0000;stroke-width:1.13385796999999999;stroke-linecap:round;stroke-linejoin:round;stroke-miterlimit:10;stroke-opacity:1;stroke-dasharray:none"
       id="path76"
       inkscape:connector-curvature="0"
       sodipodi:nodetypes="cccccccccccccccccscccc" /><path
       d="m 637.34012,634.71569 9.06128,0 0,-35.39562 -9.06128,0 0,-141.58249 9.06128,0 0,-35.39563 -9.06128,0 0,-47.57171 -26.33435,0 0,-9.06128 -42.47474,0 0,9.06128 -26.33435,0 0,47.57171 -9.06128,0 0,35.39563 9.06128,0 0,141.58249 -9.06128,0 0,35.39562 9.06128,0 0,56.633 95.14344,0 z"
       style="fill:none;stroke:#ff0000;stroke-width:1.13385796999999999;stroke-linecap:round;stroke-linejoin:round;stroke-miterlimit:10;stroke-opacity:1;stroke-dasharray:none"
       id="path110"
       inkscape:connector-curvature="0"
       sodipodi:nodetypes="ccccccccccccccccccccccccc" /><path
       d="m 589.7684,599.32007 0,49.55387 9.06128,0 0,-49.55387 z"
       style="fill:none;stroke:#0000ff;stroke-width:1.13385796999999999;stroke-linecap:round;stroke-linejoin:round;stroke-miterlimit:10;stroke-opacity:1;stroke-dasharray:none"
       id="path138"
       inkscape:connector-curvature="0"
       sodipodi:nodetypes="ccccc" /><path
       d="m 810.57956,676.34964 0,-9.06128 42.47475,0 0,9.06128 z"
       style="fill:none;stroke:#0000ff;stroke-width:1.13385796999999999;stroke-linecap:round;stroke-linejoin:round;stroke-miterlimit:10;stroke-opacity:1;stroke-dasharray:none"
       id="path154"
       inkscape:connector-curvature="0"
       sodipodi:nodetypes="ccccc" /><path
       d="m 879.38865,644.49358 9.06128,0 0,28.3165 -9.06128,0 z"
       style="fill:none;stroke:#0000ff;stroke-width:1.13385796999999999;stroke-linecap:round;stroke-linejoin:round;stroke-miterlimit:10;stroke-opacity:1;stroke-dasharray:none"
       id="path158"
       inkscape:connector-curvature="0"
       sodipodi:nodetypes="ccccc" /><path
       d="m 775.18394,378.60166 9.06128,0 0,28.3165 -9.06128,0 z"
       style="fill:none;stroke:#0000ff;stroke-width:1.13385796999999999;stroke-linecap:round;stroke-linejoin:round;stroke-miterlimit:10;stroke-opacity:1;stroke-dasharray:none"
       id="path170"
       inkscape:connector-curvature="0"
       sodipodi:nodetypes="ccccc" /><path
       d="m 906.57249,689.94156 0,-328.47138 c 0,-7.50661 -6.08531,-13.59192 -13.59192,-13.59192 l -122.32727,0 c -7.50661,0 -13.59192,6.08531 -13.59192,13.59192 l 0,328.47138 c 0,7.50661 6.08531,13.59192 13.59192,13.59192 l 122.32727,0 c 7.50661,0 13.59192,-6.08531 13.59192,-13.59192 z"
       style="fill:none;stroke:#ff0000;stroke-width:1.13385796999999999;stroke-linecap:round;stroke-linejoin:round;stroke-miterlimit:10;stroke-opacity:1;stroke-dasharray:none"
       id="path184"
       inkscape:connector-curvature="0"
       sodipodi:nodetypes="ccccccccc" /><path
       d="m 888.44993,378.60166 0,28.3165 -9.06128,0 0,-28.3165 z"
       style="fill:none;stroke:#0000ff;stroke-width:1.13385796999999999;stroke-linecap:round;stroke-linejoin:round;stroke-miterlimit:10;stroke-opacity:1;stroke-dasharray:none"
       id="path188"
       inkscape:connector-curvature="0"
       sodipodi:nodetypes="ccccc" /><path
       d="m 853.05431,384.12338 -42.47475,0 0,-9.06128 42.47475,0 z"
       style="fill:none;stroke:#0000ff;stroke-width:1.13385796999999999;stroke-linecap:round;stroke-linejoin:round;stroke-miterlimit:10;stroke-opacity:1;stroke-dasharray:none"
       id="path198"
       inkscape:connector-curvature="0"
       sodipodi:nodetypes="ccccc" /><path
       d="m 784.24522,672.81008 -9.06128,0 0,-28.3165 9.06128,0 z"
       style="fill:none;stroke:#0000ff;stroke-width:1.13385796999999999;stroke-linecap:round;stroke-linejoin:round;stroke-miterlimit:10;stroke-opacity:1;stroke-dasharray:none"
       id="path208"
       inkscape:connector-curvature="0"
       sodipodi:nodetypes="ccccc" /><path
       d="m 874.29168,589.13482 c -4.06608,0 -7.36229,3.29621 -7.36229,7.36229 0,4.06608 3.29621,7.36229 7.36229,7.36229 4.06608,0 7.36229,-3.29621 7.36229,-7.36229 0,-4.06608 -3.29621,-7.36229 -7.36229,-7.36229 z"
       style="fill:none;stroke:#0000ff;stroke-width:1.13385796999999999;stroke-linecap:round;stroke-linejoin:round;stroke-miterlimit:10;stroke-opacity:1;stroke-dasharray:none"
       id="path212"
       inkscape:connector-curvature="0"
       sodipodi:nodetypes="ssscs" /><path
       d="m 789.34219,589.13482 c -4.06608,0 -7.36229,3.29621 -7.36229,7.36229 0,4.06608 3.29621,7.36229 7.36229,7.36229 4.06608,0 7.36229,-3.29621 7.36229,-7.36229 0,-4.06608 -3.29621,-7.36229 -7.36229,-7.36229 z"
       style="fill:none;stroke:#0000ff;stroke-width:1.13385796999999999;stroke-linecap:round;stroke-linejoin:round;stroke-miterlimit:10;stroke-opacity:1;stroke-dasharray:none"
       id="path214"
       inkscape:connector-curvature="0"
       sodipodi:nodetypes="ssscs" /><path
       d="m 789.34219,447.55233 c -4.06608,0 -7.36229,3.29621 -7.36229,7.36229 0,4.06608 3.29621,7.36229 7.36229,7.36229 4.06608,0 7.36229,-3.29621 7.36229,-7.36229 0,-4.06608 -3.29621,-7.36229 -7.36229,-7.36229 z"
       style="fill:none;stroke:#0000ff;stroke-width:1.13385796999999999;stroke-linecap:round;stroke-linejoin:round;stroke-miterlimit:10;stroke-opacity:1;stroke-dasharray:none"
       id="path216"
       inkscape:connector-curvature="0"
       sodipodi:nodetypes="ssscs" /><path
       d="m 874.29168,447.55233 c -4.06608,0 -7.36229,3.29621 -7.36229,7.36229 0,4.06608 3.29621,7.36229 7.36229,7.36229 4.06608,0 7.36229,-3.29621 7.36229,-7.36229 0,-4.06608 -3.29621,-7.36229 -7.36229,-7.36229 z"
       style="fill:none;stroke:#0000ff;stroke-width:1.13385796999999999;stroke-linecap:round;stroke-linejoin:round;stroke-miterlimit:10;stroke-opacity:1;stroke-dasharray:none"
       id="path218"
       inkscape:connector-curvature="0"
       sodipodi:nodetypes="ssscs" /><path
       d="m 72.590642,287.13478 66.741728,0 c 23.45816,-61.35104 92.20959,-92.06929 153.56063,-68.61113 31.58427,12.07655 56.53458,37.02686 68.61113,68.61113 l 66.74173,0 0,-45.3064 -9.06128,0 0,18.12256 -18.12256,0 0,-22.37003 -9.06128,0 0,-55.21717 -283.16498,0 0,55.21717 -9.061279,0 0,22.37003 -18.122559,0 0,-18.12256 -9.06128,0 z"
       style="fill:none;stroke:#ff0000;stroke-width:1.13385796999999999;stroke-linecap:round;stroke-linejoin:round;stroke-miterlimit:10;stroke-opacity:1;stroke-dasharray:none"
       id="path252"
       inkscape:connector-curvature="0"
       sodipodi:nodetypes="ccsccccccccccccccccc" /></g></svg>