  0
SECTION
  2
HEADER
  9
$ACADVER
  1
AC1009
  9
$EXTMIN
 10
0.0
 20
0.0
 30
0.0
  9
$EXTMAX
 10
1000.0
 20
1000.0
 30
0.0
  9
$FILLMODE
 70
 0
  9
$SPLFRAME
 70
 1
  0
ENDSEC
  0
SECTION
  2
TABLES
  0
TABLE
  2
LAYER
 70
1
  0
LAYER
  2
0
 70
     0
 62
     7
  6
CONTINUOUS
  0
ENDTAB
  0
ENDSEC
  0
SECTION
  2
ENTITIES
  0
LINE
  8
0
 62
     174
 10
40.9099
 20
20.5011
 30
0.0
 11
40.495
 21
16.3876
 31
0.0
  0
LINE
  8
0
 62
     174
 10
40.495
 20
16.3876
 30
0.0
 11
39.3058
 21
12.5567
 31
0.0
  0
LINE
  8
0
 62
     174
 10
39.3058
 20
12.5567
 30
0.0
 11
37.4234
 21
9.08953
 31
0.0
  0
LINE
  8
0
 62
     174
 10
37.4234
 20
9.08953
 30
0.0
 11
34.9319
 21
6.06887
 31
0.0
  0
LINE
  8
0
 62
     174
 10
34.9319
 20
6.06887
 30
0.0
 11
31.9112
 21
3.576
 31
0.0
  0
LINE
  8
0
 62
     174
 10
31.9112
 20
3.576
 30
0.0
 11
28.4441
 21
1.69499
 31
0.0
  0
LINE
  8
0
 62
     174
 10
28.4441
 20
1.69499
 30
0.0
 11
24.6118
 21
0.504363
 31
0.0
  0
LINE
  8
0
 62
     174
 10
24.6118
 20
0.504363
 30
0.0
 11
20.4997
 21
0.0895724
 31
0.0
  0
LINE
  8
0
 62
     174
 10
20.4997
 20
0.0895724
 30
0.0
 11
16.3862
 21
0.504363
 31
0.0
  0
LINE
  8
0
 62
     174
 10
16.3862
 20
0.504363
 30
0.0
 11
12.5539
 21
1.69499
 31
0.0
  0
LINE
  8
0
 62
     174
 10
12.5539
 20
1.69499
 30
0.0
 11
9.08678
 21
3.576
 31
0.0
  0
LINE
  8
0
 62
     174
 10
9.08678
 20
3.576
 30
0.0
 11
6.0675
 21
6.06887
 31
0.0
  0
LINE
  8
0
 62
     174
 10
6.0675
 20
6.06887
 30
0.0
 11
3.57463
 21
9.08953
 31
0.0
  0
LINE
  8
0
 62
     174
 10
3.57463
 20
9.08953
 30
0.0
 11
1.69223
 21
12.5567
 31
0.0
  0
LINE
  8
0
 62
     174
 10
1.69223
 20
12.5567
 30
0.0
 11
0.502984
 21
16.3876
 31
0.0
  0
LINE
  8
0
 62
     174
 10
0.502984
 20
16.3876
 30
0.0
 11
0.0895724
 21
20.5011
 31
0.0
  0
LINE
  8
0
 62
     174
 10
0.0895724
 20
20.5011
 30
0.0
 11
0.502984
 21
24.6145
 31
0.0
  0
LINE
  8
0
 62
     174
 10
0.502984
 20
24.6145
 30
0.0
 11
1.69223
 21
28.4455
 31
0.0
  0
LINE
  8
0
 62
     174
 10
1.69223
 20
28.4455
 30
0.0
 11
3.57463
 21
31.9126
 31
0.0
  0
LINE
  8
0
 62
     174
 10
3.57463
 20
31.9126
 30
0.0
 11
6.0675
 21
34.9333
 31
0.0
  0
LINE
  8
0
 62
     174
 10
6.0675
 20
34.9333
 30
0.0
 11
9.08678
 21
37.4248
 31
0.0
  0
LINE
  8
0
 62
     174
 10
9.08678
 20
37.4248
 30
0.0
 11
12.5539
 21
39.3072
 31
0.0
  0
LINE
  8
0
 62
     174
 10
12.5539
 20
39.3072
 30
0.0
 11
16.3862
 21
40.4964
 31
0.0
  0
LINE
  8
0
 62
     174
 10
16.3862
 20
40.4964
 30
0.0
 11
20.4997
 21
40.9099
 31
0.0
  0
LINE
  8
0
 62
     174
 10
20.4997
 20
40.9099
 30
0.0
 11
24.6118
 21
40.4964
 31
0.0
  0
LINE
  8
0
 62
     174
 10
24.6118
 20
40.4964
 30
0.0
 11
28.4441
 21
39.3072
 31
0.0
  0
LINE
  8
0
 62
     174
 10
28.4441
 20
39.3072
 30
0.0
 11
31.9112
 21
37.4248
 31
0.0
  0
LINE
  8
0
 62
     174
 10
31.9112
 20
37.4248
 30
0.0
 11
34.9319
 21
34.9333
 31
0.0
  0
LINE
  8
0
 62
     174
 10
34.9319
 20
34.9333
 30
0.0
 11
37.4234
 21
31.9126
 31
0.0
  0
LINE
  8
0
 62
     174
 10
37.4234
 20
31.9126
 30
0.0
 11
39.3058
 21
28.4455
 31
0.0
  0
LINE
  8
0
 62
     174
 10
39.3058
 20
28.4455
 30
0.0
 11
40.495
 21
24.6145
 31
0.0
  0
LINE
  8
0
 62
     174
 10
40.495
 20
24.6145
 30
0.0
 11
40.9099
 21
20.5011
 31
0.0
  0
LINE
  8
0
 62
     0
 10
12.8916
 20
29.9282
 30
0.0
 11
28.1202
 21
29.9282
 31
0.0
  0
LINE
  8
0
 62
     0
 10
28.1202
 20
29.9282
 30
0.0
 11
28.1202
 21
14.6995
 31
0.0
  0
LINE
  8
0
 62
     0
 10
28.1202
 20
14.6995
 30
0.0
 11
12.8916
 21
14.6995
 31
0.0
  0
LINE
  8
0
 62
     0
 10
12.8916
 20
14.6995
 30
0.0
 11
12.8916
 21
29.9282
 31
0.0
  0
LINE
  8
0
 62
     0
 10
13.5902
 20
19.429
 30
0.0
 11
15.084
 21
19.429
 31
0.0
  0
LINE
  8
0
 62
     0
 10
15.084
 20
19.429
 30
0.0
 11
15.8502
 21
19.3532
 31
0.0
  0
LINE
  8
0
 62
     0
 10
15.8502
 20
19.3532
 30
0.0
 11
16.4621
 21
18.977
 31
0.0
  0
LINE
  8
0
 62
     0
 10
16.4621
 20
18.977
 30
0.0
 11
16.8479
 21
18.3265
 31
0.0
  0
LINE
  8
0
 62
     0
 10
16.8479
 20
18.3265
 30
0.0
 11
16.9802
 21
17.3729
 31
0.0
  0
LINE
  8
0
 62
     0
 10
16.9802
 20
17.3729
 30
0.0
 11
16.8534
 21
16.513
 31
0.0
  0
LINE
  8
0
 62
     0
 10
16.8534
 20
16.513
 30
0.0
 11
16.4235
 21
15.7978
 31
0.0
  0
LINE
  8
0
 62
     0
 10
16.4235
 20
15.7978
 30
0.0
 11
15.8502
 21
15.4767
 31
0.0
  0
LINE
  8
0
 62
     0
 10
15.8502
 20
15.4767
 30
0.0
 11
15.1281
 21
15.3886
 31
0.0
  0
LINE
  8
0
 62
     0
 10
15.1281
 20
15.3886
 30
0.0
 11
13.5902
 21
15.3886
 31
0.0
  0
LINE
  8
0
 62
     0
 10
13.5902
 20
15.3886
 30
0.0
 11
13.5902
 21
19.429
 31
0.0
  0
LINE
  8
0
 62
     0
 10
14.406
 20
18.7454
 30
0.0
 11
14.406
 21
16.0721
 31
0.0
  0
LINE
  8
0
 62
     0
 10
14.406
 20
16.0721
 30
0.0
 11
15.0179
 21
16.0721
 31
0.0
  0
LINE
  8
0
 62
     0
 10
15.0179
 20
16.0721
 30
0.0
 11
15.5084
 21
16.1107
 31
0.0
  0
LINE
  8
0
 62
     0
 10
15.5084
 20
16.1107
 30
0.0
 11
15.8392
 21
16.276
 31
0.0
  0
LINE
  8
0
 62
     0
 10
15.8392
 20
16.276
 30
0.0
 11
16.0541
 21
16.6674
 31
0.0
  0
LINE
  8
0
 62
     0
 10
16.0541
 20
16.6674
 30
0.0
 11
16.1368
 21
17.406
 31
0.0
  0
LINE
  8
0
 62
     0
 10
16.1368
 20
17.406
 30
0.0
 11
16.0541
 21
18.1226
 31
0.0
  0
LINE
  8
0
 62
     0
 10
16.0541
 20
18.1226
 30
0.0
 11
15.8226
 21
18.5153
 31
0.0
  0
LINE
  8
0
 62
     0
 10
15.8226
 20
18.5153
 30
0.0
 11
15.4423
 21
18.7083
 31
0.0
  0
LINE
  8
0
 62
     0
 10
15.4423
 20
18.7083
 30
0.0
 11
14.7753
 21
18.7454
 31
0.0
  0
LINE
  8
0
 62
     0
 10
14.7753
 20
18.7454
 30
0.0
 11
14.406
 21
18.7454
 31
0.0
  0
LINE
  8
0
 62
     0
 10
17.3688
 20
16.8934
 30
0.0
 11
17.5562
 21
17.6375
 31
0.0
  0
LINE
  8
0
 62
     0
 10
17.5562
 20
17.6375
 30
0.0
 11
18.0964
 21
18.1887
 31
0.0
  0
LINE
  8
0
 62
     0
 10
18.0964
 20
18.1887
 30
0.0
 11
18.8791
 21
18.383
 31
0.0
  0
LINE
  8
0
 62
     0
 10
18.8791
 20
18.383
 30
0.0
 11
19.965
 21
17.9517
 31
0.0
  0
LINE
  8
0
 62
     0
 10
19.965
 20
17.9517
 30
0.0
 11
20.3895
 21
16.8603
 31
0.0
  0
LINE
  8
0
 62
     0
 10
20.3895
 20
16.8603
 30
0.0
 11
19.9595
 21
15.7579
 31
0.0
  0
LINE
  8
0
 62
     0
 10
19.9595
 20
15.7579
 30
0.0
 11
18.8847
 21
15.3224
 31
0.0
  0
LINE
  8
0
 62
     0
 10
18.8847
 20
15.3224
 30
0.0
 11
18.113
 21
15.5043
 31
0.0
  0
LINE
  8
0
 62
     0
 10
18.113
 20
15.5043
 30
0.0
 11
17.5562
 21
16.039
 31
0.0
  0
LINE
  8
0
 62
     0
 10
17.5562
 20
16.039
 30
0.0
 11
17.3688
 21
16.8934
 31
0.0
  0
LINE
  8
0
 62
     0
 10
18.1626
 20
16.8562
 30
0.0
 11
18.3665
 21
16.1878
 31
0.0
  0
LINE
  8
0
 62
     0
 10
18.3665
 20
16.1878
 30
0.0
 11
18.8791
 21
15.9577
 31
0.0
  0
LINE
  8
0
 62
     0
 10
18.8791
 20
15.9577
 30
0.0
 11
19.3862
 21
16.1878
 31
0.0
  0
LINE
  8
0
 62
     0
 10
19.3862
 20
16.1878
 30
0.0
 11
19.5957
 21
16.8603
 31
0.0
  0
LINE
  8
0
 62
     0
 10
19.5957
 20
16.8603
 30
0.0
 11
19.3862
 21
17.5218
 31
0.0
  0
LINE
  8
0
 62
     0
 10
19.3862
 20
17.5218
 30
0.0
 11
18.8791
 21
17.7533
 31
0.0
  0
LINE
  8
0
 62
     0
 10
18.8791
 20
17.7533
 30
0.0
 11
18.3665
 21
17.5218
 31
0.0
  0
LINE
  8
0
 62
     0
 10
18.3665
 20
17.5218
 30
0.0
 11
18.1626
 21
16.8562
 31
0.0
  0
LINE
  8
0
 62
     0
 10
20.909
 20
15.3886
 30
0.0
 11
20.909
 21
19.429
 31
0.0
  0
LINE
  8
0
 62
     0
 10
20.909
 20
19.429
 30
0.0
 11
23.9021
 21
19.429
 31
0.0
  0
LINE
  8
0
 62
     0
 10
23.9021
 20
19.429
 30
0.0
 11
23.9021
 21
18.7454
 31
0.0
  0
LINE
  8
0
 62
     0
 10
23.9021
 20
18.7454
 30
0.0
 11
21.7248
 21
18.7454
 31
0.0
  0
LINE
  8
0
 62
     0
 10
21.7248
 20
18.7454
 30
0.0
 11
21.7248
 21
17.8539
 31
0.0
  0
LINE
  8
0
 62
     0
 10
21.7248
 20
17.8539
 30
0.0
 11
23.7532
 21
17.8539
 31
0.0
  0
LINE
  8
0
 62
     0
 10
23.7532
 20
17.8539
 30
0.0
 11
23.7532
 21
17.169
 31
0.0
  0
LINE
  8
0
 62
     0
 10
23.7532
 20
17.169
 30
0.0
 11
21.7248
 21
17.169
 31
0.0
  0
LINE
  8
0
 62
     0
 10
21.7248
 20
17.169
 30
0.0
 11
21.7248
 21
16.0721
 31
0.0
  0
LINE
  8
0
 62
     0
 10
21.7248
 20
16.0721
 30
0.0
 11
23.9793
 21
16.0721
 31
0.0
  0
LINE
  8
0
 62
     0
 10
23.9793
 20
16.0721
 30
0.0
 11
23.9793
 21
15.3886
 31
0.0
  0
LINE
  8
0
 62
     0
 10
23.9793
 20
15.3886
 30
0.0
 11
20.909
 21
15.3886
 31
0.0
  0
LINE
  8
0
 62
     0
 10
24.361
 20
16.7073
 30
0.0
 11
25.1547
 21
16.7831
 31
0.0
  0
LINE
  8
0
 62
     0
 10
25.1547
 20
16.7831
 30
0.0
 11
25.4468
 21
16.1947
 31
0.0
  0
LINE
  8
0
 62
     0
 10
25.4468
 20
16.1947
 30
0.0
 11
26.0367
 21
16.0059
 31
0.0
  0
LINE
  8
0
 62
     0
 10
26.0367
 20
16.0059
 30
0.0
 11
26.632
 21
16.1713
 31
0.0
  0
LINE
  8
0
 62
     0
 10
26.632
 20
16.1713
 30
0.0
 11
26.8304
 21
16.5626
 31
0.0
  0
LINE
  8
0
 62
     0
 10
26.8304
 20
16.5626
 30
0.0
 11
26.7477
 21
16.8052
 31
0.0
  0
LINE
  8
0
 62
     0
 10
26.7477
 20
16.8052
 30
0.0
 11
26.4556
 21
16.9816
 31
0.0
  0
LINE
  8
0
 62
     0
 10
26.4556
 20
16.9816
 30
0.0
 11
25.7996
 21
17.1579
 31
0.0
  0
LINE
  8
0
 62
     0
 10
25.7996
 20
17.1579
 30
0.0
 11
24.8791
 21
17.5617
 31
0.0
  0
LINE
  8
0
 62
     0
 10
24.8791
 20
17.5617
 30
0.0
 11
24.5098
 21
18.3706
 31
0.0
  0
LINE
  8
0
 62
     0
 10
24.5098
 20
18.3706
 30
0.0
 11
24.6807
 21
18.9494
 31
0.0
  0
LINE
  8
0
 62
     0
 10
24.6807
 20
18.9494
 30
0.0
 11
25.1878
 21
19.3573
 31
0.0
  0
LINE
  8
0
 62
     0
 10
25.1878
 20
19.3573
 30
0.0
 11
25.9815
 21
19.502
 31
0.0
  0
LINE
  8
0
 62
     0
 10
25.9815
 20
19.502
 30
0.0
 11
26.6471
 21
19.4179
 31
0.0
  0
LINE
  8
0
 62
     0
 10
26.6471
 20
19.4179
 30
0.0
 11
27.128
 21
19.1644
 31
0.0
  0
LINE
  8
0
 62
     0
 10
27.128
 20
19.1644
 30
0.0
 11
27.5305
 21
18.2769
 31
0.0
  0
LINE
  8
0
 62
     0
 10
27.5305
 20
18.2769
 30
0.0
 11
26.7147
 21
18.2383
 31
0.0
  0
LINE
  8
0
 62
     0
 10
26.7147
 20
18.2383
 30
0.0
 11
26.4886
 21
18.6848
 31
0.0
  0
LINE
  8
0
 62
     0
 10
26.4886
 20
18.6848
 30
0.0
 11
25.976
 21
18.824
 31
0.0
  0
LINE
  8
0
 62
     0
 10
25.976
 20
18.824
 30
0.0
 11
25.4193
 21
18.6793
 31
0.0
  0
LINE
  8
0
 62
     0
 10
25.4193
 20
18.6793
 30
0.0
 11
25.287
 21
18.4271
 31
0.0
  0
LINE
  8
0
 62
     0
 10
25.287
 20
18.4271
 30
0.0
 11
25.4083
 21
18.1832
 31
0.0
  0
LINE
  8
0
 62
     0
 10
25.4083
 20
18.1832
 30
0.0
 11
26.1579
 21
17.9076
 31
0.0
  0
LINE
  8
0
 62
     0
 10
26.1579
 20
17.9076
 30
0.0
 11
27.0399
 21
17.621
 31
0.0
  0
LINE
  8
0
 62
     0
 10
27.0399
 20
17.621
 30
0.0
 11
27.4864
 21
17.209
 31
0.0
  0
LINE
  8
0
 62
     0
 10
27.4864
 20
17.209
 30
0.0
 11
27.6462
 21
16.5681
 31
0.0
  0
LINE
  8
0
 62
     0
 10
27.6462
 20
16.5681
 30
0.0
 11
27.4533
 21
15.9177
 31
0.0
  0
LINE
  8
0
 62
     0
 10
27.4533
 20
15.9177
 30
0.0
 11
26.9076
 21
15.4657
 31
0.0
  0
LINE
  8
0
 62
     0
 10
26.9076
 20
15.4657
 30
0.0
 11
26.0312
 21
15.3169
 31
0.0
  0
LINE
  8
0
 62
     0
 10
26.0312
 20
15.3169
 30
0.0
 11
25.3518
 21
15.4051
 31
0.0
  0
LINE
  8
0
 62
     0
 10
25.3518
 20
15.4051
 30
0.0
 11
24.8515
 21
15.6697
 31
0.0
  0
LINE
  8
0
 62
     0
 10
24.8515
 20
15.6697
 30
0.0
 11
24.361
 21
16.7073
 31
0.0
  0
LINE
  8
0
 62
     0
 10
12.8723
 20
11.763
 30
0.0
 11
12.8723
 21
14.2655
 31
0.0
  0
LINE
  8
0
 62
     0
 10
12.8723
 20
14.2655
 30
0.0
 11
13.3849
 21
14.2655
 31
0.0
  0
LINE
  8
0
 62
     0
 10
13.3849
 20
14.2655
 30
0.0
 11
13.3849
 21
12.1874
 31
0.0
  0
LINE
  8
0
 62
     0
 10
13.3849
 20
12.1874
 30
0.0
 11
14.6527
 21
12.1874
 31
0.0
  0
LINE
  8
0
 62
     0
 10
14.6527
 20
12.1874
 30
0.0
 11
14.6527
 21
11.763
 31
0.0
  0
LINE
  8
0
 62
     0
 10
14.6527
 20
11.763
 30
0.0
 11
12.8723
 21
11.763
 31
0.0
  0
LINE
  8
0
 62
     0
 10
14.9958
 20
13.8424
 30
0.0
 11
14.9958
 21
14.2875
 31
0.0
  0
LINE
  8
0
 62
     0
 10
14.9958
 20
14.2875
 30
0.0
 11
15.4809
 21
14.2875
 31
0.0
  0
LINE
  8
0
 62
     0
 10
15.4809
 20
14.2875
 30
0.0
 11
15.4809
 21
13.8424
 31
0.0
  0
LINE
  8
0
 62
     0
 10
15.4809
 20
13.8424
 30
0.0
 11
14.9958
 21
13.8424
 31
0.0
  0
LINE
  8
0
 62
     0
 10
14.9958
 20
11.763
 30
0.0
 11
14.9958
 21
13.593
 31
0.0
  0
LINE
  8
0
 62
     0
 10
14.9958
 20
13.593
 30
0.0
 11
15.4809
 21
13.593
 31
0.0
  0
LINE
  8
0
 62
     0
 10
15.4809
 20
13.593
 30
0.0
 11
15.4809
 21
11.763
 31
0.0
  0
LINE
  8
0
 62
     0
 10
15.4809
 20
11.763
 30
0.0
 11
14.9958
 21
11.763
 31
0.0
  0
LINE
  8
0
 62
     0
 10
16.4689
 20
11.763
 30
0.0
 11
15.7303
 21
13.593
 31
0.0
  0
LINE
  8
0
 62
     0
 10
15.7303
 20
13.593
 30
0.0
 11
16.2429
 21
13.593
 31
0.0
  0
LINE
  8
0
 62
     0
 10
16.2429
 20
13.593
 30
0.0
 11
16.5847
 21
12.6614
 31
0.0
  0
LINE
  8
0
 62
     0
 10
16.5847
 20
12.6614
 30
0.0
 11
16.6839
 21
12.3472
 31
0.0
  0
LINE
  8
0
 62
     0
 10
16.6839
 20
12.3472
 30
0.0
 11
16.7335
 21
12.5016
 31
0.0
  0
LINE
  8
0
 62
     0
 10
16.7335
 20
12.5016
 30
0.0
 11
16.7886
 21
12.6614
 31
0.0
  0
LINE
  8
0
 62
     0
 10
16.7886
 20
12.6614
 30
0.0
 11
17.1359
 21
13.593
 31
0.0
  0
LINE
  8
0
 62
     0
 10
17.1359
 20
13.593
 30
0.0
 11
17.632
 21
13.593
 31
0.0
  0
LINE
  8
0
 62
     0
 10
17.632
 20
13.593
 30
0.0
 11
16.9044
 21
11.763
 31
0.0
  0
LINE
  8
0
 62
     0
 10
16.9044
 20
11.763
 30
0.0
 11
16.4689
 21
11.763
 31
0.0
  0
LINE
  8
0
 62
     0
 10
18.9756
 20
12.3472
 30
0.0
 11
19.4607
 21
12.2645
 31
0.0
  0
LINE
  8
0
 62
     0
 10
19.4607
 20
12.2645
 30
0.0
 11
19.163
 21
11.858
 31
0.0
  0
LINE
  8
0
 62
     0
 10
19.163
 20
11.858
 30
0.0
 11
18.6614
 21
11.7189
 31
0.0
  0
LINE
  8
0
 62
     0
 10
18.6614
 20
11.7189
 30
0.0
 11
17.9558
 21
12.0344
 31
0.0
  0
LINE
  8
0
 62
     0
 10
17.9558
 20
12.0344
 30
0.0
 11
17.7739
 21
12.6614
 31
0.0
  0
LINE
  8
0
 62
     0
 10
17.7739
 20
12.6614
 30
0.0
 11
18.011
 21
13.3739
 31
0.0
  0
LINE
  8
0
 62
     0
 10
18.011
 20
13.3739
 30
0.0
 11
18.6173
 21
13.6315
 31
0.0
  0
LINE
  8
0
 62
     0
 10
18.6173
 20
13.6315
 30
0.0
 11
19.2567
 21
13.3615
 31
0.0
  0
LINE
  8
0
 62
     0
 10
19.2567
 20
13.3615
 30
0.0
 11
19.4827
 21
12.5402
 31
0.0
  0
LINE
  8
0
 62
     0
 10
19.4827
 20
12.5402
 30
0.0
 11
18.27
 21
12.5402
 31
0.0
  0
LINE
  8
0
 62
     0
 10
18.27
 20
12.5402
 30
0.0
 11
18.3858
 21
12.2039
 31
0.0
  0
LINE
  8
0
 62
     0
 10
18.3858
 20
12.2039
 30
0.0
 11
18.6669
 21
12.0826
 31
0.0
  0
LINE
  8
0
 62
     0
 10
18.6669
 20
12.0826
 30
0.0
 11
18.8598
 21
12.1433
 31
0.0
  0
LINE
  8
0
 62
     0
 10
18.8598
 20
12.1433
 30
0.0
 11
18.9756
 21
12.3472
 31
0.0
  0
LINE
  8
0
 62
     0
 10
19.0032
 20
12.8323
 30
0.0
 11
18.8929
 21
13.152
 31
0.0
  0
LINE
  8
0
 62
     0
 10
18.8929
 20
13.152
 30
0.0
 11
18.6449
 21
13.2623
 31
0.0
  0
LINE
  8
0
 62
     0
 10
18.6449
 20
13.2623
 30
0.0
 11
18.3803
 21
13.1465
 31
0.0
  0
LINE
  8
0
 62
     0
 10
18.3803
 20
13.1465
 30
0.0
 11
18.2811
 21
12.8323
 31
0.0
  0
LINE
  8
0
 62
     0
 10
18.2811
 20
12.8323
 30
0.0
 11
19.0032
 21
12.8323
 31
0.0
  0
LINE
  8
0
 62
     0
 10
20.3302
 20
11.763
 30
0.0
 11
19.8451
 21
11.763
 31
0.0
  0
LINE
  8
0
 62
     0
 10
19.8451
 20
11.763
 30
0.0
 11
19.8451
 21
13.593
 31
0.0
  0
LINE
  8
0
 62
     0
 10
19.8451
 20
13.593
 30
0.0
 11
20.2971
 21
13.593
 31
0.0
  0
LINE
  8
0
 62
     0
 10
20.2971
 20
13.593
 30
0.0
 11
20.2971
 21
13.3339
 31
0.0
  0
LINE
  8
0
 62
     0
 10
20.2971
 20
13.3339
 30
0.0
 11
20.5011
 21
13.5709
 31
0.0
  0
LINE
  8
0
 62
     0
 10
20.5011
 20
13.5709
 30
0.0
 11
20.7105
 21
13.6315
 31
0.0
  0
LINE
  8
0
 62
     0
 10
20.7105
 20
13.6315
 30
0.0
 11
21.0302
 21
13.5434
 31
0.0
  0
LINE
  8
0
 62
     0
 10
21.0302
 20
13.5434
 30
0.0
 11
20.8814
 21
13.1189
 31
0.0
  0
LINE
  8
0
 62
     0
 10
20.8814
 20
13.1189
 30
0.0
 11
20.6554
 21
13.2016
 31
0.0
  0
LINE
  8
0
 62
     0
 10
20.6554
 20
13.2016
 30
0.0
 11
20.479
 21
13.141
 31
0.0
  0
LINE
  8
0
 62
     0
 10
20.479
 20
13.141
 30
0.0
 11
20.3688
 21
12.937
 31
0.0
  0
LINE
  8
0
 62
     0
 10
20.3688
 20
12.937
 30
0.0
 11
20.3302
 21
12.3307
 31
0.0
  0
LINE
  8
0
 62
     0
 10
20.3302
 20
12.3307
 30
0.0
 11
20.3302
 21
11.763
 31
0.0
  0
LINE
  8
0
 62
     0
 10
21.2121
 20
13.593
 30
0.0
 11
21.6642
 21
13.593
 31
0.0
  0
LINE
  8
0
 62
     0
 10
21.6642
 20
13.593
 30
0.0
 11
21.6642
 21
13.3229
 31
0.0
  0
LINE
  8
0
 62
     0
 10
21.6642
 20
13.3229
 30
0.0
 11
21.9012
 21
13.5434
 31
0.0
  0
LINE
  8
0
 62
     0
 10
21.9012
 20
13.5434
 30
0.0
 11
22.2374
 21
13.6315
 31
0.0
  0
LINE
  8
0
 62
     0
 10
22.2374
 20
13.6315
 30
0.0
 11
22.7776
 21
13.3835
 31
0.0
  0
LINE
  8
0
 62
     0
 10
22.7776
 20
13.3835
 30
0.0
 11
22.9981
 21
12.689
 31
0.0
  0
LINE
  8
0
 62
     0
 10
22.9981
 20
12.689
 30
0.0
 11
22.7721
 21
11.9724
 31
0.0
  0
LINE
  8
0
 62
     0
 10
22.7721
 20
11.9724
 30
0.0
 11
22.2319
 21
11.7189
 31
0.0
  0
LINE
  8
0
 62
     0
 10
22.2319
 20
11.7189
 30
0.0
 11
21.9563
 21
11.7795
 31
0.0
  0
LINE
  8
0
 62
     0
 10
21.9563
 20
11.7795
 30
0.0
 11
21.6972
 21
11.9903
 31
0.0
  0
LINE
  8
0
 62
     0
 10
21.6972
 20
11.9903
 30
0.0
 11
21.6972
 21
11.0684
 31
0.0
  0
LINE
  8
0
 62
     0
 10
21.6972
 20
11.0684
 30
0.0
 11
21.2121
 21
11.0684
 31
0.0
  0
LINE
  8
0
 62
     0
 10
21.2121
 20
11.0684
 30
0.0
 11
21.2121
 21
13.593
 31
0.0
  0
LINE
  8
0
 62
     0
 10
21.6917
 20
12.711
 30
0.0
 11
21.813
 21
12.2549
 31
0.0
  0
LINE
  8
0
 62
     0
 10
21.813
 20
12.2549
 30
0.0
 11
22.1161
 21
12.1047
 31
0.0
  0
LINE
  8
0
 62
     0
 10
22.1161
 20
12.1047
 30
0.0
 11
22.3918
 21
12.237
 31
0.0
  0
LINE
  8
0
 62
     0
 10
22.3918
 20
12.237
 30
0.0
 11
22.5075
 21
12.6835
 31
0.0
  0
LINE
  8
0
 62
     0
 10
22.5075
 20
12.6835
 30
0.0
 11
22.3918
 21
13.1093
 31
0.0
  0
LINE
  8
0
 62
     0
 10
22.3918
 20
13.1093
 30
0.0
 11
22.1051
 21
13.2512
 31
0.0
  0
LINE
  8
0
 62
     0
 10
22.1051
 20
13.2512
 30
0.0
 11
21.8075
 21
13.1134
 31
0.0
  0
LINE
  8
0
 62
     0
 10
21.8075
 20
13.1134
 30
0.0
 11
21.6917
 21
12.711
 31
0.0
  0
LINE
  8
0
 62
     0
 10
23.2599
 20
12.7055
 30
0.0
 11
23.3757
 21
13.1685
 31
0.0
  0
LINE
  8
0
 62
     0
 10
23.3757
 20
13.1685
 30
0.0
 11
23.7119
 21
13.5103
 31
0.0
  0
LINE
  8
0
 62
     0
 10
23.7119
 20
13.5103
 30
0.0
 11
24.2025
 21
13.6315
 31
0.0
  0
LINE
  8
0
 62
     0
 10
24.2025
 20
13.6315
 30
0.0
 11
24.8805
 21
13.3615
 31
0.0
  0
LINE
  8
0
 62
     0
 10
24.8805
 20
13.3615
 30
0.0
 11
25.145
 21
12.6835
 31
0.0
  0
LINE
  8
0
 62
     0
 10
25.145
 20
12.6835
 30
0.0
 11
24.875
 21
11.9944
 31
0.0
  0
LINE
  8
0
 62
     0
 10
24.875
 20
11.9944
 30
0.0
 11
24.2025
 21
11.7189
 31
0.0
  0
LINE
  8
0
 62
     0
 10
24.2025
 20
11.7189
 30
0.0
 11
23.7229
 21
11.8346
 31
0.0
  0
LINE
  8
0
 62
     0
 10
23.7229
 20
11.8346
 30
0.0
 11
23.3757
 21
12.1667
 31
0.0
  0
LINE
  8
0
 62
     0
 10
23.3757
 20
12.1667
 30
0.0
 11
23.2599
 21
12.7055
 31
0.0
  0
LINE
  8
0
 62
     0
 10
23.756
 20
12.678
 30
0.0
 11
23.8828
 21
12.259
 31
0.0
  0
LINE
  8
0
 62
     0
 10
23.8828
 20
12.259
 30
0.0
 11
24.2025
 21
12.1157
 31
0.0
  0
LINE
  8
0
 62
     0
 10
24.2025
 20
12.1157
 30
0.0
 11
24.5167
 21
12.259
 31
0.0
  0
LINE
  8
0
 62
     0
 10
24.5167
 20
12.259
 30
0.0
 11
24.649
 21
12.6835
 31
0.0
  0
LINE
  8
0
 62
     0
 10
24.649
 20
12.6835
 30
0.0
 11
24.5167
 21
13.0927
 31
0.0
  0
LINE
  8
0
 62
     0
 10
24.5167
 20
13.0927
 30
0.0
 11
24.2025
 21
13.2402
 31
0.0
  0
LINE
  8
0
 62
     0
 10
24.2025
 20
13.2402
 30
0.0
 11
23.8828
 21
13.0927
 31
0.0
  0
LINE
  8
0
 62
     0
 10
23.8828
 20
13.0927
 30
0.0
 11
23.756
 21
12.678
 31
0.0
  0
LINE
  8
0
 62
     0
 10
25.4
 20
12.7055
 30
0.0
 11
25.5157
 21
13.1685
 31
0.0
  0
LINE
  8
0
 62
     0
 10
25.5157
 20
13.1685
 30
0.0
 11
25.852
 21
13.5103
 31
0.0
  0
LINE
  8
0
 62
     0
 10
25.852
 20
13.5103
 30
0.0
 11
26.3426
 21
13.6315
 31
0.0
  0
LINE
  8
0
 62
     0
 10
26.3426
 20
13.6315
 30
0.0
 11
27.0206
 21
13.3615
 31
0.0
  0
LINE
  8
0
 62
     0
 10
27.0206
 20
13.3615
 30
0.0
 11
27.2852
 21
12.6835
 31
0.0
  0
LINE
  8
0
 62
     0
 10
27.2852
 20
12.6835
 30
0.0
 11
27.0151
 21
11.9944
 31
0.0
  0
LINE
  8
0
 62
     0
 10
27.0151
 20
11.9944
 30
0.0
 11
26.3426
 21
11.7189
 31
0.0
  0
LINE
  8
0
 62
     0
 10
26.3426
 20
11.7189
 30
0.0
 11
25.863
 21
11.8346
 31
0.0
  0
LINE
  8
0
 62
     0
 10
25.863
 20
11.8346
 30
0.0
 11
25.5157
 21
12.1667
 31
0.0
  0
LINE
  8
0
 62
     0
 10
25.5157
 20
12.1667
 30
0.0
 11
25.4
 21
12.7055
 31
0.0
  0
LINE
  8
0
 62
     0
 10
25.8961
 20
12.678
 30
0.0
 11
26.0229
 21
12.259
 31
0.0
  0
LINE
  8
0
 62
     0
 10
26.0229
 20
12.259
 30
0.0
 11
26.3426
 21
12.1157
 31
0.0
  0
LINE
  8
0
 62
     0
 10
26.3426
 20
12.1157
 30
0.0
 11
26.6568
 21
12.259
 31
0.0
  0
LINE
  8
0
 62
     0
 10
26.6568
 20
12.259
 30
0.0
 11
26.7891
 21
12.6835
 31
0.0
  0
LINE
  8
0
 62
     0
 10
26.7891
 20
12.6835
 30
0.0
 11
26.6568
 21
13.0927
 31
0.0
  0
LINE
  8
0
 62
     0
 10
26.6568
 20
13.0927
 30
0.0
 11
26.3426
 21
13.2402
 31
0.0
  0
LINE
  8
0
 62
     0
 10
26.3426
 20
13.2402
 30
0.0
 11
26.0229
 21
13.0927
 31
0.0
  0
LINE
  8
0
 62
     0
 10
26.0229
 20
13.0927
 30
0.0
 11
25.8961
 21
12.678
 31
0.0
  0
LINE
  8
0
 62
     0
 10
27.6517
 20
14.2875
 30
0.0
 11
28.1368
 21
14.2875
 31
0.0
  0
LINE
  8
0
 62
     0
 10
28.1368
 20
14.2875
 30
0.0
 11
28.1368
 21
11.763
 31
0.0
  0
LINE
  8
0
 62
     0
 10
28.1368
 20
11.763
 30
0.0
 11
27.6517
 21
11.763
 31
0.0
  0
LINE
  8
0
 62
     0
 10
27.6517
 20
11.763
 30
0.0
 11
27.6517
 21
14.2875
 31
0.0
  0
LINE
  8
0
 62
     1
 10
6.60495
 20
10.0735
 30
0.0
 11
9.11712
 21
11.8001
 31
0.0
  0
LINE
  8
0
 62
     1
 10
9.11712
 20
11.8001
 30
0.0
 11
9.13638
 21
11.8153
 31
0.0
  0
LINE
  8
0
 62
     1
 10
9.13638
 20
11.8153
 30
0.0
 11
9.36516
 21
11.858
 31
0.0
  0
LINE
  8
0
 62
     1
 10
9.36516
 20
11.858
 30
0.0
 11
9.5553
 21
11.7285
 31
0.0
  0
LINE
  8
0
 62
     1
 10
9.5553
 20
11.7285
 30
0.0
 11
9.60907
 21
11.5039
 31
0.0
  0
LINE
  8
0
 62
     1
 10
9.60907
 20
11.5039
 30
0.0
 11
9.48641
 21
11.3041
 31
0.0
  0
LINE
  8
0
 62
     1
 10
9.48641
 20
11.3041
 30
0.0
 11
6.95494
 21
9.56635
 31
0.0
  0
LINE
  8
0
 62
     1
 10
6.95494
 20
9.56635
 30
0.0
 11
6.7262
 21
9.52225
 31
0.0
  0
LINE
  8
0
 62
     1
 10
6.7262
 20
9.52225
 30
0.0
 11
6.53464
 21
9.65454
 31
0.0
  0
LINE
  8
0
 62
     1
 10
6.53464
 20
9.65454
 30
0.0
 11
6.4878
 21
9.87915
 31
0.0
  0
LINE
  8
0
 62
     1
 10
6.4878
 20
9.87915
 30
0.0
 11
6.60495
 21
10.0735
 31
0.0
  0
LINE
  8
0
 62
     1
 10
8.13181
 20
12.197
 30
0.0
 11
8.31921
 21
11.7905
 31
0.0
  0
LINE
  8
0
 62
     1
 10
8.31921
 20
11.7905
 30
0.0
 11
8.3385
 21
11.4501
 31
0.0
  0
LINE
  8
0
 62
     1
 10
8.3385
 20
11.4501
 30
0.0
 11
7.83689
 21
11.107
 31
0.0
  0
LINE
  8
0
 62
     1
 10
7.83689
 20
11.107
 30
0.0
 11
7.86035
 21
11.4391
 31
0.0
  0
LINE
  8
0
 62
     1
 10
7.86035
 20
11.4391
 30
0.0
 11
7.72664
 21
11.7726
 31
0.0
  0
LINE
  8
0
 62
     1
 10
7.72664
 20
11.7726
 30
0.0
 11
7.4924
 21
12.0013
 31
0.0
  0
LINE
  8
0
 62
     1
 10
7.4924
 20
12.0013
 30
0.0
 11
7.2099
 21
12.1088
 31
0.0
  0
LINE
  8
0
 62
     1
 10
7.2099
 20
12.1088
 30
0.0
 11
6.90809
 21
12.0937
 31
0.0
  0
LINE
  8
0
 62
     1
 10
6.90809
 20
12.0937
 30
0.0
 11
6.62284
 21
11.9669
 31
0.0
  0
LINE
  8
0
 62
     1
 10
6.62284
 20
11.9669
 30
0.0
 11
6.41477
 21
11.7643
 31
0.0
  0
LINE
  8
0
 62
     1
 10
6.41477
 20
11.7643
 30
0.0
 11
6.28661
 21
11.497
 31
0.0
  0
LINE
  8
0
 62
     1
 10
6.28661
 20
11.497
 30
0.0
 11
6.27144
 21
11.1869
 31
0.0
  0
LINE
  8
0
 62
     1
 10
6.27144
 20
11.1869
 30
0.0
 11
6.40652
 21
10.8603
 31
0.0
  0
LINE
  8
0
 62
     1
 10
6.40652
 20
10.8603
 30
0.0
 11
6.66972
 21
10.6164
 31
0.0
  0
LINE
  8
0
 62
     1
 10
6.66972
 20
10.6164
 30
0.0
 11
6.98666
 21
10.5213
 31
0.0
  0
LINE
  8
0
 62
     1
 10
6.98666
 20
10.5213
 30
0.0
 11
6.48504
 21
10.1782
 31
0.0
  0
LINE
  8
0
 62
     1
 10
6.48504
 20
10.1782
 30
0.0
 11
6.15844
 21
10.3312
 31
0.0
  0
LINE
  8
0
 62
     1
 10
6.15844
 20
10.3312
 30
0.0
 11
5.86355
 21
10.6302
 31
0.0
  0
LINE
  8
0
 62
     1
 10
5.86355
 20
10.6302
 30
0.0
 11
5.64307
 21
11.1869
 31
0.0
  0
LINE
  8
0
 62
     1
 10
5.64307
 20
11.1869
 30
0.0
 11
5.68579
 21
11.7078
 31
0.0
  0
LINE
  8
0
 62
     1
 10
5.68579
 20
11.7078
 30
0.0
 11
5.9297
 21
12.157
 31
0.0
  0
LINE
  8
0
 62
     1
 10
5.9297
 20
12.157
 30
0.0
 11
6.28661
 21
12.4919
 31
0.0
  0
LINE
  8
0
 62
     1
 10
6.28661
 20
12.4919
 30
0.0
 11
6.7703
 21
12.711
 31
0.0
  0
LINE
  8
0
 62
     1
 10
6.7703
 20
12.711
 30
0.0
 11
7.27604
 21
12.7345
 31
0.0
  0
LINE
  8
0
 62
     1
 10
7.27604
 20
12.7345
 30
0.0
 11
7.74594
 21
12.565
 31
0.0
  0
LINE
  8
0
 62
     1
 10
7.74594
 20
12.565
 30
0.0
 11
8.13181
 21
12.197
 31
0.0
  0
LINE
  8
0
 62
     1
 10
5.62377
 20
15.3472
 30
0.0
 11
5.61139
 21
15.3527
 31
0.0
  0
LINE
  8
0
 62
     1
 10
5.61139
 20
15.3527
 30
0.0
 11
5.48598
 21
15.4161
 31
0.0
  0
LINE
  8
0
 62
     1
 10
5.48598
 20
15.4161
 30
0.0
 11
5.39641
 21
15.5401
 31
0.0
  0
LINE
  8
0
 62
     1
 10
5.39641
 20
15.5401
 30
0.0
 11
5.40741
 21
15.7716
 31
0.0
  0
LINE
  8
0
 62
     1
 10
5.40741
 20
15.7716
 30
0.0
 11
5.57417
 21
15.9439
 31
0.0
  0
LINE
  8
0
 62
     1
 10
5.57417
 20
15.9439
 30
0.0
 11
5.84426
 21
15.9315
 31
0.0
  0
LINE
  8
0
 62
     1
 10
5.84426
 20
15.9315
 30
0.0
 11
6.13502
 21
15.7523
 31
0.0
  0
LINE
  8
0
 62
     1
 10
6.13502
 20
15.7523
 30
0.0
 11
6.39685
 21
15.4699
 31
0.0
  0
LINE
  8
0
 62
     1
 10
6.39685
 20
15.4699
 30
0.0
 11
6.57737
 21
15.1529
 31
0.0
  0
LINE
  8
0
 62
     1
 10
6.57737
 20
15.1529
 30
0.0
 11
6.07991
 21
14.9614
 31
0.0
  0
LINE
  8
0
 62
     1
 10
6.07991
 20
14.9614
 30
0.0
 11
5.88973
 21
15.2232
 31
0.0
  0
LINE
  8
0
 62
     1
 10
5.88973
 20
15.2232
 30
0.0
 11
5.62377
 21
15.3472
 31
0.0
  0
LINE
  8
0
 62
     1
 10
6.62975
 20
15.0151
 30
0.0
 11
6.69177
 21
14.4832
 31
0.0
  0
LINE
  8
0
 62
     1
 10
6.69177
 20
14.4832
 30
0.0
 11
6.55394
 21
13.9912
 31
0.0
  0
LINE
  8
0
 62
     1
 10
6.55394
 20
13.9912
 30
0.0
 11
6.24801
 21
13.5874
 31
0.0
  0
LINE
  8
0
 62
     1
 10
6.24801
 20
13.5874
 30
0.0
 11
5.81258
 21
13.3187
 31
0.0
  0
LINE
  8
0
 62
     1
 10
5.81258
 20
13.3187
 30
0.0
 11
5.30408
 21
13.225
 31
0.0
  0
LINE
  8
0
 62
     1
 10
5.30408
 20
13.225
 30
0.0
 11
4.79972
 21
13.3215
 31
0.0
  0
LINE
  8
0
 62
     1
 10
4.79972
 20
13.3215
 30
0.0
 11
4.36838
 21
13.5888
 31
0.0
  0
LINE
  8
0
 62
     1
 10
4.36838
 20
13.5888
 30
0.0
 11
4.05832
 21
14.0257
 31
0.0
  0
LINE
  8
0
 62
     1
 10
4.05832
 20
14.0257
 30
0.0
 11
4.55164
 21
14.2145
 31
0.0
  0
LINE
  8
0
 62
     1
 10
4.55164
 20
14.2145
 30
0.0
 11
4.7184
 21
13.9899
 31
0.0
  0
LINE
  8
0
 62
     1
 10
4.7184
 20
13.9899
 30
0.0
 11
4.91959
 21
13.8493
 31
0.0
  0
LINE
  8
0
 62
     1
 10
4.91959
 20
13.8493
 30
0.0
 11
5.13733
 21
13.7942
 31
0.0
  0
LINE
  8
0
 62
     1
 10
5.13733
 20
13.7942
 30
0.0
 11
5.33164
 21
13.8121
 31
0.0
  0
LINE
  8
0
 62
     1
 10
5.33164
 20
13.8121
 30
0.0
 11
5.09598
 21
14.4239
 31
0.0
  0
LINE
  8
0
 62
     1
 10
5.09598
 20
14.4239
 30
0.0
 11
5.53283
 21
14.5934
 31
0.0
  0
LINE
  8
0
 62
     1
 10
5.53283
 20
14.5934
 30
0.0
 11
5.77261
 21
13.9706
 31
0.0
  0
LINE
  8
0
 62
     1
 10
5.77261
 20
13.9706
 30
0.0
 11
5.99172
 21
14.129
 31
0.0
  0
LINE
  8
0
 62
     1
 10
5.99172
 20
14.129
 30
0.0
 11
6.12126
 21
14.344
 31
0.0
  0
LINE
  8
0
 62
     1
 10
6.12126
 20
14.344
 30
0.0
 11
6.16673
 21
14.5824
 31
0.0
  0
LINE
  8
0
 62
     1
 10
6.16673
 20
14.5824
 30
0.0
 11
6.13227
 21
14.8235
 31
0.0
  0
LINE
  8
0
 62
     1
 10
6.13227
 20
14.8235
 30
0.0
 11
6.62975
 21
15.0151
 31
0.0
  0
LINE
  8
0
 62
     1
 10
4.00459
 20
14.1648
 30
0.0
 11
3.94395
 21
14.6816
 31
0.0
  0
LINE
  8
0
 62
     1
 10
3.94395
 20
14.6816
 30
0.0
 11
4.06799
 21
15.1667
 31
0.0
  0
LINE
  8
0
 62
     1
 10
4.06799
 20
15.1667
 30
0.0
 11
4.34908
 21
15.5663
 31
0.0
  0
LINE
  8
0
 62
     1
 10
4.34908
 20
15.5663
 30
0.0
 11
4.74183
 21
15.8226
 31
0.0
  0
LINE
  8
0
 62
     1
 10
4.74183
 20
15.8226
 30
0.0
 11
4.97611
 21
15.8075
 31
0.0
  0
LINE
  8
0
 62
     1
 10
4.97611
 20
15.8075
 30
0.0
 11
5.13045
 21
15.6393
 31
0.0
  0
LINE
  8
0
 62
     1
 10
5.13045
 20
15.6393
 30
0.0
 11
5.48047
 21
14.7312
 31
0.0
  0
LINE
  8
0
 62
     1
 10
5.48047
 20
14.7312
 30
0.0
 11
5.04225
 21
14.5631
 31
0.0
  0
LINE
  8
0
 62
     1
 10
5.04225
 20
14.5631
 30
0.0
 11
4.80247
 21
15.1846
 31
0.0
  0
LINE
  8
0
 62
     1
 10
4.80247
 20
15.1846
 30
0.0
 11
4.64813
 21
15.0633
 31
0.0
  0
LINE
  8
0
 62
     1
 10
4.64813
 20
15.0633
 30
0.0
 11
4.52409
 21
14.8773
 31
0.0
  0
LINE
  8
0
 62
     1
 10
4.52409
 20
14.8773
 30
0.0
 11
4.46486
 21
14.632
 31
0.0
  0
LINE
  8
0
 62
     1
 10
4.46486
 20
14.632
 30
0.0
 11
4.49379
 21
14.3509
 31
0.0
  0
LINE
  8
0
 62
     1
 10
4.49379
 20
14.3509
 30
0.0
 11
4.00459
 21
14.1648
 31
0.0
  0
LINE
  8
0
 62
     1
 10
3.42029
 20
17.2999
 30
0.0
 11
5.54662
 21
17.6954
 31
0.0
  0
LINE
  8
0
 62
     1
 10
5.54662
 20
17.6954
 30
0.0
 11
5.77811
 21
17.6416
 31
0.0
  0
LINE
  8
0
 62
     1
 10
5.77811
 20
17.6416
 30
0.0
 11
5.8994
 21
17.4487
 31
0.0
  0
LINE
  8
0
 62
     1
 10
5.8994
 20
17.4487
 30
0.0
 11
5.85668
 21
17.22
 31
0.0
  0
LINE
  8
0
 62
     1
 10
5.85668
 20
17.22
 30
0.0
 11
5.66512
 21
17.0877
 31
0.0
  0
LINE
  8
0
 62
     1
 10
5.66512
 20
17.0877
 30
0.0
 11
3.53466
 21
16.688
 31
0.0
  0
LINE
  8
0
 62
     1
 10
3.53466
 20
16.688
 30
0.0
 11
3.31832
 21
16.7432
 31
0.0
  0
LINE
  8
0
 62
     1
 10
3.31832
 20
16.7432
 30
0.0
 11
3.19016
 21
16.9402
 31
0.0
  0
LINE
  8
0
 62
     1
 10
3.19016
 20
16.9402
 30
0.0
 11
3.23426
 21
17.1662
 31
0.0
  0
LINE
  8
0
 62
     1
 10
3.23426
 20
17.1662
 30
0.0
 11
3.42029
 21
17.2999
 31
0.0
  0
LINE
  8
0
 62
     1
 10
3.28111
 20
17.4253
 30
0.0
 11
3.175
 21
17.5355
 31
0.0
  0
LINE
  8
0
 62
     1
 10
3.175
 20
17.5355
 30
0.0
 11
3.0813
 21
17.6844
 31
0.0
  0
LINE
  8
0
 62
     1
 10
3.0813
 20
17.6844
 30
0.0
 11
3.07992
 21
17.6954
 31
0.0
  0
LINE
  8
0
 62
     1
 10
3.07992
 20
17.6954
 30
0.0
 11
3.05787
 21
17.7602
 31
0.0
  0
LINE
  8
0
 62
     1
 10
3.05787
 20
17.7602
 30
0.0
 11
3.07578
 21
17.9296
 31
0.0
  0
LINE
  8
0
 62
     1
 10
3.07578
 20
17.9296
 30
0.0
 11
3.16811
 21
18.0564
 31
0.0
  0
LINE
  8
0
 62
     1
 10
3.16811
 20
18.0564
 30
0.0
 11
3.17638
 21
18.0633
 31
0.0
  0
LINE
  8
0
 62
     1
 10
3.17638
 20
18.0633
 30
0.0
 11
3.30178
 21
18.1185
 31
0.0
  0
LINE
  8
0
 62
     1
 10
3.30178
 20
18.1185
 30
0.0
 11
3.52089
 21
18.0771
 31
0.0
  0
LINE
  8
0
 62
     1
 10
3.52089
 20
18.0771
 30
0.0
 11
3.65044
 21
17.898
 31
0.0
  0
LINE
  8
0
 62
     1
 10
3.65044
 20
17.898
 30
0.0
 11
3.89297
 21
17.5397
 31
0.0
  0
LINE
  8
0
 62
     1
 10
3.89297
 20
17.5397
 30
0.0
 11
3.28111
 21
17.4253
 31
0.0
  0
LINE
  8
0
 62
     1
 10
3.0813
 20
19.9444
 30
0.0
 11
5.21727
 21
19.8451
 31
0.0
  0
LINE
  8
0
 62
     1
 10
5.21727
 20
19.8451
 30
0.0
 11
5.24207
 21
19.8438
 31
0.0
  0
LINE
  8
0
 62
     1
 10
5.24207
 20
19.8438
 30
0.0
 11
5.44876
 21
19.7404
 31
0.0
  0
LINE
  8
0
 62
     1
 10
5.44876
 20
19.7404
 30
0.0
 11
5.52319
 21
19.5185
 31
0.0
  0
LINE
  8
0
 62
     1
 10
5.52319
 20
19.5185
 30
0.0
 11
5.42946
 21
19.3118
 31
0.0
  0
LINE
  8
0
 62
     1
 10
5.42946
 20
19.3118
 30
0.0
 11
5.2131
 21
19.2264
 31
0.0
  0
LINE
  8
0
 62
     1
 10
5.2131
 20
19.2264
 30
0.0
 11
3.05235
 21
19.327
 31
0.0
  0
LINE
  8
0
 62
     1
 10
3.05235
 20
19.327
 30
0.0
 11
2.84427
 21
19.4317
 31
0.0
  0
LINE
  8
0
 62
     1
 10
2.84427
 20
19.4317
 30
0.0
 11
2.76986
 21
19.6522
 31
0.0
  0
LINE
  8
0
 62
     1
 10
2.76986
 20
19.6522
 30
0.0
 11
2.86907
 21
19.8548
 31
0.0
  0
LINE
  8
0
 62
     1
 10
2.86907
 20
19.8548
 30
0.0
 11
3.0813
 21
19.9444
 31
0.0
  0
LINE
  8
0
 62
     1
 10
5.28066
 20
20.8966
 30
0.0
 11
4.08725
 21
20.9503
 31
0.0
  0
LINE
  8
0
 62
     1
 10
4.08725
 20
20.9503
 30
0.0
 11
3.85851
 21
20.9421
 31
0.0
  0
LINE
  8
0
 62
     1
 10
3.85851
 20
20.9421
 30
0.0
 11
3.63802
 21
20.8773
 31
0.0
  0
LINE
  8
0
 62
     1
 10
3.63802
 20
20.8773
 30
0.0
 11
3.46852
 21
20.7326
 31
0.0
  0
LINE
  8
0
 62
     1
 10
3.46852
 20
20.7326
 30
0.0
 11
3.39135
 21
20.4735
 31
0.0
  0
LINE
  8
0
 62
     1
 10
3.39135
 20
20.4735
 30
0.0
 11
3.42994
 21
20.2365
 31
0.0
  0
LINE
  8
0
 62
     1
 10
3.42994
 20
20.2365
 30
0.0
 11
3.54157
 21
20.0711
 31
0.0
  0
LINE
  8
0
 62
     1
 10
3.54157
 20
20.0711
 30
0.0
 11
2.98345
 21
20.0973
 31
0.0
  0
LINE
  8
0
 62
     1
 10
2.98345
 20
20.0973
 30
0.0
 11
2.86219
 21
20.3412
 31
0.0
  0
LINE
  8
0
 62
     1
 10
2.86219
 20
20.3412
 30
0.0
 11
2.81809
 21
20.6788
 31
0.0
  0
LINE
  8
0
 62
     1
 10
2.81809
 20
20.6788
 30
0.0
 11
2.85254
 21
20.8897
 31
0.0
  0
LINE
  8
0
 62
     1
 10
2.85254
 20
20.8897
 30
0.0
 11
2.94624
 21
21.1033
 31
0.0
  0
LINE
  8
0
 62
     1
 10
2.94624
 20
21.1033
 30
0.0
 11
3.10885
 21
21.2976
 31
0.0
  0
LINE
  8
0
 62
     1
 10
3.10885
 20
21.2976
 30
0.0
 11
3.35828
 21
21.4437
 31
0.0
  0
LINE
  8
0
 62
     1
 10
3.35828
 20
21.4437
 30
0.0
 11
3.17638
 21
21.5911
 31
0.0
  0
LINE
  8
0
 62
     1
 10
3.17638
 20
21.5911
 30
0.0
 11
3.02341
 21
21.7854
 31
0.0
  0
LINE
  8
0
 62
     1
 10
3.02341
 20
21.7854
 30
0.0
 11
2.92558
 21
22.0293
 31
0.0
  0
LINE
  8
0
 62
     1
 10
2.92558
 20
22.0293
 30
0.0
 11
2.89388
 21
22.3228
 31
0.0
  0
LINE
  8
0
 62
     1
 10
2.89388
 20
22.3228
 30
0.0
 11
2.96554
 21
22.6687
 31
0.0
  0
LINE
  8
0
 62
     1
 10
2.96554
 20
22.6687
 30
0.0
 11
3.1874
 21
22.9953
 31
0.0
  0
LINE
  8
0
 62
     1
 10
3.1874
 20
22.9953
 30
0.0
 11
3.38171
 21
23.129
 31
0.0
  0
LINE
  8
0
 62
     1
 10
3.38171
 20
23.129
 30
0.0
 11
3.58842
 21
23.2089
 31
0.0
  0
LINE
  8
0
 62
     1
 10
3.58842
 20
23.2089
 30
0.0
 11
3.85163
 21
23.2365
 31
0.0
  0
LINE
  8
0
 62
     1
 10
3.85163
 20
23.2365
 30
0.0
 11
4.19336
 21
23.2365
 31
0.0
  0
LINE
  8
0
 62
     1
 10
4.19336
 20
23.2365
 30
0.0
 11
5.38674
 21
23.1786
 31
0.0
  0
LINE
  8
0
 62
     1
 10
5.38674
 20
23.1786
 30
0.0
 11
5.59897
 21
23.0753
 31
0.0
  0
LINE
  8
0
 62
     1
 10
5.59897
 20
23.0753
 30
0.0
 11
5.67753
 21
22.8548
 31
0.0
  0
LINE
  8
0
 62
     1
 10
5.67753
 20
22.8548
 30
0.0
 11
5.57417
 21
22.637
 31
0.0
  0
LINE
  8
0
 62
     1
 10
5.57417
 20
22.637
 30
0.0
 11
5.35781
 21
22.5585
 31
0.0
  0
LINE
  8
0
 62
     1
 10
5.35781
 20
22.5585
 30
0.0
 11
4.18786
 21
22.6122
 31
0.0
  0
LINE
  8
0
 62
     1
 10
4.18786
 20
22.6122
 30
0.0
 11
3.95083
 21
22.604
 31
0.0
  0
LINE
  8
0
 62
     1
 10
3.95083
 20
22.604
 30
0.0
 11
3.72622
 21
22.5461
 31
0.0
  0
LINE
  8
0
 62
     1
 10
3.72622
 20
22.5461
 30
0.0
 11
3.5512
 21
22.3986
 31
0.0
  0
LINE
  8
0
 62
     1
 10
3.5512
 20
22.3986
 30
0.0
 11
3.4699
 21
22.1354
 31
0.0
  0
LINE
  8
0
 62
     1
 10
3.4699
 20
22.1354
 30
0.0
 11
3.52089
 21
21.8612
 31
0.0
  0
LINE
  8
0
 62
     1
 10
3.52089
 20
21.8612
 30
0.0
 11
3.67111
 21
21.6931
 31
0.0
  0
LINE
  8
0
 62
     1
 10
3.67111
 20
21.6931
 30
0.0
 11
3.87918
 21
21.598
 31
0.0
  0
LINE
  8
0
 62
     1
 10
3.87918
 20
21.598
 30
0.0
 11
4.11484
 21
21.5677
 31
0.0
  0
LINE
  8
0
 62
     1
 10
4.11484
 20
21.5677
 30
0.0
 11
5.28891
 21
21.5139
 31
0.0
  0
LINE
  8
0
 62
     1
 10
5.28891
 20
21.5139
 30
0.0
 11
5.51766
 21
21.4175
 31
0.0
  0
LINE
  8
0
 62
     1
 10
5.51766
 20
21.4175
 30
0.0
 11
5.60035
 21
21.186
 31
0.0
  0
LINE
  8
0
 62
     1
 10
5.60035
 20
21.186
 30
0.0
 11
5.50115
 21
20.9737
 31
0.0
  0
LINE
  8
0
 62
     1
 10
5.50115
 20
20.9737
 30
0.0
 11
5.28066
 21
20.8966
 31
0.0
  0
LINE
  8
0
 62
     1
 10
2.63205
 20
25.0004
 30
0.0
 11
2.61138
 21
25.2154
 31
0.0
  0
LINE
  8
0
 62
     1
 10
2.61138
 20
25.2154
 30
0.0
 11
2.74919
 21
25.4041
 31
0.0
  0
LINE
  8
0
 62
     1
 10
2.74919
 20
25.4041
 30
0.0
 11
2.97794
 21
25.4413
 31
0.0
  0
LINE
  8
0
 62
     1
 10
2.97794
 20
25.4413
 30
0.0
 11
3.00137
 21
25.4345
 31
0.0
  0
LINE
  8
0
 62
     1
 10
3.00137
 20
25.4345
 30
0.0
 11
3.18327
 21
25.2884
 31
0.0
  0
LINE
  8
0
 62
     1
 10
3.18327
 20
25.2884
 30
0.0
 11
3.20807
 21
25.0583
 31
0.0
  0
LINE
  8
0
 62
     1
 10
3.20807
 20
25.0583
 30
0.0
 11
3.06751
 21
24.8695
 31
0.0
  0
LINE
  8
0
 62
     1
 10
3.06751
 20
24.8695
 30
0.0
 11
2.83463
 21
24.8392
 31
0.0
  0
LINE
  8
0
 62
     1
 10
2.83463
 20
24.8392
 30
0.0
 11
2.63205
 21
25.0004
 31
0.0
  0
LINE
  8
0
 62
     1
 10
3.77031
 20
25.2305
 30
0.0
 11
5.86631
 21
24.6765
 31
0.0
  0
LINE
  8
0
 62
     1
 10
5.86631
 20
24.6765
 30
0.0
 11
6.0482
 21
24.5305
 31
0.0
  0
LINE
  8
0
 62
     1
 10
6.0482
 20
24.5305
 30
0.0
 11
6.073
 21
24.2989
 31
0.0
  0
LINE
  8
0
 62
     1
 10
6.073
 20
24.2989
 30
0.0
 11
5.93796
 21
24.1171
 31
0.0
  0
LINE
  8
0
 62
     1
 10
5.93796
 20
24.1171
 30
0.0
 11
5.70921
 21
24.0785
 31
0.0
  0
LINE
  8
0
 62
     1
 10
5.70921
 20
24.0785
 30
0.0
 11
3.61322
 21
24.6338
 31
0.0
  0
LINE
  8
0
 62
     1
 10
3.61322
 20
24.6338
 30
0.0
 11
3.43683
 21
24.7826
 31
0.0
  0
LINE
  8
0
 62
     1
 10
3.43683
 20
24.7826
 30
0.0
 11
3.40927
 21
25.0045
 31
0.0
  0
LINE
  8
0
 62
     1
 10
3.40927
 20
25.0045
 30
0.0
 11
3.54432
 21
25.1891
 31
0.0
  0
LINE
  8
0
 62
     1
 10
3.54432
 20
25.1891
 30
0.0
 11
3.77031
 21
25.2305
 31
0.0
  0
LINE
  8
0
 62
     1
 10
4.17269
 20
27.2562
 30
0.0
 11
4.28706
 21
27.4285
 31
0.0
  0
LINE
  8
0
 62
     1
 10
4.28706
 20
27.4285
 30
0.0
 11
4.43727
 21
27.5869
 31
0.0
  0
LINE
  8
0
 62
     1
 10
4.43727
 20
27.5869
 30
0.0
 11
4.63021
 21
27.7041
 31
0.0
  0
LINE
  8
0
 62
     1
 10
4.63021
 20
27.7041
 30
0.0
 11
4.86311
 21
27.7633
 31
0.0
  0
LINE
  8
0
 62
     1
 10
4.86311
 20
27.7633
 30
0.0
 11
4.87137
 21
27.7592
 31
0.0
  0
LINE
  8
0
 62
     1
 10
4.87137
 20
27.7592
 30
0.0
 11
5.00228
 21
27.7372
 31
0.0
  0
LINE
  8
0
 62
     1
 10
5.00228
 20
27.7372
 30
0.0
 11
5.16488
 21
27.5746
 31
0.0
  0
LINE
  8
0
 62
     1
 10
5.16488
 20
27.5746
 30
0.0
 11
5.16488
 21
27.3554
 31
0.0
  0
LINE
  8
0
 62
     1
 10
5.16488
 20
27.3554
 30
0.0
 11
5.11803
 21
27.2783
 31
0.0
  0
LINE
  8
0
 62
     1
 10
5.11803
 20
27.2783
 30
0.0
 11
5.04088
 21
27.2094
 31
0.0
  0
LINE
  8
0
 62
     1
 10
5.04088
 20
27.2094
 30
0.0
 11
4.94993
 21
27.1735
 31
0.0
  0
LINE
  8
0
 62
     1
 10
4.94993
 20
27.1735
 30
0.0
 11
4.86174
 21
27.1763
 31
0.0
  0
LINE
  8
0
 62
     1
 10
4.86174
 20
27.1763
 30
0.0
 11
4.74871
 21
27.1473
 31
0.0
  0
LINE
  8
0
 62
     1
 10
4.74871
 20
27.1473
 30
0.0
 11
4.644
 21
27.0633
 31
0.0
  0
LINE
  8
0
 62
     1
 10
4.644
 20
27.0633
 30
0.0
 11
4.17407
 21
27.2562
 31
0.0
  0
LINE
  8
0
 62
     1
 10
4.17407
 20
27.2562
 30
0.0
 11
4.17269
 21
27.2562
 31
0.0
  0
LINE
  8
0
 62
     1
 10
5.58243
 20
26.5148
 30
0.0
 11
5.35369
 21
26.2571
 31
0.0
  0
LINE
  8
0
 62
     1
 10
5.35369
 20
26.2571
 30
0.0
 11
5.11665
 21
26.0449
 31
0.0
  0
LINE
  8
0
 62
     1
 10
5.11665
 20
26.0449
 30
0.0
 11
4.85207
 21
25.9347
 31
0.0
  0
LINE
  8
0
 62
     1
 10
4.85207
 20
25.9347
 30
0.0
 11
4.54064
 21
25.9843
 31
0.0
  0
LINE
  8
0
 62
     1
 10
4.54064
 20
25.9843
 30
0.0
 11
4.26089
 21
26.1745
 31
0.0
  0
LINE
  8
0
 62
     1
 10
4.26089
 20
26.1745
 30
0.0
 11
4.09279
 21
26.4528
 31
0.0
  0
LINE
  8
0
 62
     1
 10
4.09279
 20
26.4528
 30
0.0
 11
4.04453
 21
26.7766
 31
0.0
  0
LINE
  8
0
 62
     1
 10
4.04453
 20
26.7766
 30
0.0
 11
4.11621
 21
27.1198
 31
0.0
  0
LINE
  8
0
 62
     1
 10
4.11621
 20
27.1198
 30
0.0
 11
4.57786
 21
26.9296
 31
0.0
  0
LINE
  8
0
 62
     1
 10
4.57786
 20
26.9296
 30
0.0
 11
4.58061
 21
26.705
 31
0.0
  0
LINE
  8
0
 62
     1
 10
4.58061
 20
26.705
 30
0.0
 11
4.71152
 21
26.581
 31
0.0
  0
LINE
  8
0
 62
     1
 10
4.71152
 20
26.581
 30
0.0
 11
4.89204
 21
26.592
 31
0.0
  0
LINE
  8
0
 62
     1
 10
4.89204
 20
26.592
 30
0.0
 11
5.06705
 21
26.7284
 31
0.0
  0
LINE
  8
0
 62
     1
 10
5.06705
 20
26.7284
 30
0.0
 11
5.58243
 21
26.5148
 31
0.0
  0
LINE
  8
0
 62
     1
 10
6.24664
 20
26.4018
 30
0.0
 11
6.22875
 21
26.6182
 31
0.0
  0
LINE
  8
0
 62
     1
 10
6.22875
 20
26.6182
 30
0.0
 11
6.07991
 21
26.7643
 31
0.0
  0
LINE
  8
0
 62
     1
 10
6.07991
 20
26.7643
 30
0.0
 11
5.89111
 21
26.7725
 31
0.0
  0
LINE
  8
0
 62
     1
 10
5.89111
 20
26.7725
 30
0.0
 11
5.69405
 21
26.6306
 31
0.0
  0
LINE
  8
0
 62
     1
 10
5.69405
 20
26.6306
 30
0.0
 11
5.16901
 21
26.847
 31
0.0
  0
LINE
  8
0
 62
     1
 10
5.16901
 20
26.847
 30
0.0
 11
5.18693
 21
26.8663
 31
0.0
  0
LINE
  8
0
 62
     1
 10
5.18693
 20
26.8663
 30
0.0
 11
5.3909
 21
27.1143
 31
0.0
  0
LINE
  8
0
 62
     1
 10
5.3909
 20
27.1143
 30
0.0
 11
5.62652
 21
27.3224
 31
0.0
  0
LINE
  8
0
 62
     1
 10
5.62652
 20
27.3224
 30
0.0
 11
5.90903
 21
27.4243
 31
0.0
  0
LINE
  8
0
 62
     1
 10
5.90903
 20
27.4243
 30
0.0
 11
6.25768
 21
27.3651
 31
0.0
  0
LINE
  8
0
 62
     1
 10
6.25768
 20
27.3651
 30
0.0
 11
6.54706
 21
27.1708
 31
0.0
  0
LINE
  8
0
 62
     1
 10
6.54706
 20
27.1708
 30
0.0
 11
6.7207
 21
26.8911
 31
0.0
  0
LINE
  8
0
 62
     1
 10
6.7207
 20
26.8911
 30
0.0
 11
6.7758
 21
26.5576
 31
0.0
  0
LINE
  8
0
 62
     1
 10
6.7758
 20
26.5576
 30
0.0
 11
6.71657
 21
26.2075
 31
0.0
  0
LINE
  8
0
 62
     1
 10
6.71657
 20
26.2075
 30
0.0
 11
6.24664
 21
26.4018
 31
0.0
  0
LINE
  8
0
 62
     1
 10
5.83046
 20
25.473
 30
0.0
 11
5.76573
 21
25.4854
 31
0.0
  0
LINE
  8
0
 62
     1
 10
5.76573
 20
25.4854
 30
0.0
 11
5.70234
 21
25.4992
 31
0.0
  0
LINE
  8
0
 62
     1
 10
5.70234
 20
25.4992
 30
0.0
 11
5.53833
 21
25.6591
 31
0.0
  0
LINE
  8
0
 62
     1
 10
5.53833
 20
25.6591
 30
0.0
 11
5.5397
 21
25.8919
 31
0.0
  0
LINE
  8
0
 62
     1
 10
5.5397
 20
25.8919
 30
0.0
 11
5.63894
 21
26.0174
 31
0.0
  0
LINE
  8
0
 62
     1
 10
5.63894
 20
26.0174
 30
0.0
 11
5.78637
 21
26.078
 31
0.0
  0
LINE
  8
0
 62
     1
 10
5.78637
 20
26.078
 30
0.0
 11
5.80429
 21
26.0821
 31
0.0
  0
LINE
  8
0
 62
     1
 10
5.80429
 20
26.0821
 30
0.0
 11
5.84701
 21
26.0808
 31
0.0
  0
LINE
  8
0
 62
     1
 10
5.84701
 20
26.0808
 30
0.0
 11
5.8553
 21
26.0766
 31
0.0
  0
LINE
  8
0
 62
     1
 10
5.8553
 20
26.0766
 30
0.0
 11
6.06887
 21
26.1276
 31
0.0
  0
LINE
  8
0
 62
     1
 10
6.06887
 20
26.1276
 30
0.0
 11
6.19428
 21
26.264
 31
0.0
  0
LINE
  8
0
 62
     1
 10
6.19428
 20
26.264
 30
0.0
 11
6.66006
 21
26.0725
 31
0.0
  0
LINE
  8
0
 62
     1
 10
6.66006
 20
26.0725
 30
0.0
 11
6.53327
 21
25.8561
 31
0.0
  0
LINE
  8
0
 62
     1
 10
6.53327
 20
25.8561
 30
0.0
 11
6.34862
 21
25.666
 31
0.0
  0
LINE
  8
0
 62
     1
 10
6.34862
 20
25.666
 30
0.0
 11
6.11434
 21
25.5282
 31
0.0
  0
LINE
  8
0
 62
     1
 10
6.11434
 20
25.5282
 30
0.0
 11
5.83046
 21
25.473
 31
0.0
  0
LINE
  8
0
 62
     1
 10
5.51078
 20
29.8511
 30
0.0
 11
5.65132
 21
30.0027
 31
0.0
  0
LINE
  8
0
 62
     1
 10
5.65132
 20
30.0027
 30
0.0
 11
5.82496
 21
30.1322
 31
0.0
  0
LINE
  8
0
 62
     1
 10
5.82496
 20
30.1322
 30
0.0
 11
6.03444
 21
30.219
 31
0.0
  0
LINE
  8
0
 62
     1
 10
6.03444
 20
30.219
 30
0.0
 11
6.27422
 21
30.2369
 31
0.0
  0
LINE
  8
0
 62
     1
 10
6.27422
 20
30.2369
 30
0.0
 11
6.28248
 21
30.2328
 31
0.0
  0
LINE
  8
0
 62
     1
 10
6.28248
 20
30.2328
 30
0.0
 11
6.40652
 21
30.1887
 31
0.0
  0
LINE
  8
0
 62
     1
 10
6.40652
 20
30.1887
 30
0.0
 11
6.54018
 21
30.0013
 31
0.0
  0
LINE
  8
0
 62
     1
 10
6.54018
 20
30.0013
 30
0.0
 11
6.50434
 21
29.7849
 31
0.0
  0
LINE
  8
0
 62
     1
 10
6.50434
 20
29.7849
 30
0.0
 11
6.44507
 21
29.7188
 31
0.0
  0
LINE
  8
0
 62
     1
 10
6.44507
 20
29.7188
 30
0.0
 11
6.35825
 21
29.6609
 31
0.0
  0
LINE
  8
0
 62
     1
 10
6.35825
 20
29.6609
 30
0.0
 11
6.26181
 21
29.6388
 31
0.0
  0
LINE
  8
0
 62
     1
 10
6.26181
 20
29.6388
 30
0.0
 11
6.17499
 21
29.6595
 31
0.0
  0
LINE
  8
0
 62
     1
 10
6.17499
 20
29.6595
 30
0.0
 11
6.05924
 21
29.6499
 31
0.0
  0
LINE
  8
0
 62
     1
 10
6.05924
 20
29.6499
 30
0.0
 11
5.94212
 21
29.5837
 31
0.0
  0
LINE
  8
0
 62
     1
 10
5.94212
 20
29.5837
 30
0.0
 11
5.51078
 21
29.8511
 31
0.0
  0
LINE
  8
0
 62
     1
 10
6.77718
 20
28.8878
 30
0.0
 11
6.50847
 21
28.6728
 31
0.0
  0
LINE
  8
0
 62
     1
 10
6.50847
 20
28.6728
 30
0.0
 11
6.23976
 21
28.5006
 31
0.0
  0
LINE
  8
0
 62
     1
 10
6.23976
 20
28.5006
 30
0.0
 11
5.96138
 21
28.4372
 31
0.0
  0
LINE
  8
0
 62
     1
 10
5.96138
 20
28.4372
 30
0.0
 11
5.66237
 21
28.535
 31
0.0
  0
LINE
  8
0
 62
     1
 10
5.66237
 20
28.535
 30
0.0
 11
5.41845
 21
28.7693
 31
0.0
  0
LINE
  8
0
 62
     1
 10
5.41845
 20
28.7693
 30
0.0
 11
5.29717
 21
29.0725
 31
0.0
  0
LINE
  8
0
 62
     1
 10
5.29717
 20
29.0725
 30
0.0
 11
5.30408
 21
29.3991
 31
0.0
  0
LINE
  8
0
 62
     1
 10
5.30408
 20
29.3991
 30
0.0
 11
5.43221
 21
29.7257
 31
0.0
  0
LINE
  8
0
 62
     1
 10
5.43221
 20
29.7257
 30
0.0
 11
5.8553
 21
29.4624
 31
0.0
  0
LINE
  8
0
 62
     1
 10
5.8553
 20
29.4624
 30
0.0
 11
5.82083
 21
29.2392
 31
0.0
  0
LINE
  8
0
 62
     1
 10
5.82083
 20
29.2392
 30
0.0
 11
5.9297
 21
29.0959
 31
0.0
  0
LINE
  8
0
 62
     1
 10
5.9297
 20
29.0959
 30
0.0
 11
6.11022
 21
29.0766
 31
0.0
  0
LINE
  8
0
 62
     1
 10
6.11022
 20
29.0766
 30
0.0
 11
6.30453
 21
29.1827
 31
0.0
  0
LINE
  8
0
 62
     1
 10
6.30453
 20
29.1827
 30
0.0
 11
6.77718
 21
28.8878
 31
0.0
  0
LINE
  8
0
 62
     1
 10
7.41384
 20
28.6659
 30
0.0
 11
7.43176
 21
28.8823
 31
0.0
  0
LINE
  8
0
 62
     1
 10
7.43176
 20
28.8823
 30
0.0
 11
7.31051
 21
29.0504
 31
0.0
  0
LINE
  8
0
 62
     1
 10
7.31051
 20
29.0504
 30
0.0
 11
7.12445
 21
29.0904
 31
0.0
  0
LINE
  8
0
 62
     1
 10
7.12445
 20
29.0904
 30
0.0
 11
6.90672
 21
28.9843
 31
0.0
  0
LINE
  8
0
 62
     1
 10
6.90672
 20
28.9843
 30
0.0
 11
6.4244
 21
29.2819
 31
0.0
  0
LINE
  8
0
 62
     1
 10
6.4244
 20
29.2819
 30
0.0
 11
6.44507
 21
29.2985
 31
0.0
  0
LINE
  8
0
 62
     1
 10
6.44507
 20
29.2985
 30
0.0
 11
6.68761
 21
29.5079
 31
0.0
  0
LINE
  8
0
 62
     1
 10
6.68761
 20
29.5079
 30
0.0
 11
6.95357
 21
29.6747
 31
0.0
  0
LINE
  8
0
 62
     1
 10
6.95357
 20
29.6747
 30
0.0
 11
7.24849
 21
29.7284
 31
0.0
  0
LINE
  8
0
 62
     1
 10
7.24849
 20
29.7284
 30
0.0
 11
7.58472
 21
29.614
 31
0.0
  0
LINE
  8
0
 62
     1
 10
7.58472
 20
29.614
 30
0.0
 11
7.83689
 21
29.3743
 31
0.0
  0
LINE
  8
0
 62
     1
 10
7.83689
 20
29.3743
 30
0.0
 11
7.9623
 21
29.0711
 31
0.0
  0
LINE
  8
0
 62
     1
 10
7.9623
 20
29.0711
 30
0.0
 11
7.96092
 21
28.7335
 31
0.0
  0
LINE
  8
0
 62
     1
 10
7.96092
 20
28.7335
 30
0.0
 11
7.84518
 21
28.3972
 31
0.0
  0
LINE
  8
0
 62
     1
 10
7.84518
 20
28.3972
 30
0.0
 11
7.41384
 21
28.6659
 31
0.0
  0
LINE
  8
0
 62
     1
 10
6.85024
 20
27.8198
 30
0.0
 11
6.78822
 21
27.8391
 31
0.0
  0
LINE
  8
0
 62
     1
 10
6.78822
 20
27.8391
 30
0.0
 11
6.72895
 21
27.8667
 31
0.0
  0
LINE
  8
0
 62
     1
 10
6.72895
 20
27.8667
 30
0.0
 11
6.59253
 21
28.0486
 31
0.0
  0
LINE
  8
0
 62
     1
 10
6.59253
 20
28.0486
 30
0.0
 11
6.6325
 21
28.2801
 31
0.0
  0
LINE
  8
0
 62
     1
 10
6.6325
 20
28.2801
 30
0.0
 11
6.751
 21
28.3862
 31
0.0
  0
LINE
  8
0
 62
     1
 10
6.751
 20
28.3862
 30
0.0
 11
6.90672
 21
28.4248
 31
0.0
  0
LINE
  8
0
 62
     1
 10
6.90672
 20
28.4248
 30
0.0
 11
6.92464
 21
28.4248
 31
0.0
  0
LINE
  8
0
 62
     1
 10
6.92464
 20
28.4248
 30
0.0
 11
6.96599
 21
28.4152
 31
0.0
  0
LINE
  8
0
 62
     1
 10
6.96599
 20
28.4152
 30
0.0
 11
6.97424
 21
28.4097
 31
0.0
  0
LINE
  8
0
 62
     1
 10
6.97424
 20
28.4097
 30
0.0
 11
7.19335
 21
28.4248
 31
0.0
  0
LINE
  8
0
 62
     1
 10
7.19335
 20
28.4248
 30
0.0
 11
7.33944
 21
28.5378
 31
0.0
  0
LINE
  8
0
 62
     1
 10
7.33944
 20
28.5378
 30
0.0
 11
7.76661
 21
28.2718
 31
0.0
  0
LINE
  8
0
 62
     1
 10
7.76661
 20
28.2718
 30
0.0
 11
7.60677
 21
28.0803
 31
0.0
  0
LINE
  8
0
 62
     1
 10
7.60677
 20
28.0803
 30
0.0
 11
7.39316
 21
27.9246
 31
0.0
  0
LINE
  8
0
 62
     1
 10
7.39316
 20
27.9246
 30
0.0
 11
7.13962
 21
27.8253
 31
0.0
  0
LINE
  8
0
 62
     1
 10
7.13962
 20
27.8253
 30
0.0
 11
6.85024
 21
27.8198
 31
0.0
  0
LINE
  8
0
 62
     1
 10
6.1171
 20
32.0118
 30
0.0
 11
6.18878
 21
32.2171
 31
0.0
  0
LINE
  8
0
 62
     1
 10
6.18878
 20
32.2171
 30
0.0
 11
6.39135
 21
32.3301
 31
0.0
  0
LINE
  8
0
 62
     1
 10
6.39135
 20
32.3301
 30
0.0
 11
6.61458
 21
32.2682
 31
0.0
  0
LINE
  8
0
 62
     1
 10
6.61458
 20
32.2682
 30
0.0
 11
6.63388
 21
32.253
 31
0.0
  0
LINE
  8
0
 62
     1
 10
6.63388
 20
32.253
 30
0.0
 11
6.73862
 21
32.0449
 31
0.0
  0
LINE
  8
0
 62
     1
 10
6.73862
 20
32.0449
 30
0.0
 11
6.66556
 21
31.8244
 31
0.0
  0
LINE
  8
0
 62
     1
 10
6.66556
 20
31.8244
 30
0.0
 11
6.45887
 21
31.7128
 31
0.0
  0
LINE
  8
0
 62
     1
 10
6.45887
 20
31.7128
 30
0.0
 11
6.23425
 21
31.7817
 31
0.0
  0
LINE
  8
0
 62
     1
 10
6.23425
 20
31.7817
 30
0.0
 11
6.1171
 21
32.0118
 31
0.0
  0
LINE
  8
0
 62
     1
 10
7.24849
 20
31.7472
 30
0.0
 11
8.92281
 21
30.3706
 31
0.0
  0
LINE
  8
0
 62
     1
 10
8.92281
 20
30.3706
 30
0.0
 11
9.02751
 21
30.1639
 31
0.0
  0
LINE
  8
0
 62
     1
 10
9.02751
 20
30.1639
 30
0.0
 11
8.95449
 21
29.942
 31
0.0
  0
LINE
  8
0
 62
     1
 10
8.95449
 20
29.942
 30
0.0
 11
8.75467
 21
29.8318
 31
0.0
  0
LINE
  8
0
 62
     1
 10
8.75467
 20
29.8318
 30
0.0
 11
8.53144
 21
29.8952
 31
0.0
  0
LINE
  8
0
 62
     1
 10
8.53144
 20
29.8952
 30
0.0
 11
6.85574
 21
31.2704
 31
0.0
  0
LINE
  8
0
 62
     1
 10
6.85574
 20
31.2704
 30
0.0
 11
6.75792
 21
31.4799
 31
0.0
  0
LINE
  8
0
 62
     1
 10
6.75792
 20
31.4799
 30
0.0
 11
6.82544
 21
31.6921
 31
0.0
  0
LINE
  8
0
 62
     1
 10
6.82544
 20
31.6921
 30
0.0
 11
7.02525
 21
31.8037
 31
0.0
  0
LINE
  8
0
 62
     1
 10
7.02525
 20
31.8037
 30
0.0
 11
7.24849
 21
31.7472
 31
0.0
  0
LINE
  8
0
 62
     1
 10
10.3436
 20
32.2006
 30
0.0
 11
10.4965
 21
32.439
 31
0.0
  0
LINE
  8
0
 62
     1
 10
10.4965
 20
32.439
 30
0.0
 11
10.5489
 21
32.7077
 31
0.0
  0
LINE
  8
0
 62
     1
 10
10.5489
 20
32.7077
 30
0.0
 11
10.5006
 21
32.9875
 31
0.0
  0
LINE
  8
0
 62
     1
 10
10.5006
 20
32.9875
 30
0.0
 11
10.3422
 21
33.2493
 31
0.0
  0
LINE
  8
0
 62
     1
 10
10.3422
 20
33.2493
 30
0.0
 11
10.1024
 21
33.4409
 31
0.0
  0
LINE
  8
0
 62
     1
 10
10.1024
 20
33.4409
 30
0.0
 11
9.8323
 21
33.5249
 31
0.0
  0
LINE
  8
0
 62
     1
 10
9.8323
 20
33.5249
 30
0.0
 11
9.55809
 21
33.5084
 31
0.0
  0
LINE
  8
0
 62
     1
 10
9.55809
 20
33.5084
 30
0.0
 11
9.30176
 21
33.3871
 31
0.0
  0
LINE
  8
0
 62
     1
 10
9.30176
 20
33.3871
 30
0.0
 11
8.91727
 21
33.8253
 31
0.0
  0
LINE
  8
0
 62
     1
 10
8.91727
 20
33.8253
 30
0.0
 11
9.43543
 21
34.0899
 31
0.0
  0
LINE
  8
0
 62
     1
 10
9.43543
 20
34.0899
 30
0.0
 11
9.95497
 21
34.1271
 31
0.0
  0
LINE
  8
0
 62
     1
 10
9.95497
 20
34.1271
 30
0.0
 11
10.4317
 21
33.9659
 31
0.0
  0
LINE
  8
0
 62
     1
 10
10.4317
 20
33.9659
 30
0.0
 11
10.8107
 21
33.66
 31
0.0
  0
LINE
  8
0
 62
     1
 10
10.8107
 20
33.66
 30
0.0
 11
11.0698
 21
33.2369
 31
0.0
  0
LINE
  8
0
 62
     1
 10
11.0698
 20
33.2369
 30
0.0
 11
11.1635
 21
32.7477
 31
0.0
  0
LINE
  8
0
 62
     1
 10
11.1635
 20
32.7477
 30
0.0
 11
11.0601
 21
32.2364
 31
0.0
  0
LINE
  8
0
 62
     1
 10
11.0601
 20
32.2364
 30
0.0
 11
10.728
 21
31.7624
 31
0.0
  0
LINE
  8
0
 62
     1
 10
10.728
 20
31.7624
 30
0.0
 11
10.3436
 21
32.2006
 31
0.0
  0
LINE
  8
0
 62
     1
 10
9.18877
 20
32.2364
 30
0.0
 11
9.42717
 21
32.0463
 31
0.0
  0
LINE
  8
0
 62
     1
 10
9.42717
 20
32.0463
 30
0.0
 11
9.69864
 21
31.9622
 31
0.0
  0
LINE
  8
0
 62
     1
 10
9.69864
 20
31.9622
 30
0.0
 11
9.97285
 21
31.9801
 31
0.0
  0
LINE
  8
0
 62
     1
 10
9.97285
 20
31.9801
 30
0.0
 11
10.2333
 21
32.1014
 31
0.0
  0
LINE
  8
0
 62
     1
 10
10.2333
 20
32.1014
 30
0.0
 11
10.6178
 21
31.6646
 31
0.0
  0
LINE
  8
0
 62
     1
 10
10.6178
 20
31.6646
 30
0.0
 11
10.0996
 21
31.3945
 31
0.0
  0
LINE
  8
0
 62
     1
 10
10.0996
 20
31.3945
 30
0.0
 11
9.58289
 21
31.36
 31
0.0
  0
LINE
  8
0
 62
     1
 10
9.58289
 20
31.36
 30
0.0
 11
9.1102
 21
31.5171
 31
0.0
  0
LINE
  8
0
 62
     1
 10
9.1102
 20
31.5171
 30
0.0
 11
8.72437
 21
31.8299
 31
0.0
  0
LINE
  8
0
 62
     1
 10
8.72437
 20
31.8299
 30
0.0
 11
8.47079
 21
32.2461
 31
0.0
  0
LINE
  8
0
 62
     1
 10
8.47079
 20
32.2461
 30
0.0
 11
8.37434
 21
32.7381
 31
0.0
  0
LINE
  8
0
 62
     1
 10
8.37434
 20
32.7381
 30
0.0
 11
8.47355
 21
33.2466
 31
0.0
  0
LINE
  8
0
 62
     1
 10
8.47355
 20
33.2466
 30
0.0
 11
8.80565
 21
33.7289
 31
0.0
  0
LINE
  8
0
 62
     1
 10
8.80565
 20
33.7289
 30
0.0
 11
9.19014
 21
33.2907
 31
0.0
  0
LINE
  8
0
 62
     1
 10
9.19014
 20
33.2907
 30
0.0
 11
9.03443
 21
33.0481
 31
0.0
  0
LINE
  8
0
 62
     1
 10
9.03443
 20
33.0481
 30
0.0
 11
8.98204
 21
32.778
 31
0.0
  0
LINE
  8
0
 62
     1
 10
8.98204
 20
32.778
 30
0.0
 11
9.0303
 21
32.4983
 31
0.0
  0
LINE
  8
0
 62
     1
 10
9.0303
 20
32.4983
 30
0.0
 11
9.18877
 21
32.2364
 31
0.0
  0
LINE
  8
0
 62
     1
 10
11.7326
 20
35.5134
 30
0.0
 11
12.7524
 21
33.6283
 31
0.0
  0
LINE
  8
0
 62
     1
 10
12.7524
 20
33.6283
 30
0.0
 11
12.762
 21
33.6117
 31
0.0
  0
LINE
  8
0
 62
     1
 10
12.762
 20
33.6117
 30
0.0
 11
12.7827
 21
33.3761
 31
0.0
  0
LINE
  8
0
 62
     1
 10
12.7827
 20
33.3761
 30
0.0
 11
12.6311
 21
33.1997
 31
0.0
  0
LINE
  8
0
 62
     1
 10
12.6311
 20
33.1997
 30
0.0
 11
12.4051
 21
33.1722
 31
0.0
  0
LINE
  8
0
 62
     1
 10
12.4051
 20
33.1722
 30
0.0
 11
12.2204
 21
33.3127
 31
0.0
  0
LINE
  8
0
 62
     1
 10
12.2204
 20
33.3127
 30
0.0
 11
11.1897
 21
35.2199
 31
0.0
  0
LINE
  8
0
 62
     1
 10
11.1897
 20
35.2199
 30
0.0
 11
11.1731
 21
35.4485
 31
0.0
  0
LINE
  8
0
 62
     1
 10
11.1731
 20
35.4485
 30
0.0
 11
11.3247
 21
35.6249
 31
0.0
  0
LINE
  8
0
 62
     1
 10
11.3247
 20
35.6249
 30
0.0
 11
11.5535
 21
35.6471
 31
0.0
  0
LINE
  8
0
 62
     1
 10
11.5535
 20
35.6471
 30
0.0
 11
11.7326
 21
35.5134
 31
0.0
  0
LINE
  8
0
 62
     1
 10
12.3927
 20
35.5395
 30
0.0
 11
12.1791
 21
35.373
 31
0.0
  0
LINE
  8
0
 62
     1
 10
12.1791
 20
35.373
 30
0.0
 11
12.084
 21
35.1758
 31
0.0
  0
LINE
  8
0
 62
     1
 10
12.084
 20
35.1758
 30
0.0
 11
11.8153
 21
35.6718
 31
0.0
  0
LINE
  8
0
 62
     1
 10
11.8153
 20
35.6718
 30
0.0
 11
11.971
 21
35.9117
 31
0.0
  0
LINE
  8
0
 62
     1
 10
11.971
 20
35.9117
 30
0.0
 11
12.2673
 21
36.1336
 31
0.0
  0
LINE
  8
0
 62
     1
 10
12.2673
 20
36.1336
 30
0.0
 11
12.7703
 21
36.2825
 31
0.0
  0
LINE
  8
0
 62
     1
 10
12.7703
 20
36.2825
 30
0.0
 11
13.1713
 21
36.1858
 31
0.0
  0
LINE
  8
0
 62
     1
 10
13.1713
 20
36.1858
 30
0.0
 11
13.4758
 21
35.935
 31
0.0
  0
LINE
  8
0
 62
     1
 10
13.4758
 20
35.935
 30
0.0
 11
13.6826
 21
35.6362
 31
0.0
  0
LINE
  8
0
 62
     1
 10
13.6826
 20
35.6362
 30
0.0
 11
14.3192
 21
34.4592
 31
0.0
  0
LINE
  8
0
 62
     1
 10
14.3192
 20
34.4592
 30
0.0
 11
14.344
 21
34.2249
 31
0.0
  0
LINE
  8
0
 62
     1
 10
14.344
 20
34.2249
 30
0.0
 11
14.1952
 21
34.0444
 31
0.0
  0
LINE
  8
0
 62
     1
 10
14.1952
 20
34.0444
 30
0.0
 11
13.9581
 21
34.0169
 31
0.0
  0
LINE
  8
0
 62
     1
 10
13.9581
 20
34.0169
 30
0.0
 11
13.7763
 21
34.1657
 31
0.0
  0
LINE
  8
0
 62
     1
 10
13.7763
 20
34.1657
 30
0.0
 11
13.2112
 21
35.2075
 31
0.0
  0
LINE
  8
0
 62
     1
 10
13.2112
 20
35.2075
 30
0.0
 11
13.0583
 21
35.4281
 31
0.0
  0
LINE
  8
0
 62
     1
 10
13.0583
 20
35.4281
 30
0.0
 11
12.8778
 21
35.5769
 31
0.0
  0
LINE
  8
0
 62
     1
 10
12.8778
 20
35.5769
 30
0.0
 11
12.6573
 21
35.621
 31
0.0
  0
LINE
  8
0
 62
     1
 10
12.6573
 20
35.621
 30
0.0
 11
12.3927
 21
35.5395
 31
0.0
  0
LINE
  8
0
 62
     1
 10
29.4969
 20
34.8864
 30
0.0
 11
28.5957
 21
33.3912
 31
0.0
  0
LINE
  8
0
 62
     1
 10
28.5957
 20
33.3912
 30
0.0
 11
28.5585
 21
33.3375
 31
0.0
  0
LINE
  8
0
 62
     1
 10
28.5585
 20
33.3375
 30
0.0
 11
28.5461
 21
33.3265
 31
0.0
  0
LINE
  8
0
 62
     1
 10
28.5461
 20
33.3265
 30
0.0
 11
28.5405
 21
33.3196
 31
0.0
  0
LINE
  8
0
 62
     1
 10
28.5405
 20
33.3196
 30
0.0
 11
28.5309
 21
33.3127
 31
0.0
  0
LINE
  8
0
 62
     1
 10
28.5309
 20
33.3127
 30
0.0
 11
28.5226
 21
33.3058
 31
0.0
  0
LINE
  8
0
 62
     1
 10
28.5226
 20
33.3058
 30
0.0
 11
28.5199
 21
33.303
 31
0.0
  0
LINE
  8
0
 62
     1
 10
28.5199
 20
33.303
 30
0.0
 11
28.5102
 21
33.2962
 31
0.0
  0
LINE
  8
0
 62
     1
 10
28.5102
 20
33.2962
 30
0.0
 11
28.4
 21
33.2479
 31
0.0
  0
LINE
  8
0
 62
     1
 10
28.4
 20
33.2479
 30
0.0
 11
28.2829
 21
33.2452
 31
0.0
  0
LINE
  8
0
 62
     1
 10
28.2829
 20
33.2452
 30
0.0
 11
28.1754
 21
33.2851
 31
0.0
  0
LINE
  8
0
 62
     1
 10
28.1754
 20
33.2851
 30
0.0
 11
28.0831
 21
33.3637
 31
0.0
  0
LINE
  8
0
 62
     1
 10
28.0831
 20
33.3637
 30
0.0
 11
28.0362
 21
33.467
 31
0.0
  0
LINE
  8
0
 62
     1
 10
28.0362
 20
33.467
 30
0.0
 11
28.0665
 21
33.7082
 31
0.0
  0
LINE
  8
0
 62
     1
 10
28.0665
 20
33.7082
 30
0.0
 11
28.9677
 21
35.2061
 31
0.0
  0
LINE
  8
0
 62
     1
 10
28.9677
 20
35.2061
 30
0.0
 11
29.4969
 21
34.8864
 31
0.0
  0
LINE
  8
0
 62
     1
 10
29.8235
 20
34.863
 30
0.0
 11
29.5741
 21
35.0146
 31
0.0
  0
LINE
  8
0
 62
     1
 10
29.5741
 20
35.0146
 30
0.0
 11
29.0449
 21
35.3342
 31
0.0
  0
LINE
  8
0
 62
     1
 10
29.0449
 20
35.3342
 30
0.0
 11
28.812
 21
35.4722
 31
0.0
  0
LINE
  8
0
 62
     1
 10
28.812
 20
35.4722
 30
0.0
 11
28.7073
 21
35.6045
 31
0.0
  0
LINE
  8
0
 62
     1
 10
28.7073
 20
35.6045
 30
0.0
 11
28.7307
 21
35.7974
 31
0.0
  0
LINE
  8
0
 62
     1
 10
28.7307
 20
35.7974
 30
0.0
 11
28.8906
 21
35.9089
 31
0.0
  0
LINE
  8
0
 62
     1
 10
28.8906
 20
35.9089
 30
0.0
 11
28.9774
 21
35.9089
 31
0.0
  0
LINE
  8
0
 62
     1
 10
28.9774
 20
35.9089
 30
0.0
 11
29.0532
 21
35.8814
 31
0.0
  0
LINE
  8
0
 62
     1
 10
29.0532
 20
35.8814
 30
0.0
 11
29.2888
 21
35.7382
 31
0.0
  0
LINE
  8
0
 62
     1
 10
29.2888
 20
35.7382
 30
0.0
 11
29.6416
 21
36.3224
 31
0.0
  0
LINE
  8
0
 62
     1
 10
29.6416
 20
36.3224
 30
0.0
 11
29.6857
 21
36.3774
 31
0.0
  0
LINE
  8
0
 62
     1
 10
29.6857
 20
36.3774
 30
0.0
 11
29.6926
 21
36.3911
 31
0.0
  0
LINE
  8
0
 62
     1
 10
29.6926
 20
36.3911
 30
0.0
 11
29.7022
 21
36.3954
 31
0.0
  0
LINE
  8
0
 62
     1
 10
29.7022
 20
36.3954
 30
0.0
 11
29.705
 21
36.3996
 31
0.0
  0
LINE
  8
0
 62
     1
 10
29.705
 20
36.3996
 30
0.0
 11
29.7146
 21
36.4063
 31
0.0
  0
LINE
  8
0
 62
     1
 10
29.7146
 20
36.4063
 30
0.0
 11
29.7229
 21
36.412
 31
0.0
  0
LINE
  8
0
 62
     1
 10
29.7229
 20
36.412
 30
0.0
 11
29.7257
 21
36.4162
 31
0.0
  0
LINE
  8
0
 62
     1
 10
29.7257
 20
36.4162
 30
0.0
 11
29.8428
 21
36.4656
 31
0.0
  0
LINE
  8
0
 62
     1
 10
29.8428
 20
36.4656
 30
0.0
 11
30.0661
 21
36.4243
 31
0.0
  0
LINE
  8
0
 62
     1
 10
30.0661
 20
36.4243
 30
0.0
 11
30.2025
 21
36.2493
 31
0.0
  0
LINE
  8
0
 62
     1
 10
30.2025
 20
36.2493
 30
0.0
 11
30.2107
 21
36.1294
 31
0.0
  0
LINE
  8
0
 62
     1
 10
30.2107
 20
36.1294
 30
0.0
 11
30.1721
 21
36.0094
 31
0.0
  0
LINE
  8
0
 62
     1
 10
30.1721
 20
36.0094
 30
0.0
 11
29.818
 21
35.421
 31
0.0
  0
LINE
  8
0
 62
     1
 10
29.818
 20
35.421
 30
0.0
 11
30.0633
 21
35.2736
 31
0.0
  0
LINE
  8
0
 62
     1
 10
30.0633
 20
35.2736
 30
0.0
 11
30.168
 21
35.1414
 31
0.0
  0
LINE
  8
0
 62
     1
 10
30.168
 20
35.1414
 30
0.0
 11
30.1487
 21
34.9443
 31
0.0
  0
LINE
  8
0
 62
     1
 10
30.1487
 20
34.9443
 30
0.0
 11
29.9847
 21
34.8354
 31
0.0
  0
LINE
  8
0
 62
     1
 10
29.9847
 20
34.8354
 30
0.0
 11
29.9268
 21
34.8354
 31
0.0
  0
LINE
  8
0
 62
     1
 10
29.9268
 20
34.8354
 30
0.0
 11
29.8745
 21
34.8437
 31
0.0
  0
LINE
  8
0
 62
     1
 10
29.8745
 20
34.8437
 30
0.0
 11
29.8235
 21
34.863
 31
0.0
  0
LINE
  8
0
 62
     1
 10
30.7661
 20
32.1042
 30
0.0
 11
31.0224
 21
31.9843
 31
0.0
  0
LINE
  8
0
 62
     1
 10
31.0224
 20
31.9843
 30
0.0
 11
31.2966
 21
31.9677
 31
0.0
  0
LINE
  8
0
 62
     1
 10
31.2966
 20
31.9677
 30
0.0
 11
31.5667
 21
32.0532
 31
0.0
  0
LINE
  8
0
 62
     1
 10
31.5667
 20
32.0532
 30
0.0
 11
31.8065
 21
32.2419
 31
0.0
  0
LINE
  8
0
 62
     1
 10
31.8065
 20
32.2419
 30
0.0
 11
31.9636
 21
32.5052
 31
0.0
  0
LINE
  8
0
 62
     1
 10
31.9636
 20
32.5052
 30
0.0
 11
32.0118
 21
32.7849
 31
0.0
  0
LINE
  8
0
 62
     1
 10
32.0118
 20
32.7849
 30
0.0
 11
31.9595
 21
33.055
 31
0.0
  0
LINE
  8
0
 62
     1
 10
31.9595
 20
33.055
 30
0.0
 11
31.8065
 21
33.292
 31
0.0
  0
LINE
  8
0
 62
     1
 10
31.8065
 20
33.292
 30
0.0
 11
32.191
 21
33.7316
 31
0.0
  0
LINE
  8
0
 62
     1
 10
32.191
 20
33.7316
 30
0.0
 11
32.5203
 21
33.2521
 31
0.0
  0
LINE
  8
0
 62
     1
 10
32.5203
 20
33.2521
 30
0.0
 11
32.6237
 21
32.7408
 31
0.0
  0
LINE
  8
0
 62
     1
 10
32.6237
 20
32.7408
 30
0.0
 11
32.5272
 21
32.2475
 31
0.0
  0
LINE
  8
0
 62
     1
 10
32.5272
 20
32.2475
 30
0.0
 11
32.2737
 21
31.8341
 31
0.0
  0
LINE
  8
0
 62
     1
 10
32.2737
 20
31.8341
 30
0.0
 11
31.8892
 21
31.5199
 31
0.0
  0
LINE
  8
0
 62
     1
 10
31.8892
 20
31.5199
 30
0.0
 11
31.4165
 21
31.3642
 31
0.0
  0
LINE
  8
0
 62
     1
 10
31.4165
 20
31.3642
 30
0.0
 11
30.8956
 21
31.3986
 31
0.0
  0
LINE
  8
0
 62
     1
 10
30.8956
 20
31.3986
 30
0.0
 11
30.3816
 21
31.6659
 31
0.0
  0
LINE
  8
0
 62
     1
 10
30.3816
 20
31.6659
 30
0.0
 11
30.7661
 21
32.1042
 31
0.0
  0
LINE
  8
0
 62
     1
 10
30.6503
 20
33.2548
 30
0.0
 11
30.4932
 21
32.9916
 31
0.0
  0
LINE
  8
0
 62
     1
 10
30.4932
 20
32.9916
 30
0.0
 11
30.445
 21
32.7119
 31
0.0
  0
LINE
  8
0
 62
     1
 10
30.445
 20
32.7119
 30
0.0
 11
30.4974
 21
32.4431
 31
0.0
  0
LINE
  8
0
 62
     1
 10
30.4974
 20
32.4431
 30
0.0
 11
30.6544
 21
32.202
 31
0.0
  0
LINE
  8
0
 62
     1
 10
30.6544
 20
32.202
 30
0.0
 11
30.27
 21
31.7624
 31
0.0
  0
LINE
  8
0
 62
     1
 10
30.27
 20
31.7624
 30
0.0
 11
29.9338
 21
32.2406
 31
0.0
  0
LINE
  8
0
 62
     1
 10
29.9338
 20
32.2406
 30
0.0
 11
29.8345
 21
32.7491
 31
0.0
  0
LINE
  8
0
 62
     1
 10
29.8345
 20
32.7491
 30
0.0
 11
29.9268
 21
33.2383
 31
0.0
  0
LINE
  8
0
 62
     1
 10
29.9268
 20
33.2383
 30
0.0
 11
30.1859
 21
33.6613
 31
0.0
  0
LINE
  8
0
 62
     1
 10
30.1859
 20
33.6613
 30
0.0
 11
30.5649
 21
33.9659
 31
0.0
  0
LINE
  8
0
 62
     1
 10
30.5649
 20
33.9659
 30
0.0
 11
31.0417
 21
34.1285
 31
0.0
  0
LINE
  8
0
 62
     1
 10
31.0417
 20
34.1285
 30
0.0
 11
31.5584
 21
34.0968
 31
0.0
  0
LINE
  8
0
 62
     1
 10
31.5584
 20
34.0968
 30
0.0
 11
32.0794
 21
33.8281
 31
0.0
  0
LINE
  8
0
 62
     1
 10
32.0794
 20
33.8281
 30
0.0
 11
31.6949
 21
33.3912
 31
0.0
  0
LINE
  8
0
 62
     1
 10
31.6949
 20
33.3912
 30
0.0
 11
31.4358
 21
33.5125
 31
0.0
  0
LINE
  8
0
 62
     1
 10
31.4358
 20
33.5125
 30
0.0
 11
31.1616
 21
33.5304
 31
0.0
  0
LINE
  8
0
 62
     1
 10
31.1616
 20
33.5304
 30
0.0
 11
30.8901
 21
33.445
 31
0.0
  0
LINE
  8
0
 62
     1
 10
30.8901
 20
33.445
 30
0.0
 11
30.6503
 21
33.2548
 31
0.0
  0
LINE
  8
0
 62
     1
 10
37.2442
 20
25.3504
 30
0.0
 11
35.1496
 21
24.9177
 31
0.0
  0
LINE
  8
0
 62
     1
 10
35.1496
 20
24.9177
 30
0.0
 11
35.1248
 21
24.9136
 31
0.0
  0
LINE
  8
0
 62
     1
 10
35.1248
 20
24.9136
 30
0.0
 11
34.8988
 21
24.9632
 31
0.0
  0
LINE
  8
0
 62
     1
 10
34.8988
 20
24.9632
 30
0.0
 11
34.772
 21
25.1602
 31
0.0
  0
LINE
  8
0
 62
     1
 10
34.772
 20
25.1602
 30
0.0
 11
34.812
 21
25.3835
 31
0.0
  0
LINE
  8
0
 62
     1
 10
34.812
 20
25.3835
 30
0.0
 11
35.0008
 21
25.5185
 31
0.0
  0
LINE
  8
0
 62
     1
 10
35.0008
 20
25.5185
 30
0.0
 11
37.1203
 21
25.954
 31
0.0
  0
LINE
  8
0
 62
     1
 10
37.1203
 20
25.954
 30
0.0
 11
37.3475
 21
25.9044
 31
0.0
  0
LINE
  8
0
 62
     1
 10
37.3475
 20
25.9044
 30
0.0
 11
37.4731
 21
25.7087
 31
0.0
  0
LINE
  8
0
 62
     1
 10
37.4731
 20
25.7087
 30
0.0
 11
37.4276
 21
25.4868
 31
0.0
  0
LINE
  8
0
 62
     1
 10
37.4276
 20
25.4868
 30
0.0
 11
37.2442
 21
25.3504
 31
0.0
  0
LINE
  8
0
 62
     1
 10
35.3466
 20
23.8842
 30
0.0
 11
36.5181
 21
24.1253
 31
0.0
  0
LINE
  8
0
 62
     1
 10
36.5181
 20
24.1253
 30
0.0
 11
36.7358
 21
24.1915
 31
0.0
  0
LINE
  8
0
 62
     1
 10
36.7358
 20
24.1915
 30
0.0
 11
36.9341
 21
24.3086
 31
0.0
  0
LINE
  8
0
 62
     1
 10
36.9341
 20
24.3086
 30
0.0
 11
37.0625
 21
24.4891
 31
0.0
  0
LINE
  8
0
 62
     1
 10
37.0625
 20
24.4891
 30
0.0
 11
37.0734
 21
24.7592
 31
0.0
  0
LINE
  8
0
 62
     1
 10
37.0734
 20
24.7592
 30
0.0
 11
36.9768
 21
24.9811
 31
0.0
  0
LINE
  8
0
 62
     1
 10
36.9768
 20
24.9811
 30
0.0
 11
36.8293
 21
25.112
 31
0.0
  0
LINE
  8
0
 62
     1
 10
36.8293
 20
25.112
 30
0.0
 11
37.375
 21
25.2236
 31
0.0
  0
LINE
  8
0
 62
     1
 10
37.375
 20
25.2236
 30
0.0
 11
37.5543
 21
25.0183
 31
0.0
  0
LINE
  8
0
 62
     1
 10
37.5543
 20
25.0183
 30
0.0
 11
37.6798
 21
24.7013
 31
0.0
  0
LINE
  8
0
 62
     1
 10
37.6798
 20
24.7013
 30
0.0
 11
37.6975
 21
24.4891
 31
0.0
  0
LINE
  8
0
 62
     1
 10
37.6975
 20
24.4891
 30
0.0
 11
37.659
 21
24.259
 31
0.0
  0
LINE
  8
0
 62
     1
 10
37.659
 20
24.259
 30
0.0
 11
37.55
 21
24.0302
 31
0.0
  0
LINE
  8
0
 62
     1
 10
37.55
 20
24.0302
 30
0.0
 11
37.3447
 21
23.8263
 31
0.0
  0
LINE
  8
0
 62
     1
 10
37.3447
 20
23.8263
 30
0.0
 11
37.5571
 21
23.7284
 31
0.0
  0
LINE
  8
0
 62
     1
 10
37.5571
 20
23.7284
 30
0.0
 11
37.7543
 21
23.5782
 31
0.0
  0
LINE
  8
0
 62
     1
 10
37.7543
 20
23.5782
 30
0.0
 11
37.9084
 21
23.3688
 31
0.0
  0
LINE
  8
0
 62
     1
 10
37.9084
 20
23.3688
 30
0.0
 11
38.0104
 21
23.0904
 31
0.0
  0
LINE
  8
0
 62
     1
 10
38.0104
 20
23.0904
 30
0.0
 11
38.0284
 21
22.7362
 31
0.0
  0
LINE
  8
0
 62
     1
 10
38.0284
 20
22.7362
 30
0.0
 11
37.8919
 21
22.3669
 31
0.0
  0
LINE
  8
0
 62
     1
 10
37.8919
 20
22.3669
 30
0.0
 11
37.7377
 21
22.1878
 31
0.0
  0
LINE
  8
0
 62
     1
 10
37.7377
 20
22.1878
 30
0.0
 11
37.5571
 21
22.0597
 31
0.0
  0
LINE
  8
0
 62
     1
 10
37.5571
 20
22.0597
 30
0.0
 11
37.3077
 21
21.97
 31
0.0
  0
LINE
  8
0
 62
     1
 10
37.3077
 20
21.97
 30
0.0
 11
36.9768
 21
21.8846
 31
0.0
  0
LINE
  8
0
 62
     1
 10
36.9768
 20
21.8846
 30
0.0
 11
35.8069
 21
21.6462
 31
0.0
  0
LINE
  8
0
 62
     1
 10
35.8069
 20
21.6462
 30
0.0
 11
35.5755
 21
21.6931
 31
0.0
  0
LINE
  8
0
 62
     1
 10
35.5755
 20
21.6931
 30
0.0
 11
35.4446
 21
21.8874
 31
0.0
  0
LINE
  8
0
 62
     1
 10
35.4446
 20
21.8874
 30
0.0
 11
35.4912
 21
22.1244
 31
0.0
  0
LINE
  8
0
 62
     1
 10
35.4912
 20
22.1244
 30
0.0
 11
35.6817
 21
22.2539
 31
0.0
  0
LINE
  8
0
 62
     1
 10
35.6817
 20
22.2539
 30
0.0
 11
36.8282
 21
22.4896
 31
0.0
  0
LINE
  8
0
 62
     1
 10
36.8282
 20
22.4896
 30
0.0
 11
37.0568
 21
22.5585
 31
0.0
  0
LINE
  8
0
 62
     1
 10
37.0568
 20
22.5585
 30
0.0
 11
37.2593
 21
22.6687
 31
0.0
  0
LINE
  8
0
 62
     1
 10
37.2593
 20
22.6687
 30
0.0
 11
37.393
 21
22.8534
 31
0.0
  0
LINE
  8
0
 62
     1
 10
37.393
 20
22.8534
 30
0.0
 11
37.4082
 21
23.1276
 31
0.0
  0
LINE
  8
0
 62
     1
 10
37.4082
 20
23.1276
 30
0.0
 11
37.2897
 21
23.3826
 31
0.0
  0
LINE
  8
0
 62
     1
 10
37.2897
 20
23.3826
 30
0.0
 11
37.1023
 21
23.5093
 31
0.0
  0
LINE
  8
0
 62
     1
 10
37.1023
 20
23.5093
 30
0.0
 11
36.8776
 21
23.5493
 31
0.0
  0
LINE
  8
0
 62
     1
 10
36.8776
 20
23.5493
 30
0.0
 11
36.642
 21
23.5204
 31
0.0
  0
LINE
  8
0
 62
     1
 10
36.642
 20
23.5204
 30
0.0
 11
35.4901
 21
23.2847
 31
0.0
  0
LINE
  8
0
 62
     1
 10
35.4901
 20
23.2847
 30
0.0
 11
35.2461
 21
23.3192
 31
0.0
  0
LINE
  8
0
 62
     1
 10
35.2461
 20
23.3192
 30
0.0
 11
35.1083
 21
23.5231
 31
0.0
  0
LINE
  8
0
 62
     1
 10
35.1083
 20
23.5231
 30
0.0
 11
35.151
 21
23.7546
 31
0.0
  0
LINE
  8
0
 62
     1
 10
35.151
 20
23.7546
 30
0.0
 11
35.3466
 21
23.8842
 31
0.0
  0
LINE
  8
0
 62
     1
 10
35.585
 20
18.7234
 30
0.0
 11
35.4143
 21
19.0679
 31
0.0
  0
LINE
  8
0
 62
     1
 10
35.4143
 20
19.0679
 30
0.0
 11
35.3811
 21
19.4662
 31
0.0
  0
LINE
  8
0
 62
     1
 10
35.3811
 20
19.4662
 30
0.0
 11
35.5367
 21
20.016
 31
0.0
  0
LINE
  8
0
 62
     1
 10
35.5367
 20
20.016
 30
0.0
 11
35.8704
 21
20.4046
 31
0.0
  0
LINE
  8
0
 62
     1
 10
35.8704
 20
20.4046
 30
0.0
 11
36.3238
 21
20.6265
 31
0.0
  0
LINE
  8
0
 62
     1
 10
36.3238
 20
20.6265
 30
0.0
 11
36.8572
 21
20.6733
 31
0.0
  0
LINE
  8
0
 62
     1
 10
36.8572
 20
20.6733
 30
0.0
 11
37.4054
 21
20.5273
 31
0.0
  0
LINE
  8
0
 62
     1
 10
37.4054
 20
20.5273
 30
0.0
 11
37.8174
 21
20.2117
 31
0.0
  0
LINE
  8
0
 62
     1
 10
37.8174
 20
20.2117
 30
0.0
 11
38.064
 21
19.7721
 31
0.0
  0
LINE
  8
0
 62
     1
 10
38.064
 20
19.7721
 30
0.0
 11
38.1275
 21
19.2526
 31
0.0
  0
LINE
  8
0
 62
     1
 10
38.1275
 20
19.2526
 30
0.0
 11
38.016
 21
18.8295
 31
0.0
  0
LINE
  8
0
 62
     1
 10
38.016
 20
18.8295
 30
0.0
 11
37.8008
 21
18.5484
 31
0.0
  0
LINE
  8
0
 62
     1
 10
37.8008
 20
18.5484
 30
0.0
 11
37.1796
 21
18.598
 31
0.0
  0
LINE
  8
0
 62
     1
 10
37.1796
 20
18.598
 30
0.0
 11
37.4262
 21
18.8364
 31
0.0
  0
LINE
  8
0
 62
     1
 10
37.4262
 20
18.8364
 30
0.0
 11
37.5447
 21
19.2085
 31
0.0
  0
LINE
  8
0
 62
     1
 10
37.5447
 20
19.2085
 30
0.0
 11
37.502
 21
19.5489
 31
0.0
  0
LINE
  8
0
 62
     1
 10
37.502
 20
19.5489
 30
0.0
 11
37.3394
 21
19.8107
 31
0.0
  0
LINE
  8
0
 62
     1
 10
37.3394
 20
19.8107
 30
0.0
 11
37.09
 21
19.9815
 31
0.0
  0
LINE
  8
0
 62
     1
 10
37.09
 20
19.9815
 30
0.0
 11
36.7993
 21
20.0546
 31
0.0
  0
LINE
  8
0
 62
     1
 10
36.7993
 20
20.0546
 30
0.0
 11
36.5347
 21
20.0312
 31
0.0
  0
LINE
  8
0
 62
     1
 10
36.5347
 20
20.0312
 30
0.0
 11
36.2673
 21
19.914
 31
0.0
  0
LINE
  8
0
 62
     1
 10
36.2673
 20
19.914
 30
0.0
 11
36.0507
 21
19.6812
 31
0.0
  0
LINE
  8
0
 62
     1
 10
36.0507
 20
19.6812
 30
0.0
 11
35.9488
 21
19.3284
 31
0.0
  0
LINE
  8
0
 62
     1
 10
35.9488
 20
19.3284
 30
0.0
 11
36.008
 21
18.9439
 31
0.0
  0
LINE
  8
0
 62
     1
 10
36.008
 20
18.9439
 30
0.0
 11
36.2204
 21
18.6724
 31
0.0
  0
LINE
  8
0
 62
     1
 10
36.2204
 20
18.6724
 30
0.0
 11
35.585
 21
18.7234
 31
0.0
  0
LINE
  8
0
 62
     1
 10
37.7582
 20
18.3996
 30
0.0
 11
37.9635
 21
18.2948
 31
0.0
  0
LINE
  8
0
 62
     1
 10
37.9635
 20
18.2948
 30
0.0
 11
38.0351
 21
18.0702
 31
0.0
  0
LINE
  8
0
 62
     1
 10
38.0351
 20
18.0702
 30
0.0
 11
37.925
 21
17.8608
 31
0.0
  0
LINE
  8
0
 62
     1
 10
37.925
 20
17.8608
 30
0.0
 11
37.7003
 21
17.7836
 31
0.0
  0
LINE
  8
0
 62
     1
 10
37.7003
 20
17.7836
 30
0.0
 11
35.5741
 21
17.9503
 31
0.0
  0
LINE
  8
0
 62
     1
 10
35.5741
 20
17.9503
 30
0.0
 11
35.5053
 21
17.9655
 31
0.0
  0
LINE
  8
0
 62
     1
 10
35.5053
 20
17.9655
 30
0.0
 11
35.457
 21
17.9862
 31
0.0
  0
LINE
  8
0
 62
     1
 10
35.457
 20
17.9862
 30
0.0
 11
35.4528
 21
17.9862
 31
0.0
  0
LINE
  8
0
 62
     1
 10
35.4528
 20
17.9862
 30
0.0
 11
35.3233
 21
18.1088
 31
0.0
  0
LINE
  8
0
 62
     1
 10
35.3233
 20
18.1088
 30
0.0
 11
35.2873
 21
18.2852
 31
0.0
  0
LINE
  8
0
 62
     1
 10
35.2873
 20
18.2852
 30
0.0
 11
35.3882
 21
18.4947
 31
0.0
  0
LINE
  8
0
 62
     1
 10
35.3882
 20
18.4947
 30
0.0
 11
35.6126
 21
18.5663
 31
0.0
  0
LINE
  8
0
 62
     1
 10
35.6126
 20
18.5663
 30
0.0
 11
37.7582
 21
18.3996
 31
0.0
  0
LINE
  8
0
 62
     1
 10
38.3603
 20
15.6435
 30
0.0
 11
38.118
 21
15.6077
 31
0.0
  0
LINE
  8
0
 62
     1
 10
38.118
 20
15.6077
 30
0.0
 11
35.1772
 21
16.4786
 31
0.0
  0
LINE
  8
0
 62
     1
 10
35.1772
 20
16.4786
 30
0.0
 11
35.0008
 21
16.6288
 31
0.0
  0
LINE
  8
0
 62
     1
 10
35.0008
 20
16.6288
 30
0.0
 11
34.9815
 21
16.8603
 31
0.0
  0
LINE
  8
0
 62
     1
 10
34.9815
 20
16.8603
 30
0.0
 11
35.1289
 21
17.0436
 31
0.0
  0
LINE
  8
0
 62
     1
 10
35.1289
 20
17.0436
 30
0.0
 11
35.3617
 21
17.067
 31
0.0
  0
LINE
  8
0
 62
     1
 10
35.3617
 20
17.067
 30
0.0
 11
38.2792
 21
16.203
 31
0.0
  0
LINE
  8
0
 62
     1
 10
38.2792
 20
16.203
 30
0.0
 11
38.4623
 21
16.0569
 31
0.0
  0
LINE
  8
0
 62
     1
 10
38.4623
 20
16.0569
 30
0.0
 11
38.4912
 21
15.8213
 31
0.0
  0
LINE
  8
0
 62
     1
 10
38.4912
 20
15.8213
 30
0.0
 11
38.3603
 21
15.6435
 31
0.0
  0
LINE
  8
0
 62
     1
 10
34.761
 20
15.6656
 30
0.0
 11
35.9738
 21
16.09
 31
0.0
  0
LINE
  8
0
 62
     1
 10
35.9738
 20
16.09
 30
0.0
 11
36.6268
 21
15.8943
 31
0.0
  0
LINE
  8
0
 62
     1
 10
36.6268
 20
15.8943
 30
0.0
 11
37.2029
 21
14.9517
 31
0.0
  0
LINE
  8
0
 62
     1
 10
37.2029
 20
14.9517
 30
0.0
 11
37.247
 21
14.8415
 31
0.0
  0
LINE
  8
0
 62
     1
 10
37.247
 20
14.8415
 30
0.0
 11
37.2403
 21
14.7133
 31
0.0
  0
LINE
  8
0
 62
     1
 10
37.2403
 20
14.7133
 30
0.0
 11
37.1285
 21
14.5631
 31
0.0
  0
LINE
  8
0
 62
     1
 10
37.1285
 20
14.5631
 30
0.0
 11
37.1119
 21
14.5562
 31
0.0
  0
LINE
  8
0
 62
     1
 10
37.1119
 20
14.5562
 30
0.0
 11
36.9136
 21
14.5328
 31
0.0
  0
LINE
  8
0
 62
     1
 10
36.9136
 20
14.5328
 30
0.0
 11
36.8956
 21
14.5383
 31
0.0
  0
LINE
  8
0
 62
     1
 10
36.8956
 20
14.5383
 30
0.0
 11
36.7979
 21
14.5934
 31
0.0
  0
LINE
  8
0
 62
     1
 10
36.7979
 20
14.5934
 30
0.0
 11
36.7358
 21
14.6789
 31
0.0
  0
LINE
  8
0
 62
     1
 10
36.7358
 20
14.6789
 30
0.0
 11
36.2024
 21
15.5925
 31
0.0
  0
LINE
  8
0
 62
     1
 10
36.2024
 20
15.5925
 30
0.0
 11
34.9595
 21
15.1322
 31
0.0
  0
LINE
  8
0
 62
     1
 10
34.9595
 20
15.1322
 30
0.0
 11
34.7693
 21
15.1157
 31
0.0
  0
LINE
  8
0
 62
     1
 10
34.7693
 20
15.1157
 30
0.0
 11
34.75
 21
15.1226
 31
0.0
  0
LINE
  8
0
 62
     1
 10
34.75
 20
15.1226
 30
0.0
 11
34.5915
 21
15.2673
 31
0.0
  0
LINE
  8
0
 62
     1
 10
34.5915
 20
15.2673
 30
0.0
 11
34.5708
 21
15.474
 31
0.0
  0
LINE
  8
0
 62
     1
 10
34.5708
 20
15.474
 30
0.0
 11
34.6356
 21
15.5884
 31
0.0
  0
LINE
  8
0
 62
     1
 10
34.6356
 20
15.5884
 30
0.0
 11
34.7376
 21
15.6559
 31
0.0
  0
LINE
  8
0
 62
     1
 10
34.7376
 20
15.6559
 30
0.0
 11
34.761
 21
15.6656
 31
0.0
  0
LINE
  8
0
 62
     1
 10
34.1257
 20
12.6173
 30
0.0
 11
34.1299
 21
12.6036
 31
0.0
  0
LINE
  8
0
 62
     1
 10
34.1299
 20
12.6036
 30
0.0
 11
34.1629
 21
12.4685
 31
0.0
  0
LINE
  8
0
 62
     1
 10
34.1629
 20
12.4685
 30
0.0
 11
34.1285
 21
12.3183
 31
0.0
  0
LINE
  8
0
 62
     1
 10
34.1285
 20
12.3183
 30
0.0
 11
33.9452
 21
12.1763
 31
0.0
  0
LINE
  8
0
 62
     1
 10
33.9452
 20
12.1763
 30
0.0
 11
33.7068
 21
12.1915
 31
0.0
  0
LINE
  8
0
 62
     1
 10
33.7068
 20
12.1915
 30
0.0
 11
33.5414
 21
12.4037
 31
0.0
  0
LINE
  8
0
 62
     1
 10
33.5414
 20
12.4037
 30
0.0
 11
33.4863
 21
12.7413
 31
0.0
  0
LINE
  8
0
 62
     1
 10
33.4863
 20
12.7413
 30
0.0
 11
33.5277
 21
13.1231
 31
0.0
  0
LINE
  8
0
 62
     1
 10
33.5277
 20
13.1231
 30
0.0
 11
33.6503
 21
13.4648
 31
0.0
  0
LINE
  8
0
 62
     1
 10
33.6503
 20
13.4648
 30
0.0
 11
34.1202
 21
13.214
 31
0.0
  0
LINE
  8
0
 62
     1
 10
34.1202
 20
13.214
 30
0.0
 11
34.0472
 21
12.9012
 31
0.0
  0
LINE
  8
0
 62
     1
 10
34.0472
 20
12.9012
 30
0.0
 11
34.1257
 21
12.6173
 31
0.0
  0
LINE
  8
0
 62
     1
 10
33.7192
 20
13.5957
 30
0.0
 11
34.0816
 21
13.9912
 31
0.0
  0
LINE
  8
0
 62
     1
 10
34.0816
 20
13.9912
 30
0.0
 11
34.546
 21
14.2089
 31
0.0
  0
LINE
  8
0
 62
     1
 10
34.546
 20
14.2089
 30
0.0
 11
35.0504
 21
14.2407
 31
0.0
  0
LINE
  8
0
 62
     1
 10
35.0504
 20
14.2407
 30
0.0
 11
35.5381
 21
14.0849
 31
0.0
  0
LINE
  8
0
 62
     1
 10
35.5381
 20
14.0849
 30
0.0
 11
35.9435
 21
13.7625
 31
0.0
  0
LINE
  8
0
 62
     1
 10
35.9435
 20
13.7625
 30
0.0
 11
36.1982
 21
13.3174
 31
0.0
  0
LINE
  8
0
 62
     1
 10
36.1982
 20
13.3174
 30
0.0
 11
36.2768
 21
12.8157
 31
0.0
  0
LINE
  8
0
 62
     1
 10
36.2768
 20
12.8157
 30
0.0
 11
36.1502
 21
12.2976
 31
0.0
  0
LINE
  8
0
 62
     1
 10
36.1502
 20
12.2976
 30
0.0
 11
35.6842
 21
12.5457
 31
0.0
  0
LINE
  8
0
 62
     1
 10
35.6842
 20
12.5457
 30
0.0
 11
35.7463
 21
12.8199
 31
0.0
  0
LINE
  8
0
 62
     1
 10
35.7463
 20
12.8199
 30
0.0
 11
35.7202
 21
13.0638
 31
0.0
  0
LINE
  8
0
 62
     1
 10
35.7202
 20
13.0638
 30
0.0
 11
35.6196
 21
13.2623
 31
0.0
  0
LINE
  8
0
 62
     1
 10
35.6196
 20
13.2623
 30
0.0
 11
35.4803
 21
13.4001
 31
0.0
  0
LINE
  8
0
 62
     1
 10
35.4803
 20
13.4001
 30
0.0
 11
35.1703
 21
12.8199
 31
0.0
  0
LINE
  8
0
 62
     1
 10
35.1703
 20
12.8199
 30
0.0
 11
34.7569
 21
13.0418
 31
0.0
  0
LINE
  8
0
 62
     1
 10
34.7569
 20
13.0418
 30
0.0
 11
35.0711
 21
13.6288
 31
0.0
  0
LINE
  8
0
 62
     1
 10
35.0711
 20
13.6288
 30
0.0
 11
34.8079
 21
13.6922
 31
0.0
  0
LINE
  8
0
 62
     1
 10
34.8079
 20
13.6922
 30
0.0
 11
34.5612
 21
13.6522
 31
0.0
  0
LINE
  8
0
 62
     1
 10
34.5612
 20
13.6522
 30
0.0
 11
34.3504
 21
13.5282
 31
0.0
  0
LINE
  8
0
 62
     1
 10
34.3504
 20
13.5282
 30
0.0
 11
34.1905
 21
13.3449
 31
0.0
  0
LINE
  8
0
 62
     1
 10
34.1905
 20
13.3449
 30
0.0
 11
33.7192
 21
13.5957
 31
0.0
  0
LINE
  8
0
 62
     1
 10
36.0796
 20
12.1667
 30
0.0
 11
35.7283
 21
11.7836
 31
0.0
  0
LINE
  8
0
 62
     1
 10
35.7283
 20
11.7836
 30
0.0
 11
35.2792
 21
11.5576
 31
0.0
  0
LINE
  8
0
 62
     1
 10
35.2792
 20
11.5576
 30
0.0
 11
34.7927
 21
11.5094
 31
0.0
  0
LINE
  8
0
 62
     1
 10
34.7927
 20
11.5094
 30
0.0
 11
34.3421
 21
11.6389
 31
0.0
  0
LINE
  8
0
 62
     1
 10
34.3421
 20
11.6389
 30
0.0
 11
34.2015
 21
11.8277
 31
0.0
  0
LINE
  8
0
 62
     1
 10
34.2015
 20
11.8277
 30
0.0
 11
34.2277
 21
12.0537
 31
0.0
  0
LINE
  8
0
 62
     1
 10
34.2277
 20
12.0537
 30
0.0
 11
34.6866
 21
12.9109
 31
0.0
  0
LINE
  8
0
 62
     1
 10
34.6866
 20
12.9109
 30
0.0
 11
35.1
 21
12.689
 31
0.0
  0
LINE
  8
0
 62
     1
 10
35.1
 20
12.689
 30
0.0
 11
34.7858
 21
12.1019
 31
0.0
  0
LINE
  8
0
 62
     1
 10
34.7858
 20
12.1019
 30
0.0
 11
34.9787
 21
12.0647
 31
0.0
  0
LINE
  8
0
 62
     1
 10
34.9787
 20
12.0647
 30
0.0
 11
35.2006
 21
12.0937
 31
0.0
  0
LINE
  8
0
 62
     1
 10
35.2006
 20
12.0937
 30
0.0
 11
35.4252
 21
12.2094
 31
0.0
  0
LINE
  8
0
 62
     1
 10
35.4252
 20
12.2094
 30
0.0
 11
35.6182
 21
12.412
 31
0.0
  0
LINE
  8
0
 62
     1
 10
35.6182
 20
12.412
 30
0.0
 11
36.0796
 21
12.1667
 31
0.0
  0
LINE
  8
0
 62
     174
 10
22.4096
 20
36.2864
 30
0.0
 11
22.2595
 21
35.5438
 31
0.0
  0
LINE
  8
0
 62
     174
 10
22.2595
 20
35.5438
 30
0.0
 11
21.8488
 21
34.9374
 31
0.0
  0
LINE
  8
0
 62
     174
 10
21.8488
 20
34.9374
 30
0.0
 11
21.2424
 21
34.5281
 31
0.0
  0
LINE
  8
0
 62
     174
 10
21.2424
 20
34.5281
 30
0.0
 11
20.4997
 21
34.3779
 31
0.0
  0
LINE
  8
0
 62
     174
 10
20.4997
 20
34.3779
 30
0.0
 11
19.7556
 21
34.5281
 31
0.0
  0
LINE
  8
0
 62
     174
 10
19.7556
 20
34.5281
 30
0.0
 11
19.1492
 21
34.9374
 31
0.0
  0
LINE
  8
0
 62
     174
 10
19.1492
 20
34.9374
 30
0.0
 11
18.7399
 21
35.5438
 31
0.0
  0
LINE
  8
0
 62
     174
 10
18.7399
 20
35.5438
 30
0.0
 11
18.5911
 21
36.2864
 31
0.0
  0
LINE
  8
0
 62
     174
 10
18.5911
 20
36.2864
 30
0.0
 11
18.7399
 21
37.0293
 31
0.0
  0
LINE
  8
0
 62
     174
 10
18.7399
 20
37.0293
 30
0.0
 11
19.1492
 21
37.6357
 31
0.0
  0
LINE
  8
0
 62
     174
 10
19.1492
 20
37.6357
 30
0.0
 11
19.7556
 21
38.045
 31
0.0
  0
LINE
  8
0
 62
     174
 10
19.7556
 20
38.045
 30
0.0
 11
20.4997
 21
38.1938
 31
0.0
  0
LINE
  8
0
 62
     174
 10
20.4997
 20
38.1938
 30
0.0
 11
21.2424
 21
38.045
 31
0.0
  0
LINE
  8
0
 62
     174
 10
21.2424
 20
38.045
 30
0.0
 11
21.8488
 21
37.6357
 31
0.0
  0
LINE
  8
0
 62
     174
 10
21.8488
 20
37.6357
 30
0.0
 11
22.2595
 21
37.0293
 31
0.0
  0
LINE
  8
0
 62
     174
 10
22.2595
 20
37.0293
 30
0.0
 11
22.4096
 21
36.2864
 31
0.0
  0
ENDSEC
  0
EOF
