  0
SECTION
  2
HEADER
  9
$ACADVER
  1
AC1014
  9
$HANDSEED
  5
FFFF
  9
$MEASUREMENT
 70
     1
  0
ENDSEC
  0
SECTION
  2
TABLES
  0
TABLE
  2
VPORT
  5
8
330
0
100
AcDbSymbolTable
 70
     4
  0
VPORT
  5
2E
330
8
100
AcDbSymbolTableRecord
100
AcDbViewportTableRecord
  2
*ACTIVE
 70
     0
 10
0.0
 20
0.0
 11
1.0
 21
1.0
 12
210.0
 22
148.5
 13
0.0
 23
0.0
 14
10.0
 24
10.0
 15
10.0
 25
10.0
 16
0.0
 26
0.0
 36
1.0
 17
0.0
 27
0.0
 37
0.0
 40
341.0
 41
1.24
 42
50.0
 43
0.0
 44
0.0
 50
0.0
 51
0.0
 71
     0
 72
   100
 73
     1
 74
     3
 75
     0
 76
     0
 77
     0
 78
     0
  0
ENDTAB
  0
TABLE
  2
LTYPE
  5
5
330
0
100
AcDbSymbolTable
 70
     1
  0
LTYPE
  5
14
330
5
100
AcDbSymbolTableRecord
100
AcDbLinetypeTableRecord
  2
BYBLOCK
 70
     0
  3

 72
    65
 73
     0
 40
0.0
  0
LTYPE
  5
15
330
5
100
AcDbSymbolTableRecord
100
AcDbLinetypeTableRecord
  2
BYLAYER
 70
     0
  3

 72
    65
 73
     0
 40
0.0
  0
LTYPE
  5
16
330
5
100
AcDbSymbolTableRecord
100
AcDbLinetypeTableRecord
  2
CONTINUOUS
 70
     0
  3
Solid line
 72
    65
 73
     0
 40
0.0
  0
ENDTAB
  0
TABLE
  2
LAYER
  5
2
100
AcDbSymbolTable
 70
2
  0
LAYER
  5
50
100
AcDbSymbolTableRecord
100
AcDbLayerTableRecord
  2
0
 70
0
  6
CONTINUOUS
  0
LAYER
  5
51
100
AcDbSymbolTableRecord
100
AcDbLayerTableRecord
  2
Layer_1
 70
0
  6
CONTINUOUS
  0
ENDTAB
  0
TABLE
  2
STYLE
  5
3
330
0
100
AcDbSymbolTable
 70
     1
  0
STYLE
  5
11
330
3
100
AcDbSymbolTableRecord
100
AcDbTextStyleTableRecord
  2
STANDARD
 70
     0
 40
0.0
 41
1.0
 50
0.0
 71
     0
 42
2.5
  3
txt
  4

  0
ENDTAB
  0
TABLE
  2
VIEW
  5
6
330
0
100
AcDbSymbolTable
 70
     0
  0
ENDTAB
  0
TABLE
  2
UCS
  5
7
330
0
100
AcDbSymbolTable
 70
     0
  0
ENDTAB
  0
TABLE
  2
APPID
  5
9
330
0
100
AcDbSymbolTable
 70
     2
  0
APPID
  5
12
330
9
100
AcDbSymbolTableRecord
100
AcDbRegAppTableRecord
  2
ACAD
 70
     0
  0
ENDTAB
  0
TABLE
  2
DIMSTYLE
  5
A
330
0
100
AcDbSymbolTable
 70
     1
  0
DIMSTYLE
105
27
330
A
100
AcDbSymbolTableRecord
100
AcDbDimStyleTableRecord
  2
ISO-25
 70
     0
  3

  4

  5

  6

  7

 40
1.0
 41
2.5
 42
0.625
 43
3.75
 44
1.25
 45
0.0
 46
0.0
 47
0.0
 48
0.0
140
2.5
141
2.5
142
0.0
143
0.03937007874016
144
1.0
145
0.0
146
1.0
147
0.625
 71
     0
 72
     0
 73
     0
 74
     0
 75
     0
 76
     0
 77
     1
 78
     8
170
     0
171
     3
172
     1
173
     0
174
     0
175
     0
176
     0
177
     0
178
     0
270
     2
271
     2
272
     2
273
     2
274
     3
340
11
275
     0
280
     0
281
     0
282
     0
283
     0
284
     8
285
     0
286
     0
287
     3
288
     0
  0
ENDTAB
  0
TABLE
  2
BLOCK_RECORD
  5
1
330
0
100
AcDbSymbolTable
 70
     1
  0
BLOCK_RECORD
  5
1F
330
1
100
AcDbSymbolTableRecord
100
AcDbBlockTableRecord
  2
*MODEL_SPACE
  0
BLOCK_RECORD
  5
1B
330
1
100
AcDbSymbolTableRecord
100
AcDbBlockTableRecord
  2
*PAPER_SPACE
  0
ENDTAB
  0
ENDSEC
  0
SECTION
  2
BLOCKS
  0
BLOCK
  5
20
330
1F
100
AcDbEntity
  8
0
100
AcDbBlockBegin
  2
*MODEL_SPACE
 70
     0
 10
0.0
 20
0.0
 30
0.0
  3
*MODEL_SPACE
  1

  0
ENDBLK
  5
21
330
1F
100
AcDbEntity
  8
0
100
AcDbBlockEnd
  0
BLOCK
  5
1C
330
1B
100
AcDbEntity
 67
     1
  8
0
100
AcDbBlockBegin
  2
*PAPER_SPACE
  1

  0
ENDBLK
  5
1D
330
1B
100
AcDbEntity
 67
     1
  8
0
100
AcDbBlockEnd
  0
ENDSEC
  0
SECTION
  2
ENTITIES
  0
LWPOLYLINE
  5
100
100
AcDbEntity
  8
Layer_1
 62
7
100
AcDbPolyline
 90
4
 70
1
 10
83.670487
 20
166.354260
 30
0.0
 10
90.950231
 20
166.354260
 30
0.0
 10
90.950231
 20
111.354279
 30
0.0
 10
83.670487
 20
111.354279
 30
0.0
  0
SPLINE
  5
101
100
AcDbEntity
  8
Layer_1
 62
1
100
AcDbSpline
 70
8
 71
3
 72
8
 73
4
 74
0
 40
0
 40
0
 40
0
 40
0
 40
1
 40
1
 40
1
 40
1
 10
96.947562
 20
114.416999
 30
0.0
 10
96.947562
 20
112.754999
 30
0.0
 10
98.292969
 20
111.418390
 30
0.0
 10
99.954975
 20
111.418390
 30
0.0
  0
LWPOLYLINE
  5
102
100
AcDbEntity
  8
Layer_1
 62
1
100
AcDbPolyline
 90
7
 70
0
 10
141.196179
 20
166.354260
 30
0.0
 10
147.193223
 20
166.354260
 30
0.0
 10
147.193223
 20
172.351304
 30
0.0
 10
90.950231
 20
172.351304
 30
0.0
 10
90.950231
 20
166.354260
 30
0.0
 10
96.947539
 20
166.354260
 30
0.0
 10
96.947539
 20
114.417095
 30
0.0
  0
SPLINE
  5
103
100
AcDbEntity
  8
Layer_1
 62
1
100
AcDbSpline
 70
8
 71
3
 72
8
 73
4
 74
0
 40
0
 40
0
 40
0
 40
0
 40
1
 40
1
 40
1
 40
1
 10
138.188721
 20
111.418390
 30
0.0
 10
139.850731
 20
111.418390
 30
0.0
 10
141.213840
 20
112.755089
 30
0.0
 10
141.196141
 20
114.416999
 30
0.0
  0
LWPOLYLINE
  5
104
100
AcDbEntity
  8
Layer_1
 62
1
100
AcDbPolyline
 90
2
 70
0
 10
99.955057
 20
111.418308
 30
0.0
 10
138.188661
 20
111.418308
 30
0.0
  0
SPLINE
  5
105
100
AcDbEntity
  8
Layer_1
 62
5
100
AcDbSpline
 70
8
 71
3
 72
8
 73
4
 74
0
 40
0
 40
0
 40
0
 40
0
 40
1
 40
1
 40
1
 40
1
 10
133.592848
 20
127.803818
 30
0.0
 10
134.305463
 20
127.803818
 30
0.0
 10
134.878562
 20
128.376916
 30
0.0
 10
134.878562
 20
129.089533
 30
0.0
  0
LWPOLYLINE
  5
106
100
AcDbEntity
  8
Layer_1
 62
1
100
AcDbPolyline
 90
2
 70
0
 10
141.196179
 20
114.417095
 30
0.0
 10
141.196179
 20
166.354260
 30
0.0
  0
SPLINE
  5
107
100
AcDbEntity
  8
Layer_1
 62
5
100
AcDbSpline
 70
8
 71
3
 72
8
 73
4
 74
0
 40
0
 40
0
 40
0
 40
0
 40
1
 40
1
 40
1
 40
1
 10
134.878562
 20
159.163065
 30
0.0
 10
134.878562
 20
159.875681
 30
0.0
 10
134.305463
 20
160.448780
 30
0.0
 10
133.592848
 20
160.448780
 30
0.0
  0
LWPOLYLINE
  5
108
100
AcDbEntity
  8
Layer_1
 62
5
100
AcDbPolyline
 90
2
 70
0
 10
134.878460
 20
129.089560
 30
0.0
 10
134.878460
 20
159.163151
 30
0.0
  0
SPLINE
  5
109
100
AcDbEntity
  8
Layer_1
 62
5
100
AcDbSpline
 70
8
 71
3
 72
8
 73
4
 74
0
 40
0
 40
0
 40
0
 40
0
 40
1
 40
1
 40
1
 40
1
 10
125.961574
 20
129.089533
 30
0.0
 10
125.961574
 20
128.376916
 30
0.0
 10
126.538455
 20
127.803818
 30
0.0
 10
127.251071
 20
127.803818
 30
0.0
  0
LWPOLYLINE
  5
10a
100
AcDbEntity
  8
Layer_1
 62
5
100
AcDbPolyline
 90
7
 70
0
 10
133.592850
 20
160.448761
 30
0.0
 10
132.307240
 20
160.448761
 30
0.0
 10
127.251054
 20
160.448761
 30
0.0
 10
123.390255
 20
160.448761
 30
0.0
 10
123.390255
 20
157.877277
 30
0.0
 10
125.961475
 20
157.877277
 30
0.0
 10
125.961475
 20
129.089560
 30
0.0
  0
LWPOLYLINE
  5
10b
100
AcDbEntity
  8
Layer_1
 62
5
100
AcDbPolyline
 90
5
 70
0
 10
124.483778
 20
157.874366
 30
0.0
 10
124.483778
 20
150.901274
 30
0.0
 10
104.316448
 20
150.901274
 30
0.0
 10
104.316448
 20
157.874366
 30
0.0
 10
123.380201
 20
157.874366
 30
0.0
  0
LWPOLYLINE
  5
10c
100
AcDbEntity
  8
Layer_1
 62
5
100
AcDbPolyline
 90
4
 70
0
 10
107.677714
 20
157.874366
 30
0.0
 10
107.677714
 20
166.002628
 30
0.0
 10
121.122512
 20
166.002628
 30
0.0
 10
121.122512
 20
157.874366
 30
0.0
  0
LWPOLYLINE
  5
10d
100
AcDbEntity
  8
Layer_1
 62
5
100
AcDbPolyline
 90
4
 70
0
 10
121.122512
 20
150.901274
 30
0.0
 10
117.539261
 20
141.567835
 30
0.0
 10
111.260965
 20
141.567835
 30
0.0
 10
107.677714
 20
150.901274
 30
0.0
  0
LWPOLYLINE
  5
10e
100
AcDbEntity
  8
Layer_1
 62
5
100
AcDbPolyline
 90
4
 70
1
 10
99.205758
 20
127.810829
 30
0.0
 10
138.937961
 20
127.810829
 30
0.0
 10
138.937961
 20
125.598913
 30
0.0
 10
99.205758
 20
125.598913
 30
0.0
  0
LWPOLYLINE
  5
10f
100
AcDbEntity
  8
Layer_1
 62
6
100
AcDbPolyline
 90
2
 70
0
 10
114.400245
 20
141.440042
 30
0.0
 10
114.400245
 20
125.702365
 30
0.0
  0
LWPOLYLINE
  5
110
100
AcDbEntity
  8
Layer_1
 62
6
100
AcDbPolyline
 90
2
 70
0
 10
112.787875
 20
129.414468
 30
0.0
 10
116.012351
 20
126.190256
 30
0.0
  0
LWPOLYLINE
  5
111
100
AcDbEntity
  8
Layer_1
 62
6
100
AcDbPolyline
 90
2
 70
0
 10
116.012351
 20
129.414468
 30
0.0
 10
112.787875
 20
126.190256
 30
0.0
  0
LWPOLYLINE
  5
112
100
AcDbEntity
  8
Layer_1
 62
6
100
AcDbPolyline
 90
2
 70
0
 10
113.155116
 20
128.318299
 30
0.0
 10
115.645374
 20
127.286689
 30
0.0
  0
LWPOLYLINE
  5
113
100
AcDbEntity
  8
Layer_1
 62
6
100
AcDbPolyline
 90
2
 70
0
 10
114.915918
 20
129.047491
 30
0.0
 10
113.884308
 20
126.557233
 30
0.0
  0
LWPOLYLINE
  5
114
100
AcDbEntity
  8
Layer_1
 62
6
100
AcDbPolyline
 90
2
 70
0
 10
115.645374
 20
128.318299
 30
0.0
 10
113.155116
 20
127.286689
 30
0.0
  0
LWPOLYLINE
  5
115
100
AcDbEntity
  8
Layer_1
 62
6
100
AcDbPolyline
 90
2
 70
0
 10
113.884308
 20
129.047491
 30
0.0
 10
114.915918
 20
126.557233
 30
0.0
  0
SPLINE
  5
116
100
AcDbEntity
  8
Layer_1
 62
3
100
AcDbSpline
 70
8
 71
3
 72
8
 73
4
 74
0
 40
0
 40
0
 40
0
 40
0
 40
1
 40
1
 40
1
 40
1
 10
103.494856
 20
121.620818
 30
0.0
 10
103.960995
 20
121.620818
 30
0.0
 10
104.318295
 20
121.505383
 30
0.0
 10
104.566756
 20
121.274512
 30
0.0
  0
SPLINE
  5
117
100
AcDbEntity
  8
Layer_1
 62
3
100
AcDbSpline
 70
8
 71
3
 72
8
 73
4
 74
0
 40
0
 40
0
 40
0
 40
0
 40
1
 40
1
 40
1
 40
1
 10
104.566756
 20
121.274512
 30
0.0
 10
104.817416
 20
121.043641
 30
0.0
 10
104.942747
 20
120.757802
 30
0.0
 10
104.942747
 20
120.416994
 30
0.0
  0
SPLINE
  5
118
100
AcDbEntity
  8
Layer_1
 62
3
100
AcDbSpline
 70
8
 71
3
 72
8
 73
4
 74
0
 40
0
 40
0
 40
0
 40
0
 40
1
 40
1
 40
1
 40
1
 10
104.942747
 20
120.416994
 30
0.0
 10
104.942747
 20
120.131153
 30
0.0
 10
104.853695
 20
119.885990
 30
0.0
 10
104.675595
 20
119.681503
 30
0.0
  0
SPLINE
  5
119
100
AcDbEntity
  8
Layer_1
 62
3
100
AcDbSpline
 70
8
 71
3
 72
8
 73
4
 74
0
 40
0
 40
0
 40
0
 40
0
 40
1
 40
1
 40
1
 40
1
 10
104.675595
 20
119.681503
 30
0.0
 10
104.556862
 20
119.545181
 30
0.0
 10
104.383160
 20
119.437441
 30
0.0
 10
104.154489
 20
119.358286
 30
0.0
  0
SPLINE
  5
11a
100
AcDbEntity
  8
Layer_1
 62
3
100
AcDbSpline
 70
8
 71
3
 72
8
 73
4
 74
0
 40
0
 40
0
 40
0
 40
0
 40
1
 40
1
 40
1
 40
1
 10
104.154489
 20
119.358286
 30
0.0
 10
104.501893
 20
119.274732
 30
0.0
 10
104.756950
 20
119.130713
 30
0.0
 10
104.919661
 20
118.926229
 30
0.0
  0
SPLINE
  5
11b
100
AcDbEntity
  8
Layer_1
 62
3
100
AcDbSpline
 70
8
 71
3
 72
8
 73
4
 74
0
 40
0
 40
0
 40
0
 40
0
 40
1
 40
1
 40
1
 40
1
 10
104.919661
 20
118.926229
 30
0.0
 10
105.084567
 20
118.723942
 30
0.0
 10
105.167019
 20
118.468884
 30
0.0
 10
105.167019
 20
118.161057
 30
0.0
  0
SPLINE
  5
11c
100
AcDbEntity
  8
Layer_1
 62
3
100
AcDbSpline
 70
8
 71
3
 72
8
 73
4
 74
0
 40
0
 40
0
 40
0
 40
0
 40
1
 40
1
 40
1
 40
1
 10
105.167019
 20
118.161057
 30
0.0
 10
105.167019
 20
117.910397
 30
0.0
 10
105.108753
 20
117.685023
 30
0.0
 10
104.992220
 20
117.484935
 30
0.0
  0
SPLINE
  5
11d
100
AcDbEntity
  8
Layer_1
 62
3
100
AcDbSpline
 70
8
 71
3
 72
8
 73
4
 74
0
 40
0
 40
0
 40
0
 40
0
 40
1
 40
1
 40
1
 40
1
 10
104.992220
 20
117.484935
 30
0.0
 10
104.875684
 20
117.284846
 30
0.0
 10
104.716274
 20
117.126536
 30
0.0
 10
104.513986
 20
117.010003
 30
0.0
  0
SPLINE
  5
11e
100
AcDbEntity
  8
Layer_1
 62
3
100
AcDbSpline
 70
8
 71
3
 72
8
 73
4
 74
0
 40
0
 40
0
 40
0
 40
0
 40
1
 40
1
 40
1
 40
1
 10
104.513986
 20
117.010003
 30
0.0
 10
104.388657
 20
116.937443
 30
0.0
 10
104.199563
 20
116.884672
 30
0.0
 10
103.946705
 20
116.851690
 30
0.0
  0
SPLINE
  5
11f
100
AcDbEntity
  8
Layer_1
 62
3
100
AcDbSpline
 70
8
 71
3
 72
8
 73
4
 74
0
 40
0
 40
0
 40
0
 40
0
 40
1
 40
1
 40
1
 40
1
 10
103.946705
 20
116.851690
 30
0.0
 10
103.610293
 20
116.807714
 30
0.0
 10
103.387117
 20
116.785726
 30
0.0
 10
103.277178
 20
116.785726
 30
0.0
  0
LWPOLYLINE
  5
120
100
AcDbEntity
  8
Layer_1
 62
3
100
AcDbPolyline
 90
2
 70
0
 10
100.698007
 20
121.620903
 30
0.0
 10
103.494917
 20
121.620903
 30
0.0
  0
LWPOLYLINE
  5
121
100
AcDbEntity
  8
Layer_1
 62
3
100
AcDbPolyline
 90
4
 70
0
 10
103.277165
 20
116.785644
 30
0.0
 10
100.698007
 20
116.785644
 30
0.0
 10
100.698007
 20
121.620903
 30
0.0
 10
100.698007
 20
121.620903
 30
0.0
  0
SPLINE
  5
122
100
AcDbEntity
  8
Layer_1
 62
3
100
AcDbSpline
 70
8
 71
3
 72
8
 73
4
 74
0
 40
0
 40
0
 40
0
 40
0
 40
1
 40
1
 40
1
 40
1
 10
102.855016
 20
119.724381
 30
0.0
 10
103.088085
 20
119.724381
 30
0.0
 10
103.249694
 20
119.763959
 30
0.0
 10
103.339843
 20
119.843115
 30
0.0
  0
SPLINE
  5
123
100
AcDbEntity
  8
Layer_1
 62
3
100
AcDbSpline
 70
8
 71
3
 72
8
 73
4
 74
0
 40
0
 40
0
 40
0
 40
0
 40
1
 40
1
 40
1
 40
1
 10
103.339843
 20
119.843115
 30
0.0
 10
103.432192
 20
119.924468
 30
0.0
 10
103.478366
 20
120.041002
 30
0.0
 10
103.478366
 20
120.192717
 30
0.0
  0
SPLINE
  5
124
100
AcDbEntity
  8
Layer_1
 62
3
100
AcDbSpline
 70
8
 71
3
 72
8
 73
4
 74
0
 40
0
 40
0
 40
0
 40
0
 40
1
 40
1
 40
1
 40
1
 10
103.478366
 20
120.192717
 30
0.0
 10
103.478366
 20
120.333439
 30
0.0
 10
103.432192
 20
120.443378
 30
0.0
 10
103.339843
 20
120.522534
 30
0.0
  0
SPLINE
  5
125
100
AcDbEntity
  8
Layer_1
 62
3
100
AcDbSpline
 70
8
 71
3
 72
8
 73
4
 74
0
 40
0
 40
0
 40
0
 40
0
 40
1
 40
1
 40
1
 40
1
 10
103.339843
 20
120.522534
 30
0.0
 10
103.249694
 20
120.601689
 30
0.0
 10
103.091383
 20
120.641267
 30
0.0
 10
102.864911
 20
120.641267
 30
0.0
  0
LWPOLYLINE
  5
126
100
AcDbEntity
  8
Layer_1
 62
3
100
AcDbPolyline
 90
2
 70
0
 10
102.205338
 20
119.724371
 30
0.0
 10
102.854890
 20
119.724371
 30
0.0
  0
LWPOLYLINE
  5
127
100
AcDbEntity
  8
Layer_1
 62
3
100
AcDbPolyline
 90
4
 70
0
 10
102.864944
 20
120.641152
 30
0.0
 10
102.205338
 20
120.641152
 30
0.0
 10
102.205338
 20
119.724371
 30
0.0
 10
102.205338
 20
119.724371
 30
0.0
  0
SPLINE
  5
128
100
AcDbEntity
  8
Layer_1
 62
3
100
AcDbSpline
 70
8
 71
3
 72
8
 73
4
 74
0
 40
0
 40
0
 40
0
 40
0
 40
1
 40
1
 40
1
 40
1
 10
102.967154
 20
117.824645
 30
0.0
 10
103.224409
 20
117.824645
 30
0.0
 10
103.405808
 20
117.869720
 30
0.0
 10
103.511349
 20
117.959869
 30
0.0
  0
SPLINE
  5
129
100
AcDbEntity
  8
Layer_1
 62
3
100
AcDbSpline
 70
8
 71
3
 72
8
 73
4
 74
0
 40
0
 40
0
 40
0
 40
0
 40
1
 40
1
 40
1
 40
1
 10
103.511349
 20
117.959869
 30
0.0
 10
103.616889
 20
118.052218
 30
0.0
 10
103.669659
 20
118.175349
 30
0.0
 10
103.669659
 20
118.329262
 30
0.0
  0
SPLINE
  5
12a
100
AcDbEntity
  8
Layer_1
 62
3
100
AcDbSpline
 70
8
 71
3
 72
8
 73
4
 74
0
 40
0
 40
0
 40
0
 40
0
 40
1
 40
1
 40
1
 40
1
 10
103.669659
 20
118.329262
 30
0.0
 10
103.669659
 20
118.472183
 30
0.0
 10
103.616889
 20
118.586519
 30
0.0
 10
103.511349
 20
118.672272
 30
0.0
  0
SPLINE
  5
12b
100
AcDbEntity
  8
Layer_1
 62
3
100
AcDbSpline
 70
8
 71
3
 72
8
 73
4
 74
0
 40
0
 40
0
 40
0
 40
0
 40
1
 40
1
 40
1
 40
1
 10
103.511349
 20
118.672272
 30
0.0
 10
103.408007
 20
118.760221
 30
0.0
 10
103.225509
 20
118.804196
 30
0.0
 10
102.963855
 20
118.804196
 30
0.0
  0
LWPOLYLINE
  5
12c
100
AcDbEntity
  8
Layer_1
 62
3
100
AcDbPolyline
 90
2
 70
0
 10
102.205338
 20
117.824663
 30
0.0
 10
102.967073
 20
117.824663
 30
0.0
  0
LWPOLYLINE
  5
12d
100
AcDbEntity
  8
Layer_1
 62
3
100
AcDbPolyline
 90
4
 70
0
 10
102.963898
 20
118.804150
 30
0.0
 10
102.205338
 20
118.804150
 30
0.0
 10
102.205338
 20
117.824663
 30
0.0
 10
102.205338
 20
117.824663
 30
0.0
  0
LWPOLYLINE
  5
12e
100
AcDbEntity
  8
Layer_1
 62
3
100
AcDbPolyline
 90
5
 70
1
 10
105.902624
 20
121.620903
 30
0.0
 10
107.248030
 20
121.620903
 30
0.0
 10
107.248030
 20
116.785644
 30
0.0
 10
105.902624
 20
116.785644
 30
0.0
 10
105.902624
 20
121.620903
 30
0.0
  0
SPLINE
  5
12f
100
AcDbEntity
  8
Layer_1
 62
3
100
AcDbSpline
 70
8
 71
3
 72
8
 73
4
 74
0
 40
0
 40
0
 40
0
 40
0
 40
1
 40
1
 40
1
 40
1
 10
108.052905
 20
119.289026
 30
0.0
 10
108.101278
 20
119.513300
 30
0.0
 10
108.170539
 20
119.689201
 30
0.0
 10
108.260688
 20
119.816731
 30
0.0
  0
SPLINE
  5
130
100
AcDbEntity
  8
Layer_1
 62
3
100
AcDbSpline
 70
8
 71
3
 72
8
 73
4
 74
0
 40
0
 40
0
 40
0
 40
0
 40
1
 40
1
 40
1
 40
1
 10
108.260688
 20
119.816731
 30
0.0
 10
108.353037
 20
119.946456
 30
0.0
 10
108.484963
 20
120.058593
 30
0.0
 10
108.656465
 20
120.153141
 30
0.0
  0
SPLINE
  5
131
100
AcDbEntity
  8
Layer_1
 62
3
100
AcDbSpline
 70
8
 71
3
 72
8
 73
4
 74
0
 40
0
 40
0
 40
0
 40
0
 40
1
 40
1
 40
1
 40
1
 10
108.656465
 20
120.153141
 30
0.0
 10
108.779596
 20
120.221302
 30
0.0
 10
108.948901
 20
120.274072
 30
0.0
 10
109.164380
 20
120.311451
 30
0.0
  0
SPLINE
  5
132
100
AcDbEntity
  8
Layer_1
 62
3
100
AcDbSpline
 70
8
 71
3
 72
8
 73
4
 74
0
 40
0
 40
0
 40
0
 40
0
 40
1
 40
1
 40
1
 40
1
 10
109.164380
 20
120.311451
 30
0.0
 10
109.379860
 20
120.348831
 30
0.0
 10
109.612930
 20
120.367520
 30
0.0
 10
109.863588
 20
120.367520
 30
0.0
  0
SPLINE
  5
133
100
AcDbEntity
  8
Layer_1
 62
3
100
AcDbSpline
 70
8
 71
3
 72
8
 73
4
 74
0
 40
0
 40
0
 40
0
 40
0
 40
1
 40
1
 40
1
 40
1
 10
109.863588
 20
120.367520
 30
0.0
 10
110.265964
 20
120.367520
 30
0.0
 10
110.589183
 20
120.344434
 30
0.0
 10
110.833247
 20
120.298260
 30
0.0
  0
SPLINE
  5
134
100
AcDbEntity
  8
Layer_1
 62
3
100
AcDbSpline
 70
8
 71
3
 72
8
 73
4
 74
0
 40
0
 40
0
 40
0
 40
0
 40
1
 40
1
 40
1
 40
1
 10
110.833247
 20
120.298260
 30
0.0
 10
111.077309
 20
120.254284
 30
0.0
 10
111.280695
 20
120.160836
 30
0.0
 10
111.443403
 20
120.017915
 30
0.0
  0
SPLINE
  5
135
100
AcDbEntity
  8
Layer_1
 62
3
100
AcDbSpline
 70
8
 71
3
 72
8
 73
4
 74
0
 40
0
 40
0
 40
0
 40
0
 40
1
 40
1
 40
1
 40
1
 10
111.443403
 20
120.017915
 30
0.0
 10
111.557741
 20
119.918971
 30
0.0
 10
111.647891
 20
119.778251
 30
0.0
 10
111.713854
 20
119.595753
 30
0.0
  0
SPLINE
  5
136
100
AcDbEntity
  8
Layer_1
 62
3
100
AcDbSpline
 70
8
 71
3
 72
8
 73
4
 74
0
 40
0
 40
0
 40
0
 40
0
 40
1
 40
1
 40
1
 40
1
 10
111.713854
 20
119.595753
 30
0.0
 10
111.779817
 20
119.415455
 30
0.0
 10
111.812798
 20
119.242852
 30
0.0
 10
111.812798
 20
119.077943
 30
0.0
  0
LWPOLYLINE
  5
137
100
AcDbEntity
  8
Layer_1
 62
3
100
AcDbPolyline
 90
2
 70
0
 10
109.335857
 20
119.153929
 30
0.0
 10
108.052893
 20
119.289131
 30
0.0
  0
SPLINE
  5
138
100
AcDbEntity
  8
Layer_1
 62
3
100
AcDbSpline
 70
8
 71
3
 72
8
 73
4
 74
0
 40
0
 40
0
 40
0
 40
0
 40
1
 40
1
 40
1
 40
1
 10
111.812798
 20
117.531109
 30
0.0
 10
111.812798
 20
117.366201
 30
0.0
 10
111.822693
 20
117.236474
 30
0.0
 10
111.842482
 20
117.141927
 30
0.0
  0
SPLINE
  5
139
100
AcDbEntity
  8
Layer_1
 62
3
100
AcDbSpline
 70
8
 71
3
 72
8
 73
4
 74
0
 40
0
 40
0
 40
0
 40
0
 40
1
 40
1
 40
1
 40
1
 10
111.842482
 20
117.141927
 30
0.0
 10
111.864469
 20
117.049579
 30
0.0
 10
111.910643
 20
116.930845
 30
0.0
 10
111.981003
 20
116.785726
 30
0.0
  0
LWPOLYLINE
  5
13a
100
AcDbEntity
  8
Layer_1
 62
3
100
AcDbPolyline
 90
2
 70
0
 10
111.812885
 20
119.077994
 30
0.0
 10
111.812885
 20
117.531240
 30
0.0
  0
SPLINE
  5
13b
100
AcDbEntity
  8
Layer_1
 62
3
100
AcDbSpline
 70
8
 71
3
 72
8
 73
4
 74
0
 40
0
 40
0
 40
0
 40
0
 40
1
 40
1
 40
1
 40
1
 10
110.721109
 20
116.785726
 30
0.0
 10
110.670537
 20
116.875875
 30
0.0
 10
110.637555
 20
116.944038
 30
0.0
 10
110.622165
 20
116.990213
 30
0.0
  0
SPLINE
  5
13c
100
AcDbEntity
  8
Layer_1
 62
3
100
AcDbSpline
 70
8
 71
3
 72
8
 73
4
 74
0
 40
0
 40
0
 40
0
 40
0
 40
1
 40
1
 40
1
 40
1
 10
110.622165
 20
116.990213
 30
0.0
 10
110.606774
 20
117.038586
 30
0.0
 10
110.591383
 20
117.113344
 30
0.0
 10
110.575990
 20
117.214487
 30
0.0
  0
SPLINE
  5
13d
100
AcDbEntity
  8
Layer_1
 62
3
100
AcDbSpline
 70
8
 71
3
 72
8
 73
4
 74
0
 40
0
 40
0
 40
0
 40
0
 40
1
 40
1
 40
1
 40
1
 10
110.575990
 20
117.214487
 30
0.0
 10
110.400089
 20
117.045182
 30
0.0
 10
110.225287
 20
116.924249
 30
0.0
 10
110.051585
 20
116.851690
 30
0.0
  0
SPLINE
  5
13e
100
AcDbEntity
  8
Layer_1
 62
3
100
AcDbSpline
 70
8
 71
3
 72
8
 73
4
 74
0
 40
0
 40
0
 40
0
 40
0
 40
1
 40
1
 40
1
 40
1
 10
110.051585
 20
116.851690
 30
0.0
 10
109.814117
 20
116.754944
 30
0.0
 10
109.538172
 20
116.706571
 30
0.0
 10
109.223748
 20
116.706571
 30
0.0
  0
SPLINE
  5
13f
100
AcDbEntity
  8
Layer_1
 62
3
100
AcDbSpline
 70
8
 71
3
 72
8
 73
4
 74
0
 40
0
 40
0
 40
0
 40
0
 40
1
 40
1
 40
1
 40
1
 10
109.223748
 20
116.706571
 30
0.0
 10
108.805983
 20
116.706571
 30
0.0
 10
108.488261
 20
116.803317
 30
0.0
 10
108.270583
 20
116.996809
 30
0.0
  0
SPLINE
  5
140
100
AcDbEntity
  8
Layer_1
 62
3
100
AcDbSpline
 70
8
 71
3
 72
8
 73
4
 74
0
 40
0
 40
0
 40
0
 40
0
 40
1
 40
1
 40
1
 40
1
 10
108.270583
 20
116.996809
 30
0.0
 10
108.055103
 20
117.190300
 30
0.0
 10
107.947362
 20
117.428866
 30
0.0
 10
107.947362
 20
117.712507
 30
0.0
  0
SPLINE
  5
141
100
AcDbEntity
  8
Layer_1
 62
3
100
AcDbSpline
 70
8
 71
3
 72
8
 73
4
 74
0
 40
0
 40
0
 40
0
 40
0
 40
1
 40
1
 40
1
 40
1
 10
107.947362
 20
117.712507
 30
0.0
 10
107.947362
 20
117.978558
 30
0.0
 10
108.025419
 20
118.197336
 30
0.0
 10
108.181534
 20
118.368840
 30
0.0
  0
SPLINE
  5
142
100
AcDbEntity
  8
Layer_1
 62
3
100
AcDbSpline
 70
8
 71
3
 72
8
 73
4
 74
0
 40
0
 40
0
 40
0
 40
0
 40
1
 40
1
 40
1
 40
1
 10
108.181534
 20
118.368840
 30
0.0
 10
108.337646
 20
118.540345
 30
0.0
 10
108.625684
 20
118.667874
 30
0.0
 10
109.045646
 20
118.751426
 30
0.0
  0
SPLINE
  5
143
100
AcDbEntity
  8
Layer_1
 62
3
100
AcDbSpline
 70
8
 71
3
 72
8
 73
4
 74
0
 40
0
 40
0
 40
0
 40
0
 40
1
 40
1
 40
1
 40
1
 10
109.045646
 20
118.751426
 30
0.0
 10
109.549164
 20
118.852569
 30
0.0
 10
109.875682
 20
118.922930
 30
0.0
 10
110.025200
 20
118.962509
 30
0.0
  0
SPLINE
  5
144
100
AcDbEntity
  8
Layer_1
 62
3
100
AcDbSpline
 70
8
 71
3
 72
8
 73
4
 74
0
 40
0
 40
0
 40
0
 40
0
 40
1
 40
1
 40
1
 40
1
 10
110.025200
 20
118.962509
 30
0.0
 10
110.174716
 20
119.004284
 30
0.0
 10
110.333026
 20
119.058155
 30
0.0
 10
110.500132
 20
119.124118
 30
0.0
  0
SPLINE
  5
145
100
AcDbEntity
  8
Layer_1
 62
3
100
AcDbSpline
 70
8
 71
3
 72
8
 73
4
 74
0
 40
0
 40
0
 40
0
 40
0
 40
1
 40
1
 40
1
 40
1
 10
110.500132
 20
119.124118
 30
0.0
 10
110.500132
 20
119.289026
 30
0.0
 10
110.466052
 20
119.404461
 30
0.0
 10
110.397891
 20
119.470424
 30
0.0
  0
SPLINE
  5
146
100
AcDbEntity
  8
Layer_1
 62
3
100
AcDbSpline
 70
8
 71
3
 72
8
 73
4
 74
0
 40
0
 40
0
 40
0
 40
0
 40
1
 40
1
 40
1
 40
1
 10
110.397891
 20
119.470424
 30
0.0
 10
110.329729
 20
119.536387
 30
0.0
 10
110.209896
 20
119.569368
 30
0.0
 10
110.038391
 20
119.569368
 30
0.0
  0
SPLINE
  5
147
100
AcDbEntity
  8
Layer_1
 62
3
100
AcDbSpline
 70
8
 71
3
 72
8
 73
4
 74
0
 40
0
 40
0
 40
0
 40
0
 40
1
 40
1
 40
1
 40
1
 10
110.038391
 20
119.569368
 30
0.0
 10
109.818514
 20
119.569368
 30
0.0
 10
109.653606
 20
119.534187
 30
0.0
 10
109.543670
 20
119.463825
 30
0.0
  0
SPLINE
  5
148
100
AcDbEntity
  8
Layer_1
 62
3
100
AcDbSpline
 70
8
 71
3
 72
8
 73
4
 74
0
 40
0
 40
0
 40
0
 40
0
 40
1
 40
1
 40
1
 40
1
 10
109.543670
 20
119.463825
 30
0.0
 10
109.457917
 20
119.408857
 30
0.0
 10
109.388655
 20
119.305516
 30
0.0
 10
109.335883
 20
119.153802
 30
0.0
  0
LWPOLYLINE
  5
149
100
AcDbEntity
  8
Layer_1
 62
3
100
AcDbPolyline
 90
2
 70
0
 10
111.980896
 20
116.785644
 30
0.0
 10
110.721215
 20
116.785644
 30
0.0
  0
SPLINE
  5
14a
100
AcDbEntity
  8
Layer_1
 62
3
100
AcDbSpline
 70
8
 71
3
 72
8
 73
4
 74
0
 40
0
 40
0
 40
0
 40
0
 40
1
 40
1
 40
1
 40
1
 10
110.500132
 20
118.447995
 30
0.0
 10
110.315436
 20
118.382032
 30
0.0
 10
110.123045
 20
118.323766
 30
0.0
 10
109.922956
 20
118.273195
 30
0.0
  0
SPLINE
  5
14b
100
AcDbEntity
  8
Layer_1
 62
3
100
AcDbSpline
 70
8
 71
3
 72
8
 73
4
 74
0
 40
0
 40
0
 40
0
 40
0
 40
1
 40
1
 40
1
 40
1
 10
109.922956
 20
118.273195
 30
0.0
 10
109.650309
 20
118.200636
 30
0.0
 10
109.477706
 20
118.129175
 30
0.0
 10
109.405146
 20
118.058814
 30
0.0
  0
SPLINE
  5
14c
100
AcDbEntity
  8
Layer_1
 62
3
100
AcDbSpline
 70
8
 71
3
 72
8
 73
4
 74
0
 40
0
 40
0
 40
0
 40
0
 40
1
 40
1
 40
1
 40
1
 10
109.405146
 20
118.058814
 30
0.0
 10
109.330388
 20
117.986254
 30
0.0
 10
109.293008
 20
117.903800
 30
0.0
 10
109.293008
 20
117.811452
 30
0.0
  0
SPLINE
  5
14d
100
AcDbEntity
  8
Layer_1
 62
3
100
AcDbSpline
 70
8
 71
3
 72
8
 73
4
 74
0
 40
0
 40
0
 40
0
 40
0
 40
1
 40
1
 40
1
 40
1
 10
109.293008
 20
117.811452
 30
0.0
 10
109.293008
 20
117.705912
 30
0.0
 10
109.329288
 20
117.619061
 30
0.0
 10
109.401847
 20
117.550898
 30
0.0
  0
SPLINE
  5
14e
100
AcDbEntity
  8
Layer_1
 62
3
100
AcDbSpline
 70
8
 71
3
 72
8
 73
4
 74
0
 40
0
 40
0
 40
0
 40
0
 40
1
 40
1
 40
1
 40
1
 10
109.401847
 20
117.550898
 30
0.0
 10
109.476606
 20
117.484935
 30
0.0
 10
109.585445
 20
117.451954
 30
0.0
 10
109.728364
 20
117.451954
 30
0.0
  0
SPLINE
  5
14f
100
AcDbEntity
  8
Layer_1
 62
3
100
AcDbSpline
 70
8
 71
3
 72
8
 73
4
 74
0
 40
0
 40
0
 40
0
 40
0
 40
1
 40
1
 40
1
 40
1
 10
109.728364
 20
117.451954
 30
0.0
 10
109.877882
 20
117.451954
 30
0.0
 10
110.016405
 20
117.488234
 30
0.0
 10
110.143934
 20
117.560793
 30
0.0
  0
SPLINE
  5
150
100
AcDbEntity
  8
Layer_1
 62
3
100
AcDbSpline
 70
8
 71
3
 72
8
 73
4
 74
0
 40
0
 40
0
 40
0
 40
0
 40
1
 40
1
 40
1
 40
1
 10
110.143934
 20
117.560793
 30
0.0
 10
110.273660
 20
117.633352
 30
0.0
 10
110.364908
 20
117.721303
 30
0.0
 10
110.417678
 20
117.824645
 30
0.0
  0
SPLINE
  5
151
100
AcDbEntity
  8
Layer_1
 62
3
100
AcDbSpline
 70
8
 71
3
 72
8
 73
4
 74
0
 40
0
 40
0
 40
0
 40
0
 40
1
 40
1
 40
1
 40
1
 10
110.417678
 20
117.824645
 30
0.0
 10
110.472647
 20
117.930185
 30
0.0
 10
110.500132
 20
118.066509
 30
0.0
 10
110.500132
 20
118.233616
 30
0.0
  0
LWPOLYLINE
  5
152
100
AcDbEntity
  8
Layer_1
 62
3
100
AcDbPolyline
 90
1
 70
1
 10
109.335857
 20
119.153929
 30
0.0
  0
LWPOLYLINE
  5
153
100
AcDbEntity
  8
Layer_1
 62
3
100
AcDbPolyline
 90
3
 70
0
 10
110.500023
 20
118.233708
 30
0.0
 10
110.500023
 20
118.448021
 30
0.0
 10
110.500023
 20
118.448021
 30
0.0
  0
SPLINE
  5
154
100
AcDbEntity
  8
Layer_1
 62
3
100
AcDbSpline
 70
8
 71
3
 72
8
 73
4
 74
0
 40
0
 40
0
 40
0
 40
0
 40
1
 40
1
 40
1
 40
1
 10
116.512663
 20
118.009343
 30
0.0
 10
116.442303
 20
117.743292
 30
0.0
 10
116.326867
 20
117.512421
 30
0.0
 10
116.166356
 20
117.316730
 30
0.0
  0
SPLINE
  5
155
100
AcDbEntity
  8
Layer_1
 62
3
100
AcDbSpline
 70
8
 71
3
 72
8
 73
4
 74
0
 40
0
 40
0
 40
0
 40
0
 40
1
 40
1
 40
1
 40
1
 10
116.166356
 20
117.316730
 30
0.0
 10
116.005847
 20
117.123239
 30
0.0
 10
115.800262
 20
116.972623
 30
0.0
 10
115.549603
 20
116.864884
 30
0.0
  0
SPLINE
  5
156
100
AcDbEntity
  8
Layer_1
 62
3
100
AcDbSpline
 70
8
 71
3
 72
8
 73
4
 74
0
 40
0
 40
0
 40
0
 40
0
 40
1
 40
1
 40
1
 40
1
 10
115.549603
 20
116.864884
 30
0.0
 10
115.301142
 20
116.757143
 30
0.0
 10
114.984520
 20
116.703272
 30
0.0
 10
114.599736
 20
116.703272
 30
0.0
  0
SPLINE
  5
157
100
AcDbEntity
  8
Layer_1
 62
3
100
AcDbSpline
 70
8
 71
3
 72
8
 73
4
 74
0
 40
0
 40
0
 40
0
 40
0
 40
1
 40
1
 40
1
 40
1
 10
114.599736
 20
116.703272
 30
0.0
 10
114.228144
 20
116.703272
 30
0.0
 10
113.918117
 20
116.737353
 30
0.0
 10
113.669656
 20
116.805516
 30
0.0
  0
SPLINE
  5
158
100
AcDbEntity
  8
Layer_1
 62
3
100
AcDbSpline
 70
8
 71
3
 72
8
 73
4
 74
0
 40
0
 40
0
 40
0
 40
0
 40
1
 40
1
 40
1
 40
1
 10
113.669656
 20
116.805516
 30
0.0
 10
113.423394
 20
116.875877
 30
0.0
 10
113.211213
 20
116.988015
 30
0.0
 10
113.033112
 20
117.141927
 30
0.0
  0
SPLINE
  5
159
100
AcDbEntity
  8
Layer_1
 62
3
100
AcDbSpline
 70
8
 71
3
 72
8
 73
4
 74
0
 40
0
 40
0
 40
0
 40
0
 40
1
 40
1
 40
1
 40
1
 10
113.033112
 20
117.141927
 30
0.0
 10
112.855013
 20
117.298039
 30
0.0
 10
112.715391
 20
117.480538
 30
0.0
 10
112.614246
 20
117.689421
 30
0.0
  0
SPLINE
  5
15a
100
AcDbEntity
  8
Layer_1
 62
3
100
AcDbSpline
 70
8
 71
3
 72
8
 73
4
 74
0
 40
0
 40
0
 40
0
 40
0
 40
1
 40
1
 40
1
 40
1
 10
112.614246
 20
117.689421
 30
0.0
 10
112.513104
 20
117.898304
 30
0.0
 10
112.462532
 20
118.175348
 30
0.0
 10
112.462532
 20
118.520555
 30
0.0
  0
SPLINE
  5
15b
100
AcDbEntity
  8
Layer_1
 62
3
100
AcDbSpline
 70
8
 71
3
 72
8
 73
4
 74
0
 40
0
 40
0
 40
0
 40
0
 40
1
 40
1
 40
1
 40
1
 10
112.462532
 20
118.520555
 30
0.0
 10
112.462532
 20
118.881154
 30
0.0
 10
112.524098
 20
119.181286
 30
0.0
 10
112.647230
 20
119.420950
 30
0.0
  0
SPLINE
  5
15c
100
AcDbEntity
  8
Layer_1
 62
3
100
AcDbSpline
 70
8
 71
3
 72
8
 73
4
 74
0
 40
0
 40
0
 40
0
 40
0
 40
1
 40
1
 40
1
 40
1
 10
112.647230
 20
119.420950
 30
0.0
 10
112.737379
 20
119.596851
 30
0.0
 10
112.860510
 20
119.754063
 30
0.0
 10
113.016622
 20
119.892585
 30
0.0
  0
SPLINE
  5
15d
100
AcDbEntity
  8
Layer_1
 62
3
100
AcDbSpline
 70
8
 71
3
 72
8
 73
4
 74
0
 40
0
 40
0
 40
0
 40
0
 40
1
 40
1
 40
1
 40
1
 10
113.016622
 20
119.892585
 30
0.0
 10
113.172734
 20
120.033307
 30
0.0
 10
113.333244
 20
120.137749
 30
0.0
 10
113.498152
 20
120.205911
 30
0.0
  0
SPLINE
  5
15e
100
AcDbEntity
  8
Layer_1
 62
3
100
AcDbSpline
 70
8
 71
3
 72
8
 73
4
 74
0
 40
0
 40
0
 40
0
 40
0
 40
1
 40
1
 40
1
 40
1
 10
113.498152
 20
120.205911
 30
0.0
 10
113.759806
 20
120.313651
 30
0.0
 10
114.095118
 20
120.367520
 30
0.0
 10
114.504088
 20
120.367520
 30
0.0
  0
SPLINE
  5
15f
100
AcDbEntity
  8
Layer_1
 62
3
100
AcDbSpline
 70
8
 71
3
 72
8
 73
4
 74
0
 40
0
 40
0
 40
0
 40
0
 40
1
 40
1
 40
1
 40
1
 10
114.504088
 20
120.367520
 30
0.0
 10
115.075769
 20
120.367520
 30
0.0
 10
115.511126
 20
120.265278
 30
0.0
 10
115.810159
 20
120.060793
 30
0.0
  0
SPLINE
  5
160
100
AcDbEntity
  8
Layer_1
 62
3
100
AcDbSpline
 70
8
 71
3
 72
8
 73
4
 74
0
 40
0
 40
0
 40
0
 40
0
 40
1
 40
1
 40
1
 40
1
 10
115.810159
 20
120.060793
 30
0.0
 10
116.111389
 20
119.856306
 30
0.0
 10
116.322470
 20
119.557272
 30
0.0
 10
116.443403
 20
119.163694
 30
0.0
  0
LWPOLYLINE
  5
161
100
AcDbEntity
  8
Layer_1
 62
3
100
AcDbPolyline
 90
2
 70
0
 10
115.236328
 20
118.154334
 30
0.0
 10
116.512678
 20
118.009342
 30
0.0
  0
SPLINE
  5
162
100
AcDbEntity
  8
Layer_1
 62
3
100
AcDbSpline
 70
8
 71
3
 72
8
 73
4
 74
0
 40
0
 40
0
 40
0
 40
0
 40
1
 40
1
 40
1
 40
1
 10
115.180211
 20
118.995489
 30
0.0
 10
115.140634
 20
119.145005
 30
0.0
 10
115.068074
 20
119.257141
 30
0.0
 10
114.962533
 20
119.331900
 30
0.0
  0
SPLINE
  5
163
100
AcDbEntity
  8
Layer_1
 62
3
100
AcDbSpline
 70
8
 71
3
 72
8
 73
4
 74
0
 40
0
 40
0
 40
0
 40
0
 40
1
 40
1
 40
1
 40
1
 10
114.962533
 20
119.331900
 30
0.0
 10
114.859191
 20
119.408857
 30
0.0
 10
114.719569
 20
119.447335
 30
0.0
 10
114.543667
 20
119.447335
 30
0.0
  0
SPLINE
  5
164
100
AcDbEntity
  8
Layer_1
 62
3
100
AcDbSpline
 70
8
 71
3
 72
8
 73
4
 74
0
 40
0
 40
0
 40
0
 40
0
 40
1
 40
1
 40
1
 40
1
 10
114.543667
 20
119.447335
 30
0.0
 10
114.321592
 20
119.447335
 30
0.0
 10
114.141293
 20
119.367081
 30
0.0
 10
114.002771
 20
119.206572
 30
0.0
  0
SPLINE
  5
165
100
AcDbEntity
  8
Layer_1
 62
3
100
AcDbSpline
 70
8
 71
3
 72
8
 73
4
 74
0
 40
0
 40
0
 40
0
 40
0
 40
1
 40
1
 40
1
 40
1
 10
114.002771
 20
119.206572
 30
0.0
 10
113.866447
 20
119.048260
 30
0.0
 10
113.798284
 20
118.807495
 30
0.0
 10
113.798284
 20
118.484275
 30
0.0
  0
SPLINE
  5
166
100
AcDbEntity
  8
Layer_1
 62
3
100
AcDbSpline
 70
8
 71
3
 72
8
 73
4
 74
0
 40
0
 40
0
 40
0
 40
0
 40
1
 40
1
 40
1
 40
1
 10
113.798284
 20
118.484275
 30
0.0
 10
113.798284
 20
118.196237
 30
0.0
 10
113.866447
 20
117.977460
 30
0.0
 10
114.002771
 20
117.827945
 30
0.0
  0
SPLINE
  5
167
100
AcDbEntity
  8
Layer_1
 62
3
100
AcDbSpline
 70
8
 71
3
 72
8
 73
4
 74
0
 40
0
 40
0
 40
0
 40
0
 40
1
 40
1
 40
1
 40
1
 10
114.002771
 20
117.827945
 30
0.0
 10
114.139094
 20
117.678427
 30
0.0
 10
114.312796
 20
117.603668
 30
0.0
 10
114.523878
 20
117.603668
 30
0.0
  0
SPLINE
  5
168
100
AcDbEntity
  8
Layer_1
 62
3
100
AcDbSpline
 70
8
 71
3
 72
8
 73
4
 74
0
 40
0
 40
0
 40
0
 40
0
 40
1
 40
1
 40
1
 40
1
 10
114.523878
 20
117.603668
 30
0.0
 10
114.699779
 20
117.603668
 30
0.0
 10
114.847097
 20
117.648743
 30
0.0
 10
114.965832
 20
117.738892
 30
0.0
  0
SPLINE
  5
169
100
AcDbEntity
  8
Layer_1
 62
3
100
AcDbSpline
 70
8
 71
3
 72
8
 73
4
 74
0
 40
0
 40
0
 40
0
 40
0
 40
1
 40
1
 40
1
 40
1
 10
114.965832
 20
117.738892
 30
0.0
 10
115.086764
 20
117.829041
 30
0.0
 10
115.176913
 20
117.967565
 30
0.0
 10
115.236280
 20
118.154462
 30
0.0
  0
LWPOLYLINE
  5
16a
100
AcDbEntity
  8
Layer_1
 62
3
100
AcDbPolyline
 90
2
 70
0
 10
116.443357
 20
119.163719
 30
0.0
 10
115.180236
 20
118.995444
 30
0.0
  0
LWPOLYLINE
  5
16b
100
AcDbEntity
  8
Layer_1
 62
3
100
AcDbPolyline
 90
1
 70
1
 10
115.236328
 20
118.154334
 30
0.0
  0
LWPOLYLINE
  5
16c
100
AcDbEntity
  8
Layer_1
 62
3
100
AcDbPolyline
 90
13
 70
1
 10
117.136036
 20
121.620903
 30
0.0
 10
118.508165
 20
121.620903
 30
0.0
 10
118.508165
 20
119.127471
 30
0.0
 10
119.510671
 20
120.288462
 30
0.0
 10
121.162993
 20
120.288462
 30
0.0
 10
119.906487
 20
119.061325
 30
0.0
 10
121.235489
 20
116.785644
 30
0.0
 10
119.721808
 20
116.785644
 30
0.0
 10
119.012725
 20
118.190846
 30
0.0
 10
118.508165
 20
117.696075
 30
0.0
 10
118.508165
 20
116.785644
 30
0.0
 10
117.136036
 20
116.785644
 30
0.0
 10
117.136036
 20
121.620903
 30
0.0
  0
SPLINE
  5
16d
100
AcDbEntity
  8
Layer_1
 62
3
100
AcDbSpline
 70
8
 71
3
 72
8
 73
4
 74
0
 40
0
 40
0
 40
0
 40
0
 40
1
 40
1
 40
1
 40
1
 10
122.897889
 20
119.717784
 30
0.0
 10
123.084784
 20
119.950853
 30
0.0
 10
123.273876
 20
120.116861
 30
0.0
 10
123.465168
 20
120.215806
 30
0.0
  0
SPLINE
  5
16e
100
AcDbEntity
  8
Layer_1
 62
3
100
AcDbSpline
 70
8
 71
3
 72
8
 73
4
 74
0
 40
0
 40
0
 40
0
 40
0
 40
1
 40
1
 40
1
 40
1
 10
123.465168
 20
120.215806
 30
0.0
 10
123.656461
 20
120.316949
 30
0.0
 10
123.889530
 20
120.367520
 30
0.0
 10
124.164377
 20
120.367520
 30
0.0
  0
SPLINE
  5
16f
100
AcDbEntity
  8
Layer_1
 62
3
100
AcDbSpline
 70
8
 71
3
 72
8
 73
4
 74
0
 40
0
 40
0
 40
0
 40
0
 40
1
 40
1
 40
1
 40
1
 10
124.164377
 20
120.367520
 30
0.0
 10
124.535969
 20
120.367520
 30
0.0
 10
124.826207
 20
120.256483
 30
0.0
 10
125.035089
 20
120.034408
 30
0.0
  0
SPLINE
  5
170
100
AcDbEntity
  8
Layer_1
 62
3
100
AcDbSpline
 70
8
 71
3
 72
8
 73
4
 74
0
 40
0
 40
0
 40
0
 40
0
 40
1
 40
1
 40
1
 40
1
 10
125.035089
 20
120.034408
 30
0.0
 10
125.246170
 20
119.814530
 30
0.0
 10
125.351711
 20
119.473722
 30
0.0
 10
125.351711
 20
119.011980
 30
0.0
  0
LWPOLYLINE
  5
171
100
AcDbEntity
  8
Layer_1
 62
3
100
AcDbPolyline
 90
3
 70
0
 10
121.647974
 20
120.288462
 30
0.0
 10
122.897866
 20
120.288462
 30
0.0
 10
122.897866
 20
119.717756
 30
0.0
  0
SPLINE
  5
172
100
AcDbEntity
  8
Layer_1
 62
3
100
AcDbSpline
 70
8
 71
3
 72
8
 73
4
 74
0
 40
0
 40
0
 40
0
 40
0
 40
1
 40
1
 40
1
 40
1
 10
124.002768
 20
118.711848
 30
0.0
 10
124.002768
 20
118.931725
 30
0.0
 10
123.962090
 20
119.086738
 30
0.0
 10
123.880735
 20
119.176887
 30
0.0
  0
SPLINE
  5
173
100
AcDbEntity
  8
Layer_1
 62
3
100
AcDbSpline
 70
8
 71
3
 72
8
 73
4
 74
0
 40
0
 40
0
 40
0
 40
0
 40
1
 40
1
 40
1
 40
1
 10
123.880735
 20
119.176887
 30
0.0
 10
123.799382
 20
119.269237
 30
0.0
 10
123.685046
 20
119.315411
 30
0.0
 10
123.537728
 20
119.315411
 30
0.0
  0
SPLINE
  5
174
100
AcDbEntity
  8
Layer_1
 62
3
100
AcDbSpline
 70
8
 71
3
 72
8
 73
4
 74
0
 40
0
 40
0
 40
0
 40
0
 40
1
 40
1
 40
1
 40
1
 10
123.537728
 20
119.315411
 30
0.0
 10
123.375019
 20
119.315411
 30
0.0
 10
123.243093
 20
119.253844
 30
0.0
 10
123.141952
 20
119.130713
 30
0.0
  0
SPLINE
  5
175
100
AcDbEntity
  8
Layer_1
 62
3
100
AcDbSpline
 70
8
 71
3
 72
8
 73
4
 74
0
 40
0
 40
0
 40
0
 40
0
 40
1
 40
1
 40
1
 40
1
 10
123.141952
 20
119.130713
 30
0.0
 10
123.040806
 20
119.007582
 30
0.0
 10
122.990234
 20
118.786605
 30
0.0
 10
122.990234
 20
118.467785
 30
0.0
  0
LWPOLYLINE
  5
176
100
AcDbEntity
  8
Layer_1
 62
3
100
AcDbPolyline
 90
4
 70
0
 10
125.351611
 20
119.011848
 30
0.0
 10
125.351611
 20
116.785644
 30
0.0
 10
124.002765
 20
116.785644
 30
0.0
 10
124.002765
 20
118.711810
 30
0.0
  0
SPLINE
  5
177
100
AcDbEntity
  8
Layer_1
 62
3
100
AcDbSpline
 70
8
 71
3
 72
8
 73
4
 74
0
 40
0
 40
0
 40
0
 40
0
 40
1
 40
1
 40
1
 40
1
 10
125.994853
 20
118.527153
 30
0.0
 10
125.994853
 20
119.061452
 30
0.0
 10
126.175152
 20
119.501204
 30
0.0
 10
126.535749
 20
119.846411
 30
0.0
  0
SPLINE
  5
178
100
AcDbEntity
  8
Layer_1
 62
3
100
AcDbSpline
 70
8
 71
3
 72
8
 73
4
 74
0
 40
0
 40
0
 40
0
 40
0
 40
1
 40
1
 40
1
 40
1
 10
126.535749
 20
119.846411
 30
0.0
 10
126.896347
 20
120.193817
 30
0.0
 10
127.383374
 20
120.367520
 30
0.0
 10
127.996829
 20
120.367520
 30
0.0
  0
SPLINE
  5
179
100
AcDbEntity
  8
Layer_1
 62
3
100
AcDbSpline
 70
8
 71
3
 72
8
 73
4
 74
0
 40
0
 40
0
 40
0
 40
0
 40
1
 40
1
 40
1
 40
1
 10
127.996829
 20
120.367520
 30
0.0
 10
128.698236
 20
120.367520
 30
0.0
 10
129.228139
 20
120.164134
 30
0.0
 10
129.586539
 20
119.757361
 30
0.0
  0
SPLINE
  5
17a
100
AcDbEntity
  8
Layer_1
 62
3
100
AcDbSpline
 70
8
 71
3
 72
8
 73
4
 74
0
 40
0
 40
0
 40
0
 40
0
 40
1
 40
1
 40
1
 40
1
 10
129.586539
 20
119.757361
 30
0.0
 10
129.874579
 20
119.429745
 30
0.0
 10
130.018598
 20
119.026271
 30
0.0
 10
130.018598
 20
118.546940
 30
0.0
  0
SPLINE
  5
17b
100
AcDbEntity
  8
Layer_1
 62
3
100
AcDbSpline
 70
8
 71
3
 72
8
 73
4
 74
0
 40
0
 40
0
 40
0
 40
0
 40
1
 40
1
 40
1
 40
1
 10
130.018598
 20
118.546940
 30
0.0
 10
130.018598
 20
118.008241
 30
0.0
 10
129.839399
 20
117.566289
 30
0.0
 10
129.480999
 20
117.221082
 30
0.0
  0
SPLINE
  5
17c
100
AcDbEntity
  8
Layer_1
 62
3
100
AcDbSpline
 70
8
 71
3
 72
8
 73
4
 74
0
 40
0
 40
0
 40
0
 40
0
 40
1
 40
1
 40
1
 40
1
 10
129.480999
 20
117.221082
 30
0.0
 10
129.124799
 20
116.878075
 30
0.0
 10
128.631176
 20
116.706571
 30
0.0
 10
128.000129
 20
116.706571
 30
0.0
  0
SPLINE
  5
17d
100
AcDbEntity
  8
Layer_1
 62
3
100
AcDbSpline
 70
8
 71
3
 72
8
 73
4
 74
0
 40
0
 40
0
 40
0
 40
0
 40
1
 40
1
 40
1
 40
1
 10
128.000129
 20
116.706571
 30
0.0
 10
127.437244
 20
116.706571
 30
0.0
 10
126.982098
 20
116.849491
 30
0.0
 10
126.634692
 20
117.135332
 30
0.0
  0
SPLINE
  5
17e
100
AcDbEntity
  8
Layer_1
 62
3
100
AcDbSpline
 70
8
 71
3
 72
8
 73
4
 74
0
 40
0
 40
0
 40
0
 40
0
 40
1
 40
1
 40
1
 40
1
 10
126.634692
 20
117.135332
 30
0.0
 10
126.208133
 20
117.489332
 30
0.0
 10
125.994853
 20
117.953273
 30
0.0
 10
125.994853
 20
118.527153
 30
0.0
  0
LWPOLYLINE
  5
17f
100
AcDbEntity
  8
Layer_1
 62
3
100
AcDbPolyline
 90
5
 70
0
 10
122.990205
 20
118.467865
 30
0.0
 10
122.990205
 20
116.785644
 30
0.0
 10
121.647974
 20
116.785644
 30
0.0
 10
121.647974
 20
120.288462
 30
0.0
 10
121.647974
 20
120.288462
 30
0.0
  0
SPLINE
  5
180
100
AcDbEntity
  8
Layer_1
 62
3
100
AcDbSpline
 70
8
 71
3
 72
8
 73
4
 74
0
 40
0
 40
0
 40
0
 40
0
 40
1
 40
1
 40
1
 40
1
 10
127.340499
 20
118.530455
 30
0.0
 10
127.340499
 20
118.218231
 30
0.0
 10
127.403164
 20
117.987360
 30
0.0
 10
127.528493
 20
117.837842
 30
0.0
  0
SPLINE
  5
181
100
AcDbEntity
  8
Layer_1
 62
3
100
AcDbSpline
 70
8
 71
3
 72
8
 73
4
 74
0
 40
0
 40
0
 40
0
 40
0
 40
1
 40
1
 40
1
 40
1
 10
127.528493
 20
117.837842
 30
0.0
 10
127.656022
 20
117.688326
 30
0.0
 10
127.815432
 20
117.613569
 30
0.0
 10
128.006724
 20
117.613569
 30
0.0
  0
SPLINE
  5
182
100
AcDbEntity
  8
Layer_1
 62
3
100
AcDbSpline
 70
8
 71
3
 72
8
 73
4
 74
0
 40
0
 40
0
 40
0
 40
0
 40
1
 40
1
 40
1
 40
1
 10
128.006724
 20
117.613569
 30
0.0
 10
128.200216
 20
117.613569
 30
0.0
 10
128.358527
 20
117.687228
 30
0.0
 10
128.481659
 20
117.834546
 30
0.0
  0
SPLINE
  5
183
100
AcDbEntity
  8
Layer_1
 62
3
100
AcDbSpline
 70
8
 71
3
 72
8
 73
4
 74
0
 40
0
 40
0
 40
0
 40
0
 40
1
 40
1
 40
1
 40
1
 10
128.481659
 20
117.834546
 30
0.0
 10
128.606988
 20
117.981862
 30
0.0
 10
128.669653
 20
118.218230
 30
0.0
 10
128.669653
 20
118.543649
 30
0.0
  0
SPLINE
  5
184
100
AcDbEntity
  8
Layer_1
 62
3
100
AcDbSpline
 70
8
 71
3
 72
8
 73
4
 74
0
 40
0
 40
0
 40
0
 40
0
 40
1
 40
1
 40
1
 40
1
 10
128.669653
 20
118.543649
 30
0.0
 10
128.669653
 20
118.847079
 30
0.0
 10
128.606988
 20
119.072452
 30
0.0
 10
128.481659
 20
119.219768
 30
0.0
  0
SPLINE
  5
185
100
AcDbEntity
  8
Layer_1
 62
3
100
AcDbSpline
 70
8
 71
3
 72
8
 73
4
 74
0
 40
0
 40
0
 40
0
 40
0
 40
1
 40
1
 40
1
 40
1
 10
128.481659
 20
119.219768
 30
0.0
 10
128.356330
 20
119.369286
 30
0.0
 10
128.201316
 20
119.444045
 30
0.0
 10
128.016619
 20
119.444045
 30
0.0
  0
SPLINE
  5
186
100
AcDbEntity
  8
Layer_1
 62
3
100
AcDbSpline
 70
8
 71
3
 72
8
 73
4
 74
0
 40
0
 40
0
 40
0
 40
0
 40
1
 40
1
 40
1
 40
1
 10
128.016619
 20
119.444045
 30
0.0
 10
127.820928
 20
119.444045
 30
0.0
 10
127.659318
 20
119.368186
 30
0.0
 10
127.531789
 20
119.216472
 30
0.0
  0
SPLINE
  5
187
100
AcDbEntity
  8
Layer_1
 62
3
100
AcDbSpline
 70
8
 71
3
 72
8
 73
4
 74
0
 40
0
 40
0
 40
0
 40
0
 40
1
 40
1
 40
1
 40
1
 10
127.531789
 20
119.216472
 30
0.0
 10
127.404262
 20
119.066954
 30
0.0
 10
127.340499
 20
118.838282
 30
0.0
 10
127.340499
 20
118.530455
 30
0.0
  0
LWPOLYLINE
  5
188
100
AcDbEntity
  8
Layer_1
 62
3
100
AcDbPolyline
 90
1
 70
1
 10
125.994813
 20
118.527131
 30
0.0
  0
LWPOLYLINE
  5
189
100
AcDbEntity
  8
Layer_1
 62
3
100
AcDbPolyline
 90
1
 70
1
 10
127.340483
 20
118.530571
 30
0.0
  0
SPLINE
  5
18a
100
AcDbEntity
  8
Layer_1
 62
3
100
AcDbSpline
 70
8
 71
3
 72
8
 73
4
 74
0
 40
0
 40
0
 40
0
 40
0
 40
1
 40
1
 40
1
 40
1
 10
131.766617
 20
117.880715
 30
0.0
 10
131.821587
 20
117.722403
 30
0.0
 10
131.898544
 20
117.609166
 30
0.0
 10
131.997489
 20
117.541004
 30
0.0
  0
SPLINE
  5
18b
100
AcDbEntity
  8
Layer_1
 62
3
100
AcDbSpline
 70
8
 71
3
 72
8
 73
4
 74
0
 40
0
 40
0
 40
0
 40
0
 40
1
 40
1
 40
1
 40
1
 10
131.997489
 20
117.541004
 30
0.0
 10
132.096434
 20
117.472841
 30
0.0
 10
132.228360
 20
117.438760
 30
0.0
 10
132.393266
 20
117.438760
 30
0.0
  0
SPLINE
  5
18c
100
AcDbEntity
  8
Layer_1
 62
3
100
AcDbSpline
 70
8
 71
3
 72
8
 73
4
 74
0
 40
0
 40
0
 40
0
 40
0
 40
1
 40
1
 40
1
 40
1
 10
132.393266
 20
117.438760
 30
0.0
 10
132.573567
 20
117.438760
 30
0.0
 10
132.713189
 20
117.477239
 30
0.0
 10
132.812132
 20
117.554198
 30
0.0
  0
SPLINE
  5
18d
100
AcDbEntity
  8
Layer_1
 62
3
100
AcDbSpline
 70
8
 71
3
 72
8
 73
4
 74
0
 40
0
 40
0
 40
0
 40
0
 40
1
 40
1
 40
1
 40
1
 10
132.812132
 20
117.554198
 30
0.0
 10
132.889090
 20
117.611364
 30
0.0
 10
132.927569
 20
117.682824
 30
0.0
 10
132.927569
 20
117.768576
 30
0.0
  0
SPLINE
  5
18e
100
AcDbEntity
  8
Layer_1
 62
3
100
AcDbSpline
 70
8
 71
3
 72
8
 73
4
 74
0
 40
0
 40
0
 40
0
 40
0
 40
1
 40
1
 40
1
 40
1
 10
132.927569
 20
117.768576
 30
0.0
 10
132.927569
 20
117.865322
 30
0.0
 10
132.876997
 20
117.940080
 30
0.0
 10
132.775852
 20
117.992850
 30
0.0
  0
SPLINE
  5
18f
100
AcDbEntity
  8
Layer_1
 62
3
100
AcDbSpline
 70
8
 71
3
 72
8
 73
4
 74
0
 40
0
 40
0
 40
0
 40
0
 40
1
 40
1
 40
1
 40
1
 10
132.775852
 20
117.992850
 30
0.0
 10
132.703293
 20
118.030229
 30
0.0
 10
132.510901
 20
118.076404
 30
0.0
 10
132.198677
 20
118.131373
 30
0.0
  0
SPLINE
  5
190
100
AcDbEntity
  8
Layer_1
 62
3
100
AcDbSpline
 70
8
 71
3
 72
8
 73
4
 74
0
 40
0
 40
0
 40
0
 40
0
 40
1
 40
1
 40
1
 40
1
 10
132.198677
 20
118.131373
 30
0.0
 10
131.732538
 20
118.212728
 30
0.0
 10
131.408220
 20
118.287486
 30
0.0
 10
131.225721
 20
118.355647
 30
0.0
  0
SPLINE
  5
191
100
AcDbEntity
  8
Layer_1
 62
3
100
AcDbSpline
 70
8
 71
3
 72
8
 73
4
 74
0
 40
0
 40
0
 40
0
 40
0
 40
1
 40
1
 40
1
 40
1
 10
131.225721
 20
118.355647
 30
0.0
 10
131.045423
 20
118.426008
 30
0.0
 10
130.892608
 20
118.543643
 30
0.0
 10
130.767277
 20
118.708551
 30
0.0
  0
SPLINE
  5
192
100
AcDbEntity
  8
Layer_1
 62
3
100
AcDbSpline
 70
8
 71
3
 72
8
 73
4
 74
0
 40
0
 40
0
 40
0
 40
0
 40
1
 40
1
 40
1
 40
1
 10
130.767277
 20
118.708551
 30
0.0
 10
130.644147
 20
118.873458
 30
0.0
 10
130.582582
 20
119.061452
 30
0.0
 10
130.582582
 20
119.272536
 30
0.0
  0
SPLINE
  5
193
100
AcDbEntity
  8
Layer_1
 62
3
100
AcDbSpline
 70
8
 71
3
 72
8
 73
4
 74
0
 40
0
 40
0
 40
0
 40
0
 40
1
 40
1
 40
1
 40
1
 10
130.582582
 20
119.272536
 30
0.0
 10
130.582582
 20
119.503404
 30
0.0
 10
130.649645
 20
119.702392
 30
0.0
 10
130.783770
 20
119.869500
 30
0.0
  0
SPLINE
  5
194
100
AcDbEntity
  8
Layer_1
 62
3
100
AcDbSpline
 70
8
 71
3
 72
8
 73
4
 74
0
 40
0
 40
0
 40
0
 40
0
 40
1
 40
1
 40
1
 40
1
 10
130.783770
 20
119.869500
 30
0.0
 10
130.917893
 20
120.036605
 30
0.0
 10
131.102590
 20
120.160836
 30
0.0
 10
131.337860
 20
120.242191
 30
0.0
  0
SPLINE
  5
195
100
AcDbEntity
  8
Layer_1
 62
3
100
AcDbSpline
 70
8
 71
3
 72
8
 73
4
 74
0
 40
0
 40
0
 40
0
 40
0
 40
1
 40
1
 40
1
 40
1
 10
131.337860
 20
120.242191
 30
0.0
 10
131.573128
 20
120.325744
 30
0.0
 10
131.888650
 20
120.367520
 30
0.0
 10
132.284427
 20
120.367520
 30
0.0
  0
SPLINE
  5
196
100
AcDbEntity
  8
Layer_1
 62
3
100
AcDbSpline
 70
8
 71
3
 72
8
 73
4
 74
0
 40
0
 40
0
 40
0
 40
0
 40
1
 40
1
 40
1
 40
1
 10
132.284427
 20
120.367520
 30
0.0
 10
132.702193
 20
120.367520
 30
0.0
 10
133.010022
 20
120.335638
 30
0.0
 10
133.207912
 20
120.271872
 30
0.0
  0
SPLINE
  5
197
100
AcDbEntity
  8
Layer_1
 62
3
100
AcDbSpline
 70
8
 71
3
 72
8
 73
4
 74
0
 40
0
 40
0
 40
0
 40
0
 40
1
 40
1
 40
1
 40
1
 10
133.207912
 20
120.271872
 30
0.0
 10
133.407999
 20
120.208109
 30
0.0
 10
133.574006
 20
120.109165
 30
0.0
 10
133.705932
 20
119.975039
 30
0.0
  0
SPLINE
  5
198
100
AcDbEntity
  8
Layer_1
 62
3
100
AcDbSpline
 70
8
 71
3
 72
8
 73
4
 74
0
 40
0
 40
0
 40
0
 40
0
 40
1
 40
1
 40
1
 40
1
 10
133.705932
 20
119.975039
 30
0.0
 10
133.840058
 20
119.840914
 30
0.0
 10
133.951094
 20
119.659516
 30
0.0
 10
134.039044
 20
119.430845
 30
0.0
  0
LWPOLYLINE
  5
199
100
AcDbEntity
  8
Layer_1
 62
3
100
AcDbPolyline
 90
2
 70
0
 10
130.434255
 20
117.755342
 30
0.0
 10
131.766696
 20
117.880754
 30
0.0
  0
SPLINE
  5
19a
100
AcDbEntity
  8
Layer_1
 62
3
100
AcDbSpline
 70
8
 71
3
 72
8
 73
4
 74
0
 40
0
 40
0
 40
0
 40
0
 40
1
 40
1
 40
1
 40
1
 10
132.765958
 20
119.305515
 30
0.0
 10
132.732977
 20
119.417651
 30
0.0
 10
132.678008
 20
119.500106
 30
0.0
 10
132.601050
 20
119.552877
 30
0.0
  0
SPLINE
  5
19b
100
AcDbEntity
  8
Layer_1
 62
3
100
AcDbSpline
 70
8
 71
3
 72
8
 73
4
 74
0
 40
0
 40
0
 40
0
 40
0
 40
1
 40
1
 40
1
 40
1
 10
132.601050
 20
119.552877
 30
0.0
 10
132.495510
 20
119.623237
 30
0.0
 10
132.367982
 20
119.658417
 30
0.0
 10
132.218466
 20
119.658417
 30
0.0
  0
SPLINE
  5
19c
100
AcDbEntity
  8
Layer_1
 62
3
100
AcDbSpline
 70
8
 71
3
 72
8
 73
4
 74
0
 40
0
 40
0
 40
0
 40
0
 40
1
 40
1
 40
1
 40
1
 10
132.218466
 20
119.658417
 30
0.0
 10
132.066751
 20
119.658417
 30
0.0
 10
131.955713
 20
119.630932
 30
0.0
 10
131.885351
 20
119.575963
 30
0.0
  0
SPLINE
  5
19d
100
AcDbEntity
  8
Layer_1
 62
3
100
AcDbSpline
 70
8
 71
3
 72
8
 73
4
 74
0
 40
0
 40
0
 40
0
 40
0
 40
1
 40
1
 40
1
 40
1
 10
131.885351
 20
119.575963
 30
0.0
 10
131.817191
 20
119.523193
 30
0.0
 10
131.783110
 20
119.458331
 30
0.0
 10
131.783110
 20
119.381375
 30
0.0
  0
SPLINE
  5
19e
100
AcDbEntity
  8
Layer_1
 62
3
100
AcDbSpline
 70
8
 71
3
 72
8
 73
4
 74
0
 40
0
 40
0
 40
0
 40
0
 40
1
 40
1
 40
1
 40
1
 10
131.783110
 20
119.381375
 30
0.0
 10
131.783110
 20
119.295622
 30
0.0
 10
131.827085
 20
119.230757
 30
0.0
 10
131.915035
 20
119.186782
 30
0.0
  0
SPLINE
  5
19f
100
AcDbEntity
  8
Layer_1
 62
3
100
AcDbSpline
 70
8
 71
3
 72
8
 73
4
 74
0
 40
0
 40
0
 40
0
 40
0
 40
1
 40
1
 40
1
 40
1
 10
131.915035
 20
119.186782
 30
0.0
 10
132.002985
 20
119.142807
 30
0.0
 10
132.194278
 20
119.103229
 30
0.0
 10
132.488914
 20
119.068049
 30
0.0
  0
SPLINE
  5
1a0
100
AcDbEntity
  8
Layer_1
 62
3
100
AcDbSpline
 70
8
 71
3
 72
8
 73
4
 74
0
 40
0
 40
0
 40
0
 40
0
 40
1
 40
1
 40
1
 40
1
 10
132.488914
 20
119.068049
 30
0.0
 10
132.935264
 20
119.017476
 30
0.0
 10
133.267278
 20
118.947116
 30
0.0
 10
133.484956
 20
118.856966
 30
0.0
  0
SPLINE
  5
1a1
100
AcDbEntity
  8
Layer_1
 62
3
100
AcDbSpline
 70
8
 71
3
 72
8
 73
4
 74
0
 40
0
 40
0
 40
0
 40
0
 40
1
 40
1
 40
1
 40
1
 10
133.484956
 20
118.856966
 30
0.0
 10
133.702632
 20
118.766817
 30
0.0
 10
133.868639
 20
118.638190
 30
0.0
 10
133.982975
 20
118.471084
 30
0.0
  0
SPLINE
  5
1a2
100
AcDbEntity
  8
Layer_1
 62
3
100
AcDbSpline
 70
8
 71
3
 72
8
 73
4
 74
0
 40
0
 40
0
 40
0
 40
0
 40
1
 40
1
 40
1
 40
1
 10
133.982975
 20
118.471084
 30
0.0
 10
134.099510
 20
118.303976
 30
0.0
 10
134.157778
 20
118.120379
 30
0.0
 10
134.157778
 20
117.920291
 30
0.0
  0
SPLINE
  5
1a3
100
AcDbEntity
  8
Layer_1
 62
3
100
AcDbSpline
 70
8
 71
3
 72
8
 73
4
 74
0
 40
0
 40
0
 40
0
 40
0
 40
1
 40
1
 40
1
 40
1
 10
134.157778
 20
117.920291
 30
0.0
 10
134.157778
 20
117.718005
 30
0.0
 10
134.096212
 20
117.521215
 30
0.0
 10
133.973081
 20
117.329921
 30
0.0
  0
SPLINE
  5
1a4
100
AcDbEntity
  8
Layer_1
 62
3
100
AcDbSpline
 70
8
 71
3
 72
8
 73
4
 74
0
 40
0
 40
0
 40
0
 40
0
 40
1
 40
1
 40
1
 40
1
 10
133.973081
 20
117.329921
 30
0.0
 10
133.852148
 20
117.138629
 30
0.0
 10
133.659757
 20
116.985815
 30
0.0
 10
133.395906
 20
116.871479
 30
0.0
  0
SPLINE
  5
1a5
100
AcDbEntity
  8
Layer_1
 62
3
100
AcDbSpline
 70
8
 71
3
 72
8
 73
4
 74
0
 40
0
 40
0
 40
0
 40
0
 40
1
 40
1
 40
1
 40
1
 10
133.395906
 20
116.871479
 30
0.0
 10
133.134252
 20
116.759341
 30
0.0
 10
132.776952
 20
116.703272
 30
0.0
 10
132.324006
 20
116.703272
 30
0.0
  0
SPLINE
  5
1a6
100
AcDbEntity
  8
Layer_1
 62
3
100
AcDbSpline
 70
8
 71
3
 72
8
 73
4
 74
0
 40
0
 40
0
 40
0
 40
0
 40
1
 40
1
 40
1
 40
1
 10
132.324006
 20
116.703272
 30
0.0
 10
131.684165
 20
116.703272
 30
0.0
 10
131.227921
 20
116.794521
 30
0.0
 10
130.955274
 20
116.977019
 30
0.0
  0
SPLINE
  5
1a7
100
AcDbEntity
  8
Layer_1
 62
3
100
AcDbSpline
 70
8
 71
3
 72
8
 73
4
 74
0
 40
0
 40
0
 40
0
 40
0
 40
1
 40
1
 40
1
 40
1
 10
130.955274
 20
116.977019
 30
0.0
 10
130.684824
 20
117.159517
 30
0.0
 10
130.511121
 20
117.418973
 30
0.0
 10
130.434164
 20
117.755385
 30
0.0
  0
LWPOLYLINE
  5
1a8
100
AcDbEntity
  8
Layer_1
 62
3
100
AcDbPolyline
 90
2
 70
0
 10
134.038937
 20
119.430948
 30
0.0
 10
132.766027
 20
119.305535
 30
0.0
  0
LWPOLYLINE
  5
1a9
100
AcDbEntity
  8
Layer_1
 62
3
100
AcDbPolyline
 90
1
 70
1
 10
130.434255
 20
117.755342
 30
0.0
  0
SPLINE
  5
1aa
100
AcDbEntity
  8
Layer_1
 62
3
100
AcDbSpline
 70
8
 71
3
 72
8
 73
4
 74
0
 40
0
 40
0
 40
0
 40
0
 40
1
 40
1
 40
1
 40
1
 10
135.998146
 20
118.203932
 30
0.0
 10
136.022333
 20
117.988454
 30
0.0
 10
136.080600
 20
117.827944
 30
0.0
 10
136.172949
 20
117.722402
 30
0.0
  0
SPLINE
  5
1ab
100
AcDbEntity
  8
Layer_1
 62
3
100
AcDbSpline
 70
8
 71
3
 72
8
 73
4
 74
0
 40
0
 40
0
 40
0
 40
0
 40
1
 40
1
 40
1
 40
1
 10
136.172949
 20
117.722402
 30
0.0
 10
136.302677
 20
117.570687
 30
0.0
 10
136.471982
 20
117.494829
 30
0.0
 10
136.680864
 20
117.494829
 30
0.0
  0
SPLINE
  5
1ac
100
AcDbEntity
  8
Layer_1
 62
3
100
AcDbSpline
 70
8
 71
3
 72
8
 73
4
 74
0
 40
0
 40
0
 40
0
 40
0
 40
1
 40
1
 40
1
 40
1
 10
136.680864
 20
117.494829
 30
0.0
 10
136.812790
 20
117.494829
 30
0.0
 10
136.938120
 20
117.527811
 30
0.0
 10
137.056854
 20
117.593774
 30
0.0
  0
SPLINE
  5
1ad
100
AcDbEntity
  8
Layer_1
 62
3
100
AcDbSpline
 70
8
 71
3
 72
8
 73
4
 74
0
 40
0
 40
0
 40
0
 40
0
 40
1
 40
1
 40
1
 40
1
 10
137.056854
 20
117.593774
 30
0.0
 10
137.129414
 20
117.635550
 30
0.0
 10
137.207470
 20
117.709209
 30
0.0
 10
137.291023
 20
117.814751
 30
0.0
  0
LWPOLYLINE
  5
1ae
100
AcDbEntity
  8
Layer_1
 62
3
100
AcDbPolyline
 90
2
 70
0
 10
138.689517
 20
118.203811
 30
0.0
 10
135.998176
 20
118.203811
 30
0.0
  0
SPLINE
  5
1af
100
AcDbEntity
  8
Layer_1
 62
3
100
AcDbSpline
 70
8
 71
3
 72
8
 73
4
 74
0
 40
0
 40
0
 40
0
 40
0
 40
1
 40
1
 40
1
 40
1
 10
138.613580
 20
117.692718
 30
0.0
 10
138.411295
 20
117.340917
 30
0.0
 10
138.167232
 20
117.088059
 30
0.0
 10
137.881391
 20
116.934144
 30
0.0
  0
SPLINE
  5
1b0
100
AcDbEntity
  8
Layer_1
 62
3
100
AcDbSpline
 70
8
 71
3
 72
8
 73
4
 74
0
 40
0
 40
0
 40
0
 40
0
 40
1
 40
1
 40
1
 40
1
 10
137.881391
 20
116.934144
 30
0.0
 10
137.595551
 20
116.782429
 30
0.0
 10
137.185481
 20
116.706571
 30
0.0
 10
136.651180
 20
116.706571
 30
0.0
  0
SPLINE
  5
1b1
100
AcDbEntity
  8
Layer_1
 62
3
100
AcDbSpline
 70
8
 71
3
 72
8
 73
4
 74
0
 40
0
 40
0
 40
0
 40
0
 40
1
 40
1
 40
1
 40
1
 10
136.651180
 20
116.706571
 30
0.0
 10
136.187241
 20
116.706571
 30
0.0
 10
135.822246
 20
116.771435
 30
0.0
 10
135.556195
 20
116.901164
 30
0.0
  0
SPLINE
  5
1b2
100
AcDbEntity
  8
Layer_1
 62
3
100
AcDbSpline
 70
8
 71
3
 72
8
 73
4
 74
0
 40
0
 40
0
 40
0
 40
0
 40
1
 40
1
 40
1
 40
1
 10
135.556195
 20
116.901164
 30
0.0
 10
135.290144
 20
117.033089
 30
0.0
 10
135.069168
 20
117.240873
 30
0.0
 10
134.893266
 20
117.524513
 30
0.0
  0
SPLINE
  5
1b3
100
AcDbEntity
  8
Layer_1
 62
3
100
AcDbSpline
 70
8
 71
3
 72
8
 73
4
 74
0
 40
0
 40
0
 40
0
 40
0
 40
1
 40
1
 40
1
 40
1
 10
134.893266
 20
117.524513
 30
0.0
 10
134.719564
 20
117.810354
 30
0.0
 10
134.632713
 20
118.145666
 30
0.0
 10
134.632713
 20
118.530449
 30
0.0
  0
SPLINE
  5
1b4
100
AcDbEntity
  8
Layer_1
 62
3
100
AcDbSpline
 70
8
 71
3
 72
8
 73
4
 74
0
 40
0
 40
0
 40
0
 40
0
 40
1
 40
1
 40
1
 40
1
 10
134.632713
 20
118.530449
 30
0.0
 10
134.632713
 20
119.077943
 30
0.0
 10
134.807515
 20
119.520995
 30
0.0
 10
135.157118
 20
119.859605
 30
0.0
  0
SPLINE
  5
1b5
100
AcDbEntity
  8
Layer_1
 62
3
100
AcDbSpline
 70
8
 71
3
 72
8
 73
4
 74
0
 40
0
 40
0
 40
0
 40
0
 40
1
 40
1
 40
1
 40
1
 10
135.157118
 20
119.859605
 30
0.0
 10
135.508921
 20
120.198215
 30
0.0
 10
135.993750
 20
120.367520
 30
0.0
 10
136.611604
 20
120.367520
 30
0.0
  0
SPLINE
  5
1b6
100
AcDbEntity
  8
Layer_1
 62
3
100
AcDbSpline
 70
8
 71
3
 72
8
 73
4
 74
0
 40
0
 40
0
 40
0
 40
0
 40
1
 40
1
 40
1
 40
1
 10
136.611604
 20
120.367520
 30
0.0
 10
137.112923
 20
120.367520
 30
0.0
 10
137.508701
 20
120.291663
 30
0.0
 10
137.798937
 20
120.139948
 30
0.0
  0
SPLINE
  5
1b7
100
AcDbEntity
  8
Layer_1
 62
3
100
AcDbSpline
 70
8
 71
3
 72
8
 73
4
 74
0
 40
0
 40
0
 40
0
 40
0
 40
1
 40
1
 40
1
 40
1
 10
137.798937
 20
120.139948
 30
0.0
 10
138.089175
 20
119.988232
 30
0.0
 10
138.310151
 20
119.768356
 30
0.0
 10
138.461866
 20
119.480318
 30
0.0
  0
SPLINE
  5
1b8
100
AcDbEntity
  8
Layer_1
 62
3
100
AcDbSpline
 70
8
 71
3
 72
8
 73
4
 74
0
 40
0
 40
0
 40
0
 40
0
 40
1
 40
1
 40
1
 40
1
 10
138.461866
 20
119.480318
 30
0.0
 10
138.613581
 20
119.192279
 30
0.0
 10
138.689439
 20
118.817388
 30
0.0
 10
138.689439
 20
118.355647
 30
0.0
  0
LWPOLYLINE
  5
1b9
100
AcDbEntity
  8
Layer_1
 62
3
100
AcDbPolyline
 90
2
 70
0
 10
137.290930
 20
117.814873
 30
0.0
 10
138.613582
 20
117.692636
 30
0.0
  0
SPLINE
  5
1ba
100
AcDbEntity
  8
Layer_1
 62
3
100
AcDbSpline
 70
8
 71
3
 72
8
 73
4
 74
0
 40
0
 40
0
 40
0
 40
0
 40
1
 40
1
 40
1
 40
1
 10
137.324003
 20
118.847072
 30
0.0
 10
137.297619
 20
119.106528
 30
0.0
 10
137.227260
 20
119.292324
 30
0.0
 10
137.112924
 20
119.404460
 30
0.0
  0
SPLINE
  5
1bb
100
AcDbEntity
  8
Layer_1
 62
3
100
AcDbSpline
 70
8
 71
3
 72
8
 73
4
 74
0
 40
0
 40
0
 40
0
 40
0
 40
1
 40
1
 40
1
 40
1
 10
137.112924
 20
119.404460
 30
0.0
 10
137.000786
 20
119.516597
 30
0.0
 10
136.852369
 20
119.572664
 30
0.0
 10
136.667673
 20
119.572664
 30
0.0
  0
SPLINE
  5
1bc
100
AcDbEntity
  8
Layer_1
 62
3
100
AcDbSpline
 70
8
 71
3
 72
8
 73
4
 74
0
 40
0
 40
0
 40
0
 40
0
 40
1
 40
1
 40
1
 40
1
 10
136.667673
 20
119.572664
 30
0.0
 10
136.454392
 20
119.572664
 30
0.0
 10
136.283987
 20
119.488011
 30
0.0
 10
136.156459
 20
119.318706
 30
0.0
  0
SPLINE
  5
1bd
100
AcDbEntity
  8
Layer_1
 62
3
100
AcDbSpline
 70
8
 71
3
 72
8
 73
4
 74
0
 40
0
 40
0
 40
0
 40
0
 40
1
 40
1
 40
1
 40
1
 10
136.156459
 20
119.318706
 30
0.0
 10
136.075103
 20
119.213167
 30
0.0
 10
136.023432
 20
119.055955
 30
0.0
 10
136.001445
 20
118.847072
 30
0.0
  0
LWPOLYLINE
  5
1be
100
AcDbEntity
  8
Layer_1
 62
3
100
AcDbPolyline
 90
3
 70
0
 10
138.689517
 20
118.355681
 30
0.0
 10
138.689517
 20
118.203811
 30
0.0
 10
138.689517
 20
118.203811
 30
0.0
  0
SPLINE
  5
1bf
100
AcDbEntity
  8
Layer_1
 62
3
100
AcDbSpline
 70
8
 71
3
 72
8
 73
4
 74
0
 40
0
 40
0
 40
0
 40
0
 40
1
 40
1
 40
1
 40
1
 10
129.144754
 20
152.063418
 30
0.0
 10
128.898334
 20
152.063418
 30
0.0
 10
128.668907
 20
152.110151
 30
0.0
 10
128.456474
 20
152.203618
 30
0.0
  0
SPLINE
  5
1c0
100
AcDbEntity
  8
Layer_1
 62
3
100
AcDbSpline
 70
8
 71
3
 72
8
 73
4
 74
0
 40
0
 40
0
 40
0
 40
0
 40
1
 40
1
 40
1
 40
1
 10
128.456474
 20
152.203618
 30
0.0
 10
128.246167
 20
152.294965
 30
0.0
 10
128.065601
 20
152.428798
 30
0.0
 10
127.914774
 20
152.605118
 30
0.0
  0
SPLINE
  5
1c1
100
AcDbEntity
  8
Layer_1
 62
3
100
AcDbSpline
 70
8
 71
3
 72
8
 73
4
 74
0
 40
0
 40
0
 40
0
 40
0
 40
1
 40
1
 40
1
 40
1
 10
127.914774
 20
152.605118
 30
0.0
 10
127.753327
 20
152.800558
 30
0.0
 10
127.633304
 20
153.025735
 30
0.0
 10
127.554704
 20
153.280648
 30
0.0
  0
SPLINE
  5
1c2
100
AcDbEntity
  8
Layer_1
 62
3
100
AcDbSpline
 70
8
 71
3
 72
8
 73
4
 74
0
 40
0
 40
0
 40
0
 40
0
 40
1
 40
1
 40
1
 40
1
 10
127.554704
 20
153.280648
 30
0.0
 10
127.478224
 20
153.533441
 30
0.0
 10
127.439984
 20
153.822348
 30
0.0
 10
127.439984
 20
154.147368
 30
0.0
  0
SPLINE
  5
1c3
100
AcDbEntity
  8
Layer_1
 62
3
100
AcDbSpline
 70
8
 71
3
 72
8
 73
4
 74
0
 40
0
 40
0
 40
0
 40
0
 40
1
 40
1
 40
1
 40
1
 10
127.439984
 20
154.147368
 30
0.0
 10
127.441984
 20
154.527621
 30
0.0
 10
127.472784
 20
154.849457
 30
0.0
 10
127.532384
 20
155.112878
 30
0.0
  0
SPLINE
  5
1c4
100
AcDbEntity
  8
Layer_1
 62
3
100
AcDbSpline
 70
8
 71
3
 72
8
 73
4
 74
0
 40
0
 40
0
 40
0
 40
0
 40
1
 40
1
 40
1
 40
1
 10
127.532384
 20
155.112878
 30
0.0
 10
127.589717
 20
155.374164
 30
0.0
 10
127.654511
 20
155.587657
 30
0.0
 10
127.726764
 20
155.753357
 30
0.0
  0
LWPOLYLINE
  5
1c5
100
AcDbEntity
  8
Layer_1
 62
3
100
AcDbPolyline
 90
3
 70
0
 10
136.001351
 20
118.847012
 30
0.0
 10
137.324003
 20
118.847012
 30
0.0
 10
137.324003
 20
118.847012
 30
0.0
  0
SPLINE
  5
1c6
100
AcDbEntity
  8
Layer_1
 62
3
100
AcDbSpline
 70
8
 71
3
 72
8
 73
4
 74
0
 40
0
 40
0
 40
0
 40
0
 40
1
 40
1
 40
1
 40
1
 10
128.775114
 20
155.619527
 30
0.0
 10
128.660401
 20
155.426214
 30
0.0
 10
128.564804
 20
155.218030
 30
0.0
 10
128.488324
 20
154.994977
 30
0.0
  0
SPLINE
  5
1c7
100
AcDbEntity
  8
Layer_1
 62
3
100
AcDbSpline
 70
8
 71
3
 72
8
 73
4
 74
0
 40
0
 40
0
 40
0
 40
0
 40
1
 40
1
 40
1
 40
1
 10
128.488324
 20
154.994977
 30
0.0
 10
128.411851
 20
154.771924
 30
0.0
 10
128.373614
 20
154.549931
 30
0.0
 10
128.373614
 20
154.328998
 30
0.0
  0
SPLINE
  5
1c8
100
AcDbEntity
  8
Layer_1
 62
3
100
AcDbSpline
 70
8
 71
3
 72
8
 73
4
 74
0
 40
0
 40
0
 40
0
 40
0
 40
1
 40
1
 40
1
 40
1
 10
128.373614
 20
154.328998
 30
0.0
 10
128.373614
 20
154.195171
 30
0.0
 10
128.388481
 20
154.050718
 30
0.0
 10
128.418214
 20
153.895638
 30
0.0
  0
SPLINE
  5
1c9
100
AcDbEntity
  8
Layer_1
 62
3
100
AcDbSpline
 70
8
 71
3
 72
8
 73
4
 74
0
 40
0
 40
0
 40
0
 40
0
 40
1
 40
1
 40
1
 40
1
 10
128.418214
 20
153.895638
 30
0.0
 10
128.450081
 20
153.738438
 30
0.0
 10
128.506374
 20
153.614168
 30
0.0
 10
128.587094
 20
153.522828
 30
0.0
  0
SPLINE
  5
1ca
100
AcDbEntity
  8
Layer_1
 62
3
100
AcDbSpline
 70
8
 71
3
 72
8
 73
4
 74
0
 40
0
 40
0
 40
0
 40
0
 40
1
 40
1
 40
1
 40
1
 10
128.587094
 20
153.522828
 30
0.0
 10
128.652961
 20
153.450595
 30
0.0
 10
128.719877
 20
153.396421
 30
0.0
 10
128.787844
 20
153.360308
 30
0.0
  0
SPLINE
  5
1cb
100
AcDbEntity
  8
Layer_1
 62
3
100
AcDbSpline
 70
8
 71
3
 72
8
 73
4
 74
0
 40
0
 40
0
 40
0
 40
0
 40
1
 40
1
 40
1
 40
1
 10
128.787844
 20
153.360308
 30
0.0
 10
128.855824
 20
153.322041
 30
0.0
 10
128.960977
 20
153.302908
 30
0.0
 10
129.103304
 20
153.302908
 30
0.0
  0
SPLINE
  5
1cc
100
AcDbEntity
  8
Layer_1
 62
3
100
AcDbSpline
 70
8
 71
3
 72
8
 73
4
 74
0
 40
0
 40
0
 40
0
 40
0
 40
1
 40
1
 40
1
 40
1
 10
129.103304
 20
153.302908
 30
0.0
 10
129.213771
 20
153.302908
 30
0.0
 10
129.308304
 20
153.328408
 30
0.0
 10
129.386904
 20
153.379408
 30
0.0
  0
SPLINE
  5
1cd
100
AcDbEntity
  8
Layer_1
 62
3
100
AcDbSpline
 70
8
 71
3
 72
8
 73
4
 74
0
 40
0
 40
0
 40
0
 40
0
 40
1
 40
1
 40
1
 40
1
 10
129.386904
 20
153.379408
 30
0.0
 10
129.467624
 20
153.428275
 30
0.0
 10
129.532414
 20
153.492005
 30
0.0
 10
129.581274
 20
153.570598
 30
0.0
  0
SPLINE
  5
1ce
100
AcDbEntity
  8
Layer_1
 62
3
100
AcDbSpline
 70
8
 71
3
 72
8
 73
4
 74
0
 40
0
 40
0
 40
0
 40
0
 40
1
 40
1
 40
1
 40
1
 10
129.581274
 20
153.570598
 30
0.0
 10
129.651381
 20
153.685311
 30
0.0
 10
129.697054
 20
153.823391
 30
0.0
 10
129.718294
 20
153.984838
 30
0.0
  0
SPLINE
  5
1cf
100
AcDbEntity
  8
Layer_1
 62
3
100
AcDbSpline
 70
8
 71
3
 72
8
 73
4
 74
0
 40
0
 40
0
 40
0
 40
0
 40
1
 40
1
 40
1
 40
1
 10
129.718294
 20
153.984838
 30
0.0
 10
129.741694
 20
154.146291
 30
0.0
 10
129.753394
 20
154.292871
 30
0.0
 10
129.753394
 20
154.424578
 30
0.0
  0
SPLINE
  5
1d0
100
AcDbEntity
  8
Layer_1
 62
3
100
AcDbSpline
 70
8
 71
3
 72
8
 73
4
 74
0
 40
0
 40
0
 40
0
 40
0
 40
1
 40
1
 40
1
 40
1
 10
129.753394
 20
154.424578
 30
0.0
 10
129.753394
 20
154.615765
 30
0.0
 10
129.736394
 20
154.799518
 30
0.0
 10
129.702394
 20
154.975837
 30
0.0
  0
SPLINE
  5
1d1
100
AcDbEntity
  8
Layer_1
 62
3
100
AcDbSpline
 70
8
 71
3
 72
8
 73
4
 74
0
 40
0
 40
0
 40
0
 40
0
 40
1
 40
1
 40
1
 40
1
 10
129.702394
 20
154.975837
 30
0.0
 10
129.670526
 20
155.150030
 30
0.0
 10
129.638661
 20
155.302980
 30
0.0
 10
129.606794
 20
155.434687
 30
0.0
  0
LWPOLYLINE
  5
1d2
100
AcDbEntity
  8
Layer_1
 62
3
100
AcDbPolyline
 90
3
 70
0
 10
127.726775
 20
155.753467
 30
0.0
 10
128.775053
 20
155.753467
 30
0.0
 10
128.775053
 20
155.619588
 30
0.0
  0
SPLINE
  5
1d3
100
AcDbEntity
  8
Layer_1
 62
3
100
AcDbSpline
 70
8
 71
3
 72
8
 73
4
 74
0
 40
0
 40
0
 40
0
 40
0
 40
1
 40
1
 40
1
 40
1
 10
130.600973
 20
154.424578
 30
0.0
 10
130.604973
 20
154.358711
 30
0.0
 10
130.608306
 20
154.275861
 30
0.0
 10
130.610973
 20
154.176028
 30
0.0
  0
SPLINE
  5
1d4
100
AcDbEntity
  8
Layer_1
 62
3
100
AcDbSpline
 70
8
 71
3
 72
8
 73
4
 74
0
 40
0
 40
0
 40
0
 40
0
 40
1
 40
1
 40
1
 40
1
 10
130.610973
 20
154.176028
 30
0.0
 10
130.614973
 20
154.074061
 30
0.0
 10
130.616973
 20
153.984841
 30
0.0
 10
130.616973
 20
153.908368
 30
0.0
  0
SPLINE
  5
1d5
100
AcDbEntity
  8
Layer_1
 62
3
100
AcDbSpline
 70
8
 71
3
 72
8
 73
4
 74
0
 40
0
 40
0
 40
0
 40
0
 40
1
 40
1
 40
1
 40
1
 10
130.616973
 20
153.908368
 30
0.0
 10
130.616973
 20
153.647075
 30
0.0
 10
130.591473
 20
153.414461
 30
0.0
 10
130.540473
 20
153.210528
 30
0.0
  0
SPLINE
  5
1d6
100
AcDbEntity
  8
Layer_1
 62
3
100
AcDbSpline
 70
8
 71
3
 72
8
 73
4
 74
0
 40
0
 40
0
 40
0
 40
0
 40
1
 40
1
 40
1
 40
1
 10
130.540473
 20
153.210528
 30
0.0
 10
130.491606
 20
153.004468
 30
0.0
 10
130.422566
 20
152.827088
 30
0.0
 10
130.333353
 20
152.678388
 30
0.0
  0
SPLINE
  5
1d7
100
AcDbEntity
  8
Layer_1
 62
3
100
AcDbSpline
 70
8
 71
3
 72
8
 73
4
 74
0
 40
0
 40
0
 40
0
 40
0
 40
1
 40
1
 40
1
 40
1
 10
130.333353
 20
152.678388
 30
0.0
 10
130.216513
 20
152.485075
 30
0.0
 10
130.061441
 20
152.334248
 30
0.0
 10
129.868134
 20
152.225908
 30
0.0
  0
SPLINE
  5
1d8
100
AcDbEntity
  8
Layer_1
 62
3
100
AcDbSpline
 70
8
 71
3
 72
8
 73
4
 74
0
 40
0
 40
0
 40
0
 40
0
 40
1
 40
1
 40
1
 40
1
 10
129.868134
 20
152.225908
 30
0.0
 10
129.676941
 20
152.117568
 30
0.0
 10
129.435831
 20
152.063398
 30
0.0
 10
129.144804
 20
152.063398
 30
0.0
  0
LWPOLYLINE
  5
1d9
100
AcDbEntity
  8
Layer_1
 62
3
100
AcDbPolyline
 90
7
 70
0
 10
129.606903
 20
155.434644
 30
0.0
 10
129.606903
 20
155.574873
 30
0.0
 10
132.283427
 20
155.574873
 30
0.0
 10
132.283427
 20
152.200378
 30
0.0
 10
131.375378
 20
152.200378
 30
0.0
 10
131.375378
 20
154.424465
 30
0.0
 10
130.600943
 20
154.424465
 30
0.0
  0
SPLINE
  5
1da
100
AcDbEntity
  8
Layer_1
 62
3
100
AcDbSpline
 70
8
 71
3
 72
8
 73
4
 74
0
 40
0
 40
0
 40
0
 40
0
 40
1
 40
1
 40
1
 40
1
 10
129.144754
 20
147.423910
 30
0.0
 10
128.898334
 20
147.423910
 30
0.0
 10
128.668907
 20
147.470647
 30
0.0
 10
128.456474
 20
147.564120
 30
0.0
  0
SPLINE
  5
1db
100
AcDbEntity
  8
Layer_1
 62
3
100
AcDbSpline
 70
8
 71
3
 72
8
 73
4
 74
0
 40
0
 40
0
 40
0
 40
0
 40
1
 40
1
 40
1
 40
1
 10
128.456474
 20
147.564120
 30
0.0
 10
128.246167
 20
147.655467
 30
0.0
 10
128.065601
 20
147.789297
 30
0.0
 10
127.914774
 20
147.965610
 30
0.0
  0
SPLINE
  5
1dc
100
AcDbEntity
  8
Layer_1
 62
3
100
AcDbSpline
 70
8
 71
3
 72
8
 73
4
 74
0
 40
0
 40
0
 40
0
 40
0
 40
1
 40
1
 40
1
 40
1
 10
127.914774
 20
147.965610
 30
0.0
 10
127.753327
 20
148.161050
 30
0.0
 10
127.633304
 20
148.386229
 30
0.0
 10
127.554704
 20
148.641149
 30
0.0
  0
SPLINE
  5
1dd
100
AcDbEntity
  8
Layer_1
 62
3
100
AcDbSpline
 70
8
 71
3
 72
8
 73
4
 74
0
 40
0
 40
0
 40
0
 40
0
 40
1
 40
1
 40
1
 40
1
 10
127.554704
 20
148.641149
 30
0.0
 10
127.478224
 20
148.893942
 30
0.0
 10
127.439984
 20
149.182849
 30
0.0
 10
127.439984
 20
149.507869
 30
0.0
  0
SPLINE
  5
1de
100
AcDbEntity
  8
Layer_1
 62
3
100
AcDbSpline
 70
8
 71
3
 72
8
 73
4
 74
0
 40
0
 40
0
 40
0
 40
0
 40
1
 40
1
 40
1
 40
1
 10
127.439984
 20
149.507869
 30
0.0
 10
127.441984
 20
149.888122
 30
0.0
 10
127.472784
 20
150.209956
 30
0.0
 10
127.532384
 20
150.473369
 30
0.0
  0
SPLINE
  5
1df
100
AcDbEntity
  8
Layer_1
 62
3
100
AcDbSpline
 70
8
 71
3
 72
8
 73
4
 74
0
 40
0
 40
0
 40
0
 40
0
 40
1
 40
1
 40
1
 40
1
 10
127.532384
 20
150.473369
 30
0.0
 10
127.589717
 20
150.734662
 30
0.0
 10
127.654511
 20
150.948156
 30
0.0
 10
127.726764
 20
151.113849
 30
0.0
  0
LWPOLYLINE
  5
1e0
100
AcDbEntity
  8
Layer_1
 62
3
100
AcDbPolyline
 90
1
 70
1
 10
129.144676
 20
152.063324
 30
0.0
  0
SPLINE
  5
1e1
100
AcDbEntity
  8
Layer_1
 62
3
100
AcDbSpline
 70
8
 71
3
 72
8
 73
4
 74
0
 40
0
 40
0
 40
0
 40
0
 40
1
 40
1
 40
1
 40
1
 10
128.775114
 20
150.980019
 30
0.0
 10
128.660401
 20
150.786706
 30
0.0
 10
128.564804
 20
150.578522
 30
0.0
 10
128.488324
 20
150.355469
 30
0.0
  0
SPLINE
  5
1e2
100
AcDbEntity
  8
Layer_1
 62
3
100
AcDbSpline
 70
8
 71
3
 72
8
 73
4
 74
0
 40
0
 40
0
 40
0
 40
0
 40
1
 40
1
 40
1
 40
1
 10
128.488324
 20
150.355469
 30
0.0
 10
128.411851
 20
150.132416
 30
0.0
 10
128.373614
 20
149.910426
 30
0.0
 10
128.373614
 20
149.689499
 30
0.0
  0
SPLINE
  5
1e3
100
AcDbEntity
  8
Layer_1
 62
3
100
AcDbSpline
 70
8
 71
3
 72
8
 73
4
 74
0
 40
0
 40
0
 40
0
 40
0
 40
1
 40
1
 40
1
 40
1
 10
128.373614
 20
149.689499
 30
0.0
 10
128.373614
 20
149.555666
 30
0.0
 10
128.388481
 20
149.411212
 30
0.0
 10
128.418214
 20
149.256139
 30
0.0
  0
SPLINE
  5
1e4
100
AcDbEntity
  8
Layer_1
 62
3
100
AcDbSpline
 70
8
 71
3
 72
8
 73
4
 74
0
 40
0
 40
0
 40
0
 40
0
 40
1
 40
1
 40
1
 40
1
 10
128.418214
 20
149.256139
 30
0.0
 10
128.450081
 20
149.098939
 30
0.0
 10
128.506374
 20
148.974666
 30
0.0
 10
128.587094
 20
148.883319
 30
0.0
  0
SPLINE
  5
1e5
100
AcDbEntity
  8
Layer_1
 62
3
100
AcDbSpline
 70
8
 71
3
 72
8
 73
4
 74
0
 40
0
 40
0
 40
0
 40
0
 40
1
 40
1
 40
1
 40
1
 10
128.587094
 20
148.883319
 30
0.0
 10
128.652961
 20
148.811092
 30
0.0
 10
128.719877
 20
148.756922
 30
0.0
 10
128.787844
 20
148.720809
 30
0.0
  0
SPLINE
  5
1e6
100
AcDbEntity
  8
Layer_1
 62
3
100
AcDbSpline
 70
8
 71
3
 72
8
 73
4
 74
0
 40
0
 40
0
 40
0
 40
0
 40
1
 40
1
 40
1
 40
1
 10
128.787844
 20
148.720809
 30
0.0
 10
128.855824
 20
148.682542
 30
0.0
 10
128.960977
 20
148.663409
 30
0.0
 10
129.103304
 20
148.663409
 30
0.0
  0
SPLINE
  5
1e7
100
AcDbEntity
  8
Layer_1
 62
3
100
AcDbSpline
 70
8
 71
3
 72
8
 73
4
 74
0
 40
0
 40
0
 40
0
 40
0
 40
1
 40
1
 40
1
 40
1
 10
129.103304
 20
148.663409
 30
0.0
 10
129.213771
 20
148.663409
 30
0.0
 10
129.308304
 20
148.688909
 30
0.0
 10
129.386904
 20
148.739909
 30
0.0
  0
SPLINE
  5
1e8
100
AcDbEntity
  8
Layer_1
 62
3
100
AcDbSpline
 70
8
 71
3
 72
8
 73
4
 74
0
 40
0
 40
0
 40
0
 40
0
 40
1
 40
1
 40
1
 40
1
 10
129.386904
 20
148.739909
 30
0.0
 10
129.467624
 20
148.788776
 30
0.0
 10
129.532414
 20
148.852506
 30
0.0
 10
129.581274
 20
148.931099
 30
0.0
  0
SPLINE
  5
1e9
100
AcDbEntity
  8
Layer_1
 62
3
100
AcDbSpline
 70
8
 71
3
 72
8
 73
4
 74
0
 40
0
 40
0
 40
0
 40
0
 40
1
 40
1
 40
1
 40
1
 10
129.581274
 20
148.931099
 30
0.0
 10
129.651381
 20
149.045812
 30
0.0
 10
129.697054
 20
149.183892
 30
0.0
 10
129.718294
 20
149.345339
 30
0.0
  0
SPLINE
  5
1ea
100
AcDbEntity
  8
Layer_1
 62
3
100
AcDbSpline
 70
8
 71
3
 72
8
 73
4
 74
0
 40
0
 40
0
 40
0
 40
0
 40
1
 40
1
 40
1
 40
1
 10
129.718294
 20
149.345339
 30
0.0
 10
129.741694
 20
149.506786
 30
0.0
 10
129.753394
 20
149.653362
 30
0.0
 10
129.753394
 20
149.785069
 30
0.0
  0
SPLINE
  5
1eb
100
AcDbEntity
  8
Layer_1
 62
3
100
AcDbSpline
 70
8
 71
3
 72
8
 73
4
 74
0
 40
0
 40
0
 40
0
 40
0
 40
1
 40
1
 40
1
 40
1
 10
129.753394
 20
149.785069
 30
0.0
 10
129.753394
 20
149.976256
 30
0.0
 10
129.736394
 20
150.160009
 30
0.0
 10
129.702394
 20
150.336329
 30
0.0
  0
SPLINE
  5
1ec
100
AcDbEntity
  8
Layer_1
 62
3
100
AcDbSpline
 70
8
 71
3
 72
8
 73
4
 74
0
 40
0
 40
0
 40
0
 40
0
 40
1
 40
1
 40
1
 40
1
 10
129.702394
 20
150.336329
 30
0.0
 10
129.670526
 20
150.510522
 30
0.0
 10
129.638661
 20
150.663472
 30
0.0
 10
129.606794
 20
150.795179
 30
0.0
  0
LWPOLYLINE
  5
1ed
100
AcDbEntity
  8
Layer_1
 62
3
100
AcDbPolyline
 90
3
 70
0
 10
127.726775
 20
151.113735
 30
0.0
 10
128.775053
 20
151.113735
 30
0.0
 10
128.775053
 20
150.980120
 30
0.0
  0
SPLINE
  5
1ee
100
AcDbEntity
  8
Layer_1
 62
3
100
AcDbSpline
 70
8
 71
3
 72
8
 73
4
 74
0
 40
0
 40
0
 40
0
 40
0
 40
1
 40
1
 40
1
 40
1
 10
130.600973
 20
149.785069
 30
0.0
 10
130.604973
 20
149.719202
 30
0.0
 10
130.608306
 20
149.636356
 30
0.0
 10
130.610973
 20
149.536529
 30
0.0
  0
SPLINE
  5
1ef
100
AcDbEntity
  8
Layer_1
 62
3
100
AcDbSpline
 70
8
 71
3
 72
8
 73
4
 74
0
 40
0
 40
0
 40
0
 40
0
 40
1
 40
1
 40
1
 40
1
 10
130.610973
 20
149.536529
 30
0.0
 10
130.614973
 20
149.434562
 30
0.0
 10
130.616973
 20
149.345339
 30
0.0
 10
130.616973
 20
149.268859
 30
0.0
  0
SPLINE
  5
1f0
100
AcDbEntity
  8
Layer_1
 62
3
100
AcDbSpline
 70
8
 71
3
 72
8
 73
4
 74
0
 40
0
 40
0
 40
0
 40
0
 40
1
 40
1
 40
1
 40
1
 10
130.616973
 20
149.268859
 30
0.0
 10
130.616973
 20
149.007572
 30
0.0
 10
130.591473
 20
148.774959
 30
0.0
 10
130.540473
 20
148.571019
 30
0.0
  0
SPLINE
  5
1f1
100
AcDbEntity
  8
Layer_1
 62
3
100
AcDbSpline
 70
8
 71
3
 72
8
 73
4
 74
0
 40
0
 40
0
 40
0
 40
0
 40
1
 40
1
 40
1
 40
1
 10
130.540473
 20
148.571019
 30
0.0
 10
130.491606
 20
148.364966
 30
0.0
 10
130.422566
 20
148.187586
 30
0.0
 10
130.333353
 20
148.038880
 30
0.0
  0
SPLINE
  5
1f2
100
AcDbEntity
  8
Layer_1
 62
3
100
AcDbSpline
 70
8
 71
3
 72
8
 73
4
 74
0
 40
0
 40
0
 40
0
 40
0
 40
1
 40
1
 40
1
 40
1
 10
130.333353
 20
148.038880
 30
0.0
 10
130.216513
 20
147.845567
 30
0.0
 10
130.061441
 20
147.694740
 30
0.0
 10
129.868134
 20
147.586400
 30
0.0
  0
SPLINE
  5
1f3
100
AcDbEntity
  8
Layer_1
 62
3
100
AcDbSpline
 70
8
 71
3
 72
8
 73
4
 74
0
 40
0
 40
0
 40
0
 40
0
 40
1
 40
1
 40
1
 40
1
 10
129.868134
 20
147.586400
 30
0.0
 10
129.676941
 20
147.478060
 30
0.0
 10
129.435831
 20
147.423890
 30
0.0
 10
129.144804
 20
147.423890
 30
0.0
  0
LWPOLYLINE
  5
1f4
100
AcDbEntity
  8
Layer_1
 62
3
100
AcDbPolyline
 90
7
 70
0
 10
129.606903
 20
150.795176
 30
0.0
 10
129.606903
 20
150.935406
 30
0.0
 10
132.283427
 20
150.935406
 30
0.0
 10
132.283427
 20
147.560911
 30
0.0
 10
131.375378
 20
147.560911
 30
0.0
 10
131.375378
 20
149.784998
 30
0.0
 10
130.600943
 20
149.784998
 30
0.0
  0
LWPOLYLINE
  5
1f5
100
AcDbEntity
  8
Layer_1
 62
3
100
AcDbPolyline
 90
1
 70
1
 10
129.144676
 20
147.423857
 30
0.0
  0
SPLINE
  5
1f6
100
AcDbEntity
  8
Layer_1
 62
3
100
AcDbSpline
 70
8
 71
3
 72
8
 73
4
 74
0
 40
0
 40
0
 40
0
 40
0
 40
1
 40
1
 40
1
 40
1
 10
129.326384
 20
144.109981
 30
0.0
 10
129.500577
 20
144.109981
 30
0.0
 10
129.648214
 20
144.114248
 30
0.0
 10
129.769294
 20
144.122781
 30
0.0
  0
SPLINE
  5
1f7
100
AcDbEntity
  8
Layer_1
 62
3
100
AcDbSpline
 70
8
 71
3
 72
8
 73
4
 74
0
 40
0
 40
0
 40
0
 40
0
 40
1
 40
1
 40
1
 40
1
 10
129.769294
 20
144.122781
 30
0.0
 10
129.892507
 20
144.131248
 30
0.0
 10
129.992350
 20
144.154614
 30
0.0
 10
130.068824
 20
144.192881
 30
0.0
  0
SPLINE
  5
1f8
100
AcDbEntity
  8
Layer_1
 62
3
100
AcDbSpline
 70
8
 71
3
 72
8
 73
4
 74
0
 40
0
 40
0
 40
0
 40
0
 40
1
 40
1
 40
1
 40
1
 10
130.068824
 20
144.192881
 30
0.0
 10
130.145303
 20
144.231148
 30
0.0
 10
130.200537
 20
144.289564
 30
0.0
 10
130.234524
 20
144.368131
 30
0.0
  0
SPLINE
  5
1f9
100
AcDbEntity
  8
Layer_1
 62
3
100
AcDbSpline
 70
8
 71
3
 72
8
 73
4
 74
0
 40
0
 40
0
 40
0
 40
0
 40
1
 40
1
 40
1
 40
1
 10
130.234524
 20
144.368131
 30
0.0
 10
130.270656
 20
144.444610
 30
0.0
 10
130.288723
 20
144.552954
 30
0.0
 10
130.288723
 20
144.693160
 30
0.0
  0
SPLINE
  5
1fa
100
AcDbEntity
  8
Layer_1
 62
3
100
AcDbSpline
 70
8
 71
3
 72
8
 73
4
 74
0
 40
0
 40
0
 40
0
 40
0
 40
1
 40
1
 40
1
 40
1
 10
130.288723
 20
144.693160
 30
0.0
 10
130.288723
 20
144.805747
 30
0.0
 10
130.265356
 20
144.915147
 30
0.0
 10
130.218623
 20
145.021360
 30
0.0
  0
SPLINE
  5
1fb
100
AcDbEntity
  8
Layer_1
 62
3
100
AcDbSpline
 70
8
 71
3
 72
8
 73
4
 74
0
 40
0
 40
0
 40
0
 40
0
 40
1
 40
1
 40
1
 40
1
 10
130.218623
 20
145.021360
 30
0.0
 10
130.174023
 20
145.127580
 30
0.0
 10
130.126226
 20
145.223173
 30
0.0
 10
130.075234
 20
145.308140
 30
0.0
  0
LWPOLYLINE
  5
1fc
100
AcDbEntity
  8
Layer_1
 62
3
100
AcDbPolyline
 90
4
 70
0
 10
130.075216
 20
142.956368
 30
0.0
 10
127.538656
 20
142.956368
 30
0.0
 10
127.538656
 20
144.109951
 30
0.0
 10
129.326445
 20
144.109951
 30
0.0
  0
SPLINE
  5
1fd
100
AcDbEntity
  8
Layer_1
 62
3
100
AcDbSpline
 70
8
 71
3
 72
8
 73
4
 74
0
 40
0
 40
0
 40
0
 40
0
 40
1
 40
1
 40
1
 40
1
 10
130.722083
 20
145.308140
 30
0.0
 10
130.877156
 20
145.110580
 30
0.0
 10
130.998243
 20
144.921517
 30
0.0
 10
131.085343
 20
144.740950
 30
0.0
  0
SPLINE
  5
1fe
100
AcDbEntity
  8
Layer_1
 62
3
100
AcDbSpline
 70
8
 71
3
 72
8
 73
4
 74
0
 40
0
 40
0
 40
0
 40
0
 40
1
 40
1
 40
1
 40
1
 10
131.085343
 20
144.740950
 30
0.0
 10
131.172436
 20
144.560383
 30
0.0
 10
131.215983
 20
144.360700
 30
0.0
 10
131.215983
 20
144.141900
 30
0.0
  0
SPLINE
  5
1ff
100
AcDbEntity
  8
Layer_1
 62
3
100
AcDbSpline
 70
8
 71
3
 72
8
 73
4
 74
0
 40
0
 40
0
 40
0
 40
0
 40
1
 40
1
 40
1
 40
1
 10
131.215983
 20
144.141900
 30
0.0
 10
131.215983
 20
143.906101
 30
0.0
 10
131.162876
 20
143.697918
 30
0.0
 10
131.056663
 20
143.517351
 30
0.0
  0
SPLINE
  5
200
100
AcDbEntity
  8
Layer_1
 62
3
100
AcDbSpline
 70
8
 71
3
 72
8
 73
4
 74
0
 40
0
 40
0
 40
0
 40
0
 40
1
 40
1
 40
1
 40
1
 10
131.056663
 20
143.517351
 30
0.0
 10
130.952570
 20
143.336784
 30
0.0
 10
130.798556
 20
143.195518
 30
0.0
 10
130.594623
 20
143.093551
 30
0.0
  0
SPLINE
  5
201
100
AcDbEntity
  8
Layer_1
 62
3
100
AcDbSpline
 70
8
 71
3
 72
8
 73
4
 74
0
 40
0
 40
0
 40
0
 40
0
 40
1
 40
1
 40
1
 40
1
 10
130.594623
 20
143.093551
 30
0.0
 10
130.787936
 20
142.864124
 30
0.0
 10
130.939826
 20
142.641071
 30
0.0
 10
131.050293
 20
142.424391
 30
0.0
  0
SPLINE
  5
202
100
AcDbEntity
  8
Layer_1
 62
3
100
AcDbSpline
 70
8
 71
3
 72
8
 73
4
 74
0
 40
0
 40
0
 40
0
 40
0
 40
1
 40
1
 40
1
 40
1
 10
131.050293
 20
142.424391
 30
0.0
 10
131.160753
 20
142.207711
 30
0.0
 10
131.215983
 20
141.995278
 30
0.0
 10
131.215983
 20
141.787091
 30
0.0
  0
SPLINE
  5
203
100
AcDbEntity
  8
Layer_1
 62
3
100
AcDbSpline
 70
8
 71
3
 72
8
 73
4
 74
0
 40
0
 40
0
 40
0
 40
0
 40
1
 40
1
 40
1
 40
1
 10
131.215983
 20
141.787091
 30
0.0
 10
131.215983
 20
141.400464
 30
0.0
 10
131.100210
 20
141.107309
 30
0.0
 10
130.868663
 20
140.907621
 30
0.0
  0
SPLINE
  5
204
100
AcDbEntity
  8
Layer_1
 62
3
100
AcDbSpline
 70
8
 71
3
 72
8
 73
4
 74
0
 40
0
 40
0
 40
0
 40
0
 40
1
 40
1
 40
1
 40
1
 10
130.868663
 20
140.907621
 30
0.0
 10
130.637110
 20
140.705815
 30
0.0
 10
130.303594
 20
140.604911
 30
0.0
 10
129.868114
 20
140.604911
 30
0.0
  0
LWPOLYLINE
  5
205
100
AcDbEntity
  8
Layer_1
 62
3
100
AcDbPolyline
 90
6
 70
0
 10
130.075216
 20
145.308249
 30
0.0
 10
127.538920
 20
145.308249
 30
0.0
 10
127.538920
 20
146.455217
 30
0.0
 10
131.117144
 20
146.455217
 30
0.0
 10
131.117144
 20
145.308249
 30
0.0
 10
130.722122
 20
145.308249
 30
0.0
  0
SPLINE
  5
206
100
AcDbEntity
  8
Layer_1
 62
3
100
AcDbSpline
 70
8
 71
3
 72
8
 73
4
 74
0
 40
0
 40
0
 40
0
 40
0
 40
1
 40
1
 40
1
 40
1
 10
129.326414
 20
141.758411
 30
0.0
 10
129.502727
 20
141.758411
 30
0.0
 10
129.651426
 20
141.762678
 30
0.0
 10
129.772514
 20
141.771211
 30
0.0
  0
SPLINE
  5
207
100
AcDbEntity
  8
Layer_1
 62
3
100
AcDbSpline
 70
8
 71
3
 72
8
 73
4
 74
0
 40
0
 40
0
 40
0
 40
0
 40
1
 40
1
 40
1
 40
1
 10
129.772514
 20
141.771211
 30
0.0
 10
129.893601
 20
141.777878
 30
0.0
 10
129.992381
 20
141.800178
 30
0.0
 10
130.068853
 20
141.838111
 30
0.0
  0
SPLINE
  5
208
100
AcDbEntity
  8
Layer_1
 62
3
100
AcDbSpline
 70
8
 71
3
 72
8
 73
4
 74
0
 40
0
 40
0
 40
0
 40
0
 40
1
 40
1
 40
1
 40
1
 10
130.068853
 20
141.838111
 30
0.0
 10
130.145334
 20
141.874244
 30
0.0
 10
130.200566
 20
141.931601
 30
0.0
 10
130.234553
 20
142.010181
 30
0.0
  0
SPLINE
  5
209
100
AcDbEntity
  8
Layer_1
 62
3
100
AcDbSpline
 70
8
 71
3
 72
8
 73
4
 74
0
 40
0
 40
0
 40
0
 40
0
 40
1
 40
1
 40
1
 40
1
 10
130.234553
 20
142.010181
 30
0.0
 10
130.270687
 20
142.088781
 30
0.0
 10
130.288753
 20
142.199248
 30
0.0
 10
130.288753
 20
142.341581
 30
0.0
  0
SPLINE
  5
20a
100
AcDbEntity
  8
Layer_1
 62
3
100
AcDbSpline
 70
8
 71
3
 72
8
 73
4
 74
0
 40
0
 40
0
 40
0
 40
0
 40
1
 40
1
 40
1
 40
1
 10
130.288753
 20
142.341581
 30
0.0
 10
130.288753
 20
142.437174
 30
0.0
 10
130.271753
 20
142.530644
 30
0.0
 10
130.237754
 20
142.621991
 30
0.0
  0
SPLINE
  5
20b
100
AcDbEntity
  8
Layer_1
 62
3
100
AcDbSpline
 70
8
 71
3
 72
8
 73
4
 74
0
 40
0
 40
0
 40
0
 40
0
 40
1
 40
1
 40
1
 40
1
 10
130.237754
 20
142.621991
 30
0.0
 10
130.205886
 20
142.713338
 30
0.0
 10
130.151716
 20
142.824864
 30
0.0
 10
130.075244
 20
142.956571
 30
0.0
  0
LWPOLYLINE
  5
20c
100
AcDbEntity
  8
Layer_1
 62
3
100
AcDbPolyline
 90
4
 70
0
 10
129.868047
 20
140.605017
 30
0.0
 10
127.538920
 20
140.605017
 30
0.0
 10
127.538920
 20
141.758335
 30
0.0
 10
129.326445
 20
141.758335
 30
0.0
  0
LWPOLYLINE
  5
20d
100
AcDbEntity
  8
Layer_1
 62
3
100
AcDbPolyline
 90
1
 70
1
 10
130.075216
 20
142.956633
 30
0.0
  0
SPLINE
  5
20e
100
AcDbEntity
  8
Layer_1
 62
3
100
AcDbSpline
 70
8
 71
3
 72
8
 73
4
 74
0
 40
0
 40
0
 40
0
 40
0
 40
1
 40
1
 40
1
 40
1
 10
129.326384
 20
137.201702
 30
0.0
 10
129.500577
 20
137.201702
 30
0.0
 10
129.648214
 20
137.205969
 30
0.0
 10
129.769294
 20
137.214502
 30
0.0
  0
SPLINE
  5
20f
100
AcDbEntity
  8
Layer_1
 62
3
100
AcDbSpline
 70
8
 71
3
 72
8
 73
4
 74
0
 40
0
 40
0
 40
0
 40
0
 40
1
 40
1
 40
1
 40
1
 10
129.769294
 20
137.214502
 30
0.0
 10
129.892507
 20
137.222969
 30
0.0
 10
129.992350
 20
137.246336
 30
0.0
 10
130.068824
 20
137.284602
 30
0.0
  0
SPLINE
  5
210
100
AcDbEntity
  8
Layer_1
 62
3
100
AcDbSpline
 70
8
 71
3
 72
8
 73
4
 74
0
 40
0
 40
0
 40
0
 40
0
 40
1
 40
1
 40
1
 40
1
 10
130.068824
 20
137.284602
 30
0.0
 10
130.145303
 20
137.322869
 30
0.0
 10
130.200537
 20
137.381289
 30
0.0
 10
130.234524
 20
137.459862
 30
0.0
  0
SPLINE
  5
211
100
AcDbEntity
  8
Layer_1
 62
3
100
AcDbSpline
 70
8
 71
3
 72
8
 73
4
 74
0
 40
0
 40
0
 40
0
 40
0
 40
1
 40
1
 40
1
 40
1
 10
130.234524
 20
137.459862
 30
0.0
 10
130.270656
 20
137.536335
 30
0.0
 10
130.288723
 20
137.644675
 30
0.0
 10
130.288723
 20
137.784882
 30
0.0
  0
SPLINE
  5
212
100
AcDbEntity
  8
Layer_1
 62
3
100
AcDbSpline
 70
8
 71
3
 72
8
 73
4
 74
0
 40
0
 40
0
 40
0
 40
0
 40
1
 40
1
 40
1
 40
1
 10
130.288723
 20
137.784882
 30
0.0
 10
130.288723
 20
137.897469
 30
0.0
 10
130.265356
 20
138.006872
 30
0.0
 10
130.218623
 20
138.113092
 30
0.0
  0
SPLINE
  5
213
100
AcDbEntity
  8
Layer_1
 62
3
100
AcDbSpline
 70
8
 71
3
 72
8
 73
4
 74
0
 40
0
 40
0
 40
0
 40
0
 40
1
 40
1
 40
1
 40
1
 10
130.218623
 20
138.113092
 30
0.0
 10
130.174023
 20
138.219305
 30
0.0
 10
130.126226
 20
138.314899
 30
0.0
 10
130.075234
 20
138.399872
 30
0.0
  0
LWPOLYLINE
  5
214
100
AcDbEntity
  8
Layer_1
 62
3
100
AcDbPolyline
 90
4
 70
0
 10
130.075216
 20
136.048099
 30
0.0
 10
127.538656
 20
136.048099
 30
0.0
 10
127.538656
 20
137.201682
 30
0.0
 10
129.326445
 20
137.201682
 30
0.0
  0
SPLINE
  5
215
100
AcDbEntity
  8
Layer_1
 62
3
100
AcDbSpline
 70
8
 71
3
 72
8
 73
4
 74
0
 40
0
 40
0
 40
0
 40
0
 40
1
 40
1
 40
1
 40
1
 10
130.722083
 20
138.399872
 30
0.0
 10
130.877156
 20
138.202312
 30
0.0
 10
130.998243
 20
138.013249
 30
0.0
 10
131.085343
 20
137.832682
 30
0.0
  0
SPLINE
  5
216
100
AcDbEntity
  8
Layer_1
 62
3
100
AcDbSpline
 70
8
 71
3
 72
8
 73
4
 74
0
 40
0
 40
0
 40
0
 40
0
 40
1
 40
1
 40
1
 40
1
 10
131.085343
 20
137.832682
 30
0.0
 10
131.172436
 20
137.652115
 30
0.0
 10
131.215983
 20
137.452429
 30
0.0
 10
131.215983
 20
137.233623
 30
0.0
  0
SPLINE
  5
217
100
AcDbEntity
  8
Layer_1
 62
3
100
AcDbSpline
 70
8
 71
3
 72
8
 73
4
 74
0
 40
0
 40
0
 40
0
 40
0
 40
1
 40
1
 40
1
 40
1
 10
131.215983
 20
137.233623
 30
0.0
 10
131.215983
 20
136.997823
 30
0.0
 10
131.162876
 20
136.789640
 30
0.0
 10
131.056663
 20
136.609073
 30
0.0
  0
SPLINE
  5
218
100
AcDbEntity
  8
Layer_1
 62
3
100
AcDbSpline
 70
8
 71
3
 72
8
 73
4
 74
0
 40
0
 40
0
 40
0
 40
0
 40
1
 40
1
 40
1
 40
1
 10
131.056663
 20
136.609073
 30
0.0
 10
130.952570
 20
136.428506
 30
0.0
 10
130.798556
 20
136.287240
 30
0.0
 10
130.594623
 20
136.185273
 30
0.0
  0
SPLINE
  5
219
100
AcDbEntity
  8
Layer_1
 62
3
100
AcDbSpline
 70
8
 71
3
 72
8
 73
4
 74
0
 40
0
 40
0
 40
0
 40
0
 40
1
 40
1
 40
1
 40
1
 10
130.594623
 20
136.185273
 30
0.0
 10
130.787936
 20
135.955846
 30
0.0
 10
130.939826
 20
135.732793
 30
0.0
 10
131.050293
 20
135.516113
 30
0.0
  0
SPLINE
  5
21a
100
AcDbEntity
  8
Layer_1
 62
3
100
AcDbSpline
 70
8
 71
3
 72
8
 73
4
 74
0
 40
0
 40
0
 40
0
 40
0
 40
1
 40
1
 40
1
 40
1
 10
131.050293
 20
135.516113
 30
0.0
 10
131.160753
 20
135.299433
 30
0.0
 10
131.215983
 20
135.087003
 30
0.0
 10
131.215983
 20
134.878823
 30
0.0
  0
SPLINE
  5
21b
100
AcDbEntity
  8
Layer_1
 62
3
100
AcDbSpline
 70
8
 71
3
 72
8
 73
4
 74
0
 40
0
 40
0
 40
0
 40
0
 40
1
 40
1
 40
1
 40
1
 10
131.215983
 20
134.878823
 30
0.0
 10
131.215983
 20
134.492196
 30
0.0
 10
131.100210
 20
134.199040
 30
0.0
 10
130.868663
 20
133.999353
 30
0.0
  0
SPLINE
  5
21c
100
AcDbEntity
  8
Layer_1
 62
3
100
AcDbSpline
 70
8
 71
3
 72
8
 73
4
 74
0
 40
0
 40
0
 40
0
 40
0
 40
1
 40
1
 40
1
 40
1
 10
130.868663
 20
133.999353
 30
0.0
 10
130.637110
 20
133.797540
 30
0.0
 10
130.303594
 20
133.696634
 30
0.0
 10
129.868114
 20
133.696634
 30
0.0
  0
LWPOLYLINE
  5
21d
100
AcDbEntity
  8
Layer_1
 62
3
100
AcDbPolyline
 90
6
 70
0
 10
130.075216
 20
138.399980
 30
0.0
 10
127.538920
 20
138.399980
 30
0.0
 10
127.538920
 20
139.546948
 30
0.0
 10
131.117144
 20
139.546948
 30
0.0
 10
131.117144
 20
138.399980
 30
0.0
 10
130.722122
 20
138.399980
 30
0.0
  0
SPLINE
  5
21e
100
AcDbEntity
  8
Layer_1
 62
3
100
AcDbSpline
 70
8
 71
3
 72
8
 73
4
 74
0
 40
0
 40
0
 40
0
 40
0
 40
1
 40
1
 40
1
 40
1
 10
129.326414
 20
134.850143
 30
0.0
 10
129.502727
 20
134.850143
 30
0.0
 10
129.651426
 20
134.854376
 30
0.0
 10
129.772514
 20
134.862843
 30
0.0
  0
SPLINE
  5
21f
100
AcDbEntity
  8
Layer_1
 62
3
100
AcDbSpline
 70
8
 71
3
 72
8
 73
4
 74
0
 40
0
 40
0
 40
0
 40
0
 40
1
 40
1
 40
1
 40
1
 10
129.772514
 20
134.862843
 30
0.0
 10
129.893601
 20
134.869510
 30
0.0
 10
129.992381
 20
134.891810
 30
0.0
 10
130.068853
 20
134.929743
 30
0.0
  0
SPLINE
  5
220
100
AcDbEntity
  8
Layer_1
 62
3
100
AcDbSpline
 70
8
 71
3
 72
8
 73
4
 74
0
 40
0
 40
0
 40
0
 40
0
 40
1
 40
1
 40
1
 40
1
 10
130.068853
 20
134.929743
 30
0.0
 10
130.145334
 20
134.965876
 30
0.0
 10
130.200566
 20
135.023233
 30
0.0
 10
130.234553
 20
135.101813
 30
0.0
  0
SPLINE
  5
221
100
AcDbEntity
  8
Layer_1
 62
3
100
AcDbSpline
 70
8
 71
3
 72
8
 73
4
 74
0
 40
0
 40
0
 40
0
 40
0
 40
1
 40
1
 40
1
 40
1
 10
130.234553
 20
135.101813
 30
0.0
 10
130.270687
 20
135.180413
 30
0.0
 10
130.288753
 20
135.290876
 30
0.0
 10
130.288753
 20
135.433203
 30
0.0
  0
SPLINE
  5
222
100
AcDbEntity
  8
Layer_1
 62
3
100
AcDbSpline
 70
8
 71
3
 72
8
 73
4
 74
0
 40
0
 40
0
 40
0
 40
0
 40
1
 40
1
 40
1
 40
1
 10
130.288753
 20
135.433203
 30
0.0
 10
130.288753
 20
135.528796
 30
0.0
 10
130.271753
 20
135.622266
 30
0.0
 10
130.237754
 20
135.713613
 30
0.0
  0
SPLINE
  5
223
100
AcDbEntity
  8
Layer_1
 62
3
100
AcDbSpline
 70
8
 71
3
 72
8
 73
4
 74
0
 40
0
 40
0
 40
0
 40
0
 40
1
 40
1
 40
1
 40
1
 10
130.237754
 20
135.713613
 30
0.0
 10
130.205886
 20
135.804960
 30
0.0
 10
130.151716
 20
135.916486
 30
0.0
 10
130.075244
 20
136.048193
 30
0.0
  0
LWPOLYLINE
  5
224
100
AcDbEntity
  8
Layer_1
 62
3
100
AcDbPolyline
 90
4
 70
0
 10
129.868047
 20
133.696748
 30
0.0
 10
127.538920
 20
133.696748
 30
0.0
 10
127.538920
 20
134.850066
 30
0.0
 10
129.326445
 20
134.850066
 30
0.0
  0
LWPOLYLINE
  5
225
100
AcDbEntity
  8
Layer_1
 62
3
100
AcDbPolyline
 90
1
 70
1
 10
130.075216
 20
136.048099
 30
0.0
  0
ENDSEC
  0
SECTION
  2
OBJECTS
  0
DICTIONARY
  5
C
330
0
100
AcDbDictionary
  3
ACAD_GROUP
350
D
  3
ACAD_MLINESTYLE
350
17
  0
DICTIONARY
  5
D
330
C
100
AcDbDictionary
  0
DICTIONARY
  5
1A
330
C
100
AcDbDictionary
  0
DICTIONARY
  5
17
330
C
100
AcDbDictionary
  3
STANDARD
350
18
  0
DICTIONARY
  5
19
330
C
100
AcDbDictionary
  0
ENDSEC
  0
EOF
