<?xml version="1.0" encoding="UTF-8" standalone="no"?>
<!-- Created with Inkscape (http://www.inkscape.org/) -->

<svg
   xmlns:dc="http://purl.org/dc/elements/1.1/"
   xmlns:cc="http://creativecommons.org/ns#"
   xmlns:rdf="http://www.w3.org/1999/02/22-rdf-syntax-ns#"
   xmlns:svg="http://www.w3.org/2000/svg"
   xmlns="http://www.w3.org/2000/svg"
   xmlns:sodipodi="http://sodipodi.sourceforge.net/DTD/sodipodi-0.dtd"
   xmlns:inkscape="http://www.inkscape.org/namespaces/inkscape"
   width="1062.9921"
   height="1062.9921"
   id="svg2"
   version="1.1"
   inkscape:version="0.48.4 r9939"
   sodipodi:docname="Small Laser Square.svg">
  <defs
     id="defs4">
    <inkscape:perspective
       sodipodi:type="inkscape:persp3d"
       inkscape:vp_x="0 : 531.49603 : 1"
       inkscape:vp_y="0 : 1000 : 0"
       inkscape:vp_z="1062.9921 : 531.49603 : 1"
       inkscape:persp3d-origin="531.49603 : 354.33069 : 1"
       id="perspective3773" />
  </defs>
  <sodipodi:namedview
     id="base"
     pagecolor="#ffffff"
     bordercolor="#666666"
     borderopacity="1.0"
     inkscape:pageopacity="0.0"
     inkscape:pageshadow="2"
     inkscape:zoom="3.1765603"
     inkscape:cx="238.96689"
     inkscape:cy="655.07171"
     inkscape:document-units="mm"
     inkscape:current-layer="layer1"
     showgrid="false"
     units="mm"
     inkscape:object-nodes="true"
     inkscape:object-paths="true"
     inkscape:snap-smooth-nodes="true"
     inkscape:snap-intersection-paths="true"
     inkscape:window-width="1366"
     inkscape:window-height="702"
     inkscape:window-x="0"
     inkscape:window-y="27"
     inkscape:window-maximized="1">
    <inkscape:grid
       type="xygrid"
       id="grid2985"
       empspacing="5"
       visible="true"
       enabled="true"
       snapvisiblegridlinesonly="true"
       units="mm"
       spacingx="1mm"
       spacingy="1mm" />
  </sodipodi:namedview>
  <metadata
     id="metadata7">
    <rdf:RDF>
      <cc:Work
         rdf:about="">
        <dc:format>image/svg+xml</dc:format>
        <dc:type
           rdf:resource="http://purl.org/dc/dcmitype/StillImage" />
        <dc:title />
      </cc:Work>
    </rdf:RDF>
  </metadata>
  <g
     inkscape:label="Layer 1"
     inkscape:groupmode="layer"
     id="layer1"
     transform="translate(0,10.629915)">
    <rect
       style="fill:none;stroke:#ff0000;stroke-width:0.69741285;stroke-linecap:butt;stroke-linejoin:round;stroke-miterlimit:4;stroke-opacity:1;stroke-dasharray:none;stroke-dashoffset:0.21259842"
       id="rect2987"
       width="219.68504"
       height="219.68504"
       x="-327.75946"
       y="291.96844"
       transform="scale(-1,1)" />
    <path
       sodipodi:type="arc"
       style="fill:none;stroke:#0000ff;stroke-width:2.36220479;stroke-linecap:butt;stroke-linejoin:round;stroke-miterlimit:4;stroke-opacity:1;stroke-dasharray:none;stroke-dashoffset:0.21259842"
       id="path2989"
       sodipodi:cx="318.89764"
       sodipodi:cy="318.89758"
       sodipodi:rx="17.716536"
       sodipodi:ry="17.716536"
       d="m 336.61418,318.89758 c 0,9.78458 -7.93196,17.71654 -17.71654,17.71654 -9.78457,0 -17.71653,-7.93196 -17.71653,-17.71654 0,-9.78457 7.93196,-17.71653 17.71653,-17.71653 9.78458,0 17.71654,7.93196 17.71654,17.71653 z"
       transform="matrix(-0.3,0,0,0.3,214.37378,207.51177)" />
    <path
       style="fill:none;stroke:#000000;stroke-width:0.70866143999999998;stroke-linecap:butt;stroke-linejoin:round;stroke-miterlimit:4;stroke-opacity:1;stroke-dasharray:none;stroke-dashoffset:0.21259842000000001"
       d="m 256.01797,372.05759 46.71875,0 0,14.15625 -46.71875,0"
       id="path4053"
       inkscape:connector-curvature="0"
       sodipodi:nodetypes="cccc" />
    <path
       style="fill:none;stroke:#000000;stroke-width:0.70866143999999998;stroke-linecap:butt;stroke-linejoin:round;stroke-miterlimit:4;stroke-opacity:1;stroke-dasharray:none;stroke-dashoffset:0.21259842000000001"
       d="m 254.23672,386.21384 -18.84375,0 0,-14.15625 18.84375,0"
       id="rect3759"
       inkscape:connector-curvature="0"
       sodipodi:nodetypes="cccc" />
    <path
       style="fill:none;stroke:#000000;stroke-width:0.70866143999999998;stroke-linecap:butt;stroke-linejoin:miter;stroke-miterlimit:4;stroke-opacity:1;stroke-dasharray:none"
       d="m 237.39297,339.27634 0,-13.28125 35.4375,24.78125 0,21.28125"
       id="path4057"
       inkscape:connector-curvature="0"
       sodipodi:nodetypes="cccc" />
    <path
       style="fill:none;stroke:#000000;stroke-width:0.70866143999999998;stroke-linecap:butt;stroke-linejoin:miter;stroke-miterlimit:4;stroke-opacity:1;stroke-dasharray:none"
       d="m 237.39297,372.05759 0,-31.03125"
       id="path3763"
       inkscape:connector-curvature="0"
       sodipodi:nodetypes="cc" />
    <path
       style="fill:none;stroke:#000000;stroke-width:0.70866143999999998;stroke-linecap:butt;stroke-linejoin:miter;stroke-miterlimit:4;stroke-opacity:1;stroke-dasharray:none"
       d="m 272.83047,386.21384 0,17.71875 -16.8125,0"
       id="path4049"
       inkscape:connector-curvature="0"
       sodipodi:nodetypes="ccc" />
    <path
       style="fill:none;stroke:#000000;stroke-width:0.70866143999999998;stroke-linecap:butt;stroke-linejoin:miter;stroke-miterlimit:4;stroke-opacity:1;stroke-dasharray:none"
       d="m 254.23672,403.93259 -16.84375,0 0,-17.71875"
       id="path3765"
       inkscape:connector-curvature="0"
       sodipodi:nodetypes="ccc" />
    <path
       style="fill:none;stroke:#000000;stroke-width:0.70866143999999998;stroke-linecap:butt;stroke-linejoin:miter;stroke-miterlimit:4;stroke-opacity:1;stroke-dasharray:none"
       d="m 272.83047,403.93259 -14.15625,38.96875 -2.65625,0"
       id="path4045"
       inkscape:connector-curvature="0"
       sodipodi:nodetypes="ccc" />
    <path
       style="fill:none;stroke:#000000;stroke-width:0.70866143999999998;stroke-linecap:butt;stroke-linejoin:miter;stroke-miterlimit:4;stroke-opacity:1;stroke-dasharray:none"
       d="m 254.23672,442.90134 -2.65625,0 -14.1875,-38.96875"
       id="path3767"
       inkscape:connector-curvature="0"
       sodipodi:nodetypes="ccc" />
    <path
       style="font-size:medium;font-style:normal;font-variant:normal;font-weight:normal;font-stretch:normal;text-indent:0;text-align:start;text-decoration:none;line-height:normal;letter-spacing:normal;word-spacing:normal;text-transform:none;direction:ltr;block-progression:tb;writing-mode:lr-tb;text-anchor:start;baseline-shift:baseline;color:#000000;fill:none;stroke:#00ff00;stroke-width:0.70866143999999998;stroke-miterlimit:4;stroke-dasharray:none;marker:none;visibility:visible;display:inline;overflow:visible;enable-background:accumulate;font-family:Sans;-inkscape-font-specification:Sans"
       d="m 255.11172,339.27634 0.90625,0.875 0,127.78125 1.84375,-7.71875 c 0.14169,-0.29294 0.45591,-0.49404 0.78125,-0.5 0.62414,-0.0257 1.11382,0.76531 0.8125,1.3125 l -3.4375,6.90625 5.5625,-7.9375 c 0.3182,-0.36453 0.95169,-0.38599 1.29384,-0.0438 0.34215,0.34215 0.32068,0.97564 -0.0438,1.29384 l -6.81254,6.68746 5.78129,-4.56246 c 0.41725,-0.21276 0.99047,-0.0267 1.2032,0.39058 0.21272,0.41727 0.0266,0.99048 -0.3907,1.20317 l -6.875,3.40625 c -0.0204,0.0112 -0.0413,0.0217 -0.0625,0.0313 l -0.0313,0.0313 c -0.26153,0.18048 -0.62242,0.20536 -0.90625,0.0625 -0.0432,-0.0175 -0.0851,-0.0384 -0.125,-0.0625 l -6.96875,-3.46875 c -0.41727,-0.20452 -0.61083,-0.77026 -0.40629,-1.18752 0.20454,-0.41726 0.77029,-0.61079 1.18754,-0.40623 l 5.8125,4.5625 -6.8125,-6.6875 c -0.54999,-0.53334 0.0653,-1.66928 0.8125,-1.5 0.1658,0.039 0.31976,0.12694 0.4375,0.25 l 5.5625,7.9375 -3.4375,-6.90625 c -0.30132,-0.54719 0.18836,-1.33821 0.8125,-1.3125 0.31475,0.0171 0.61315,0.21605 0.75,0.5 l 1.875,7.71875 0,-126.90625 -147.9375,0 0,-1.75 z"
       id="path3769"
       inkscape:connector-curvature="0"
       sodipodi:nodetypes="ccccccccscccscccccccscccccccccccccc" />
    <path
       style="fill:none;stroke:#000000;stroke-width:0.70866143999999998;stroke-linecap:butt;stroke-linejoin:round;stroke-miterlimit:4;stroke-opacity:1;stroke-dasharray:none;stroke-dashoffset:0.21259842000000001"
       d="m 329.53126,467.71649 -223.22835,0"
       id="path3927"
       inkscape:connector-curvature="0" />
    <path
       style="fill:none;stroke:#000000;stroke-width:0.70866143999999998;stroke-linecap:butt;stroke-linejoin:round;stroke-miterlimit:4;stroke-opacity:1;stroke-dasharray:none;stroke-dashoffset:0.21259842000000001"
       d="m 106.30291,478.3464 223.22835,0"
       id="rect3771"
       inkscape:connector-curvature="0" />
    <g
       id="g3863"
       transform="matrix(-1,0,0,1,294.09819,2.3911043e-6)"
       style="stroke-width:0.70866144;stroke-miterlimit:4;stroke-dasharray:none" />
    <g
       transform="matrix(-1,0,0,1,269.29504,2.3911043e-6)"
       id="g3879"
       style="stroke-width:0.70866144;stroke-miterlimit:4;stroke-dasharray:none" />
    <g
       id="g3889"
       transform="matrix(-1,0,0,1,244.49189,2.3911043e-6)"
       style="stroke-width:0.70866144;stroke-miterlimit:4;stroke-dasharray:none" />
    <path
       style="fill:none;stroke:#000000;stroke-width:0.70866143999999998;stroke-linecap:butt;stroke-linejoin:round;stroke-miterlimit:4;stroke-opacity:1;stroke-dasharray:none;stroke-dashoffset:0.21259842000000001"
       d="m 331.28962,494.15134 -7.0625,0 -3.5625,-6.125 3.5625,-6.125 7.0625,0 m -8.96875,0 -3.1875,5.53125 -7.09375,0 -3.1875,-5.53125 z m -24.71875,0 -3.28125,5.625 -7.09375,0 -3.25,-5.625 z m -15.90625,0 3.53125,6.125 -3.53125,6.125 -7.09375,0 -3.53125,-6.125 3.53125,-6.125 z m -8.96875,0 -3.21875,5.53125 -7.0625,0 -3.21875,-5.53125 z m -15.84375,0 3.5625,6.125 -3.5625,6.125 -7.0625,0 -3.5625,-6.125 3.5625,-6.125 z m -8.96875,0 -3.1875,5.53125 -7.09375,0 -3.1875,-5.53125 z m -15.8125,0 3.53125,6.125 -3.53125,6.125 -7.09375,0 -3.5625,-6.125 3.5625,-6.125 z m -9,0 -3.1875,5.53125 -7.09375,0 -3.1875,-5.53125 z m -15.8125,0 3.53125,6.125 -3.53125,6.125 -7.09375,0 -3.53125,-6.125 3.53125,-6.125 z m -8.96875,0 -3.21875,5.53125 -7.0625,0 -3.21875,-5.53125 z m -15.84375,0 3.5625,6.125 -3.5625,6.125 -7.09375,0 -3.53125,-6.125 3.53125,-6.125 z m -8.96875,0 -3.1875,5.53125 -7.09375,0 -3.1875,-5.53125 z m -15.8125,0 3.53125,6.125 -3.53125,6.125 -7.09375,0 -3.5625,-6.125 3.5625,-6.125 z m -9,0 -3.1875,5.53125 -7.09375,0 -3.1875,-5.53125 z m -15.8125,0 3.53125,6.125 -3.53125,6.125 -7.09375,0 -3.53125,-6.125 3.53125,-6.125 z m -8.96875,0 -3.21875,5.53125 -7.0625,0 -3.21875,-5.53125 z m -15.84375,0 3.5625,6.125 -3.5625,6.125 m 198.4375,-12.15625 3.53125,6.125 -3.46875,6.03125 -7.21875,0 -3.46875,-6.03125 3.53125,-6.125 z m 12.625,6.875 3.03125,5.28125 -13.15625,0 3.03125,-5.28125 z m -49.625,0 3.0625,5.28125 -13.1875,0 3.0625,-5.28125 z m -24.78125,0 3.03125,5.28125 -13.15625,0 3.03125,-5.28125 z m -24.8125,0 3.03125,5.28125 -13.15625,0 3.03125,-5.28125 z m -24.8125,0 3.0625,5.28125 -13.1875,0 3.0625,-5.28125 z m -24.78125,0 3.03125,5.28125 -13.15625,0 3.03125,-5.28125 z m -24.8125,0 3.03125,5.28125 -13.15625,0 3.03125,-5.28125 z m -24.8125,0 3.0625,5.28125 -13.1875,0 3.0625,-5.28125 z m 173.625,0.0937 3,5.1875 -13.0625,0 2.96875,-5.1875 z"
       id="path3901"
       inkscape:connector-curvature="0"
       sodipodi:nodetypes="cccccccccccccccccccccccccccccccccccccccccccccccccccccccccccccccccccccccccccccccccccccccccccccccccccccccccccccccccccccccccccccccccccccccccccccccccccccccccc" />
    <path
       style="fill:none;stroke:#000000;stroke-width:0.70866143999999998;stroke-linecap:butt;stroke-linejoin:round;stroke-miterlimit:4;stroke-opacity:1;stroke-dasharray:none;stroke-dashoffset:0.21259842000000001"
       d="m 233.40528,467.71647 0,-95.66929 -95.66929,0 0,95.66929"
       id="rect3929"
       inkscape:connector-curvature="0"
       sodipodi:nodetypes="cccc" />
    <text
       xml:space="preserve"
       style="font-size:15.93477153999999985px;font-style:normal;font-variant:normal;font-weight:bold;font-stretch:normal;text-align:start;line-height:125%;letter-spacing:0px;word-spacing:0px;text-anchor:start;fill:none;stroke:#00ff00;stroke-width:0.70866143999999998;stroke-miterlimit:4;stroke-dasharray:none;font-family:Arial;-inkscape-font-specification:Arial Bold"
       x="157.56808"
       y="425.48779"
       id="text3932"
       sodipodi:linespacing="125%"><tspan
         sodipodi:role="line"
         id="tspan3934"
         x="157.56808"
         y="425.48779"
         style="stroke-width:0.70866143999999998;stroke-miterlimit:4;stroke-dasharray:none;stroke:#00ff00">RULER</tspan></text>
    <path
       transform="matrix(-0.15,0,0,0.15,191.11394,330.41334)"
       d="m 336.61418,318.89758 c 0,9.78458 -7.93196,17.71654 -17.71654,17.71654 -9.78457,0 -17.71653,-7.93196 -17.71653,-17.71654 0,-9.78457 7.93196,-17.71653 17.71653,-17.71653 9.78458,0 17.71654,7.93196 17.71654,17.71653 z"
       sodipodi:ry="17.716536"
       sodipodi:rx="17.716536"
       sodipodi:cy="318.89758"
       sodipodi:cx="318.89764"
       id="path3958"
       style="fill:none;stroke:#000000;stroke-width:4.72440957999999966;stroke-linecap:butt;stroke-linejoin:round;stroke-miterlimit:4;stroke-opacity:1;stroke-dasharray:none;stroke-dashoffset:0.21259842000000001"
       sodipodi:type="arc" />
  </g>
</svg>
