<?xml version="1.0" encoding="UTF-8" standalone="no"?>
<!-- Created with Inkscape (http://www.inkscape.org/) -->

<svg
   width="297mm"
   height="210mm"
   viewBox="0 0 297 210"
   version="1.1"
   id="svg5"
   inkscape:version="1.2.1 (9c6d41e4, 2022-07-14)"
   sodipodi:docname="desk-sign-unavailable-a4-2022.svg"
   xmlns:inkscape="http://www.inkscape.org/namespaces/inkscape"
   xmlns:sodipodi="http://sodipodi.sourceforge.net/DTD/sodipodi-0.dtd"
   xmlns="http://www.w3.org/2000/svg"
   xmlns:svg="http://www.w3.org/2000/svg">
  <sodipodi:namedview
     id="namedview7"
     pagecolor="#ffffff"
     bordercolor="#666666"
     borderopacity="1.0"
     inkscape:pageshadow="2"
     inkscape:pageopacity="0.0"
     inkscape:pagecheckerboard="0"
     inkscape:document-units="mm"
     showgrid="false"
     inkscape:zoom="0.66546717"
     inkscape:cx="707.77346"
     inkscape:cy="489.13006"
     inkscape:window-width="1390"
     inkscape:window-height="927"
     inkscape:window-x="0"
     inkscape:window-y="25"
     inkscape:window-maximized="0"
     inkscape:current-layer="layer1"
     inkscape:showpageshadow="2"
     inkscape:deskcolor="#d1d1d1" />
  <defs
     id="defs2" />
  <g
     inkscape:label="Layer 1"
     inkscape:groupmode="layer"
     id="layer1">
    <g
       id="g880"
       transform="matrix(1.4,0,0,1.4,5.0670482,-207.75714)">
      <g
         id="g850"
         transform="matrix(0.44424268,0,0,0.4442416,62.432988,122.88162)">
        <g
           id="g848">
          <g
             inkscape:label="Layer 1"
             id="g846"
             transform="matrix(0.26458333,0,0,0.26458333,-0.53957323,24.134185)">
            <path
               style="fill:#ffffff;fill-opacity:1;stroke:none;stroke-width:1.06667"
               d="M 189.79094,190.78633 H 538.59093 V 611.05299 H 189.79094 Z"
               id="path812" />
            <path
               style="fill:#000000;fill-opacity:1;stroke:#000000;stroke-width:1.06667;stroke-linecap:round;stroke-linejoin:round;stroke-miterlimit:4;stroke-dasharray:none;stroke-opacity:1"
               d="m 204.19048,205.18633 h 320 v 320 h -320 z"
               id="path814" />
            <g
               aria-label="DoES"
               style="font-style:normal;font-variant:normal;font-weight:normal;font-stretch:normal;font-size:12.8px;line-height:0%;font-family:FreeSans;-inkscape-font-specification:FreeSans;letter-spacing:0px;word-spacing:0px;fill:#ffffff;fill-opacity:1;stroke:none;stroke-width:1.06667"
               id="g824">
              <path
                 d="m 218.61069,428.24762 h 30.43125 q 10.29375,0 15.69375,1.575 7.25625,2.1375 12.43125,7.59375 5.175,5.45625 7.875,13.3875 2.7,7.87499 2.7,19.46249 0,10.18125 -2.53125,17.55 -3.09375,9 -8.83125,14.56875 -4.33125,4.21875 -11.7,6.58125 -5.5125,1.74375 -14.7375,1.74375 h -31.33125 z m 16.65,13.95 v 54.61874 h 12.43125 q 6.975,0 10.06875,-0.7875 4.05,-1.0125 6.69375,-3.43125 2.7,-2.41875 4.3875,-7.93125 1.6875,-5.56875 1.6875,-15.13125 0,-9.5625 -1.6875,-14.68124 -1.6875,-5.11875 -4.725,-7.9875 -3.0375,-2.86875 -7.70625,-3.88125 -3.4875,-0.7875 -13.66875,-0.7875 z"
                 style="font-style:normal;font-variant:normal;font-weight:bold;font-stretch:normal;font-size:115.2px;line-height:1.25;font-family:Arial;-inkscape-font-specification:'Arial Bold';stroke-width:1.06667"
                 id="path816" />
              <path
                 d="m 298.14819,479.99761 q 0,-7.875 3.88125,-15.24375 3.88125,-7.36875 10.96875,-11.24999 7.14375,-3.88125 15.91875,-3.88125 13.55625,0 22.21875,8.83124 8.6625,8.775 8.6625,22.21875 0,13.55625 -8.775,22.5 -8.71875,8.8875 -21.99375,8.8875 -8.2125,0 -15.69375,-3.7125 -7.425,-3.7125 -11.30625,-10.85625 -3.88125,-7.2 -3.88125,-17.49375 z m 16.2,0.84375 q 0,8.8875 4.21875,13.6125 4.21875,4.725 10.40625,4.725 6.1875,0 10.35,-4.725 4.21875,-4.725 4.21875,-13.725 0,-8.775 -4.21875,-13.5 -4.1625,-4.725 -10.35,-4.725 -6.1875,0 -10.40625,4.725 -4.21875,4.725 -4.21875,13.6125 z"
                 style="font-style:normal;font-variant:normal;font-weight:bold;font-stretch:normal;font-size:115.2px;line-height:1.25;font-family:Arial;-inkscape-font-specification:'Arial Bold';stroke-width:1.06667"
                 id="path818" />
              <path
                 d="m 372.34193,510.71011 v -82.46249 h 61.14375 v 13.95 h -44.49375 v 18.28124 h 41.4 v 13.89375 h -41.4 v 22.44375 h 46.06875 v 13.89375 z"
                 style="font-style:normal;font-variant:normal;font-weight:bold;font-stretch:normal;font-size:115.2px;line-height:1.25;font-family:Arial;-inkscape-font-specification:'Arial Bold';stroke-width:1.06667"
                 id="path820" />
              <path
                 d="m 445.07319,483.87886 16.2,-1.575 q 1.4625,8.15625 5.90625,11.98125 4.5,3.825 12.09375,3.825 8.04375,0 12.09375,-3.375 4.10625,-3.43125 4.10625,-7.9875 0,-2.925 -1.74375,-4.95 -1.6875,-2.08125 -5.9625,-3.6 -2.925,-1.0125 -13.33125,-3.6 -13.3875,-3.31875 -18.7875,-8.15625 -7.59375,-6.80625 -7.59375,-16.59374 0,-6.3 3.54375,-11.75625 3.6,-5.5125 10.29375,-8.38125 6.75,-2.86875 16.25625,-2.86875 15.525,0 23.34375,6.80625 7.875,6.80625 8.26875,18.16875 l -16.65,0.73125 q -1.06875,-6.35625 -4.6125,-9.1125 -3.4875,-2.8125 -10.51875,-2.8125 -7.25625,0 -11.3625,2.98125 -2.64375,1.9125 -2.64375,5.11875 0,2.925 2.475,5.00625 3.15,2.64374 15.3,5.51249 12.15,2.86875 17.94375,5.9625 5.85,3.0375 9.1125,8.38125 3.31875,5.2875 3.31875,13.10625 0,7.0875 -3.9375,13.275 -3.9375,6.1875 -11.1375,9.225 -7.2,2.98125 -17.94375,2.98125 -15.6375,0 -24.01875,-7.2 -8.38125,-7.25625 -10.0125,-21.09375 z"
                 style="font-style:normal;font-variant:normal;font-weight:bold;font-stretch:normal;font-size:115.2px;line-height:1.25;font-family:Arial;-inkscape-font-specification:'Arial Bold';stroke-width:1.06667"
                 id="path822" />
            </g>
            <g
               aria-label="Liverpool"
               style="font-style:normal;font-variant:normal;font-weight:bold;font-stretch:normal;font-size:12.8px;line-height:0%;font-family:Arial;-inkscape-font-specification:'Arial Bold';letter-spacing:0px;word-spacing:0px;fill:#000000;fill-opacity:1;stroke:none;stroke-width:1.06667"
               id="g844">
              <path
                 d="m 203.73743,586.90057 v -52.25312 h 10.6375 v 43.37656 h 26.45 v 8.87656 z"
                 style="font-size:73.6px;line-height:1.25;stroke-width:1.06667"
                 id="path826" />
              <path
                 d="m 248.37181,543.55995 v -9.34375 h 10.09843 v 9.34375 z m 0,43.34062 v -38.16562 h 10.09843 v 38.16562 z"
                 style="font-size:73.6px;line-height:1.25;stroke-width:1.06667"
                 id="path828" />
              <path
                 d="m 279.27806,586.90057 -15.38125,-38.16562 h 10.60156 l 7.1875,19.47812 2.08437,6.50469 q 0.82657,-2.47969 1.04219,-3.27031 0.50313,-1.61719 1.07813,-3.23438 l 7.25937,-19.47812 h 10.38594 l -15.16563,38.16562 z"
                 style="font-size:73.6px;line-height:1.25;stroke-width:1.06667"
                 id="path830" />
              <path
                 d="m 331.85462,574.7537 10.0625,1.68906 q -1.94063,5.53438 -6.14531,8.44531 -4.16875,2.875 -10.45782,2.875 -9.95468,0 -14.73437,-6.50468 -3.77344,-5.21094 -3.77344,-13.15313 0,-9.4875 4.95938,-14.84219 4.95937,-5.39062 12.54218,-5.39062 8.51719,0 13.44063,5.64219 4.92344,5.60625 4.70781,17.21406 h -25.3 q 0.10782,4.49219 2.44375,7.00781 2.33594,2.47969 5.82188,2.47969 2.37187,0 3.98906,-1.29375 1.61719,-1.29375 2.44375,-4.16875 z m 0.575,-10.20625 q -0.10781,-4.38438 -2.26406,-6.64844 -2.15625,-2.3 -5.24688,-2.3 -3.30625,0 -5.4625,2.40781 -2.15625,2.40782 -2.12031,6.54063 z"
                 style="font-size:73.6px;line-height:1.25;stroke-width:1.06667"
                 id="path832" />
              <path
                 d="m 360.389,586.90057 h -10.09844 v -38.16562 h 9.37969 v 5.42656 q 2.40781,-3.84531 4.31249,-5.06719 1.94063,-1.22187 4.38438,-1.22187 3.45,0 6.64844,1.90469 l -3.12657,8.80468 q -2.55156,-1.65312 -4.74375,-1.65312 -2.12031,0 -3.59375,1.18594 -1.47343,1.15 -2.33593,4.20468 -0.82656,3.05469 -0.82656,12.79375 z"
                 style="font-size:73.6px;line-height:1.25;stroke-width:1.06667"
                 id="path834" />
              <path
                 d="m 379.04055,548.73495 h 9.41563 v 5.60625 q 1.83281,-2.875 4.95937,-4.67188 3.12657,-1.79687 6.93594,-1.79687 6.64844,0 11.28438,5.21094 4.63593,5.21093 4.63593,14.51875 0,9.55937 -4.67187,14.87812 -4.67188,5.28281 -11.32031,5.28281 -3.1625,0 -5.75,-1.25781 -2.55157,-1.25781 -5.39063,-4.3125 v 19.22656 h -10.09844 z m 9.99063,18.43594 q 0,6.43281 2.55156,9.52343 2.55156,3.05469 6.21719,3.05469 3.52187,0 5.85781,-2.80312 2.33594,-2.83907 2.33594,-9.27188 0,-6.00156 -2.40781,-8.9125 -2.40782,-2.91094 -5.96563,-2.91094 -3.70156,0 -6.14531,2.875 -2.44375,2.83907 -2.44375,8.44532 z"
                 style="font-size:73.6px;line-height:1.25;stroke-width:1.06667"
                 id="path836" />
              <path
                 d="m 421.98586,567.2787 q 0,-5.03125 2.47969,-9.73906 2.47969,-4.70782 7.00781,-7.1875 4.56406,-2.47969 10.17031,-2.47969 8.66094,0 14.19532,5.64219 5.53437,5.60625 5.53437,14.19531 0,8.66094 -5.60625,14.375 -5.57031,5.67812 -14.05156,5.67812 -5.24688,0 -10.02656,-2.37187 -4.74375,-2.37188 -7.22344,-6.93594 -2.47969,-4.6 -2.47969,-11.17656 z m 10.35,0.53906 q 0,5.67813 2.69531,8.69688 2.69532,3.01875 6.64844,3.01875 3.95313,0 6.6125,-3.01875 2.69531,-3.01875 2.69531,-8.76875 0,-5.60625 -2.69531,-8.625 -2.65937,-3.01875 -6.6125,-3.01875 -3.95312,0 -6.64844,3.01875 -2.69531,3.01875 -2.69531,8.69687 z"
                 style="font-size:73.6px;line-height:1.25;stroke-width:1.06667"
                 id="path838" />
              <path
                 d="m 466.97962,567.2787 q 0,-5.03125 2.47969,-9.73906 2.47969,-4.70782 7.00781,-7.1875 4.56406,-2.47969 10.17031,-2.47969 8.66094,0 14.19531,5.64219 5.53438,5.60625 5.53438,14.19531 0,8.66094 -5.60625,14.375 -5.57031,5.67812 -14.05156,5.67812 -5.24688,0 -10.02656,-2.37187 -4.74375,-2.37188 -7.22344,-6.93594 -2.47969,-4.6 -2.47969,-11.17656 z m 10.35,0.53906 q 0,5.67813 2.69531,8.69688 2.69531,3.01875 6.64844,3.01875 3.95312,0 6.6125,-3.01875 2.69531,-3.01875 2.69531,-8.76875 0,-5.60625 -2.69531,-8.625 -2.65938,-3.01875 -6.6125,-3.01875 -3.95313,0 -6.64844,3.01875 -2.69531,3.01875 -2.69531,8.69687 z"
                 style="font-size:73.6px;line-height:1.25;stroke-width:1.06667"
                 id="path840" />
              <path
                 d="M 514.3093,586.90057 V 534.2162 h 10.09844 v 52.68437 z"
                 style="font-size:73.6px;line-height:1.25;stroke-width:1.06667"
                 id="path842" />
            </g>
          </g>
        </g>
      </g>
      <g
         id="g862"
         transform="translate(0,33.135328)">
        <g
           id="g856" />
        <text
           xml:space="preserve"
           style="font-style:italic;font-weight:bold;font-size:11.2889px;line-height:1.25;font-family:HiLo-Deco;-inkscape-font-specification:'HiLo-Deco Bold Italic';stroke-width:0.264583"
           x="104.3898"
           y="211.57237"
           id="text860"><tspan
             sodipodi:role="line"
             id="tspan858"
             style="font-style:normal;font-variant:normal;font-weight:normal;font-stretch:normal;font-size:11.2889px;font-family:'Raoul TRANSPORT Britannique';-inkscape-font-specification:'Raoul TRANSPORT Britannique';text-align:center;text-anchor:middle;stroke-width:0.264583"
             x="104.3898"
             y="211.57237">Desk not available</tspan></text>
      </g>
      <text
         xml:space="preserve"
         style="font-style:italic;font-weight:bold;font-size:4.93889px;line-height:1.25;font-family:HiLo-Deco;-inkscape-font-specification:'HiLo-Deco Bold Italic';stroke-width:0.264583"
         x="22.703411"
         y="289.66599"
         id="text866"><tspan
           sodipodi:role="line"
           id="tspan864"
           style="font-style:normal;font-variant:normal;font-weight:normal;font-stretch:normal;font-size:4.93889px;font-family:'Raoul TRANSPORT Britannique';-inkscape-font-specification:'Raoul TRANSPORT Britannique';stroke-width:0.264583"
           x="22.703411"
           y="289.66599">doesliverpool.com</tspan></text>
      <g
         id="g874"
         transform="translate(-75.363745,143.00667)">
        <path
           d="m 171.34664,146.65066 h 0.9734 v -2.35585 h 0.64929 l 0.086,-0.81174 h -0.73528 l 0.001,-0.4064 c 0,-0.21167 0.0201,-0.32518 0.32385,-0.32518 h 0.40587 v -0.812 h -0.64956 c -0.78025,0 -1.05462,0.39396 -1.05462,1.05621 v 0.48737 h -0.48631 v 0.812 h 0.48631 z"
           fill="#333333"
           id="path868"
           style="stroke-width:0.264583" />
        <path
           d="m 189.33328,142.37738 h -3.20516 c -0.30162,0 -0.53419,0.23256 -0.53419,0.53419 v 3.2049 c 0,0.30162 0.23257,0.53419 0.53419,0.53419 h 3.2049 c 0.30163,0 0.53419,-0.23257 0.53419,-0.53419 v -3.2049 c 2.7e-4,-0.30163 -0.23257,-0.53419 -0.53393,-0.53419 z m -1.5994,1.29725 c 0.47387,0 0.85804,0.37227 0.85804,0.83132 0,0.45905 -0.38417,0.83132 -0.85804,0.83132 -0.47361,0 -0.85778,-0.37253 -0.85778,-0.83132 0,-0.45905 0.38418,-0.83132 0.85778,-0.83132 z m 1.5994,2.30849 c 0,0.0937 -0.04,0.13361 -0.13361,0.13361 h -2.93793 c -0.0934,0 -0.13362,-0.04 -0.13362,-0.13361 v -1.86955 l 0.33285,0.0725 c -0.0357,0.11615 -0.055,0.23892 -0.055,0.36645 0,0.71014 0.59479,1.28667 1.32768,1.28667 0.73343,0 1.32795,-0.57626 1.32795,-1.28667 0,-0.12753 -0.0193,-0.2503 -0.055,-0.36645 l 0.3265,-0.0725 v 1.86955 z m 0,-2.40374 c 0,0.0738 -0.0598,0.13361 -0.13361,0.13361 h -0.53419 c -0.0738,0 -0.13362,-0.0598 -0.13362,-0.13361 v -0.5342 c 0,-0.0738 0.0598,-0.13361 0.13362,-0.13361 h 0.53419 c 0.0738,0 0.13361,0.0598 0.13361,0.13361 z"
           fill="#333333"
           id="path870"
           style="stroke-width:0.264583" />
        <path
           d="m 180.43318,142.84059 c -0.42069,0.15319 -0.6866,0.54795 -0.65644,0.98001 l 0.0101,0.16669 -0.16828,-0.0204 c -0.61251,-0.0783 -1.14776,-0.3437 -1.60231,-0.78952 l -0.22225,-0.22119 -0.0569,0.16325 c -0.12118,0.36406 -0.0437,0.74877 0.20876,1.00753 0.13467,0.14288 0.10424,0.16325 -0.1278,0.0783 -0.0807,-0.0272 -0.1516,-0.0476 -0.15822,-0.0373 -0.0235,0.0238 0.0571,0.33338 0.12118,0.45614 0.0876,0.1704 0.26591,0.33682 0.46117,0.43577 l 0.1651,0.0783 -0.19553,0.003 c -0.18838,0 -0.19526,0.003 -0.17489,0.0751 0.0672,0.22119 0.33311,0.45614 0.62945,0.55827 l 0.20875,0.0714 -0.18176,0.10901 c -0.26935,0.1569 -0.58579,0.24527 -0.90223,0.25162 -0.15161,0.003 -0.27623,0.0169 -0.27623,0.0272 0,0.0339 0.4109,0.22437 0.64955,0.29951 0.71702,0.22119 1.56872,0.12567 2.20822,-0.25189 0.45455,-0.26881 0.90884,-0.80327 1.12104,-1.3208 0.11456,-0.27543 0.22886,-0.77919 0.22886,-1.02076 0,-0.15663 0.01,-0.17701 0.19844,-0.36407 0.11112,-0.109 0.21537,-0.22807 0.23574,-0.26193 0.0339,-0.0648 0.0302,-0.0648 -0.14129,-0.007 -0.28601,0.10213 -0.32649,0.0886 -0.18494,-0.0646 0.10425,-0.10901 0.22886,-0.30639 0.22886,-0.36407 0,-0.01 -0.0505,0.007 -0.10768,0.0373 -0.0606,0.0341 -0.19526,0.0852 -0.29633,0.11562 l -0.18177,0.0579 -0.16484,-0.11272 c -0.091,-0.0611 -0.21854,-0.12938 -0.28601,-0.14975 -0.17198,-0.0476 -0.43445,-0.0408 -0.58949,0.0138 z"
           fill="#333333"
           id="path872"
           style="stroke-width:0.264583" />
      </g>
      <text
         xml:space="preserve"
         style="font-style:italic;font-weight:bold;font-size:4.93889px;line-height:1.25;font-family:HiLo-Deco;-inkscape-font-specification:'HiLo-Deco Bold Italic';stroke-width:0.264583"
         x="127.53313"
         y="289.66599"
         id="text878"><tspan
           sodipodi:role="line"
           id="tspan876"
           style="font-style:normal;font-variant:normal;font-weight:normal;font-stretch:normal;font-size:4.93889px;font-family:'Raoul TRANSPORT Britannique';-inkscape-font-specification:'Raoul TRANSPORT Britannique';stroke-width:0.264583"
           x="127.53313"
           y="289.66599">@DoESLiverpool</tspan></text>
    </g>
  </g>
</svg>
