<?xml version="1.0" encoding="UTF-8" standalone="no"?>
<!-- Created with Inkscape (http://www.inkscape.org/) -->

<svg
   xmlns:dc="http://purl.org/dc/elements/1.1/"
   xmlns:cc="http://creativecommons.org/ns#"
   xmlns:rdf="http://www.w3.org/1999/02/22-rdf-syntax-ns#"
   xmlns:svg="http://www.w3.org/2000/svg"
   xmlns="http://www.w3.org/2000/svg"
   xmlns:sodipodi="http://sodipodi.sourceforge.net/DTD/sodipodi-0.dtd"
   xmlns:inkscape="http://www.inkscape.org/namespaces/inkscape"
   width="600mm"
   height="1897mm"
   viewBox="0 0 600 1897"
   version="1.1"
   id="svg8"
   inkscape:version="0.92.4 (5da689c313, 2019-01-14)"
   sodipodi:docname="EventsDoorSign.svg"
   inkscape:export-filename="/home/adrian/events-door-sign.png"
   inkscape:export-xdpi="20.073246"
   inkscape:export-ydpi="20.073246">
  <defs
     id="defs2" />
  <sodipodi:namedview
     id="base"
     pagecolor="#383e42"
     bordercolor="#666666"
     borderopacity="1.0"
     inkscape:pageopacity="0"
     inkscape:pageshadow="2"
     inkscape:zoom="0.1767767"
     inkscape:cx="-464.7285"
     inkscape:cy="3746.9887"
     inkscape:document-units="mm"
     inkscape:current-layer="layer1-6"
     showgrid="false"
     inkscape:window-width="1920"
     inkscape:window-height="1016"
     inkscape:window-x="0"
     inkscape:window-y="27"
     inkscape:window-maximized="1" />
  <metadata
     id="metadata5">
    <rdf:RDF>
      <cc:Work
         rdf:about="">
        <dc:format>image/svg+xml</dc:format>
        <dc:type
           rdf:resource="http://purl.org/dc/dcmitype/StillImage" />
        <dc:title />
      </cc:Work>
    </rdf:RDF>
  </metadata>
  <g
     inkscape:label="Layer 1"
     inkscape:groupmode="layer"
     id="layer1"
     transform="translate(0,1600)">
    <g
       id="layer1-6"
       inkscape:label="Layer 1"
       transform="matrix(0.26458333,0,0,0.26458333,181.42846,-846.99449)">
      <path
         style="fill:none;fill-opacity:1;stroke:#000000;stroke-width:0.56692914;stroke-miterlimit:4;stroke-dasharray:none;stroke-opacity:1"
         d="M -118.627,-2338.4454 V -972.64804 H 1014.9158 V -2338.4454 Z m 46.796622,46.7967 H 968.11693 v 1039.9473 H -71.830378 Z m 894.706868,731.4977 c -33.39201,0 -58.86278,6.2145 -76.41188,18.645 -17.42743,12.3088 -26.14057,30.1021 -26.14057,53.3793 0,9.14 1.15791,17.2442 3.47356,24.3124 2.43726,7.0685 5.78824,13.2237 10.05375,18.4633 4.26552,5.2403 9.44493,9.7493 15.53834,13.5274 6.0934,3.6557 12.91847,6.8852 20.47443,9.6882 7.55589,2.681 20.96097,6.277 40.21635,10.7862 22.30202,4.5093 37.35278,8.3477 45.1524,11.5163 7.9216,3.1684 14.01506,7.1291 18.28059,11.882 4.3872,4.7529 6.58026,10.7856 6.58026,18.0978 0,22.9114 -18.82835,34.3674 -56.48593,34.3674 -18.15855,0 -32.35608,-3.0475 -42.59297,-9.1409 -10.23724,-6.2154 -17.12315,-16.1477 -20.65725,-29.797 l -52.09831,8.5924 c 5.3623,23.7642 17.42641,41.4958 36.19439,53.1953 18.76792,11.6994 44.66524,17.5493 77.6916,17.5493 36.19504,0 63.61617,-6.6419 82.26205,-19.926 18.76761,-13.4055 28.15162,-32.7214 28.15162,-57.9484 0,-10.7243 -1.64541,-20.1691 -4.93614,-28.3344 -3.29044,-8.287 -8.04359,-15.3559 -14.25862,-21.2056 -6.21545,-5.9718 -14.68499,-11.1506 -25.40926,-15.5372 -10.60266,-4.5091 -28.27429,-9.3853 -53.01358,-14.6254 -20.83954,-4.5088 -34.67184,-8.2257 -41.49607,-11.1507 -6.82447,-3.0467 -12.00429,-6.7027 -15.53833,-10.9679 -3.41241,-4.2655 -5.11892,-9.7497 -5.11892,-16.4524 0,-20.4742 16.33095,-30.711 48.9916,-30.711 15.3555,0 27.11613,2.8037 35.28146,8.4096 8.28701,5.606 13.7711,13.9536 16.4524,25.0437 l 52.28113,-7.13 c -4.63093,-23.0334 -14.98884,-39.5456 -31.07547,-49.5388 -15.96494,-9.9933 -39.91274,-14.9899 -71.84263,-14.9899 z m -849.852108,3.838 v 257.5701 H 77.222199 c 24.617451,0 46.431261,-5.2402 65.442831,-15.7212 19.13342,-10.4806 33.87946,-25.5925 44.23835,-45.3352 10.4807,-19.8647 15.72114,-43.0802 15.72114,-69.6477 0,-40.8259 -11.88148,-72.1466 -35.64593,-93.9611 -23.76439,-21.9364 -57.3401,-32.9049 -100.725446,-32.9049 z m 499.417778,0 v 257.5701 h 210.04098 v -41.679 H 526.36985 v -67.8194 h 137.46826 v -41.6801 H 526.36985 v -64.7115 h 148.61897 v -41.6801 z m -445.491278,41.6801 h 38.206529 c 26.689281,0 47.223119,7.3116 61.603669,21.9357 14.38045,14.5025 21.5713,35.5859 21.5713,63.2502 0,27.4207 -6.82508,49.1126 -20.47439,65.0773 -13.64932,15.9649 -32.051163,23.9478 -55.206228,23.9478 h -45.70088 z m 306.196008,14.4414 c -31.56405,0 -56.12056,9.1397 -73.66962,27.4203 -17.54912,18.1581 -26.32457,43.1418 -26.32457,74.9493 0,31.9299 8.77545,57.0348 26.32457,75.315 17.54906,18.2802 41.73989,27.4203 72.57272,27.4203 31.44233,0 56.05964,-9.0789 73.85241,-27.2375 17.79284,-18.2802 26.68904,-43.4462 26.68904,-75.4978 0,-33.0263 -8.53037,-58.3143 -25.59209,-75.8634 -16.93972,-17.6712 -41.55705,-26.5062 -73.85246,-26.5062 z m 0.73127,35.2803 c 14.62427,0 25.77417,5.3013 33.45211,15.9039 7.67758,10.6026 11.5175,27.6649 11.5175,51.1854 0,45.0918 -15.78222,67.6367 -47.34624,67.6367 -14.38053,0 -25.40987,-5.728 -33.08764,-17.1837 -7.55588,-11.5775 -11.33351,-28.3946 -11.33351,-50.453 0,-44.7257 15.59935,-67.0893 46.79778,-67.0893 z M 71.284145,-1224.457 h 32.818095 v 24.1765 H 71.284145 Z m 864.253685,0 h 32.81807 v 173.3181 h -32.81807 z m -1011.176908,8.7601 h 34.45291 v 137.93 h 88.293857 v 26.628 H -75.639078 Z m 645.737478,35.5041 c 14.71566,0 26.12221,5.6836 34.21967,17.0513 8.09753,11.2897 12.14686,27.3678 12.14686,48.2345 0,21.1002 -4.24361,37.412 -12.73043,48.9354 -8.40899,11.4455 -20.32208,17.1684 -35.73849,17.1684 -8.87611,0 -16.62311,-1.9073 -23.24129,-5.7224 -6.5403,-3.893 -11.56232,-9.4598 -15.06605,-16.7009 h -0.70076 c 0.46693,2.3358 0.70076,9.4212 0.70076,21.2561 v 48.4677 h -32.8181 v -146.9232 c 0,-11.9127 -0.31111,-21.6063 -0.93399,-29.0809 h 31.88291 c 0.38929,1.4015 0.7016,4.1659 0.93519,8.2924 0.31147,4.1267 0.46639,8.2142 0.46639,12.2629 h 0.4676 c 7.39676,-15.4943 20.86671,-23.2413 40.40973,-23.2413 z m -103.59312,0.2332 c 4.2045,0 7.591,0.5841 10.16045,1.752 v 27.4461 c -5.29455,-1.1679 -9.9661,-1.752 -14.01483,-1.752 -8.17541,0 -14.55988,3.3091 -19.15368,9.9273 -4.5159,6.6181 -6.77364,16.4285 -6.77364,29.4312 v 62.0161 h -32.81923 v -96.7034 c 0,-6.9296 -0.11688,-12.6906 -0.35041,-17.2844 -0.15577,-4.6717 -0.35005,-8.7985 -0.58364,-12.3801 h 31.30047 c 0.23359,1.4015 0.5447,5.6834 0.93405,12.8465 0.38929,7.0853 0.58357,11.7962 0.58357,14.1321 h 0.4676 c 3.19232,-8.8762 6.03412,-15.1046 8.52563,-18.6862 2.49158,-3.6594 5.4502,-6.3462 8.87605,-8.0591 3.42586,-1.7908 7.70883,-2.6861 12.84761,-2.6861 z m -143.53641,0.1172 c 18.14153,0 32.00006,6.0341 41.57693,18.1024 9.57684,11.9906 14.36527,29.5874 14.36527,52.7898 v 0.934 h -81.05266 c 0,12.302 2.25769,21.607 6.77362,27.9137 4.59378,6.2288 11.09511,9.3424 19.50406,9.3424 11.60124,0 18.92029,-5.022 21.95686,-15.066 l 30.95009,2.686 c -8.95398,22.8911 -27.13478,34.3369 -54.54176,34.3369 -18.998,0 -33.59677,-5.6061 -43.79652,-16.818 -10.19974,-11.2898 -15.29926,-27.7184 -15.29926,-49.2858 0,-20.8667 5.17699,-36.9054 15.53246,-48.1173 10.35546,-11.212 25.03289,-16.8181 44.03091,-16.8181 z m 376.65111,0 c 20.63308,0 36.36065,5.6443 47.18334,16.9341 10.9005,11.2119 16.35045,27.3686 16.35045,48.4689 0,20.4774 -5.6836,36.5554 -17.05127,48.2345 -11.36762,11.6013 -27.09526,17.4017 -47.18334,17.4017 -19.69873,0 -35.15461,-5.8398 -46.36653,-17.5188 -11.21196,-11.6792 -16.81804,-27.7179 -16.81804,-48.1174 0,-20.3216 5.60608,-36.2829 16.81804,-47.8841 11.21192,-11.6792 26.90145,-17.5189 47.06735,-17.5189 z m 146.22239,0 c 20.63313,0 36.36071,5.6443 47.18333,16.9341 10.9005,11.2119 16.35045,27.3686 16.35045,48.4689 0,20.4774 -5.68353,36.5554 -17.05121,48.2345 -11.36768,11.6013 -27.09526,17.4017 -47.18334,17.4017 -19.69878,0 -35.15461,-5.8398 -46.36652,-17.5188 -11.21204,-11.6792 -16.81805,-27.7179 -16.81805,-48.1174 0,-20.3216 5.60601,-36.2829 16.81805,-47.8841 11.21191,-11.6792 26.90139,-17.5189 47.06729,-17.5189 z m -774.558225,2.3356 h 32.818095 v 126.3679 H 71.284145 Z m 50.570155,0 h 34.68729 l 22.07288,70.659 c 1.16791,3.8931 3.93222,13.6248 8.29243,29.1969 0.7786,-3.1923 2.37471,-8.7972 4.78841,-16.8169 2.41367,-8.0196 11.36819,-35.6996 26.86247,-83.039 h 34.33571 l -46.59972,126.3679 h -39.24134 z m 200.64698,18.3357 c -7.70821,0 -13.66479,2.6868 -17.86925,8.0592 -4.12663,5.3724 -6.30684,12.8857 -6.54041,22.5405 h 49.05254 c -0.62288,-10.1998 -3.07489,-17.8299 -7.35724,-22.8909 -4.28235,-5.1388 -10.0446,-7.7088 -17.28564,-7.7088 z m 233.69948,1.752 c -8.72041,0 -15.41719,3.8156 -20.08886,11.446 -4.59378,7.6303 -6.89083,18.2967 -6.89083,32.0001 0,13.6257 2.29705,24.1763 6.89083,31.6508 4.67167,7.3969 11.28979,11.0957 19.85444,11.0957 17.51868,0 26.27887,-14.5606 26.27887,-43.6805 0,-28.3412 -8.68153,-42.5121 -26.04445,-42.5121 z m 143.88562,0.1172 c -19.93232,0 -29.89769,14.2877 -29.89769,42.8625 0,14.0928 2.41266,24.8377 7.24004,32.2345 4.90519,7.3188 11.95245,10.9784 21.14002,10.9784 20.16591,0 30.2481,-14.4045 30.2481,-43.2129 0,-15.0271 -2.45202,-25.9282 -7.35722,-32.7021 -4.90519,-6.7738 -12.02998,-10.1604 -21.37325,-10.1604 z m 146.22244,0 c -19.93237,0 -29.89775,14.2877 -29.89775,42.8625 0,14.0928 2.41267,24.8377 7.24004,32.2345 4.90526,7.3188 11.95251,10.9784 21.14008,10.9784 20.16585,0 30.24811,-14.4045 30.24811,-43.2129 0,-15.0271 -2.45209,-25.9282 -7.35723,-32.7021 -4.90525,-6.7738 -12.03003,-10.1604 -21.37325,-10.1604 z"
         id="rect2987"
         inkscape:connector-curvature="0" />
      <text
         xml:space="preserve"
         style="font-style:normal;font-variant:normal;font-weight:normal;font-stretch:normal;font-size:1415.15405273px;line-height:1.25;font-family:'Transport New';-inkscape-font-specification:'Transport New';letter-spacing:0px;word-spacing:0px;fill:none;fill-opacity:1;stroke:#000000;stroke-width:0.56692914;stroke-miterlimit:4;stroke-dasharray:none;stroke-opacity:1"
         x="-829.53265"
         y="91.029282"
         id="text1808"
         transform="rotate(90)"><tspan
           sodipodi:role="line"
           id="tspan1806"
           x="-829.53265"
           y="91.029282"
           style="stroke-width:0.56692914;fill:none;stroke-miterlimit:4;stroke-dasharray:none">Events</tspan></text>
    </g>
  </g>
</svg>
