<?xml version="1.0" encoding="UTF-8" standalone="no"?>
<!-- Created with Inkscape (http://www.inkscape.org/) -->

<svg
   xmlns:dc="http://purl.org/dc/elements/1.1/"
   xmlns:cc="http://creativecommons.org/ns#"
   xmlns:rdf="http://www.w3.org/1999/02/22-rdf-syntax-ns#"
   xmlns:svg="http://www.w3.org/2000/svg"
   xmlns="http://www.w3.org/2000/svg"
   xmlns:sodipodi="http://sodipodi.sourceforge.net/DTD/sodipodi-0.dtd"
   xmlns:inkscape="http://www.inkscape.org/namespaces/inkscape"
   width="600mm"
   height="1897mm"
   viewBox="0 0 600 1897"
   version="1.1"
   id="svg8"
   inkscape:version="0.92.4 (5da689c313, 2019-01-14)"
   sodipodi:docname="EventsDoorSign.svg"
   inkscape:export-filename="/home/adrian/events-door-sign.png"
   inkscape:export-xdpi="20.073246"
   inkscape:export-ydpi="20.073246">
  <defs
     id="defs2" />
  <sodipodi:namedview
     id="base"
     pagecolor="#383e42"
     bordercolor="#666666"
     borderopacity="1.0"
     inkscape:pageopacity="0"
     inkscape:pageshadow="2"
     inkscape:zoom="0.1767767"
     inkscape:cx="1783.4131"
     inkscape:cy="5944.5441"
     inkscape:document-units="mm"
     inkscape:current-layer="layer1-6"
     showgrid="false"
     inkscape:window-width="1920"
     inkscape:window-height="1016"
     inkscape:window-x="0"
     inkscape:window-y="27"
     inkscape:window-maximized="1" />
  <metadata
     id="metadata5">
    <rdf:RDF>
      <cc:Work
         rdf:about="">
        <dc:format>image/svg+xml</dc:format>
        <dc:type
           rdf:resource="http://purl.org/dc/dcmitype/StillImage" />
        <dc:title />
      </cc:Work>
    </rdf:RDF>
  </metadata>
  <g
     inkscape:label="Layer 1"
     inkscape:groupmode="layer"
     id="layer1"
     transform="translate(0,1600)">
    <g
       id="layer1-6"
       inkscape:label="Layer 1"
       transform="matrix(0.26458333,0,0,0.26458333,181.42846,-846.99449)">
      <text
         xml:space="preserve"
         style="font-style:normal;font-variant:normal;font-weight:normal;font-stretch:normal;font-size:1415.15405273px;line-height:1.25;font-family:'Transport New';-inkscape-font-specification:'Transport New';letter-spacing:0px;word-spacing:0px;fill:none;fill-opacity:1;stroke:#000000;stroke-width:0.56692914;stroke-miterlimit:4;stroke-dasharray:none;stroke-opacity:1"
         x="-829.53265"
         y="91.029282"
         id="text1808"
         transform="rotate(90)"><tspan
           sodipodi:role="line"
           id="tspan1806"
           x="-829.53265"
           y="91.029282"
           style="stroke-width:0.56692914;fill:none;stroke-miterlimit:4;stroke-dasharray:none">Events</tspan></text>
      <path
         style="fill:none;fill-opacity:1;stroke:#000000;stroke-width:0.72340158;stroke-opacity:1;stroke-miterlimit:4;stroke-dasharray:none"
         d="M -117.18101,-2336.105 V -974.09322 H 1013.2214 V -2336.105 Z m 46.669996,46.6641 H 966.55339 v 1037.0664 H -70.511014 Z m 887.847604,718.3516 c -20.5388,0 -38.0979,3.0988 -52.6816,9.2969 -14.4622,6.1981 -25.5873,15.252 -33.3653,27.1621 -7.6565,11.7885 -11.4824,24.4861 -11.4824,38.0976 0,21.1461 8.2047,39.0722 24.6114,53.7774 11.666,10.4517 31.9603,19.2633 60.8847,26.4336 22.4833,5.5904 36.8874,9.4784 43.207,11.666 9.2364,3.2813 15.6725,7.1693 19.3184,11.666 3.7675,4.3751 5.6523,9.7252 5.6523,16.0449 0,9.844 -4.4328,18.4694 -13.3046,25.8828 -8.7502,7.2919 -21.8145,10.9375 -39.1934,10.9375 -16.4067,0 -29.4709,-4.1283 -39.1934,-12.3925 -9.601,-8.2641 -15.9827,-21.2062 -19.1425,-38.8282 l -52.5039,5.1035 c 3.5244,29.8966 14.343,52.6839 32.4511,68.3614 18.1082,15.556 44.0522,23.3301 77.8379,23.3301 23.2124,-1e-4 42.6023,-3.2172 58.1582,-9.6583 15.556,-6.5627 27.5846,-16.5279 36.0918,-29.8964 8.5072,-13.3684 12.7598,-27.7106 12.7598,-43.0235 0,-16.8928 -3.5836,-31.0486 -10.7539,-42.4726 -7.0488,-11.5454 -16.894,-20.6033 -29.5332,-27.166 -12.5178,-6.6842 -31.9017,-13.1203 -58.1524,-19.3184 -26.2507,-6.198 -42.7822,-12.1572 -49.5879,-17.8691 -5.3474,-4.4967 -8.0195,-9.903 -8.0195,-16.2227 0,-6.9272 2.8583,-12.4598 8.5703,-16.5918 8.8718,-6.4412 21.1428,-9.6582 36.8203,-9.6582 15.1914,0 26.5568,3.0387 34.0918,9.1152 7.6564,5.955 12.6421,15.7944 14.9512,29.5274 l 53.9551,-2.3672 c -0.8507,-24.5493 -9.7786,-44.1736 -26.793,-58.8789 -16.8928,-14.7053 -42.1118,-22.0586 -75.6543,-22.0586 z m -841.115204,4.5566 v 267.2481 h 101.5351 c 19.9311,0 35.853604,-1.8849 47.763704,-5.6524 15.9205,-5.1043 28.5581,-12.2152 37.916,-21.33 12.3961,-12.0316 21.9389,-27.77 28.6231,-47.2149 5.4689,-15.9206 8.2031,-34.8818 8.2031,-56.8789 0,-25.0351 -2.9204,-46.0559 -8.7539,-63.0703 -5.8335,-17.1358 -14.3406,-31.602 -25.5215,-43.3906 -11.1808,-11.7885 -24.6057,-19.9913 -40.2832,-24.6094 -11.667,-3.4029 -28.625004,-5.1016 -50.865204,-5.1016 z m 498.214804,0 v 267.2481 h 203.2598 v -45.0293 h -149.2988 v -72.7363 h 134.1718 v -45.0293 h -134.1718 v -59.2461 h 144.1972 v -45.2071 z m -444.259704,45.2071 h 24.248 c 21.9971,0 36.762,0.8492 44.2969,2.5507 10.087104,2.1875 18.413804,6.3859 24.976504,12.584 6.5627,6.1981 11.6666,14.8235 15.3125,25.8828 3.6459,11.0593 5.4688,26.9198 5.4688,47.5801 0,20.6603 -1.8229,37.0056 -5.4688,49.0371 -3.6459,11.9101 -8.3842,20.4793 -14.2167,25.7051 -5.712,5.2259 -12.949,8.9335 -21.6993,11.1211 -6.684204,1.7014 -17.559104,2.5508 -32.628904,2.5508 h -40.289 z m 303.523404,24.0664 c -18.9589,0 -36.1535,4.1904 -51.5879,12.5761 -15.313,8.3856 -27.1612,20.5384 -35.5469,36.459 -8.3856,15.9206 -12.5781,32.3899 -12.5781,49.4043 0,22.2401 4.1925,41.1393 12.5781,56.6953 8.3857,15.4344 20.6005,27.1607 36.6426,35.1817 16.1637,8.0211 33.1158,12.0312 50.8594,12.0312 28.6813,0 52.442,-9.6028 71.2793,-28.8047 18.9588,-19.3234 28.4394,-43.631 28.4394,-72.9199 0,-29.0463 -9.3623,-53.0489 -28.0781,-72.0078 -18.7158,-19.0804 -42.7188,-28.6152 -72.0078,-28.6152 z m 0.1855,41.7441 c 13.3684,0 24.5478,5.102 33.5411,15.3106 9.1148,10.2086 13.6718,24.793 13.6718,43.7519 0,19.445 -4.557,34.2699 -13.6718,44.4785 -8.9933,10.2086 -20.1727,15.3184 -33.5411,15.3184 -13.3684,0 -24.6098,-5.1098 -33.7246,-15.3184 -9.1149,-10.2086 -13.6738,-24.9094 -13.6738,-44.1113 0,-19.2019 4.5589,-33.9105 13.6738,-44.1191 9.1148,-10.2086 20.3562,-15.3106 33.7246,-15.3106 z m -261.214804,232.4063 h 32.726604 v 30.2832 H 72.670586 Z m 861.857404,0 h 32.7266 v 170.7421 h -32.7266 z m -1006.509704,1.3984 h 34.4726 v 140.5762 h 85.7207 v 28.7675 h -120.1933 z m 390.748004,42.8594 c 18.4019,0 32.9213,6.0949 43.5586,18.2851 10.6373,12.1126 15.7217,30.7098 15.2559,55.7891 h -81.9922 c 0.233,9.7056 2.873,17.2758 7.9199,22.7109 5.0469,5.3576 11.3356,8.0371 18.8672,8.0371 5.1246,0 9.4337,-1.3981 12.9277,-4.1933 3.494,-2.7953 6.1341,-7.2983 7.9199,-13.5098 l 32.6114,5.4727 c -4.1928,11.9573 -10.8321,21.0819 -19.916,27.3711 -9.0068,6.2116 -20.3048,9.3164 -33.8926,9.3164 -21.5076,0 -37.4252,-7.0264 -47.752,-21.0801 -8.1527,-11.2585 -12.2285,-25.4674 -12.2285,-42.627 0,-20.4982 5.3573,-36.5325 16.0723,-48.1015 10.715,-11.6468 24.2653,-17.4707 40.6484,-17.4707 z m 142.7871,0 c 7.4539,0 14.6365,2.0586 21.5469,6.1738 l -10.1328,28.5352 c -5.5128,-3.5717 -10.6367,-5.3594 -15.3731,-5.3594 -4.581,0 -8.463,1.2815 -11.6465,3.8437 -3.1834,2.4847 -5.7068,7.0272 -7.5703,13.627 -1.7858,6.5998 -2.6797,20.4211 -2.6797,41.4629 v 38.2011 h -32.7265 v -123.6875 h 30.3984 v 17.586 c 5.2022,-8.308 9.8595,-13.782 13.9746,-16.4219 4.1929,-2.6399 8.9291,-3.9609 14.209,-3.9609 z m 103.6563,0 c 14.3642,0 26.5541,5.6301 36.5703,16.8886 10.0162,11.2585 15.0254,26.9427 15.0254,47.0528 0,20.6535 -5.0468,36.7254 -15.1407,48.2168 -10.0938,11.4138 -22.3231,17.1211 -36.6875,17.1211 -6.8327,0 -13.0443,-1.3587 -18.6347,-4.0762 -5.5128,-2.7176 -11.3368,-7.3768 -17.4707,-13.9766 v 62.3106 h -32.7266 v -170.7403 h 30.5137 v 18.168 c 3.9599,-6.2116 9.3174,-11.2584 16.0722,-15.1406 6.7551,-3.8823 14.2482,-5.8242 22.4786,-5.8242 z m 133.8222,0 c 18.7124,0 34.0466,6.0949 46.0039,18.2851 11.9573,12.1126 17.9356,27.4488 17.9356,46.0059 0,18.7124 -6.0554,34.2404 -18.168,46.5859 -12.0349,12.2679 -27.2148,18.4024 -45.539,18.4024 -11.3362,0 -22.1675,-2.563 -32.4942,-7.6875 -10.2491,-5.1246 -18.0526,-12.6157 -23.4101,-22.4766 -5.3575,-9.9385 -8.0372,-22.0137 -8.0372,-36.2227 0,-10.8703 2.6797,-21.391 8.0372,-31.5625 5.3575,-10.1714 12.9277,-17.9355 22.7109,-23.2929 9.8609,-5.3576 20.8483,-8.0371 32.9609,-8.0371 z m 145.8164,0 c 18.7124,0 34.0466,6.0949 46.0039,18.2851 11.9574,12.1126 17.9375,27.4488 17.9375,46.0059 0,18.7124 -6.0573,34.2404 -18.1699,46.5859 -12.035,12.2679 -27.2148,18.4024 -45.539,18.4024 -11.3362,0 -22.1674,-2.563 -32.4942,-7.6875 -10.2491,-5.1246 -18.0526,-12.6157 -23.4101,-22.4766 -5.3575,-9.9385 -8.0352,-22.0137 -8.0352,-36.2227 0,-10.8703 2.6777,-21.391 8.0352,-31.5625 5.3575,-10.1714 12.9276,-17.9355 22.7109,-23.2929 9.8609,-5.3576 20.8483,-8.0371 32.9609,-8.0371 z m -772.177704,2.7968 h 32.726604 v 123.6875 H 72.670586 Z m 50.312504,0 h 34.3594 l 23.2929,63.125 6.754,21.0801 c 1.7858,-5.3575 2.9131,-8.8895 3.3789,-10.5976 1.087,-3.4941 2.2518,-6.9885 3.4941,-10.4825 l 23.5254,-63.125 h 33.6601 l -49.1503,123.6875 h -29.4649 z m 197.7617,22.2442 c -7.1433,0 -13.0444,2.6005 -17.7031,7.8027 -4.6587,5.2022 -6.9488,12.2682 -6.8711,21.1973 h 48.916 c -0.2328,-9.4727 -2.6791,-16.6533 -7.3379,-21.5449 -4.6586,-4.9693 -10.3264,-7.4551 -17.0039,-7.4551 z m 235.6133,0.8144 c -7.9974,0 -14.6361,3.1068 -19.916,9.3184 -5.2798,6.134 -7.9199,15.2565 -7.9199,27.3691 0,13.8984 2.7568,24.1878 8.2695,30.8653 5.5128,6.5998 12.2286,9.8984 20.1484,9.8984 7.6092,0 13.9375,-3.0277 18.9844,-9.084 5.0469,-6.134 7.5703,-16.1504 7.5703,-30.0488 0,-12.9667 -2.6005,-22.5935 -7.8027,-28.8828 -5.2022,-6.2893 -11.6471,-9.4356 -19.334,-9.4356 z m 142.7891,0.8164 c -8.541,0 -15.7235,3.261 -21.5469,9.7832 -5.8233,6.5222 -8.7344,15.9177 -8.7344,28.1856 0,12.2679 2.9111,21.6633 8.7344,28.1855 5.8234,6.5222 13.0059,9.7832 21.5469,9.7832 8.5409,0 15.684,-3.261 21.4297,-9.7832 5.8234,-6.5222 8.7363,-15.9967 8.7363,-28.4199 0,-12.1126 -2.9129,-21.429 -8.7363,-27.9512 -5.7457,-6.5222 -12.8888,-9.7832 -21.4297,-9.7832 z m 145.8183,0 c -8.5409,0 -15.7236,3.261 -21.5468,9.7832 -5.8234,6.5222 -8.7364,15.9177 -8.7364,28.1856 0,12.2679 2.913,21.6633 8.7364,28.1855 5.8232,6.5222 13.0059,9.7832 21.5468,9.7832 8.541,0 15.684,-3.261 21.4297,-9.7832 5.8233,-6.5222 8.7344,-15.9967 8.7344,-28.4199 0,-12.1126 -2.9111,-21.429 -8.7344,-27.9512 -5.7457,-6.5222 -12.8887,-9.7832 -21.4297,-9.7832 z"
         id="rect2987-3"
         inkscape:connector-curvature="0" />
    </g>
  </g>
</svg>
