<?xml version="1.0" encoding="UTF-8" standalone="no"?>
<!-- Created with Inkscape (http://www.inkscape.org/) -->

<svg
   xmlns:dc="http://purl.org/dc/elements/1.1/"
   xmlns:cc="http://creativecommons.org/ns#"
   xmlns:rdf="http://www.w3.org/1999/02/22-rdf-syntax-ns#"
   xmlns:svg="http://www.w3.org/2000/svg"
   xmlns="http://www.w3.org/2000/svg"
   xmlns:sodipodi="http://sodipodi.sourceforge.net/DTD/sodipodi-0.dtd"
   xmlns:inkscape="http://www.inkscape.org/namespaces/inkscape"
   width="600mm"
   height="1297mm"
   viewBox="0 0 600 1297"
   version="1.1"
   id="svg8"
   inkscape:version="0.92.4 (5da689c313, 2019-01-14)"
   sodipodi:docname="MainDoorSign.svg"
   inkscape:export-filename="/home/adrian/main-door-sign.png"
   inkscape:export-xdpi="20.073246"
   inkscape:export-ydpi="20.073246">
  <defs
     id="defs2" />
  <sodipodi:namedview
     id="base"
     pagecolor="#383e42"
     bordercolor="#666666"
     borderopacity="1.0"
     inkscape:pageopacity="0"
     inkscape:pageshadow="2"
     inkscape:zoom="0.1767767"
     inkscape:cx="1315.9006"
     inkscape:cy="2478.1722"
     inkscape:document-units="mm"
     inkscape:current-layer="layer1-6"
     showgrid="false"
     inkscape:window-width="1920"
     inkscape:window-height="1016"
     inkscape:window-x="0"
     inkscape:window-y="27"
     inkscape:window-maximized="1" />
  <metadata
     id="metadata5">
    <rdf:RDF>
      <cc:Work
         rdf:about="">
        <dc:format>image/svg+xml</dc:format>
        <dc:type
           rdf:resource="http://purl.org/dc/dcmitype/StillImage" />
        <dc:title></dc:title>
      </cc:Work>
    </rdf:RDF>
  </metadata>
  <g
     inkscape:label="Layer 1"
     inkscape:groupmode="layer"
     id="layer1"
     transform="translate(0,1000)">
    <g
       id="layer1-6"
       inkscape:label="Layer 1"
       transform="matrix(0.26458333,0,0,0.26458333,181.42846,-846.99449)">
      <path
         style="fill:#fafffd;fill-opacity:1;stroke:#000000;stroke-width:0.57761616;stroke-miterlimit:4;stroke-dasharray:none;stroke-opacity:1"
         d="M 189.26562 941.58203 L 189.26562 3217.8477 L 2078.4512 3217.8477 L 2078.4512 941.58203 L 189.26562 941.58203 z M 267.25781 1019.5742 L 2000.4551 1019.5742 L 2000.4551 2752.7715 L 267.25781 2752.7715 L 267.25781 1019.5742 z M 1758.3945 2238.7031 C 1702.7427 2238.7031 1660.2926 2249.0602 1631.0449 2269.7773 C 1602 2290.2914 1587.4785 2319.9461 1587.4785 2358.7402 C 1587.4785 2373.9732 1589.4083 2387.4798 1593.2676 2399.2598 C 1597.3296 2411.0404 1602.9144 2421.2986 1610.0234 2430.0312 C 1617.1324 2438.7648 1625.7645 2446.2795 1635.9199 2452.5762 C 1646.0753 2458.6689 1657.4501 2464.0512 1670.043 2468.7227 C 1682.6358 2473.1909 1704.977 2479.1841 1737.0684 2486.6992 C 1774.2374 2494.2144 1799.3213 2500.6116 1812.3203 2505.8926 C 1825.5226 2511.1731 1835.6781 2517.774 1842.7871 2525.6953 C 1850.0989 2533.6166 1853.7539 2543.6707 1853.7539 2555.8574 C 1853.7539 2594.042 1822.3742 2613.1348 1759.6133 2613.1348 C 1729.3499 2613.1348 1705.688 2608.0558 1688.627 2597.9004 C 1671.5654 2587.5417 1660.0892 2570.9884 1654.1992 2548.2402 L 1567.3711 2562.5605 C 1576.308 2602.1664 1596.4143 2631.7183 1627.6934 2651.2168 C 1658.9724 2670.7153 1702.1334 2680.4648 1757.1758 2680.4648 C 1817.4992 2680.4648 1863.1998 2669.3952 1894.2754 2647.2559 C 1925.5539 2624.9139 1941.1934 2592.7216 1941.1934 2550.6777 C 1941.1934 2532.8044 1938.4512 2517.0636 1932.9668 2503.4551 C 1927.4829 2489.6438 1919.5612 2477.8626 1909.2031 2468.1133 C 1898.8443 2458.1607 1884.7288 2449.5296 1866.8555 2442.2188 C 1849.1849 2434.7037 1819.733 2426.577 1778.502 2417.8438 C 1743.7704 2410.3293 1720.7172 2404.1347 1709.3438 2399.2598 C 1697.97 2394.1821 1689.3372 2388.0889 1683.4473 2380.9805 C 1677.7601 2373.8715 1674.916 2364.7315 1674.916 2353.5605 C 1674.916 2319.438 1702.1335 2302.377 1756.5664 2302.377 C 1782.1582 2302.377 1801.7587 2307.0496 1815.3672 2316.3926 C 1829.1785 2325.7356 1838.3184 2339.648 1842.7871 2358.1309 L 1929.9199 2346.248 C 1922.2019 2307.8601 1904.9392 2280.3404 1878.1289 2263.6855 C 1851.5214 2247.0305 1811.6095 2238.7031 1758.3945 2238.7031 z M 342.01367 2245.0996 L 342.01367 2674.3711 L 515.67188 2674.3711 C 556.69982 2674.3711 593.05517 2665.6377 624.74023 2648.1699 C 656.62837 2630.7027 681.20442 2605.517 698.46875 2572.6133 C 715.9361 2539.5064 724.66992 2500.8151 724.66992 2456.5371 C 724.66992 2388.4958 704.86802 2336.2961 665.26172 2299.9395 C 625.65548 2263.3799 569.69752 2245.0996 497.39062 2245.0996 L 342.01367 2245.0996 z M 1174.3535 2245.0996 L 1174.3535 2674.3711 L 1524.4121 2674.3711 L 1524.4121 2604.9082 L 1264.2305 2604.9082 L 1264.2305 2491.8789 L 1493.3379 2491.8789 L 1493.3379 2422.4141 L 1264.2305 2422.4141 L 1264.2305 2314.5645 L 1511.9219 2314.5645 L 1511.9219 2245.0996 L 1174.3535 2245.0996 z M 431.88867 2314.5645 L 495.56445 2314.5645 C 540.04536 2314.5645 574.26747 2326.7501 598.23438 2351.123 C 622.20112 2375.2931 634.18555 2410.4312 634.18555 2456.5371 C 634.18555 2502.2369 622.81073 2538.3892 600.0625 2564.9961 C 577.31428 2591.6036 546.64539 2604.9082 508.05469 2604.9082 L 431.88867 2604.9082 L 431.88867 2314.5645 z M 942.20117 2338.6328 C 889.59589 2338.6328 848.6695 2353.8652 819.42188 2384.332 C 790.17416 2414.5948 775.54883 2456.2331 775.54883 2509.2441 C 775.54883 2562.4591 790.17416 2604.2994 819.42188 2634.7656 C 848.6695 2665.2317 888.98643 2680.4648 940.37305 2680.4648 C 992.77549 2680.4648 1033.8032 2665.3337 1063.457 2635.0703 C 1093.1109 2604.6042 1107.9375 2562.6618 1107.9375 2509.2441 C 1107.9375 2454.2018 1093.7206 2412.0563 1065.2852 2382.8086 C 1037.0531 2353.3575 996.02536 2338.6328 942.20117 2338.6328 z M 943.41992 2397.4316 C 967.79302 2397.4316 986.37568 2406.2669 999.17188 2423.9375 C 1011.9675 2441.608 1018.3672 2470.0443 1018.3672 2509.2441 C 1018.3672 2584.395 992.06421 2621.9688 939.45898 2621.9688 C 915.49209 2621.9688 897.11037 2612.4224 884.31445 2593.3301 C 871.72167 2574.0349 865.42578 2546.007 865.42578 2509.2441 C 865.42578 2434.7033 891.42397 2397.4316 943.41992 2397.4316 z M 505.77539 2798.1777 L 560.4707 2798.1777 L 560.4707 2838.4707 L 505.77539 2838.4707 L 505.77539 2798.1777 z M 1946.1582 2798.1777 L 2000.8535 2798.1777 L 2000.8535 3087.0332 L 1946.1582 3087.0332 L 1946.1582 2798.1777 z M 260.91016 2812.7773 L 318.33008 2812.7773 L 318.33008 3042.6543 L 465.48242 3042.6543 L 465.48242 3087.0332 L 260.91016 3087.0332 L 260.91016 2812.7773 z M 1337.1094 2871.9492 C 1361.6348 2871.9492 1380.6452 2881.4216 1394.1406 2900.3672 C 1407.6361 2919.1829 1414.3848 2945.979 1414.3848 2980.7559 C 1414.3848 3015.9219 1407.3123 3043.1074 1393.168 3062.3125 C 1379.1534 3081.3878 1359.2988 3090.9258 1333.6055 3090.9258 C 1318.8124 3090.9258 1305.9011 3087.7471 1294.8711 3081.3887 C 1283.9709 3074.9005 1275.6011 3065.6228 1269.7617 3053.5547 L 1268.5938 3053.5547 C 1269.372 3057.4476 1269.7617 3069.2563 1269.7617 3088.9805 L 1269.7617 3169.7578 L 1215.0664 3169.7578 L 1215.0664 2924.8926 C 1215.0664 2905.0386 1214.5479 2888.8831 1213.5098 2876.4258 L 1266.6465 2876.4258 C 1267.2953 2878.7615 1267.8158 2883.3686 1268.2051 2890.2461 C 1268.7242 2897.1236 1268.9824 2903.9359 1268.9824 2910.6836 L 1269.7617 2910.6836 C 1282.0893 2884.8605 1304.5386 2871.9492 1337.1094 2871.9492 z M 1164.459 2872.3379 C 1171.4663 2872.3379 1177.1103 2873.3113 1181.3926 2875.2578 L 1181.3926 2921 C 1172.5686 2919.0535 1164.7829 2918.0801 1158.0352 2918.0801 C 1144.4099 2918.0801 1133.7694 2923.5951 1126.1133 2934.625 C 1118.587 2945.655 1114.8242 2962.0052 1114.8242 2983.6758 L 1114.8242 3087.0332 L 1060.127 3087.0332 L 1060.127 2925.8652 C 1060.127 2914.3162 1059.9322 2904.7147 1059.543 2897.0586 C 1059.2834 2889.2727 1058.9596 2882.3949 1058.5703 2876.4258 L 1110.7363 2876.4258 C 1111.1256 2878.7615 1111.6441 2885.8977 1112.293 2897.8359 C 1112.9418 2909.6445 1113.2656 2917.4958 1113.2656 2921.3887 L 1114.0449 2921.3887 C 1119.3653 2906.5956 1124.1015 2896.2152 1128.2539 2890.2461 C 1132.4064 2884.1472 1137.3373 2879.6693 1143.0469 2876.8145 C 1148.7565 2873.8299 1155.8946 2872.3379 1164.459 2872.3379 z M 925.23828 2872.5332 C 955.47331 2872.5332 978.57023 2882.5897 994.53125 2902.7031 C 1010.4922 2922.6868 1018.4727 2952.0139 1018.4727 2990.6836 L 1018.4727 2992.2402 L 883.38867 2992.2402 C 883.38867 3012.743 887.15138 3028.2508 894.67773 3038.7617 C 902.33381 3049.1429 913.16907 3054.332 927.18359 3054.332 C 946.51846 3054.332 958.71652 3045.9623 963.77734 3029.2227 L 1015.3594 3033.6992 C 1000.4365 3071.85 970.136 3090.9258 924.45898 3090.9258 C 892.79653 3090.9258 868.46592 3081.5826 851.4668 3062.8965 C 834.4677 3044.0807 825.96875 3016.7005 825.96875 2980.7559 C 825.96875 2945.979 834.59682 2919.2485 851.85547 2900.5625 C 869.11408 2881.8764 893.57579 2872.5332 925.23828 2872.5332 z M 1552.9727 2872.5332 C 1587.3602 2872.5332 1613.5721 2881.9401 1631.6094 2900.7559 C 1649.7764 2919.4419 1658.8594 2946.369 1658.8594 2981.5352 C 1658.8594 3015.6632 1649.387 3042.4592 1630.4414 3061.9238 C 1611.4959 3081.2587 1585.2839 3090.9258 1551.8047 3090.9258 C 1518.9744 3090.9258 1493.2153 3081.1931 1474.5293 3061.7285 C 1455.8432 3042.2638 1446.5 3015.5334 1446.5 2981.5352 C 1446.5 2947.6667 1455.8432 2921.0653 1474.5293 2901.7305 C 1493.2153 2882.2658 1519.3638 2872.5332 1552.9727 2872.5332 z M 1796.6699 2872.5332 C 1831.0575 2872.5332 1857.2694 2881.9401 1875.3066 2900.7559 C 1893.4736 2919.4419 1902.5566 2946.369 1902.5566 2981.5352 C 1902.5566 3015.6632 1893.0843 3042.4592 1874.1387 3061.9238 C 1855.1931 3081.2587 1828.9812 3090.9258 1795.502 3090.9258 C 1762.6716 3090.9258 1736.9126 3081.1931 1718.2266 3061.7285 C 1699.5404 3042.2638 1690.1973 3015.5334 1690.1973 2981.5352 C 1690.1973 2947.6667 1699.5404 2921.0653 1718.2266 2901.7305 C 1736.9126 2882.2658 1763.061 2872.5332 1796.6699 2872.5332 z M 505.77539 2876.4258 L 560.4707 2876.4258 L 560.4707 3087.0332 L 505.77539 3087.0332 L 505.77539 2876.4258 z M 590.05664 2876.4258 L 647.86719 2876.4258 L 684.6543 2994.1875 C 686.60076 3000.6757 691.20781 3016.8949 698.47461 3042.8477 C 699.77224 3037.5273 702.43236 3028.186 706.45508 3014.8203 C 710.47775 3001.4546 725.40153 2955.3224 751.22461 2876.4258 L 808.44922 2876.4258 L 730.78516 3087.0332 L 665.38477 3087.0332 L 590.05664 2876.4258 z M 924.45898 2906.9844 C 911.61232 2906.9844 901.68497 2911.4623 894.67773 2920.416 C 887.80021 2929.3697 884.16662 2941.8916 883.77734 2957.9824 L 965.5293 2957.9824 C 964.49119 2940.9833 960.40462 2928.2667 953.26758 2919.832 C 946.13053 2911.2676 936.52705 2906.9844 924.45898 2906.9844 z M 1313.9473 2909.9043 C 1299.4137 2909.9043 1288.2527 2916.2635 1280.4668 2928.9805 C 1272.8107 2941.6973 1268.9824 2959.474 1268.9824 2982.3125 C 1268.9824 3005.0213 1272.8107 3022.6052 1280.4668 3035.0625 C 1288.2527 3047.3901 1299.2826 3053.5547 1313.5566 3053.5547 C 1342.7536 3053.5547 1357.3535 3029.2877 1357.3535 2980.7559 C 1357.3535 2933.5217 1342.8847 2909.9043 1313.9473 2909.9043 z M 1553.75 2910.0996 C 1520.5304 2910.0996 1503.9219 2933.9117 1503.9219 2981.5352 C 1503.9219 3005.0224 1507.9429 3022.9301 1515.9883 3035.2578 C 1524.1634 3047.4556 1535.9085 3053.5547 1551.2207 3053.5547 C 1584.8296 3053.5547 1601.6328 3029.5479 1601.6328 2981.5352 C 1601.6328 2956.4906 1597.5462 2938.3227 1589.3711 2927.0332 C 1581.196 2915.7437 1569.3217 2910.0996 1553.75 2910.0996 z M 1797.4473 2910.0996 C 1764.2276 2910.0996 1747.6191 2933.9117 1747.6191 2981.5352 C 1747.6191 3005.0224 1751.6401 3022.9301 1759.6855 3035.2578 C 1767.8607 3047.4556 1779.6058 3053.5547 1794.918 3053.5547 C 1828.5268 3053.5547 1845.3301 3029.5479 1845.3301 2981.5352 C 1845.3301 2956.4906 1841.2434 2938.3227 1833.0684 2927.0332 C 1824.8932 2915.7437 1813.0189 2910.0996 1797.4473 2910.0996 z "
         transform="translate(-685.71387,-578.28855)"
         id="rect2987" />
      <g
         aria-label="Welcome
to"
         style="font-style:normal;font-variant:normal;font-weight:normal;font-stretch:normal;font-size:192px;line-height:1.25;font-family:'Transport New';-inkscape-font-specification:'Transport New';text-align:center;letter-spacing:0px;word-spacing:0px;text-anchor:middle;fill:#ffffff;fill-opacity:1;stroke:#000000;stroke-width:0.62362206;stroke-miterlimit:4;stroke-dasharray:none;stroke-opacity:1"
         id="text1706"
         transform="matrix(1.5,0,0,1.5,-12.444894,187.05955)">
        <path
           d="m 50.839786,-367.64702 -34.752,149.76 h -28.8 l -24.384,-108.096 -24.384,108.096 h -28.992 l -34.559996,-149.76 h 26.111996 l 24.192,106.176 24.192,-106.176 h 26.88 l 24.19199964,106.752 24.19200036,-106.752 z"
           style="fill:#ffffff;fill-opacity:1;stroke:#000000;stroke-width:0.62362206;stroke-miterlimit:4;stroke-dasharray:none;stroke-opacity:1"
           id="path1710"
           inkscape:connector-curvature="0" />
        <path
           d="m 156.00479,-267.42302 -0.192,4.416 H 82.084786 q 0.576,11.52 7.872,19.008 7.488,7.296 19.584004,7.296 7.872,0 14.016,-2.304 6.144,-2.496 11.712,-7.68 l 13.824,16.512 q -7.68,7.296 -17.856,11.52 -9.984,4.032 -21.504,4.032 -13.056004,0 -23.040004,-4.416 -9.984,-4.608 -16.896,-12.48 -6.72,-7.872 -10.368,-18.432 -3.456,-10.56 -3.456,-22.848 0,-12.096 3.264,-22.464 3.456,-10.368 9.792,-18.048 6.528,-7.68 15.936,-12.096 9.408,-4.416 21.312004,-4.416 13.248,0 22.848,4.992 9.6,4.8 15.744,13.248 6.336,8.448 9.024,19.776 2.688,11.328 2.112,24.384 z m -24.576,-14.4 q 0.192,-5.76 -1.728,-10.56 -1.728,-4.8 -5.184,-8.256 -3.264,-3.456 -8.064,-5.376 -4.608,-1.92 -10.176,-1.92 -5.568,0 -10.176004,2.112 -4.416,2.112 -7.68,5.76 -3.072,3.456 -4.992,8.256 -1.728,4.8 -1.728,9.984 z"
           style="fill:#ffffff;fill-opacity:1;stroke:#000000;stroke-width:0.62362206;stroke-miterlimit:4;stroke-dasharray:none;stroke-opacity:1"
           id="path1712"
           inkscape:connector-curvature="0" />
        <path
           d="m 225.23279,-217.31102 q -4.992,1.344 -9.6,1.92 -4.608,0.768 -9.6,0.768 -15.936,0 -22.848,-8.256 -6.912,-8.256 -6.912,-22.656 v -122.112 h 24.384 v 118.656 q 0,11.712 10.944,11.712 3.072,0 5.184,-0.192 2.304,-0.384 5.568,-1.344 z"
           style="fill:#ffffff;fill-opacity:1;stroke:#000000;stroke-width:0.62362206;stroke-miterlimit:4;stroke-dasharray:none;stroke-opacity:1"
           id="path1714"
           inkscape:connector-curvature="0" />
        <path
           d="m 332.54879,-300.83102 -20.928,10.176 q -3.84,-7.68 -9.6,-12.48 -5.76,-4.8 -14.784,-4.8 -6.912,0 -11.904,3.264 -4.992,3.264 -8.256,8.448 -3.072,5.184 -4.608,11.712 -1.344,6.336 -1.344,12.672 0,6.528 1.536,12.864 1.728,6.336 4.992,11.328 3.456,4.992 8.448,8.064 4.992,3.072 11.712,3.072 8.448,0 14.592,-4.8 6.336,-4.992 9.6,-12.288 l 20.352,10.176 q -3.456,6.336 -8.064,11.712 -4.416,5.184 -9.984,9.024 -5.376,3.84 -11.904,5.952 -6.528,2.304 -14.016,2.304 -12.864,0 -22.656,-4.416 -9.792,-4.608 -16.512,-12.288 -6.528,-7.872 -9.984,-18.432 -3.264,-10.56 -3.264,-22.656 0,-10.944 3.072,-21.312 3.264,-10.368 9.6,-18.432 6.336,-8.256 15.936,-13.056 9.792,-4.992 22.848,-4.992 15.744,0 27.072,7.68 11.328,7.68 18.048,21.504 z"
           style="fill:#ffffff;fill-opacity:1;stroke:#000000;stroke-width:0.62362206;stroke-miterlimit:4;stroke-dasharray:none;stroke-opacity:1"
           id="path1716"
           inkscape:connector-curvature="0" />
        <path
           d="m 452.16179,-271.07102 q 0,12.288 -3.648,22.656 -3.648,10.368 -10.56,17.856 -6.72,7.488 -16.32,11.712 -9.6,4.224 -21.312,4.224 -11.904,0 -21.504,-4.224 -9.6,-4.224 -16.512,-11.712 -6.72,-7.488 -10.56,-17.856 -3.648,-10.368 -3.648,-22.656 0,-12.672 3.456,-23.424 3.456,-10.944 9.984,-18.816 6.72,-8.064 16.32,-12.48 9.792,-4.416 22.464,-4.416 12.48,0 22.08,4.608 9.792,4.416 16.32,12.48 6.72,7.872 9.984,18.624 3.456,10.752 3.456,23.424 z m -24.384,0 q 0,-7.104 -1.92,-13.824 -1.92,-6.72 -5.568,-11.712 -3.456,-5.184 -8.64,-8.256 -4.992,-3.072 -11.328,-3.072 -6.528,0 -11.712,3.072 -5.184,3.072 -8.832,8.256 -3.456,4.992 -5.376,11.712 -1.728,6.72 -1.728,13.824 0,7.296 1.92,13.632 1.92,6.144 5.376,10.752 3.648,4.608 8.64,7.296 5.184,2.496 11.712,2.496 6.336,0 11.328,-2.496 5.184,-2.688 8.64,-7.296 3.648,-4.608 5.568,-10.752 1.92,-6.336 1.92,-13.632 z"
           style="fill:#ffffff;fill-opacity:1;stroke:#000000;stroke-width:0.62362206;stroke-miterlimit:4;stroke-dasharray:none;stroke-opacity:1"
           id="path1718"
           inkscape:connector-curvature="0" />
        <path
           d="m 619.79579,-217.88702 h -24.576 v -71.04 q 0,-8.64 -4.8,-13.056 -4.8,-4.608 -11.328,-4.608 -3.456,0 -7.296,1.728 -3.648,1.536 -6.72,4.416 -2.88,2.88 -4.8,6.912 -1.92,3.84 -1.92,8.448 v 67.2 h -24.576 l -0.192,-71.232 q 0,-8.64 -4.032,-13.056 -4.032,-4.608 -11.136,-4.608 -4.224,0 -8.256,1.728 -3.84,1.536 -6.912,4.416 -2.88,2.88 -4.8,6.912 -1.728,4.032 -1.728,8.832 v 67.008 h -24.576 v -109.056 h 24.576 v 9.024 q 4.224,-5.76 11.52,-8.832 7.488,-3.072 14.4,-3.072 9.216,0 15.936,3.072 6.912,3.072 12.48,10.368 5.568,-6.72 13.248,-10.176 7.872,-3.456 17.088,-3.456 18.432,0 28.416,9.984 9.984,9.792 9.984,27.456 z"
           style="fill:#ffffff;fill-opacity:1;stroke:#000000;stroke-width:0.62362206;stroke-miterlimit:4;stroke-dasharray:none;stroke-opacity:1"
           id="path1720"
           inkscape:connector-curvature="0" />
        <path
           d="m 739.12979,-267.42302 -0.192,4.416 h -73.728 q 0.576,11.52 7.872,19.008 7.488,7.296 19.584,7.296 7.872,0 14.016,-2.304 6.144,-2.496 11.712,-7.68 l 13.824,16.512 q -7.68,7.296 -17.856,11.52 -9.984,4.032 -21.504,4.032 -13.056,0 -23.04,-4.416 -9.984,-4.608 -16.896,-12.48 -6.72,-7.872 -10.368,-18.432 -3.456,-10.56 -3.456,-22.848 0,-12.096 3.264,-22.464 3.456,-10.368 9.792,-18.048 6.528,-7.68 15.936,-12.096 9.408,-4.416 21.312,-4.416 13.248,0 22.848,4.992 9.6,4.8 15.744,13.248 6.336,8.448 9.024,19.776 2.688,11.328 2.112,24.384 z m -24.576,-14.4 q 0.192,-5.76 -1.728,-10.56 -1.728,-4.8 -5.184,-8.256 -3.264,-3.456 -8.064,-5.376 -4.608,-1.92 -10.176,-1.92 -5.568,0 -10.176,2.112 -4.416,2.112 -7.68,5.76 -3.072,3.456 -4.992,8.256 -1.728,4.8 -1.728,9.984 z"
           style="fill:#ffffff;fill-opacity:1;stroke:#000000;stroke-width:0.62362206;stroke-miterlimit:4;stroke-dasharray:none;stroke-opacity:1"
           id="path1722"
           inkscape:connector-curvature="0" />
        <path
           d="m 284.64179,21.920976 q -4.416,1.152 -10.368,2.304 -5.76,1.344 -13.824,1.344 -4.992,0 -10.368,-1.152 -5.376,-0.96 -9.792,-3.84 -4.416,-3.072 -7.296,-8.256 -2.688,-5.3759999 -2.688,-13.6319999 V -66.207024 h -18.048 v -20.736 h 18.048 v -28.415996 l 24.384,-10.944 v 39.359996 h 28.224 v 20.736 h -28.224 v 55.296 q 0,7.6800001 2.496,10.75200007 2.688,3.07200003 10.752,3.07200003 6.528,0 12.672,-2.30400003 z"
           style="fill:#ffffff;fill-opacity:1;stroke:#000000;stroke-width:0.62362206;stroke-miterlimit:4;stroke-dasharray:none;stroke-opacity:1"
           id="path1724"
           inkscape:connector-curvature="0" />
        <path
           d="m 401.16179,-31.071024 q 0,12.288 -3.648,22.6560001 -3.648,10.368 -10.56,17.856 -6.72,7.4879999 -16.32,11.7119999 -9.6,4.224 -21.312,4.224 -11.904,0 -21.504,-4.224 -9.6,-4.224 -16.512,-11.7119999 -6.72,-7.488 -10.56,-17.856 -3.648,-10.3680001 -3.648,-22.6560001 0,-12.672 3.456,-23.424 3.456,-10.944 9.984,-18.816 6.72,-8.064 16.32,-12.48 9.792,-4.416 22.464,-4.416 12.48,0 22.08,4.608 9.792,4.416 16.32,12.48 6.72,7.872 9.984,18.624 3.456,10.752 3.456,23.424 z m -24.384,0 q 0,-7.104 -1.92,-13.824 -1.92,-6.72 -5.568,-11.712 -3.456,-5.184 -8.64,-8.256 -4.992,-3.072 -11.328,-3.072 -6.528,0 -11.712,3.072 -5.184,3.072 -8.832,8.256 -3.456,4.992 -5.376,11.712 -1.728,6.72 -1.728,13.824 0,7.296 1.92,13.632 1.92,6.144 5.376,10.7520001 3.648,4.608 8.64,7.29599997 5.184,2.49600003 11.712,2.49600003 6.336,0 11.328,-2.49600003 5.184,-2.68799997 8.64,-7.29599997 3.648,-4.6080001 5.568,-10.7520001 1.92,-6.336 1.92,-13.632 z"
           style="fill:#ffffff;fill-opacity:1;stroke:#000000;stroke-width:0.62362206;stroke-miterlimit:4;stroke-dasharray:none;stroke-opacity:1"
           id="path1726"
           inkscape:connector-curvature="0" />
      </g>
      <text
         xml:space="preserve"
         style="font-style:normal;font-variant:normal;font-weight:normal;font-stretch:normal;font-size:288px;line-height:1.25;font-family:'Transport New';-inkscape-font-specification:'Transport New';letter-spacing:0px;word-spacing:0px;fill:#ffffff;fill-opacity:1;stroke:#000000;stroke-width:0.93543309;stroke-miterlimit:4;stroke-dasharray:none;stroke-opacity:1"
         x="-509.22934"
         y="2973.8511"
         id="text1763"><tspan
           sodipodi:role="line"
           id="tspan1761"
           x="-509.22934"
           y="2973.8511"
           style="stroke-width:0.93543309">Co-working &amp;</tspan><tspan
           sodipodi:role="line"
           x="-509.22934"
           y="3333.8511"
           id="tspan1765"
           style="stroke-width:0.93543309">Makerspace</tspan><tspan
           sodipodi:role="line"
           x="-509.22934"
           y="3693.8511"
           id="tspan1767"
           style="stroke-width:0.93543309" /></text>
      <text
         xml:space="preserve"
         style="font-style:normal;font-variant:normal;font-weight:normal;font-stretch:normal;font-size:192px;line-height:0.75;font-family:'Transport New';-inkscape-font-specification:'Transport New';letter-spacing:0px;word-spacing:0px;fill:#000000;fill-opacity:1;stroke:none;stroke-width:0.62362206;stroke-miterlimit:4;stroke-dasharray:none"
         x="-504.41705"
         y="3531.6226"
         id="text1771"><tspan
           sodipodi:role="line"
           x="-504.41705"
           y="3531.6226"
           style="font-size:96px;line-height:0.75;fill:#ffffff;fill-opacity:1;stroke:#000000;stroke-width:0.62362206;stroke-miterlimit:4;stroke-dasharray:none;stroke-opacity:1"
           id="tspan1781">DoESLiverpool.com </tspan><tspan
           sodipodi:role="line"
           x="-504.41705"
           y="3675.6226"
           style="font-size:96px;line-height:0.75;fill:#ffffff;fill-opacity:1;stroke:#000000;stroke-width:0.62362206;stroke-miterlimit:4;stroke-dasharray:none;stroke-opacity:1"
           id="tspan1785">@DoESLiverpool</tspan></text>
    </g>
  </g>
</svg>
