<?xml version="1.0" encoding="UTF-8" standalone="no"?>
<!-- Created with Inkscape (http://www.inkscape.org/) -->

<svg
   xmlns:dc="http://purl.org/dc/elements/1.1/"
   xmlns:cc="http://creativecommons.org/ns#"
   xmlns:rdf="http://www.w3.org/1999/02/22-rdf-syntax-ns#"
   xmlns:svg="http://www.w3.org/2000/svg"
   xmlns="http://www.w3.org/2000/svg"
   xmlns:sodipodi="http://sodipodi.sourceforge.net/DTD/sodipodi-0.dtd"
   xmlns:inkscape="http://www.inkscape.org/namespaces/inkscape"
   width="835mm"
   height="2000mm"
   viewBox="0 0 835 2000"
   version="1.1"
   id="svg8"
   inkscape:version="0.92.4 (5da689c313, 2019-01-14)"
   sodipodi:docname="MainDoorSign.svg"
   inkscape:export-filename="/home/adrian/main-door-sign.png"
   inkscape:export-xdpi="20.073246"
   inkscape:export-ydpi="20.073246">
  <defs
     id="defs2" />
  <sodipodi:namedview
     id="base"
     pagecolor="#383e42"
     bordercolor="#666666"
     borderopacity="1.0"
     inkscape:pageopacity="0"
     inkscape:pageshadow="2"
     inkscape:zoom="0.125"
     inkscape:cx="1983.8873"
     inkscape:cy="3753.596"
     inkscape:document-units="mm"
     inkscape:current-layer="layer1-6"
     showgrid="false"
     inkscape:window-width="1920"
     inkscape:window-height="1016"
     inkscape:window-x="0"
     inkscape:window-y="27"
     inkscape:window-maximized="1" />
  <metadata
     id="metadata5">
    <rdf:RDF>
      <cc:Work
         rdf:about="">
        <dc:format>image/svg+xml</dc:format>
        <dc:type
           rdf:resource="http://purl.org/dc/dcmitype/StillImage" />
        <dc:title />
      </cc:Work>
    </rdf:RDF>
  </metadata>
  <g
     inkscape:label="Layer 1"
     inkscape:groupmode="layer"
     id="layer1"
     transform="translate(0,1703)">
    <g
       id="layer1-6"
       inkscape:label="Layer 1"
       transform="matrix(0.26458333,0,0,0.26458333,181.42846,-846.99449)">
      <g
         id="g2697">
        <text
           id="text1763"
           y="1566.6027"
           x="-302.60498"
           style="font-style:normal;font-variant:normal;font-weight:normal;font-stretch:normal;font-size:316.80010986px;line-height:1.25;font-family:'Transport New';-inkscape-font-specification:'Transport New';letter-spacing:0px;word-spacing:0px;fill:none;fill-opacity:1;stroke:#000000;stroke-width:1.02897668;stroke-miterlimit:4;stroke-dasharray:none;stroke-opacity:1"
           xml:space="preserve"><tspan
             style="fill:none;stroke-width:1.02897668"
             y="1566.6027"
             x="-302.60498"
             id="tspan1761"
             sodipodi:role="line">Co-working &amp;</tspan><tspan
             style="fill:none;stroke-width:1.02897668"
             id="tspan1765"
             y="1962.6028"
             x="-302.60498"
             sodipodi:role="line">Makerspace</tspan><tspan
             style="fill:none;stroke-width:1.02897668"
             id="tspan1767"
             y="2358.603"
             x="-302.60498"
             sodipodi:role="line" /></text>
        <text
           id="text1771"
           y="2180.1516"
           x="-297.31143"
           style="font-style:normal;font-variant:normal;font-weight:normal;font-stretch:normal;font-size:211.20005798px;line-height:0.75;font-family:'Transport New';-inkscape-font-specification:'Transport New';letter-spacing:0px;word-spacing:0px;fill:none;fill-opacity:1;stroke:none;stroke-width:0.68598449;stroke-miterlimit:4;stroke-dasharray:none"
           xml:space="preserve"><tspan
             id="tspan1781"
             style="font-size:105.60002899px;line-height:0.75;fill:none;fill-opacity:1;stroke:#000000;stroke-width:0.68598449;stroke-miterlimit:4;stroke-dasharray:none;stroke-opacity:1"
             y="2180.1516"
             x="-297.31143"
             sodipodi:role="line">DoESLiverpool.com </tspan><tspan
             id="tspan1785"
             style="font-size:105.60002899px;line-height:0.75;fill:none;fill-opacity:1;stroke:#000000;stroke-width:0.68598449;stroke-miterlimit:4;stroke-dasharray:none;stroke-opacity:1"
             y="2338.5518"
             x="-297.31143"
             sodipodi:role="line">@DoESLiverpool</tspan></text>
        <text
           id="text2406"
           y="-1667.3727"
           x="-186.5237"
           style="font-style:normal;font-variant:normal;font-weight:normal;font-stretch:normal;font-size:316.80010986px;line-height:1.25;font-family:'Transport New';-inkscape-font-specification:'Transport New';letter-spacing:0px;word-spacing:0px;fill:none;fill-opacity:1;stroke:#000000;stroke-width:1.02897668;stroke-miterlimit:4;stroke-dasharray:none;stroke-opacity:1"
           xml:space="preserve"><tspan
             style="fill:none;stroke-width:1.02897668"
             y="-1667.3727"
             x="-186.5237"
             id="tspan2404"
             sodipodi:role="line">Welcome to</tspan></text>
        <path
           inkscape:connector-curvature="0"
           id="rect2987-3"
           d="M -288.19875,-1522.3206 V 980.73305 H 1789.212 V -1522.3206 Z m 85.7684,85.7575 H 1703.4473 V 469.31826 H -202.43035 Z M 1429.2223,-116.40368 c -37.7454,0 -70.0148,5.69485 -96.8162,17.08549 -26.5781,11.39063 -47.0234,28.02954 -61.3175,49.91747 -14.0708,21.66446 -21.1019,44.9996198 -21.1019,70.01432 0,38.8615 15.0783,71.80541 45.2299,98.83006 21.4393,19.20774 58.7354,35.40136 111.8916,48.57866 41.3189,10.27383 67.7902,17.41905 79.4041,21.43934 16.9744,6.03024 28.8024,13.17546 35.5027,21.43933 6.9237,8.04039 10.3876,17.8726 10.3876,29.4867 0,18.09093 -8.1465,33.94237 -24.4507,47.56643 -16.0808,13.40078 -40.0899,20.10052 -72.0282,20.10052 -30.1516,0 -54.1605,-7.58683 -72.0281,-22.77446 -17.6444,-15.18745 -29.3724,-38.97195 -35.1794,-71.35699 l -96.4896,9.37901 c 6.477,54.94284 26.359,96.82047 59.6373,125.63199 33.2786,28.58822 80.9575,42.87517 143.0476,42.87517 42.6588,-1.9e-4 78.2929,-5.91245 106.8809,-17.74966 28.5882,-12.06068 50.6939,-30.37435 66.3282,-54.94247 15.6342,-24.56793 23.4494,-50.92548 23.4494,-79.06695 0,-31.04494 -6.5858,-57.05994 -19.7631,-78.05453 -12.954,-21.21769 -31.0471,-37.86396 -54.275,-49.92464 -23.0047,-12.28397 -58.6277,-24.11199 -106.8702,-35.50262 -48.2426,-11.39045 -78.6235,-22.34204 -91.1308,-32.83915 -9.8273,-8.26387 -14.7379,-18.19936 -14.7379,-29.81346 0,-12.7305502 5.2528,-22.8981502 15.7501,-30.49178 16.3043,-11.83739 38.8555,-17.74947 67.667,-17.74947 27.9182,0 48.8051,5.5844 62.6526,16.75156 14.0706,10.9438798 23.2332,29.02635 27.4767,54.26434 l 99.1567,-4.35035 c -1.5634,-45.11577 -17.9708,-81.18057 -49.2392,-108.20541 -31.0449,-27.02484 -77.3914,-40.53845 -139.0346,-40.53845 z m -1545.76965,8.37394 v 491.1384 H 70.049945 c 36.628705,0 65.890405,-3.464 87.778405,-10.38777 29.258,-9.38049 52.4829,-22.44863 69.6805,-39.19946 22.7811,-22.11122 40.3185,-51.03465 52.6025,-86.76975 10.0505,-29.25827 15.0753,-64.10445 15.0753,-104.52988 0,-46.00855 -5.367,-84.63978 -16.0876,-115.9082 -10.7205,-31.4915202 -26.3546,-58.07695 -46.9024,-79.74159 -20.5476,-21.66446 -45.2194,-36.73925 -74.0309,-45.22622 -21.4412,-6.25372 -52.606,-9.37553 -93.478205,-9.37553 z m 915.6004,0 v 491.1384 H 1172.5961 V 300.35552 H 898.22055 V 166.68351 H 1144.7963 V 83.93038 H 898.22055 V -24.94985 h 265.00005 v -83.07989 z m -816.443805,83.07989 h 44.5621 c 40.4254,0 67.5598,1.56063 81.407105,4.68758 18.5377,4.02011 33.8402,11.7357698 45.9009,23.1263998 12.0607,11.3906302 21.4404,27.2420602 28.1407,47.5664202 6.7003,20.32437 10.0504,49.47219 10.0504,87.4409 0,37.96871 -3.3501,68.00748 -10.0504,90.11852 -6.7003,21.88793 -15.4081,37.63608 -26.1269,47.23985 -10.4973,9.60396 -23.7972,16.41765 -39.8781,20.43794 -12.284,3.12677 -32.269505,4.68776 -59.964205,4.68776 h -74.0416 z M 540.41305,19.27847 c -34.8419,0 -66.4415,7.70096 -94.8063,23.11188 -28.1416,15.41073 -49.9158,37.74469 -65.3267,67.00296 -15.4108,29.25827 -23.1156,59.52492 -23.1156,90.79334 0,40.87201 7.7048,75.60424 23.1156,104.19247 15.4109,28.36475 37.8588,49.9149 67.3404,64.65559 29.705,14.74087 60.8589,22.11048 93.4674,22.11048 52.7094,0 96.3759,-17.64766 130.9944,-52.93618 34.8418,-35.51181 52.2649,-80.1834 52.2649,-134.00942 0,-53.38019 -17.2057,-97.49125 -51.6009,-132.3332 -34.3952,-35.06523 -78.507,-52.58792 -132.3332,-52.58792 z m 0.3409,76.71572 c 24.5679,0 45.113,9.37626 61.6406,28.13724 16.7508,18.76097 25.1255,45.56363 25.1255,80.40557 0,35.73528 -8.3747,62.97992 -25.1255,81.7409 -16.5276,18.76097 -37.0727,28.15157 -61.6406,28.15157 -24.5679,0 -45.227,-9.3906 -61.9778,-28.15157 -16.751,-18.76098 -25.1292,-45.77755 -25.1292,-81.06607 0,-35.28852 8.3782,-62.31943 25.1292,-81.0804 16.7508,-18.76098 37.4099,-28.13724 61.9778,-28.13724 z M 60.703345,523.10165 h 60.143705 v 55.65331 H 60.703345 Z m 1583.888855,0 h 60.1437 v 313.78334 h -60.1437 z m -1849.72535,2.56992 h 63.3524 v 258.3456 H 15.753545 v 52.86782 H -205.13315 Z m 718.1018,78.76538 c 33.8183,0 60.5015,11.20098 80.0503,33.60366 19.5489,22.26008 28.8928,56.4373 28.0367,102.52709 h -150.6821 c 0.4282,17.83658 5.2799,31.74881 14.5549,41.73723 9.275,9.84599 20.8321,14.77027 34.6734,14.77027 9.4178,0 17.3369,-2.56937 23.758,-7.70628 6.4212,-5.1371 11.2731,-13.41254 14.5549,-24.8278 l 59.932,10.05752 c -7.7053,21.97467 -19.9068,38.74351 -36.6008,50.30157 -16.5524,11.41544 -37.3154,17.12132 -62.2866,17.12132 -39.5258,0 -68.7786,-12.91285 -87.7568,-38.7402 -14.9827,-20.69045 -22.4731,-46.80302 -22.4731,-78.33828 0,-37.67082 9.8455,-67.13804 29.5371,-88.39911 19.6916,-21.40405 44.5939,-32.10699 74.7021,-32.10699 z m 262.4087,0 c 13.6987,0 26.8986,3.78322 39.5983,11.34597 l -18.6217,52.44091 c -10.1314,-6.56393 -19.5479,-9.8493 -28.2523,-9.8493 -8.4188,0 -15.553,2.35509 -21.4035,7.0638 -5.8503,4.56629 -10.4877,12.91433 -13.9124,25.04319 -3.2819,12.12886 -4.9247,37.52912 -4.9247,76.19894 v 70.20453 h -60.1435 V 609.5768 h 55.8651 v 32.31888 c 9.5604,-15.26812 18.1194,-25.32803 25.6819,-30.17954 7.7056,-4.85151 16.4096,-7.27919 26.1128,-7.27919 z m 190.4958,0 c 26.398,0 48.80005,10.34678 67.20745,31.03723 18.4074,20.69044 27.6131,49.51427 27.6131,86.47184 0,37.95622 -9.2748,67.49255 -27.825,88.61101 -18.55,20.97584 -41.02445,31.4645 -67.42285,31.4645 -12.5569,0 -23.9723,-2.49696 -34.2461,-7.49108 -10.1312,-4.9943 -20.8344,-13.55681 -32.107,-25.68567 v 114.51206 h -60.1437 V 609.5768 h 56.0769 v 33.38846 c 7.2774,-11.41544 17.1232,-20.69026 29.5369,-27.82482 12.4142,-7.13474 26.1848,-10.70349 41.3103,-10.70349 z m 245.93325,0 c 34.389,0 62.5696,11.20098 84.5443,33.60366 21.9746,22.26008 32.9613,50.44436 32.9613,84.5479 0,34.38893 -11.1284,62.9257 -33.3884,85.61379 -22.1173,22.54548 -50.0144,33.81923 -83.6899,33.81923 -20.8332,0 -40.7386,-4.71018 -59.7166,-14.12779 -18.8354,-9.4178 -33.1764,-23.18466 -43.0222,-41.30664 -9.8458,-18.2646 -14.7704,-40.45594 -14.7704,-66.5687 0,-19.97703 4.9246,-39.31157 14.7704,-58.00437 9.8458,-18.69261 23.7581,-32.96118 41.7373,-42.8068 18.1219,-9.846 38.3142,-14.77028 60.5742,-14.77028 z m 267.9759,0 c 34.3889,0 62.5695,11.20098 84.5442,33.60366 21.9749,22.26008 32.9649,50.44436 32.9649,84.5479 0,34.38893 -11.1319,62.9257 -33.392,85.61379 -22.1175,22.54548 -50.0143,33.81923 -83.6898,33.81923 -20.8333,0 -40.7384,-4.71018 -59.7166,-14.12779 -18.8355,-9.4178 -33.1764,-23.18466 -43.0222,-41.30664 -9.8458,-18.2646 -14.7668,-40.45594 -14.7668,-66.5687 0,-19.97703 4.921,-39.31157 14.7668,-58.00437 9.8458,-18.69261 23.7578,-32.96118 41.7372,-42.8068 18.122,-9.846 38.3142,-14.77028 60.5743,-14.77028 z M 60.703345,609.5768 H 120.84705 V 836.88499 H 60.703345 Z m 92.462405,0 h 63.1444 l 42.8068,116.00873 12.4122,38.7402 c 3.2819,-9.84581 5.3536,-16.33678 6.2096,-19.47586 1.9977,-6.42133 4.1383,-12.8432 6.4214,-19.26434 l 43.234,-116.00873 h 61.8593 l -90.3266,227.30819 h -54.1494 z m 363.4389,40.87955 c -13.1277,0 -23.9725,4.7791 -32.5341,14.3395 -8.5616,9.56041 -12.7702,22.54603 -12.6274,38.9556 h 89.8959 c -0.4278,-17.40857 -4.9235,-30.60481 -13.4853,-39.5944 -8.5614,-9.13239 -18.9774,-13.7007 -31.2491,-13.7007 z m 433.0014,1.49667 c -14.6974,0 -26.8977,5.70956 -36.6009,17.125 -9.703,11.27283 -14.5549,28.03782 -14.5549,50.29789 0,25.54195 5.0663,44.45142 15.1974,56.72308 10.1312,12.12886 22.4732,18.1909 37.0279,18.1909 13.9839,0 25.6138,-5.56419 34.8888,-16.69423 9.275,-11.27283 13.9125,-29.68059 13.9125,-55.22254 0,-23.82971 -4.7791,-41.52148 -14.3396,-53.07971 -9.5604,-11.55824 -21.4046,-17.34039 -35.5312,-17.34039 z m 262.41225,1.50035 c -15.6963,0 -28.896,5.99294 -39.598,17.97919 -10.7019,11.98625 -16.0518,29.25295 -16.0518,51.79843 0,22.54548 5.3499,39.81199 16.0518,51.79824 10.702,11.98625 23.9017,17.97919 39.598,17.97919 15.6962,0 28.8235,-5.99294 39.3827,-17.97919 10.702,-11.98625 16.0553,-29.39813 16.0553,-52.22901 0,-22.26008 -5.3533,-39.38141 -16.0553,-51.36766 -10.5592,-11.98625 -23.6865,-17.97919 -39.3827,-17.97919 z m 267.9794,0 c -15.6962,0 -28.8963,5.99294 -39.5979,17.97919 -10.702,11.98625 -16.0554,29.25295 -16.0554,51.79843 0,22.54548 5.3534,39.81199 16.0554,51.79824 10.7016,11.98625 23.9017,17.97919 39.5979,17.97919 15.6963,0 28.8234,-5.99294 39.3827,-17.97919 10.7018,-11.98625 16.0517,-29.39813 16.0517,-52.22901 0,-22.26008 -5.3499,-39.38141 -16.0517,-51.36766 -10.5593,-11.98625 -23.6864,-17.97919 -39.3827,-17.97919 z"
           style="fill:none;fill-opacity:1;stroke:#000000;stroke-width:0.73776379;stroke-miterlimit:4;stroke-dasharray:none;stroke-opacity:1" />
      </g>
    </g>
  </g>
</svg>
