<?xml version="1.0" encoding="UTF-8" standalone="no"?>
<!-- Created with Inkscape (http://www.inkscape.org/) -->

<svg
   xmlns:dc="http://purl.org/dc/elements/1.1/"
   xmlns:cc="http://creativecommons.org/ns#"
   xmlns:rdf="http://www.w3.org/1999/02/22-rdf-syntax-ns#"
   xmlns:svg="http://www.w3.org/2000/svg"
   xmlns="http://www.w3.org/2000/svg"
   xmlns:sodipodi="http://sodipodi.sourceforge.net/DTD/sodipodi-0.dtd"
   xmlns:inkscape="http://www.inkscape.org/namespaces/inkscape"
   width="835mm"
   height="2000mm"
   viewBox="0 0 835 2000"
   version="1.1"
   id="svg8"
   inkscape:version="0.92.4 (5da689c313, 2019-01-14)"
   sodipodi:docname="MainDoorSign.svg"
   inkscape:export-filename="/home/adrian/main-door-sign.png"
   inkscape:export-xdpi="20.073246"
   inkscape:export-ydpi="20.073246">
  <defs
     id="defs2" />
  <sodipodi:namedview
     id="base"
     pagecolor="#383e42"
     bordercolor="#666666"
     borderopacity="1.0"
     inkscape:pageopacity="0"
     inkscape:pageshadow="2"
     inkscape:zoom="0.08838835"
     inkscape:cx="581.09104"
     inkscape:cy="3753.596"
     inkscape:document-units="mm"
     inkscape:current-layer="layer1-6"
     showgrid="false"
     inkscape:window-width="1920"
     inkscape:window-height="1016"
     inkscape:window-x="0"
     inkscape:window-y="27"
     inkscape:window-maximized="1" />
  <metadata
     id="metadata5">
    <rdf:RDF>
      <cc:Work
         rdf:about="">
        <dc:format>image/svg+xml</dc:format>
        <dc:type
           rdf:resource="http://purl.org/dc/dcmitype/StillImage" />
        <dc:title></dc:title>
      </cc:Work>
    </rdf:RDF>
  </metadata>
  <g
     inkscape:label="Layer 1"
     inkscape:groupmode="layer"
     id="layer1"
     transform="translate(0,1703)">
    <g
       id="layer1-6"
       inkscape:label="Layer 1"
       transform="matrix(0.26458333,0,0,0.26458333,181.42846,-846.99449)">
      <g
         id="g2434"
         transform="matrix(0.93220337,0,0,0.93220337,332.74498,-1269.4233)"
         style="fill:none">
        <path
           inkscape:connector-curvature="0"
           id="rect2987"
           d="M -666.47543,-271.81701 V 2414.1781 H 1562.7642 V -271.81701 Z m 92.03081,92.03081 H 1470.7288 V 1865.3879 H -574.44462 Z m 1759.54182,1438.573 c -65.6691,0 -115.7603,12.2214 -150.2726,36.6676 -34.273,24.2066 -51.40827,59.1992 -51.40827,104.9762 0,17.975 2.2771,33.9128 6.8311,47.8132 4.7932,13.9012 11.38317,26.0059 19.77187,36.3104 8.3886,10.3056 18.5745,19.173 30.5578,26.6031 11.9834,7.1893 25.4057,13.5405 40.2653,19.0528 14.8595,5.2725 41.2221,12.3445 79.09,21.2123 43.8594,8.868 73.4584,16.4167 88.7973,22.6482 15.5787,6.231 27.5622,14.0201 35.9508,23.3672 8.6279,9.3472 12.9408,21.211 12.9408,35.5913 0,45.0579 -37.028,67.5874 -111.0859,67.5874 -35.7108,0 -63.6319,-5.9933 -83.7639,-17.9766 -20.1327,-12.2233 -33.6746,-31.7562 -40.6248,-58.5991 l -102.45717,16.898 c 10.5456,46.735 34.271,81.6062 71.18037,104.6144 36.9092,23.0083 87.8392,34.5127 152.7892,34.5127 71.1817,0 125.1084,-13.0621 161.7776,-39.1865 36.9087,-26.3636 55.3633,-64.3505 55.3633,-113.9623 0,-21.0905 -3.2358,-39.6647 -9.7074,-55.7227 -6.471,-16.2974 -15.8186,-30.1992 -28.0412,-41.7034 -12.2234,-11.744 -28.8797,-21.9287 -49.9702,-30.5555 -20.8513,-8.8678 -55.6045,-18.4573 -104.2571,-28.7625 -40.9833,-8.8671 -68.1861,-16.1768 -81.6067,-21.9292 -13.4211,-5.9917 -23.6078,-13.1817 -30.5579,-21.5696 -6.7109,-8.3886 -10.067,-19.1738 -10.067,-32.3556 0,-40.2646 32.1167,-60.3966 96.3476,-60.3966 30.1983,0 53.3269,5.5137 69.3849,16.5385 16.2974,11.0247 27.0824,27.4413 32.3555,49.2512 l 102.8167,-14.0219 c -9.1072,-45.2977 -29.4772,-77.7709 -61.1134,-97.4237 -31.3968,-19.6529 -78.4929,-29.4793 -141.2866,-29.4793 z m -1671.32988,7.5479 v 506.5406 h 204.91676 c 48.41298,0 91.31231,-10.3054 128.70069,-30.9174 37.62802,-20.6113 66.627767,-50.3304 86.999681,-89.1568 20.61148,-39.0662 30.91739,-84.7219 30.91739,-136.97 0,-80.2888 -23.36625,-141.8845 -70.101691,-184.7853 -46.73538,-43.1403 -112.7658,-64.7111 -198.08797,-64.7111 z m 982.16132,0 v 506.5406 h 413.06929 v -81.9662 h -307.0144 v -133.3746 h 270.3468 v -81.9685 h -270.3468 v -127.2627 h 292.2759 v -81.9686 z m -876.10878,81.9686 h 75.13744 c 52.48749,0 92.8696,14.379 121.15056,43.139 28.28076,28.5208 42.42239,69.9838 42.42239,124.3888 0,53.9258 -13.42229,96.5855 -40.26521,127.9817 -26.84291,31.3968 -63.03221,47.0963 -108.56925,47.0963 h -89.87593 z m 602.16894,28.4006 c -62.07425,0 -110.36741,17.9742 -144.879609,53.9251 -34.51232,35.7102 -51.77021,84.8434 -51.77021,147.3964 0,62.7937 17.25789,112.1653 51.77021,148.1154 34.512199,35.95 82.086199,53.9251 142.722429,53.9251 61.8349,0 110.24761,-17.8547 145.23911,-53.5655 34.99161,-35.95 52.487,-85.4421 52.487,-148.475 0,-64.9499 -16.77595,-114.6816 -50.32973,-149.194 -33.31389,-34.7523 -81.72664,-52.1275 -145.2392,-52.1275 z m 1.43813,69.3826 c 28.76026,0 50.68781,10.4257 65.78733,31.2771 15.09884,20.8512 22.65048,54.406 22.65048,100.6618 0,88.6781 -31.03753,133.0152 -93.11173,133.0152 -28.28093,0 -49.97137,-11.2648 -65.07056,-33.7937 -14.85949,-22.7683 -22.28864,-55.8413 -22.28864,-99.2215 0,-87.9582 30.67787,-131.9389 92.03312,-131.9389 z m -516.42072,472.8808 h 64.54049 v 47.5457 h -64.54049 z m 1699.65219,0 h 64.5405 v 340.8497 h -64.5405 z m -1988.59325,17.2275 h 67.75553 v 271.255 h 173.63981 v 52.3672 h -241.39534 z m 1269.91551,69.8229 c 28.93998,0 51.37226,11.1774 67.29684,33.5332 15.92469,22.2025 23.88816,53.822 23.88816,94.8588 0,41.4959 -8.34555,73.5748 -25.03583,96.2368 -16.53723,22.5089 -39.96567,33.7637 -70.28377,33.7637 -17.45587,0 -32.6912,-3.7508 -45.70661,-11.2538 -12.86224,-7.656 -22.73861,-18.6037 -29.6291,-32.8441 h -1.37812 c 0.91827,4.5936 1.37812,18.5279 1.37812,41.8025 v 95.3172 h -64.54048 v -288.9411 c 0,-23.4277 -0.61183,-42.4912 -1.83678,-57.1908 h 62.70132 c 0.76559,2.7561 1.37978,8.1925 1.83915,16.3079 0.61254,8.1155 0.91722,16.154 0.91722,24.1163 h 0.91957 c 14.54657,-30.4713 41.03675,-45.7066 79.47031,-45.7066 z m -203.72754,0.4586 c 8.26862,0 14.92854,1.1486 19.98166,3.4455 v 53.9758 c -10.41233,-2.2968 -19.59945,-3.4455 -27.56174,-3.4455 -16.07786,0 -28.63366,6.5077 -37.66786,19.523 -8.88103,13.0154 -13.32114,32.3088 -13.32114,57.8801 v 121.9618 h -64.54272 v -190.1784 c 0,-13.6279 -0.22986,-24.9576 -0.68912,-33.9918 -0.30632,-9.1874 -0.68841,-17.3032 -1.14778,-24.3467 h 61.5559 c 0.45937,2.7561 1.0712,11.1768 1.8369,25.2639 0.76559,13.9341 1.14767,23.1987 1.14767,27.7923 h 0.91958 c 6.27807,-17.4559 11.86679,-29.7048 16.76662,-36.7483 4.89995,-7.1967 10.71842,-12.4806 17.45575,-15.8493 6.73733,-3.5218 15.16029,-5.2824 25.26628,-5.2824 z m -282.28054,0.2305 c 35.67735,0 62.93172,11.8667 81.76573,35.6005 18.83393,23.5807 28.25092,58.1867 28.25092,103.8171 v 1.8368 h -159.3992 c 0,24.1933 4.44,42.4925 13.32109,54.8954 9.03418,12.2498 21.81979,18.3729 38.35693,18.3729 22.81515,0 37.20887,-9.8762 43.18064,-29.6289 l 60.86685,5.2822 c -17.60903,45.018 -53.36363,67.5274 -107.26253,67.5274 -37.3617,0 -66.07183,-11.0249 -86.1308,-33.0746 -20.058949,-22.2026 -30.087709,-54.5113 -30.087709,-96.9259 0,-41.0368 10.18113,-72.5788 30.546339,-94.6283 20.36517,-22.0496 49.22999,-33.0746 86.59174,-33.0746 z m 740.72685,0 c 40.5773,0 71.50727,11.1001 92.79127,33.3028 21.4371,22.0495 32.1551,53.8235 32.1551,95.3197 0,40.271 -11.1775,71.8903 -33.5333,94.8586 -22.3557,22.8151 -53.28587,34.2223 -92.79127,34.2223 -38.7398,0 -69.1355,-11.4846 -91.185,-34.4528 -22.04964,-22.9683 -33.07462,-54.5102 -33.07462,-94.6281 0,-39.965 11.02498,-71.3546 33.07462,-94.1697 22.0495,-22.9683 52.9047,-34.4528 92.5632,-34.4528 z m 287.56277,0 c 40.5774,0 71.5074,11.1001 92.7913,33.3028 21.4371,22.0495 32.155,53.8235 32.155,95.3197 0,40.271 -11.1773,71.8903 -33.5331,94.8586 -22.3558,22.8151 -53.2859,34.2223 -92.7913,34.2223 -38.7399,0 -69.1355,-11.4846 -91.185,-34.4528 -22.0498,-22.9683 -33.0746,-54.5102 -33.0746,-94.6281 0,-39.965 11.0248,-71.3546 33.0746,-94.1697 22.0495,-22.9683 52.9046,-34.4528 92.5631,-34.4528 z m -1523.25599,4.5933 h 64.54049 v 248.5169 h -64.54049 z m 99.45191,0 h 68.21647 l 43.408807,138.9589 c 2.296823,7.6561 7.733144,26.7947 16.307974,57.4191 1.5312,-6.2781 4.67014,-17.3009 9.41695,-33.0724 4.74676,-15.7715 22.35682,-70.2076 52.8280705,-163.3056 H 64.161451 l -91.64362,248.5169 h -77.172491 z m 394.59489,36.0591 c -15.15906,0 -26.87334,5.2839 -35.14189,15.8493 -8.11547,10.5654 -12.40311,25.3412 -12.86246,44.3284 H 249.516 c -1.22497,-20.059 -6.04712,-35.0646 -14.46883,-45.0175 -8.42172,-10.106 -19.75383,-15.1602 -33.99416,-15.1602 z m 459.59636,3.4455 c -17.14965,0 -30.31963,7.5039 -39.507,22.5099 -9.0342,15.0058 -13.55159,35.9825 -13.55159,62.9319 0,26.7964 4.51739,47.5454 13.55159,62.245 9.18737,14.5466 22.20265,21.8208 39.04598,21.8208 34.45247,0 51.68036,-28.635 51.68036,-85.9026 0,-55.7365 -17.07319,-83.605 -51.21934,-83.605 z m 282.96726,0.2304 c -39.1991,0 -58.7972,28.0983 -58.7972,84.2942 0,27.7149 4.7448,48.846 14.2384,63.3927 9.6466,14.3934 23.5058,21.5903 41.5742,21.5903 39.6586,0 59.48627,-28.328 59.48627,-84.983 0,-29.5528 -4.82207,-50.9909 -14.46877,-64.3125 -9.6466,-13.3216 -23.6583,-19.9817 -42.0329,-19.9817 z m 287.56287,0 c -39.1992,0 -58.7973,28.0983 -58.7973,84.2942 0,27.7149 4.7448,48.846 14.2384,63.3927 9.6467,14.3934 23.506,21.5903 41.5744,21.5903 39.6583,0 59.4862,-28.328 59.4862,-84.983 0,-29.5528 -4.8223,-50.9909 -14.4688,-64.3125 -9.6467,-13.3216 -23.6584,-19.9817 -42.0329,-19.9817 z"
           style="fill:none;fill-opacity:1;stroke:#000000;stroke-width:0.68158728;stroke-miterlimit:4;stroke-dasharray:none;stroke-opacity:1" />
        <text
           id="text1763"
           y="3042.2825"
           x="-681.55725"
           style="font-style:normal;font-variant:normal;font-weight:normal;font-stretch:normal;font-size:339.84011841px;line-height:1.25;font-family:'Transport New';-inkscape-font-specification:'Transport New';letter-spacing:0px;word-spacing:0px;fill:none;fill-opacity:1;stroke:#000000;stroke-width:1.10381138;stroke-miterlimit:4;stroke-dasharray:none;stroke-opacity:1"
           xml:space="preserve"><tspan
             style="fill:none;stroke-width:1.10381138"
             y="3042.2825"
             x="-681.55725"
             id="tspan1761"
             sodipodi:role="line">Co-working &amp;</tspan><tspan
             style="fill:none;stroke-width:1.10381138"
             id="tspan1765"
             y="3467.0825"
             x="-681.55725"
             sodipodi:role="line">Makerspace</tspan><tspan
             style="fill:none;stroke-width:1.10381138"
             id="tspan1767"
             y="3891.8828"
             x="-681.55725"
             sodipodi:role="line" /></text>
        <text
           id="text1771"
           y="3700.4531"
           x="-675.87872"
           style="font-style:normal;font-variant:normal;font-weight:normal;font-stretch:normal;font-size:226.56007385px;line-height:0.75;font-family:'Transport New';-inkscape-font-specification:'Transport New';letter-spacing:0px;word-spacing:0px;fill:none;fill-opacity:1;stroke:none;stroke-width:0.7358743;stroke-miterlimit:4;stroke-dasharray:none"
           xml:space="preserve"><tspan
             id="tspan1781"
             style="font-size:113.28003693px;line-height:0.75;fill:none;fill-opacity:1;stroke:#000000;stroke-width:0.7358743;stroke-miterlimit:4;stroke-dasharray:none;stroke-opacity:1"
             y="3700.4531"
             x="-675.87872"
             sodipodi:role="line">DoESLiverpool.com </tspan><tspan
             id="tspan1785"
             style="font-size:113.28003693px;line-height:0.75;fill:none;fill-opacity:1;stroke:#000000;stroke-width:0.7358743;stroke-miterlimit:4;stroke-dasharray:none;stroke-opacity:1"
             y="3870.3733"
             x="-675.87872"
             sodipodi:role="line">@DoESLiverpool</tspan></text>
        <text
           id="text2406"
           y="-426.89114"
           x="-557.03369"
           style="font-style:normal;font-variant:normal;font-weight:normal;font-stretch:normal;font-size:339.84011841px;line-height:1.25;font-family:'Transport New';-inkscape-font-specification:'Transport New';letter-spacing:0px;word-spacing:0px;fill:none;fill-opacity:1;stroke:#000000;stroke-width:1.10381138;stroke-miterlimit:4;stroke-dasharray:none;stroke-opacity:1"
           xml:space="preserve"><tspan
             style="fill:none;stroke-width:1.10381138"
             y="-426.89114"
             x="-557.03369"
             id="tspan2404"
             sodipodi:role="line">Welcome to</tspan></text>
      </g>
    </g>
  </g>
</svg>
