<?xml version="1.0" encoding="UTF-8" standalone="no"?>
<!-- Created with Inkscape (http://www.inkscape.org/) -->

<svg
   xmlns:dc="http://purl.org/dc/elements/1.1/"
   xmlns:cc="http://creativecommons.org/ns#"
   xmlns:rdf="http://www.w3.org/1999/02/22-rdf-syntax-ns#"
   xmlns:svg="http://www.w3.org/2000/svg"
   xmlns="http://www.w3.org/2000/svg"
   xmlns:sodipodi="http://sodipodi.sourceforge.net/DTD/sodipodi-0.dtd"
   xmlns:inkscape="http://www.inkscape.org/namespaces/inkscape"
   width="297mm"
   height="210mm"
   viewBox="0 0 1052.3622 744.09448"
   id="svg2"
   version="1.1"
   inkscape:version="0.91 r13725"
   sodipodi:docname="wood-bin-recycling.svg">
  <defs
     id="defs4">
    <clipPath
       clipPathUnits="userSpaceOnUse"
       id="clipPath7367">
      <path
         d="m 0,1008 480,0 L 480,0 0,0 0,1008 Z"
         id="path7369"
         inkscape:connector-curvature="0" />
    </clipPath>
    <clipPath
       clipPathUnits="userSpaceOnUse"
       id="clipPath7375">
      <path
         d="m 252,326 24,0 0,-28 -24,0 0,28 z"
         id="path7377"
         inkscape:connector-curvature="0" />
    </clipPath>
  </defs>
  <sodipodi:namedview
     id="base"
     pagecolor="#ffffff"
     bordercolor="#666666"
     borderopacity="1.0"
     inkscape:pageopacity="0.0"
     inkscape:pageshadow="2"
     inkscape:zoom="0.7"
     inkscape:cx="620.9375"
     inkscape:cy="348.57143"
     inkscape:document-units="px"
     inkscape:current-layer="layer1"
     showgrid="false"
     inkscape:window-width="1366"
     inkscape:window-height="658"
     inkscape:window-x="0"
     inkscape:window-y="1"
     inkscape:window-maximized="1" />
  <metadata
     id="metadata7">
    <rdf:RDF>
      <cc:Work
         rdf:about="">
        <dc:format>image/svg+xml</dc:format>
        <dc:type
           rdf:resource="http://purl.org/dc/dcmitype/StillImage" />
        <dc:title />
      </cc:Work>
    </rdf:RDF>
  </metadata>
  <g
     inkscape:label="Layer 1"
     inkscape:groupmode="layer"
     id="layer1"
     transform="translate(0,-308.26772)">
    <rect
       style="opacity:1;fill:none;fill-opacity:1;stroke:#ffffff;stroke-width:0.70488679;stroke-linecap:round;stroke-linejoin:round;stroke-miterlimit:4;stroke-dasharray:none;stroke-dashoffset:23.82019997;stroke-opacity:1"
       id="rect4136"
       width="525.4762"
       height="743.38959"
       x="526.53351"
       y="308.62018"
       rx="2.0025833"
       ry="4.602108" />
    <rect
       ry="4.602108"
       rx="2.0025833"
       y="308.62018"
       x="0.3524434"
       height="743.38959"
       width="525.4762"
       id="rect4138"
       style="opacity:1;fill:none;fill-opacity:1;stroke:#ffffff;stroke-width:0.70488679;stroke-linecap:round;stroke-linejoin:round;stroke-miterlimit:4;stroke-dasharray:none;stroke-dashoffset:23.82019997;stroke-opacity:1" />
    <g
       id="g4179"
       transform="translate(-19.29979,0)">
      <rect
         ry="0.9530825"
         rx="0.96622699"
         y="544.87738"
         x="758.5152"
         height="44.969601"
         width="99.255295"
         id="rect9567"
         style="opacity:1;fill:#00ff00;fill-opacity:1;stroke:#000000;stroke-width:0.31610501;stroke-linecap:round;stroke-linejoin:round;stroke-miterlimit:4;stroke-dasharray:none;stroke-dashoffset:23.82019997;stroke-opacity:1" />
      <rect
         style="opacity:1;fill:#00ff00;fill-opacity:1;stroke:#000000;stroke-width:0.98256809;stroke-linecap:round;stroke-linejoin:round;stroke-miterlimit:4;stroke-dasharray:none;stroke-dashoffset:23.82019997;stroke-opacity:1"
         id="rect9569"
         width="198.58885"
         height="217.16028"
         x="710.27698"
         y="590.92493"
         rx="1.9332156"
         ry="4.6024795" />
      <g
         id="g7363"
         transform="matrix(10.535714,0,0,-10.535714,-1972.8571,3963.7908)">
        <g
           clip-path="url(#clipPath7367)"
           id="g7365">
          <g
             id="g7371">
            <g
               id="g7373" />
            <g
               id="g7379">
              <g
                 id="g7381"
                 clip-path="url(#clipPath7375)">
                <g
                   id="g7383"
                   transform="translate(272,301)">
                  <path
                     inkscape:connector-curvature="0"
                     id="path7385"
                     style="fill:#000000;fill-opacity:1;fill-rule:nonzero;stroke:none"
                     d="m 0,0 c 0,-0.553 -0.447,-1 -1,-1 l -14,0 c -0.553,0 -1,0.447 -1,1 l -1,17 1,0 16,0 1,0 L 0,0 Z m -12,22 c 0,0.553 0.447,1 1,1 l 6,0 c 0.553,0 1,-0.447 1,-1 l 0,-1 -8,0 0,1 z m 14,-1 -4,0 0,1 c 0,1.657 -1.343,3 -3,3 l -6,0 c -1.657,0 -3,-1.343 -3,-3 l 0,-1 -4,0 c -1.104,0 -2,-0.896 -2,-2 l 0,-2 1,0 1,-17 c 0,-1.657 1.343,-3 3,-3 l 14,0 c 1.657,0 3,1.343 3,3 l 1,17 1,0 0,2 c 0,1.104 -0.896,2 -2,2 m -5,-6 c -0.553,0 -1,-0.447 -1,-1 L -4,2 c 0,-0.553 0.447,-1 1,-1 0.553,0 1,0.447 1,1 l 0,12 c 0,0.553 -0.447,1 -1,1 m -10,0 c -0.553,0 -1,-0.447 -1,-1 l 0,-12 c 0,-0.553 0.447,-1 1,-1 0.553,0 1,0.447 1,1 l 0,12 c 0,0.553 -0.447,1 -1,1 m 5,0 c -0.553,0 -1,-0.447 -1,-1 L -9,2 c 0,-0.553 0.447,-1 1,-1 0.553,0 1,0.447 1,1 l 0,12 c 0,0.553 -0.447,1 -1,1" />
                </g>
              </g>
            </g>
          </g>
        </g>
      </g>
    </g>
    <g
       id="g4191"
       transform="translate(4.5541576e-5,0)">
      <rect
         style="opacity:1;fill:#666666;fill-opacity:1;stroke:#000000;stroke-width:0.31610501;stroke-linecap:round;stroke-linejoin:round;stroke-miterlimit:4;stroke-dasharray:none;stroke-dashoffset:23.82019997;stroke-opacity:1"
         id="rect9565"
         width="99.255295"
         height="44.969601"
         x="212.51518"
         y="544.87738"
         rx="0.96622699"
         ry="0.9530825" />
      <rect
         ry="4.6024795"
         rx="1.9332156"
         y="590.92493"
         x="164.27699"
         height="217.16028"
         width="198.58885"
         id="rect9563"
         style="opacity:1;fill:#666666;fill-opacity:1;stroke:#000000;stroke-width:0.98256809;stroke-linecap:round;stroke-linejoin:round;stroke-miterlimit:4;stroke-dasharray:none;stroke-dashoffset:23.82019997;stroke-opacity:1" />
      <g
         transform="matrix(10.535714,0,0,-10.535714,-2518.338,3967.4577)"
         id="g9531">
        <g
           id="g9533"
           clip-path="url(#clipPath7367)">
          <g
             id="g9535">
            <g
               id="g9537" />
            <g
               id="g9539">
              <g
                 clip-path="url(#clipPath7375)"
                 id="g9541">
                <g
                   transform="translate(272,301)"
                   id="g9543">
                  <path
                     d="m 0,0 c 0,-0.553 -0.447,-1 -1,-1 l -14,0 c -0.553,0 -1,0.447 -1,1 l -1,17 1,0 16,0 1,0 L 0,0 Z m -12,22 c 0,0.553 0.447,1 1,1 l 6,0 c 0.553,0 1,-0.447 1,-1 l 0,-1 -8,0 0,1 z m 14,-1 -4,0 0,1 c 0,1.657 -1.343,3 -3,3 l -6,0 c -1.657,0 -3,-1.343 -3,-3 l 0,-1 -4,0 c -1.104,0 -2,-0.896 -2,-2 l 0,-2 1,0 1,-17 c 0,-1.657 1.343,-3 3,-3 l 14,0 c 1.657,0 3,1.343 3,3 l 1,17 1,0 0,2 c 0,1.104 -0.896,2 -2,2 m -5,-6 c -0.553,0 -1,-0.447 -1,-1 L -4,2 c 0,-0.553 0.447,-1 1,-1 0.553,0 1,0.447 1,1 l 0,12 c 0,0.553 -0.447,1 -1,1 m -10,0 c -0.553,0 -1,-0.447 -1,-1 l 0,-12 c 0,-0.553 0.447,-1 1,-1 0.553,0 1,0.447 1,1 l 0,12 c 0,0.553 -0.447,1 -1,1 m 5,0 c -0.553,0 -1,-0.447 -1,-1 L -9,2 c 0,-0.553 0.447,-1 1,-1 0.553,0 1,0.447 1,1 l 0,12 c 0,0.553 -0.447,1 -1,1"
                     style="fill:#000000;fill-opacity:1;fill-rule:nonzero;stroke:none"
                     id="path9545"
                     inkscape:connector-curvature="0" />
                </g>
              </g>
            </g>
          </g>
        </g>
      </g>
    </g>
    <text
       xml:space="preserve"
       style="font-style:normal;font-variant:normal;font-weight:normal;font-stretch:normal;font-size:16.25px;line-height:125%;font-family:'Raoul TRANSPORT Britannique';-inkscape-font-specification:'Raoul TRANSPORT Britannique';letter-spacing:0px;word-spacing:0px;fill:#000000;fill-opacity:1;stroke:none;stroke-width:1px;stroke-linecap:butt;stroke-linejoin:miter;stroke-opacity:1"
       x="263.3176"
       y="418.07648"
       id="text4167"
       sodipodi:linespacing="125%"><tspan
         sodipodi:role="line"
         id="tspan4169"
         x="263.3176"
         y="418.07648"
         style="font-size:30px;text-align:center;text-anchor:middle">Black Bin</tspan><tspan
         sodipodi:role="line"
         x="263.3176"
         y="455.57648"
         id="tspan4171"
         style="font-size:30px;text-align:center;text-anchor:middle">General Rubbish</tspan></text>
    <text
       sodipodi:linespacing="125%"
       id="text4173"
       y="418.07648"
       x="789.49866"
       style="font-style:normal;font-variant:normal;font-weight:normal;font-stretch:normal;font-size:16.25px;line-height:125%;font-family:'Raoul TRANSPORT Britannique';-inkscape-font-specification:'Raoul TRANSPORT Britannique';letter-spacing:0px;word-spacing:0px;fill:#000000;fill-opacity:1;stroke:none;stroke-width:1px;stroke-linecap:butt;stroke-linejoin:miter;stroke-opacity:1"
       xml:space="preserve"><tspan
         style="font-size:30px;text-align:center;text-anchor:middle;fill:#00ff00"
         y="418.07648"
         x="789.49866"
         id="tspan4175"
         sodipodi:role="line">Green Bin</tspan><tspan
         style="font-size:30px;text-align:center;text-anchor:middle"
         id="tspan4177"
         y="455.57648"
         x="789.49866"
         sodipodi:role="line">Wood Recycling</tspan></text>
    <text
       xml:space="preserve"
       style="font-style:normal;font-weight:normal;font-size:30px;line-height:125%;font-family:Sans;letter-spacing:0px;word-spacing:0px;fill:#000000;fill-opacity:1;stroke:none;stroke-width:1px;stroke-linecap:butt;stroke-linejoin:miter;stroke-opacity:1"
       x="93.151314"
       y="960.93359"
       id="text4203"
       sodipodi:linespacing="125%"><tspan
         sodipodi:role="line"
         id="tspan4205"
         x="93.151314"
         y="960.93359">Can, Cardboard, and Plastic Bottle recycling in the kitchen</tspan></text>
  </g>
</svg>
