<?xml version="1.0" encoding="UTF-8" standalone="no"?>
<!-- Created with Inkscape (http://www.inkscape.org/) -->

<svg
   xmlns:dc="http://purl.org/dc/elements/1.1/"
   xmlns:cc="http://creativecommons.org/ns#"
   xmlns:rdf="http://www.w3.org/1999/02/22-rdf-syntax-ns#"
   xmlns:svg="http://www.w3.org/2000/svg"
   xmlns="http://www.w3.org/2000/svg"
   xmlns:sodipodi="http://sodipodi.sourceforge.net/DTD/sodipodi-0.dtd"
   xmlns:inkscape="http://www.inkscape.org/namespaces/inkscape"
   width="793.70081"
   height="1122.5197"
   id="svg2"
   version="1.1"
   inkscape:version="0.92.4 (5da689c313, 2019-01-14)"
   sodipodi:docname="DoESLiverpool-outline.svg"
   inkscape:export-filename="/home/adrian/Pictures/DoESLiverpool.png"
   inkscape:export-xdpi="90"
   inkscape:export-ydpi="90">
  <defs
     id="defs4" />
  <sodipodi:namedview
     id="base"
     pagecolor="#ffffff"
     bordercolor="#666666"
     borderopacity="1.0"
     inkscape:pageopacity="0.0"
     inkscape:pageshadow="2"
     inkscape:zoom="1.4"
     inkscape:cx="320.22523"
     inkscape:cy="679.82743"
     inkscape:document-units="px"
     inkscape:current-layer="layer1"
     showgrid="false"
     inkscape:window-width="1920"
     inkscape:window-height="1016"
     inkscape:window-x="0"
     inkscape:window-y="27"
     inkscape:window-maximized="1" />
  <metadata
     id="metadata7">
    <rdf:RDF>
      <cc:Work
         rdf:about="">
        <dc:format>image/svg+xml</dc:format>
        <dc:type
           rdf:resource="http://purl.org/dc/dcmitype/StillImage" />
        <dc:title></dc:title>
      </cc:Work>
    </rdf:RDF>
  </metadata>
  <g
     inkscape:label="Layer 1"
     inkscape:groupmode="layer"
     id="layer1">
    <path
       style="fill:none;fill-opacity:1;stroke:#000000;stroke-width:1.06666672;stroke-opacity:1"
       d="M 189.79102 190.78711 L 189.79102 611.05273 L 538.5918 611.05273 L 538.5918 190.78711 L 189.79102 190.78711 z M 204.19141 205.18555 L 524.19141 205.18555 L 524.19141 525.18555 L 204.19141 525.18555 L 204.19141 205.18555 z M 478.14844 426.8418 C 471.81094 426.8418 466.39258 427.79844 461.89258 429.71094 C 457.43008 431.62344 453.99766 434.4168 451.59766 438.0918 C 449.23516 441.7293 448.05469 445.64766 448.05469 449.84766 C 448.05469 456.37265 450.58594 461.90391 455.64844 466.44141 C 459.24844 469.66641 465.51055 472.38516 474.43555 474.59766 C 481.37305 476.32266 485.81758 477.52227 487.76758 478.19727 C 490.61758 479.20977 492.60352 480.40929 493.72852 481.79688 C 494.89102 483.14686 495.47266 484.79805 495.47266 486.74805 C 495.47266 489.78555 494.10469 492.44686 491.36719 494.73438 C 488.66719 496.98438 484.63594 498.10937 479.27344 498.10938 C 474.21094 498.10938 470.17969 496.83516 467.17969 494.28516 C 464.21719 491.73516 462.24844 487.74219 461.27344 482.30469 L 445.07227 483.87891 C 446.15977 493.10391 449.49844 500.13516 455.08594 504.97266 C 460.67344 509.77266 468.67852 512.17188 479.10352 512.17188 C 486.26602 512.17187 492.24883 511.17891 497.04883 509.19141 C 501.84883 507.16641 505.56055 504.0918 508.18555 499.9668 C 510.81055 495.8418 512.12305 491.41641 512.12305 486.69141 C 512.12305 481.47891 511.01719 477.11094 508.80469 473.58594 C 506.62969 470.02344 503.59141 467.22823 499.69141 465.20312 C 495.82891 463.14065 489.84805 461.15469 481.74805 459.24219 C 473.64805 457.32969 468.54727 455.49101 466.44727 453.72852 C 464.79727 452.34102 463.97266 450.67266 463.97266 448.72266 C 463.97266 446.58516 464.85469 444.87852 466.61719 443.60352 C 469.35469 441.61602 473.14102 440.62305 477.97852 440.62305 C 482.66602 440.62305 486.17305 441.56055 488.49805 443.43555 C 490.86055 445.27305 492.39883 448.30937 493.11133 452.54688 L 509.75977 451.81641 C 509.49727 444.24141 506.74219 438.18594 501.49219 433.64844 C 496.27969 429.11094 488.49844 426.8418 478.14844 426.8418 z M 218.61133 428.24805 L 218.61133 510.71094 L 249.94141 510.71094 C 256.09141 510.71094 261.00469 510.1293 264.67969 508.9668 C 269.59219 507.3918 273.49141 505.19727 276.37891 502.38477 C 280.20391 498.67227 283.14844 493.81641 285.21094 487.81641 C 286.89844 482.90391 287.74219 477.05322 287.74219 470.26562 C 287.74219 462.54067 286.84102 456.05468 285.04102 450.80469 C 283.24102 445.51719 280.61602 441.05352 277.16602 437.41602 C 273.71602 433.77852 269.57383 431.24727 264.73633 429.82227 C 261.13633 428.77227 255.90352 428.24805 249.04102 428.24805 L 218.61133 428.24805 z M 372.3418 428.24805 L 372.3418 510.71094 L 435.06055 510.71094 L 435.06055 496.81641 L 388.99219 496.81641 L 388.99219 474.37305 L 430.39258 474.37305 L 430.39258 460.47852 L 388.99219 460.47852 L 388.99219 442.19727 L 433.48633 442.19727 L 433.48633 428.24805 L 372.3418 428.24805 z M 235.25977 442.19727 L 242.74219 442.19727 C 249.52969 442.19727 254.08516 442.45927 256.41016 442.98438 C 259.52266 443.65937 262.09219 444.95469 264.11719 446.86719 C 266.14219 448.77969 267.7168 451.44102 268.8418 454.85352 C 269.9668 458.26601 270.5293 463.16016 270.5293 469.53516 C 270.5293 475.91016 269.9668 480.95352 268.8418 484.66602 C 267.7168 488.34102 266.25508 490.98516 264.45508 492.59766 C 262.69258 494.21016 260.45977 495.3543 257.75977 496.0293 C 255.69727 496.5543 252.34141 496.81641 247.69141 496.81641 L 235.25977 496.81641 L 235.25977 442.19727 z M 328.91602 449.62305 C 323.06602 449.62305 317.76055 450.91641 312.99805 453.50391 C 308.27305 456.0914 304.6168 459.84141 302.0293 464.75391 C 299.4418 469.66641 298.14844 474.74805 298.14844 479.99805 C 298.14844 486.86055 299.4418 492.69219 302.0293 497.49219 C 304.6168 502.25469 308.38594 505.87266 313.33594 508.34766 C 318.32344 510.82266 323.5543 512.06055 329.0293 512.06055 C 337.8793 512.06055 345.21094 509.09681 351.02344 503.17188 C 356.87344 497.20936 359.79883 489.70934 359.79883 480.67188 C 359.79883 471.70934 356.90977 464.30321 351.13477 458.45312 C 345.35977 452.56566 337.95352 449.62305 328.91602 449.62305 z M 328.97266 462.50391 C 333.09766 462.50391 336.54727 464.07852 339.32227 467.22852 C 342.13477 470.37852 343.54102 474.87852 343.54102 480.72852 C 343.54102 486.72852 342.13477 491.30312 339.32227 494.45312 C 336.54727 497.60316 333.09766 499.17969 328.97266 499.17969 C 324.84766 499.17969 321.37891 497.60321 318.56641 494.45312 C 315.75391 491.30316 314.34766 486.7668 314.34766 480.8418 C 314.34766 474.9168 315.75391 470.37852 318.56641 467.22852 C 321.37891 464.07852 324.84766 462.50391 328.97266 462.50391 z M 248.37109 534.2168 L 258.4707 534.2168 L 258.4707 543.56055 L 248.37109 543.56055 L 248.37109 534.2168 z M 514.30859 534.2168 L 524.4082 534.2168 L 524.4082 586.90039 L 514.30859 586.90039 L 514.30859 534.2168 z M 203.73828 534.64648 L 214.375 534.64648 L 214.375 578.02344 L 240.82422 578.02344 L 240.82422 586.90039 L 203.73828 586.90039 L 203.73828 534.64648 z M 324.30859 547.87305 C 329.98672 547.87305 334.46575 549.75221 337.74805 553.51367 C 341.03034 557.25117 342.60078 562.98998 342.45703 570.72852 L 317.15625 570.72852 C 317.22813 573.72331 318.04232 576.05925 319.59961 577.73633 C 321.1569 579.38945 323.09789 580.2168 325.42188 580.2168 C 327.00312 580.2168 328.33203 579.78438 329.41016 578.92188 C 330.48828 578.05938 331.30443 576.67057 331.85547 574.75391 L 341.91797 576.44336 C 340.62422 580.13295 338.5746 582.94805 335.77148 584.88867 C 332.99232 586.80534 329.50717 587.76367 325.31445 587.76367 C 318.678 587.76367 313.76654 585.59427 310.58008 581.25781 C 308.06445 577.78385 306.80664 573.40026 306.80664 568.10547 C 306.80664 561.78047 308.45938 556.83347 311.76562 553.26367 C 315.07187 549.66993 319.25339 547.87305 324.30859 547.87305 z M 368.36719 547.87305 C 370.66719 547.87305 372.88337 548.50755 375.01562 549.77734 L 371.88867 558.58203 C 370.18763 557.47995 368.60599 556.92773 367.14453 556.92773 C 365.73099 556.92773 364.53307 557.32461 363.55078 558.11523 C 362.56849 558.8819 361.78984 560.28191 361.21484 562.31836 C 360.6638 564.35482 360.38867 568.62057 360.38867 575.11328 L 360.38867 586.90039 L 350.29102 586.90039 L 350.29102 548.73438 L 359.66992 548.73438 L 359.66992 554.16211 C 361.27513 551.59857 362.71264 549.90834 363.98242 549.09375 C 365.27618 548.27917 366.73802 547.87305 368.36719 547.87305 z M 400.35156 547.87305 C 404.78386 547.87305 408.54609 549.61002 411.63672 553.08398 C 414.72734 556.55794 416.27148 561.39635 416.27148 567.60156 C 416.27148 573.97448 414.71419 578.93464 411.59961 582.48047 C 408.48502 586.00234 404.71158 587.76367 400.2793 587.76367 C 398.17096 587.76367 396.2543 587.3444 394.5293 586.50586 C 392.82825 585.66732 391.03138 584.22982 389.13867 582.19336 L 389.13867 601.41992 L 379.04102 601.41992 L 379.04102 548.73438 L 388.45703 548.73438 L 388.45703 554.3418 C 389.6789 552.42513 391.33164 550.86784 393.41602 549.66992 C 395.5004 548.47201 397.81198 547.87305 400.35156 547.87305 z M 441.64453 547.87305 C 447.41849 547.87305 452.15026 549.75221 455.83984 553.51367 C 459.52942 557.25117 461.37305 561.98294 461.37305 567.70898 C 461.37305 573.48294 459.50508 578.27461 455.76758 582.08398 C 452.05404 585.8694 447.36901 587.76367 441.71484 587.76367 C 438.21692 587.76367 434.87591 586.97188 431.68945 585.39062 C 428.52695 583.80937 426.11797 581.49778 424.46484 578.45508 C 422.81172 575.38841 421.98633 571.66367 421.98633 567.2793 C 421.98633 563.92513 422.81172 560.6776 424.46484 557.53906 C 426.11797 554.40052 428.45391 552.00468 431.47266 550.35156 C 434.51536 548.69844 437.90703 547.87305 441.64453 547.87305 z M 486.63672 547.87305 C 492.41068 547.87305 497.14245 549.75221 500.83203 553.51367 C 504.52162 557.25117 506.36719 561.98294 506.36719 567.70898 C 506.36719 573.48294 504.49922 578.27461 500.76172 582.08398 C 497.04818 585.8694 492.36315 587.76367 486.70898 587.76367 C 483.21106 587.76367 479.87005 586.97188 476.68359 585.39062 C 473.52109 583.80937 471.11211 581.49778 469.45898 578.45508 C 467.80586 575.38841 466.98047 571.66367 466.98047 567.2793 C 466.98047 563.92513 467.80586 560.6776 469.45898 557.53906 C 471.11211 554.40052 473.44805 552.00468 476.4668 550.35156 C 479.5095 548.69844 482.89922 547.87305 486.63672 547.87305 z M 248.37109 548.73438 L 258.4707 548.73438 L 258.4707 586.90039 L 248.37109 586.90039 L 248.37109 548.73438 z M 263.89648 548.73438 L 274.49805 548.73438 L 281.68555 568.21289 L 283.76953 574.7168 C 284.32058 573.06367 284.66875 571.97435 284.8125 571.44727 C 285.14792 570.36914 285.50729 569.29102 285.89062 568.21289 L 293.15039 548.73438 L 303.53516 548.73438 L 288.37109 586.90039 L 279.27734 586.90039 L 263.89648 548.73438 z M 324.91797 555.59961 C 322.7138 555.59961 320.89453 556.40065 319.45703 558.00586 C 318.01953 559.61107 317.31198 561.79162 317.33594 564.54688 L 332.42969 564.54688 C 332.35781 561.62396 331.60352 559.40781 330.16602 557.89844 C 328.72852 556.3651 326.97839 555.59961 324.91797 555.59961 z M 397.62109 555.84961 C 395.15339 555.84961 393.10378 556.80794 391.47461 558.72461 C 389.84544 560.61732 389.03125 563.43242 389.03125 567.16992 C 389.03125 571.45846 389.88099 574.63295 391.58203 576.69336 C 393.28307 578.72982 395.35703 579.74805 397.80078 579.74805 C 400.14869 579.74805 402.10091 578.81406 403.6582 576.94531 C 405.2155 575.0526 405.99414 571.96237 405.99414 567.67383 C 405.99414 563.67279 405.19114 560.70235 403.58594 558.76172 C 401.98072 556.82109 399.99297 555.84961 397.62109 555.84961 z M 441.67969 556.10156 C 439.04427 556.10156 436.82813 557.10859 435.03125 559.12109 C 433.23438 561.13359 432.33594 564.03295 432.33594 567.81836 C 432.33594 571.60378 433.23438 574.50117 435.03125 576.51367 C 436.82813 578.52617 439.04427 579.5332 441.67969 579.5332 C 444.31511 579.5332 446.52006 578.52617 448.29297 576.51367 C 450.08984 574.50117 450.98828 571.57943 450.98828 567.74609 C 450.98828 564.00859 450.08984 561.13359 448.29297 559.12109 C 446.52006 557.10859 444.31511 556.10156 441.67969 556.10156 z M 486.67383 556.10156 C 484.03841 556.10156 481.82226 557.10859 480.02539 559.12109 C 478.22852 561.13359 477.33008 564.03295 477.33008 567.81836 C 477.33008 571.60378 478.22852 574.50117 480.02539 576.51367 C 481.82226 578.52617 484.03841 579.5332 486.67383 579.5332 C 489.30924 579.5332 491.51224 578.52617 493.28516 576.51367 C 495.08203 574.50117 495.98047 571.57943 495.98047 567.74609 C 495.98047 564.00859 495.08203 561.13359 493.28516 559.12109 C 491.51224 557.10859 489.30924 556.10156 486.67383 556.10156 z "
       id="rect2987" />
  </g>
</svg>
