<?xml version="1.0" encoding="UTF-8" standalone="no"?>
<!-- Created with Inkscape (http://www.inkscape.org/) -->

<svg
   xmlns:dc="http://purl.org/dc/elements/1.1/"
   xmlns:cc="http://creativecommons.org/ns#"
   xmlns:rdf="http://www.w3.org/1999/02/22-rdf-syntax-ns#"
   xmlns:svg="http://www.w3.org/2000/svg"
   xmlns="http://www.w3.org/2000/svg"
   xmlns:sodipodi="http://sodipodi.sourceforge.net/DTD/sodipodi-0.dtd"
   xmlns:inkscape="http://www.inkscape.org/namespaces/inkscape"
   width="793.70081"
   height="1122.5197"
   id="svg2"
   version="1.1"
   inkscape:version="0.92.4 (5da689c313, 2019-01-14)"
   sodipodi:docname="DoESLiverpool-outline.svg"
   inkscape:export-filename="/home/adrian/Pictures/DoESLiverpool.png"
   inkscape:export-xdpi="90"
   inkscape:export-ydpi="90">
  <defs
     id="defs4" />
  <sodipodi:namedview
     id="base"
     pagecolor="#ffffff"
     bordercolor="#666666"
     borderopacity="1.0"
     inkscape:pageopacity="0.0"
     inkscape:pageshadow="2"
     inkscape:zoom="1.979899"
     inkscape:cx="320.22523"
     inkscape:cy="679.82743"
     inkscape:document-units="px"
     inkscape:current-layer="layer1"
     showgrid="false"
     inkscape:window-width="1920"
     inkscape:window-height="1016"
     inkscape:window-x="0"
     inkscape:window-y="27"
     inkscape:window-maximized="1" />
  <metadata
     id="metadata7">
    <rdf:RDF>
      <cc:Work
         rdf:about="">
        <dc:format>image/svg+xml</dc:format>
        <dc:type
           rdf:resource="http://purl.org/dc/dcmitype/StillImage" />
        <dc:title></dc:title>
      </cc:Work>
    </rdf:RDF>
  </metadata>
  <g
     inkscape:label="Layer 1"
     inkscape:groupmode="layer"
     id="layer1">
    <path
       style="fill:none;fill-opacity:1;stroke:#000000;stroke-width:1.06666672;stroke-opacity:1"
       d="M 189.79094,190.78633 H 538.59093 V 611.05299 H 189.79094 Z"
       id="rect2987" />
    <path
       style="fill:none;fill-opacity:1;stroke:#000000;stroke-width:1.06666672;stroke-linecap:round;stroke-linejoin:round;stroke-miterlimit:4;stroke-dasharray:none;stroke-opacity:1"
       d="M 204.19141 205.18555 L 204.19141 525.18555 L 524.19141 525.18555 L 524.19141 205.18555 L 204.19141 205.18555 z M 478.14844 426.8418 C 488.49844 426.8418 496.27969 429.11094 501.49219 433.64844 C 506.74219 438.18594 509.49727 444.24141 509.75977 451.81641 L 493.11133 452.54688 C 492.39883 448.30937 490.86055 445.27305 488.49805 443.43555 C 486.17305 441.56055 482.66602 440.62305 477.97852 440.62305 C 473.14102 440.62305 469.35469 441.61602 466.61719 443.60352 C 464.85469 444.87852 463.97266 446.58516 463.97266 448.72266 C 463.97266 450.67266 464.79727 452.34102 466.44727 453.72852 C 468.54727 455.49101 473.64805 457.32969 481.74805 459.24219 C 489.84805 461.15469 495.82891 463.14063 499.69141 465.20312 C 503.59141 467.22813 506.62969 470.02344 508.80469 473.58594 C 511.01719 477.11094 512.12305 481.47891 512.12305 486.69141 C 512.12305 491.41641 510.81055 495.8418 508.18555 499.9668 C 505.56055 504.0918 501.84883 507.16641 497.04883 509.19141 C 492.24883 511.17891 486.26602 512.17187 479.10352 512.17188 C 468.67852 512.17188 460.67344 509.77266 455.08594 504.97266 C 449.49844 500.13516 446.15977 493.10391 445.07227 483.87891 L 461.27344 482.30469 C 462.24844 487.74219 464.21719 491.73516 467.17969 494.28516 C 470.17969 496.83516 474.21094 498.10938 479.27344 498.10938 C 484.63594 498.10937 488.66719 496.98438 491.36719 494.73438 C 494.10469 492.44687 495.47266 489.78555 495.47266 486.74805 C 495.47266 484.79805 494.89102 483.14688 493.72852 481.79688 C 492.60352 480.40938 490.61758 479.20977 487.76758 478.19727 C 485.81758 477.52227 481.37305 476.32266 474.43555 474.59766 C 465.51055 472.38516 459.24844 469.66641 455.64844 466.44141 C 450.58594 461.90391 448.05469 456.37265 448.05469 449.84766 C 448.05469 445.64766 449.23516 441.7293 451.59766 438.0918 C 453.99766 434.4168 457.43008 431.62344 461.89258 429.71094 C 466.39258 427.79844 471.81094 426.8418 478.14844 426.8418 z M 218.61133 428.24805 L 249.04102 428.24805 C 255.90352 428.24805 261.13633 428.77227 264.73633 429.82227 C 269.57383 431.24727 273.71602 433.77852 277.16602 437.41602 C 280.61602 441.05352 283.24102 445.51719 285.04102 450.80469 C 286.84102 456.05468 287.74219 462.54066 287.74219 470.26562 C 287.74219 477.05313 286.89844 482.90391 285.21094 487.81641 C 283.14844 493.81641 280.20391 498.67227 276.37891 502.38477 C 273.49141 505.19727 269.59219 507.3918 264.67969 508.9668 C 261.00469 510.1293 256.09141 510.71094 249.94141 510.71094 L 218.61133 510.71094 L 218.61133 428.24805 z M 372.3418 428.24805 L 433.48633 428.24805 L 433.48633 442.19727 L 388.99219 442.19727 L 388.99219 460.47852 L 430.39258 460.47852 L 430.39258 474.37305 L 388.99219 474.37305 L 388.99219 496.81641 L 435.06055 496.81641 L 435.06055 510.71094 L 372.3418 510.71094 L 372.3418 428.24805 z M 235.25977 442.19727 L 235.25977 496.81641 L 247.69141 496.81641 C 252.34141 496.81641 255.69727 496.5543 257.75977 496.0293 C 260.45977 495.3543 262.69258 494.21016 264.45508 492.59766 C 266.25508 490.98516 267.7168 488.34102 268.8418 484.66602 C 269.9668 480.95352 270.5293 475.91016 270.5293 469.53516 C 270.5293 463.16016 269.9668 458.26601 268.8418 454.85352 C 267.7168 451.44102 266.14219 448.77969 264.11719 446.86719 C 262.09219 444.95469 259.52266 443.65937 256.41016 442.98438 C 254.08516 442.45936 249.52969 442.19727 242.74219 442.19727 L 235.25977 442.19727 z M 328.91602 449.62305 C 337.95352 449.62305 345.35977 452.56565 351.13477 458.45312 C 356.90977 464.30312 359.79883 471.70935 359.79883 480.67188 C 359.79883 489.70936 356.87344 497.20937 351.02344 503.17188 C 345.21094 509.09688 337.8793 512.06055 329.0293 512.06055 C 323.5543 512.06055 318.32344 510.82266 313.33594 508.34766 C 308.38594 505.87266 304.6168 502.25469 302.0293 497.49219 C 299.4418 492.69219 298.14844 486.86055 298.14844 479.99805 C 298.14844 474.74805 299.4418 469.66641 302.0293 464.75391 C 304.6168 459.84141 308.27305 456.0914 312.99805 453.50391 C 317.76055 450.91641 323.06602 449.62305 328.91602 449.62305 z M 328.97266 462.50391 C 324.84766 462.50391 321.37891 464.07852 318.56641 467.22852 C 315.75391 470.37852 314.34766 474.9168 314.34766 480.8418 C 314.34766 486.7668 315.75391 491.30314 318.56641 494.45312 C 321.37891 497.60312 324.84766 499.17969 328.97266 499.17969 C 333.09766 499.17969 336.54727 497.60314 339.32227 494.45312 C 342.13477 491.30312 343.54102 486.72852 343.54102 480.72852 C 343.54102 474.87852 342.13477 470.37852 339.32227 467.22852 C 336.54727 464.07852 333.09766 462.50391 328.97266 462.50391 z "
       id="rect2985" />
    <g
       aria-label="Liverpool"
       style="font-style:normal;font-variant:normal;font-weight:bold;font-stretch:normal;font-size:12.80000019px;line-height:0%;font-family:Arial;-inkscape-font-specification:'Arial Bold';letter-spacing:0px;word-spacing:0px;fill:none;fill-opacity:1;stroke:#000000;stroke-width:1.06666672;stroke-opacity:1"
       id="text3763">
      <path
         d="m 203.73743,586.90057 v -52.25312 h 10.6375 v 43.37656 h 26.45 v 8.87656 z"
         style="font-size:73.59999847px;line-height:1.25;stroke-width:1.06666672;fill:none;stroke:#000000;stroke-opacity:1"
         id="path837" />
      <path
         d="m 248.37181,543.55995 v -9.34375 h 10.09843 v 9.34375 z m 0,43.34062 v -38.16562 h 10.09843 v 38.16562 z"
         style="font-size:73.59999847px;line-height:1.25;stroke-width:1.06666672;fill:none;stroke:#000000;stroke-opacity:1"
         id="path839" />
      <path
         d="m 279.27806,586.90057 -15.38125,-38.16562 h 10.60156 l 7.1875,19.47812 2.08437,6.50469 q 0.82657,-2.47969 1.04219,-3.27031 0.50313,-1.61719 1.07813,-3.23438 l 7.25937,-19.47812 h 10.38594 l -15.16563,38.16562 z"
         style="font-size:73.59999847px;line-height:1.25;stroke-width:1.06666672;fill:none;stroke:#000000;stroke-opacity:1"
         id="path841" />
      <path
         d="m 331.85462,574.7537 10.0625,1.68906 q -1.94063,5.53438 -6.14531,8.44531 -4.16875,2.875 -10.45782,2.875 -9.95468,0 -14.73437,-6.50468 -3.77344,-5.21094 -3.77344,-13.15313 0,-9.4875 4.95938,-14.84219 4.95937,-5.39062 12.54218,-5.39062 8.51719,0 13.44063,5.64219 4.92344,5.60625 4.70781,17.21406 h -25.3 q 0.10782,4.49219 2.44375,7.00781 2.33594,2.47969 5.82188,2.47969 2.37187,0 3.98906,-1.29375 1.61719,-1.29375 2.44375,-4.16875 z m 0.575,-10.20625 q -0.10781,-4.38438 -2.26406,-6.64844 -2.15625,-2.3 -5.24688,-2.3 -3.30625,0 -5.4625,2.40781 -2.15625,2.40782 -2.12031,6.54063 z"
         style="font-size:73.59999847px;line-height:1.25;stroke-width:1.06666672;fill:none;stroke:#000000;stroke-opacity:1"
         id="path843" />
      <path
         d="m 360.389,586.90057 h -10.09844 v -38.16562 h 9.37969 v 5.42656 q 2.40781,-3.84531 4.31249,-5.06719 1.94063,-1.22187 4.38438,-1.22187 3.45,0 6.64844,1.90469 l -3.12657,8.80468 q -2.55156,-1.65312 -4.74375,-1.65312 -2.12031,0 -3.59375,1.18594 -1.47343,1.15 -2.33593,4.20468 -0.82656,3.05469 -0.82656,12.79375 z"
         style="font-size:73.59999847px;line-height:1.25;stroke-width:1.06666672;fill:none;stroke:#000000;stroke-opacity:1"
         id="path845" />
      <path
         d="m 379.04055,548.73495 h 9.41563 v 5.60625 q 1.83281,-2.875 4.95937,-4.67188 3.12657,-1.79687 6.93594,-1.79687 6.64844,0 11.28438,5.21094 4.63593,5.21093 4.63593,14.51875 0,9.55937 -4.67187,14.87812 -4.67188,5.28281 -11.32031,5.28281 -3.1625,0 -5.75,-1.25781 -2.55157,-1.25781 -5.39063,-4.3125 v 19.22656 h -10.09844 z m 9.99063,18.43594 q 0,6.43281 2.55156,9.52343 2.55156,3.05469 6.21719,3.05469 3.52187,0 5.85781,-2.80312 2.33594,-2.83907 2.33594,-9.27188 0,-6.00156 -2.40781,-8.9125 -2.40782,-2.91094 -5.96563,-2.91094 -3.70156,0 -6.14531,2.875 -2.44375,2.83907 -2.44375,8.44532 z"
         style="font-size:73.59999847px;line-height:1.25;stroke-width:1.06666672;fill:none;stroke:#000000;stroke-opacity:1"
         id="path847" />
      <path
         d="m 421.98586,567.2787 q 0,-5.03125 2.47969,-9.73906 2.47969,-4.70782 7.00781,-7.1875 4.56406,-2.47969 10.17031,-2.47969 8.66094,0 14.19532,5.64219 5.53437,5.60625 5.53437,14.19531 0,8.66094 -5.60625,14.375 -5.57031,5.67812 -14.05156,5.67812 -5.24688,0 -10.02656,-2.37187 -4.74375,-2.37188 -7.22344,-6.93594 -2.47969,-4.6 -2.47969,-11.17656 z m 10.35,0.53906 q 0,5.67813 2.69531,8.69688 2.69532,3.01875 6.64844,3.01875 3.95313,0 6.6125,-3.01875 2.69531,-3.01875 2.69531,-8.76875 0,-5.60625 -2.69531,-8.625 -2.65937,-3.01875 -6.6125,-3.01875 -3.95312,0 -6.64844,3.01875 -2.69531,3.01875 -2.69531,8.69687 z"
         style="font-size:73.59999847px;line-height:1.25;stroke-width:1.06666672;fill:none;stroke:#000000;stroke-opacity:1"
         id="path849" />
      <path
         d="m 466.97962,567.2787 q 0,-5.03125 2.47969,-9.73906 2.47969,-4.70782 7.00781,-7.1875 4.56406,-2.47969 10.17031,-2.47969 8.66094,0 14.19531,5.64219 5.53438,5.60625 5.53438,14.19531 0,8.66094 -5.60625,14.375 -5.57031,5.67812 -14.05156,5.67812 -5.24688,0 -10.02656,-2.37187 -4.74375,-2.37188 -7.22344,-6.93594 -2.47969,-4.6 -2.47969,-11.17656 z m 10.35,0.53906 q 0,5.67813 2.69531,8.69688 2.69531,3.01875 6.64844,3.01875 3.95312,0 6.6125,-3.01875 2.69531,-3.01875 2.69531,-8.76875 0,-5.60625 -2.69531,-8.625 -2.65938,-3.01875 -6.6125,-3.01875 -3.95313,0 -6.64844,3.01875 -2.69531,3.01875 -2.69531,8.69687 z"
         style="font-size:73.59999847px;line-height:1.25;stroke-width:1.06666672;fill:none;stroke:#000000;stroke-opacity:1"
         id="path851" />
      <path
         d="M 514.3093,586.90057 V 534.2162 h 10.09844 v 52.68437 z"
         style="font-size:73.59999847px;line-height:1.25;stroke-width:1.06666672;fill:none;stroke:#000000;stroke-opacity:1"
         id="path853" />
    </g>
  </g>
</svg>
