<?xml version="1.0" encoding="UTF-8" standalone="no"?>
<!-- Created with Inkscape (http://www.inkscape.org/) -->

<svg
   width="379.4978mm"
   height="428.77252mm"
   viewBox="0 0 379.4978 428.77252"
   version="1.1"
   id="svg5"
   xml:space="preserve"
   inkscape:version="1.1 (c68e22c387, 2021-05-23)"
   sodipodi:docname="toilet_sign.svg"
   xmlns:inkscape="http://www.inkscape.org/namespaces/inkscape"
   xmlns:sodipodi="http://sodipodi.sourceforge.net/DTD/sodipodi-0.dtd"
   xmlns="http://www.w3.org/2000/svg"
   xmlns:svg="http://www.w3.org/2000/svg"><sodipodi:namedview
     id="namedview7"
     pagecolor="#ffffff"
     bordercolor="#000000"
     borderopacity="0.25"
     inkscape:showpageshadow="2"
     inkscape:pageopacity="0.0"
     inkscape:pagecheckerboard="0"
     inkscape:deskcolor="#d1d1d1"
     inkscape:document-units="mm"
     showgrid="false"
     inkscape:zoom="0.23356871"
     inkscape:cx="391.74768"
     inkscape:cy="650.7721"
     inkscape:window-width="1280"
     inkscape:window-height="955"
     inkscape:window-x="0"
     inkscape:window-y="0"
     inkscape:window-maximized="1"
     inkscape:current-layer="layer1"
     inkscape:pageshadow="2" /><defs
     id="defs2" /><g
     inkscape:label="Layer 1"
     inkscape:groupmode="layer"
     id="layer1"
     transform="translate(-3.4253137,7.6571485)"><path
       style="fill:#ffffff;stroke:#000000;stroke-width:4.49131;stroke-dasharray:none"
       d="m 190.73775,41.252653 c 0.75876,-0.4061 1.25992,-1.0972 1.11373,-1.5358 -0.14637,-0.4386 -4.01099,-2.551 -8.58842,-4.6943 l -8.32261,-3.8969 h -57.7078 -57.7078 l -8.54942,4.1086 c -8.06782,3.8771 -8.48039,4.1848 -7.32401,5.4626 0.67395,0.7447 1.95852,1.4586 2.85455,1.5863 4.37413,0.6236 142.99169,-0.3669 144.23178,-1.0305 z"
       id="path323" /><path
       style="fill:none;stroke:#000000;stroke-width:4.49131;stroke-dasharray:none"
       d="m 126.48001,140.22015 c 55.59892,-0.1185 62.52931,-0.2632 63.59248,-1.3262 1.05587,-1.0559 1.19319,-6.0091 1.19319,-43.031197 0,-37.8652 -0.11938,-41.9699 -1.25664,-43.2267 -1.20049,-1.3265 -4.45553,-1.3886 -72.83984,-1.3886 -64.06322,0 -71.70855,0.1254 -72.77639,1.1932 -0.92638,0.9264 -1.18473,2.8366 -1.15534,8.5423 0.0201,4.042 -0.11795,22.8581 -0.3086,41.813597 l -0.34647,34.4645 1.66109,1.6611 c 1.53853,1.5385 2.33181,1.6526 10.74918,1.5461 4.99841,-0.063 37.16772,-0.1748 71.48734,-0.248 z"
       id="path309" /><path
       style="fill:none;stroke:#000000;stroke-width:0.759312"
       d="m 68.71197,81.257453 c -1.99431,-1.0838 -4.46588,-5.2432 -4.46588,-7.5157 0,-1.0155 -1.03613,-1.214 -6.33648,-1.214 -5.17436,0 -6.56695,-0.2546 -7.59315,-1.3886 -1.57821,-1.7439 -1.60011,-3.4747 -0.0634,-5.0114 1.69915,-1.6991 23.62816,-1.7468 26.89301,-0.059 3.15998,1.6341 4.56426,4.047 4.56426,7.8424 0,2.7676 -0.432,3.7558 -2.58166,5.9055 -2.06155,2.0616 -3.1706,2.5755 -5.50502,2.5513 -1.60783,-0.017 -3.81807,-0.5167 -4.91163,-1.111 z"
       id="path311" /><path
       style="fill:#ffffff;stroke:#000000;stroke-width:4.49131;stroke-dasharray:none"
       d="m 148.81814,172.86435 c 10.34304,-1.8567 17.47647,-4.248 19.6851,-6.5989 1.73133,-1.843 1.73474,-1.8832 0.29778,-3.5012 -5.35628,-6.0311 -28.66921,-9.5654 -57.64289,-8.7389 -19.0713,0.544 -31.46507,2.5513 -38.98857,6.3145 -8.96428,4.4839 -4.75267,8.2573 13.47464,12.0724 9.66435,2.0228 17.8701,2.5114 36.90363,2.1973 13.48621,-0.2224 20.31535,-0.6762 26.27031,-1.7452 z"
       id="path301" /><path
       style="fill:#ffffff;stroke:#000000;stroke-width:4.49131;stroke-dasharray:none"
       d="m 129.38165,236.92235 c 19.65558,-3.1923 36.20675,-13.7594 47.4021,-30.2639 5.22278,-7.6996 9.80348,-19.6207 11.13234,-28.9717 l 0.53758,-3.7827 -2.58037,1.9665 c -13.27458,10.1169 -45.14095,15.5714 -79.72497,13.6463 -26.16794,-1.4565 -45.02549,-6.018 -53.98228,-13.0578 -1.5416,-1.2117 -2.98524,-2.203 -3.20809,-2.203 -0.45564,0 -0.0637,2.6003 1.50317,9.9771 4.92508,23.1847 25.25341,44.4135 48.70633,50.8638 11.23981,3.0914 19.38827,3.5837 30.21419,1.8254 z"
       id="path287" /><path
       style="fill:#ffffff;stroke:#000000;stroke-width:4.49131;stroke-dasharray:none"
       d="m 159.37452,284.49355 c 0,-2.7063 -4.52996,-45.9231 -4.84685,-46.24 -0.12914,-0.1291 -2.20479,0.6363 -4.61244,1.7011 -9.09905,4.024 -16.89691,5.7886 -27.53964,6.2318 -14.32802,0.5968 -25.9971,-1.6591 -36.8601,-7.126 -4.14529,-2.0861 -4.02645,-2.2156 -4.6369,5.0524 -0.22815,2.7145 -1.2786,13.0886 -2.33462,23.0535 -1.05604,9.9648 -1.73235,18.4217 -1.50288,18.793 0.23504,0.3804 18.29656,0.675 41.37534,0.675 h 40.95809 z"
       id="path279" /></g><g
     inkscape:groupmode="layer"
     id="layer2"
     inkscape:label="Layer 2"
     style="display:inline"><path
       style="fill:#000000;stroke-width:1.04302"
       d="m 147.39932,339.35531 c -19.58956,6.84841 -39.19284,9.78635 -63.655853,9.54008 -23.118196,-0.23258 -55.82492,-5.43862 -57.585746,-9.16581 -0.583906,-1.23602 -0.09067,-1.38515 3.112342,-0.94083 25.382388,3.52067 56.463104,2.16466 81.069597,-3.53699 9.12199,-2.11368 13.57816,-3.8257 29.15036,-11.19928 16.78758,-7.94821 19.06561,-9.28597 26.25864,-15.40887 13.30567,-11.32617 26.21155,-27.19414 31.17255,-38.32716 l 1.84396,-4.13792 -6.58404,-2.84349 c -5.67953,-2.45286 -9.17219,-5.28594 -7.49399,-6.07874 0.27792,-0.13127 10.27562,-7.19031 22.21665,-15.68652 21.27624,-15.13832 25.81918,-18.06455 26.33843,-16.96541 1.10163,2.33192 5.36775,57.19354 4.51668,58.08351 -0.60188,0.62964 -1.86489,0.72843 -2.80651,0.21958 -0.94157,-0.50865 -3.79361,-1.82449 -6.33778,-2.92407 l -4.62576,-1.99928 -5.37204,7.69608 c -10.97915,15.72881 -27.0514,30.61365 -44.26759,40.99703 -10.3975,6.27093 -15.53187,8.68626 -26.94986,12.67797 z m 39.76728,-24.26365 c 12.21102,-9.68756 25.05858,-23.80653 32.93611,-36.19562 l 2.65151,-4.16997 6.72667,2.91941 6.72671,2.91942 -1.07312,-11.49305 c -3.78629,-40.55091 -3.99001,-41.91922 -6.00018,-40.30729 -1.0285,0.82466 -10.58305,7.67759 -21.23232,15.22864 -10.64928,7.55105 -19.44777,13.96763 -19.5522,14.25907 -0.10446,0.29133 2.80257,1.87665 6.46011,3.5226 3.65746,1.64603 6.80705,3.32537 6.99911,3.73189 0.74553,1.5781 -9.12174,17.40342 -16.80901,26.9586 -9.56283,11.88647 -20.22306,20.98267 -33.95882,28.9765 -25.02933,14.5664 -59.656503,22.75634 -92.574957,21.89566 -10.134632,-0.26491 -7.106101,0.8269 6.041965,2.17826 23.499439,2.41533 50.295112,0.50837 71.163112,-5.0644 14.40666,-3.84731 40.70149,-16.79666 51.49531,-25.35972 z"
       id="path1769" /><path
       style="fill:none;stroke:#000000;stroke-width:0.136577"
       d="m 38.699494,287.46252 c -4.14428,0.26039 -9.76041,-1.16204 -13.11089,1.86568 -2.19412,1.98256 -2.18579,4.49066 -2.18579,7.21482 v 15.56979 c 0,3.07054 -0.22799,5.96367 2.22421,8.24713 2.24075,2.08707 5.19649,1.7231 8.01913,1.7231 6.04977,0 12.42115,0.60179 18.43793,0 2.58702,-0.25924 4.83414,-2.19343 5.63395,-4.64365 0.70595,-2.16461 0.21294,-4.97869 0.23956,-7.23866 0.0463,-4.1371 0.13656,-8.28312 0.13656,-12.42843 0,-2.28867 0.25113,-4.75418 -0.91889,-6.82886 -2.54478,-4.51415 -8.26483,-3.48115 -12.60261,-3.48092 -1.93326,2.3e-4 -3.95298,-0.12036 -5.87282,0"
       id="path1913" /><path
       style="fill:none;stroke:#000000;stroke-width:0.136577"
       d="m 46.347834,301.05011 c 3.98121,0.70942 2.73156,6.7733 2.73156,9.69698 0,1.32348 0.21757,2.79464 -0.54161,3.96015 -0.88996,1.36503 -2.23798,1.16401 -3.69189,1.16401 h -7.10198 c -1.07513,0 -2.40012,0.40968 -3.41449,0 -0.96866,-0.39232 -1.72043,-1.23657 -1.9556,-2.25603 -0.22914,-0.99528 -0.0926,-2.12561 -0.0926,-3.14125 0,-2.70958 -1.09712,-8.12156 2.18521,-9.29147 1.92713,-0.68628 2.69615,0 4.73912,0 0.62726,0 3.97462,0.0463 4.45386,-0.42936 0.6342,-0.6342 0.49995,-2.94254 0.50458,-3.80067 0.0116,-2.49374 1.65401,-4.72848 4.09717,-5.39624 4.21418,-1.15151 7.10198,2.33912 7.10198,6.21572 0,0.67702 0.34835,2.82426 -0.21873,3.27399 -0.35992,0.28469 -1.88396,-0.17591 -1.88396,-0.17591 0,0 0.59254,-4.02403 -0.71521,-5.82884 -2.13671,-2.94856 -6.156,-0.95477 -6.195,2.32119 -0.0116,1.22882 -4.7e-4,2.45868 -4.7e-4,3.68761"
       id="path1915" /><path
       style="fill:none;stroke:#000000;stroke-width:0.291651;stroke-dasharray:none"
       d="m 40.067874,309.38518 c -1.28714,0.67239 -0.3657,1.82656 -0.081,2.72775 0.13772,0.43167 -0.0231,0.92931 0.15971,1.34547 0.14003,0.32173 0.51153,0.47797 0.84251,0.34488 0.63536,-0.25461 0.36108,-1.16609 0.48259,-1.67808 0.11805,-0.4988 0.5312,-0.84714 0.58444,-1.37823 0.10416,-1.0705 -1.01032,-1.87239 -1.98824,-1.36179 z"
       id="path1923" /><path
       style="fill:none;stroke:#000000;stroke-width:0.137149"
       d="m 34.422599,247.06607 c -3.529533,0.46342 -6.734158,-0.62245 -9.439484,2.39828 -1.890408,2.11081 -1.669598,4.63361 -1.669598,7.2688 v 15.22355 c 0,2.90976 -0.246278,5.7231 1.983796,7.96508 2.155777,2.16723 4.950329,1.90968 7.753796,1.90968 h 12.754875 c 2.130201,0 4.479431,0.33807 6.58316,0 2.427128,-0.38991 4.534838,-2.18672 5.320567,-4.52594 0.736218,-2.19192 0.439698,-4.71601 0.439698,-6.99461 v -12.48057 c 0,-2.55193 0.29117,-5.2877 -1.149861,-7.54309 -2.264467,-3.54443 -6.026468,-3.22118 -9.684922,-3.22118 -2.618864,0 -5.217294,-0.11389 -7.817503,0 -1.695165,0.0742 -3.37936,-0.22257 -5.074524,0"
       id="path1871" /><path
       style="fill:none;stroke:#000000;stroke-width:0.137149"
       d="m 34.97123,260.71051 c 0,-1.5679 -0.06803,-3.25648 0.732099,-4.66307 1.702846,-2.99337 5.917714,-3.81854 8.593908,-1.60068 1.198685,0.99324 1.884977,2.39271 2.034057,3.93221 0.0598,0.6169 -0.148665,1.452 0.10602,2.02638 0.431332,0.97252 1.997165,0.98884 2.439061,2.22525 0.352199,0.98569 0.22122,2.12704 0.22122,3.15442 0,2.57416 1.262956,9.9083 -1.340736,10.02966 -2.08202,0.0971 -5.018804,-0.0178 -7.024611,-0.0178 -1.965899,0 -5.303488,0.63926 -6.993308,-0.49511 -2.519702,-1.69132 -1.307441,-6.51425 -1.307441,-9.15561 0,-1.04164 -0.397322,-2.39454 0,-3.37845 0.437505,-1.0832 1.398647,-1.85371 2.539731,-2.05724"
       id="path1917" /><path
       style="fill:none;stroke:#000000;stroke-width:0.396545;stroke-dasharray:none"
       d="m 40.051762,269.05714 c -1.51742,0.65351 -0.315442,1.96343 -0.06542,2.89961 0.135504,0.50717 -0.115065,1.92639 0.876384,1.56034 0.732655,-0.27045 0.46192,-1.10885 0.595917,-1.69214 0.115065,-0.50019 0.52487,-0.85225 0.593578,-1.37739 0.146478,-1.11804 -1.010241,-1.81694 -2.000457,-1.39042"
       id="path1921" /><path
       style="fill:none;stroke:#000000;stroke-width:0.137149"
       d="m 40.045749,255.42545 c -1.789662,0.32477 -2.798394,1.9109 -2.874784,3.63925 -0.01768,0.40199 -0.145519,1.21967 0.214502,1.50481 0.359052,0.28444 2.452161,0.25667 2.880341,0.25667 1.426219,0 2.096665,0.24625 3.46267,-0.15928 0.808495,-0.24001 0.406923,-2.10538 0.261818,-2.69937 -0.433255,-1.77388 -2.148577,-2.86806 -3.944547,-2.54205"
       id="path1919" /><path
       style="fill:none;stroke:#000000;stroke-width:0.136577"
       d="m 208.22687,190.76673 c -4.14427,0.26039 -9.7604,-1.16204 -13.11088,1.86568 -2.19412,1.98256 -2.18579,4.49066 -2.18579,7.21482 v 15.56979 c 0,3.07054 -0.22799,5.96367 2.22421,8.24713 2.24075,2.08707 5.19649,1.7231 8.01913,1.7231 6.04977,0 12.42115,0.60179 18.43793,0 2.58702,-0.25924 4.83414,-2.19343 5.63395,-4.64365 0.70595,-2.16461 0.21294,-4.97869 0.23956,-7.23866 0.0463,-4.1371 0.13656,-8.28312 0.13656,-12.42843 0,-2.28867 0.25113,-4.75418 -0.91889,-6.82886 -2.54478,-4.51415 -8.26483,-3.48115 -12.60261,-3.48092 -1.93326,2.3e-4 -3.95298,-0.12036 -5.87282,0"
       id="path944" /><path
       style="fill:none;stroke:#000000;stroke-width:0.136577"
       d="m 215.87521,204.35432 c 3.98121,0.70942 2.73156,6.7733 2.73156,9.69698 0,1.32348 0.21757,2.79464 -0.54161,3.96015 -0.88996,1.36503 -2.23798,1.16401 -3.69189,1.16401 h -7.10198 c -1.07513,0 -2.40012,0.40968 -3.41449,0 -0.96866,-0.39232 -1.72043,-1.23657 -1.9556,-2.25603 -0.22914,-0.99528 -0.0926,-2.12561 -0.0926,-3.14125 0,-2.70958 -1.09712,-8.12156 2.18521,-9.29147 1.92713,-0.68628 2.69615,0 4.73912,0 0.62726,0 3.97462,0.0463 4.45386,-0.42936 0.6342,-0.6342 0.49995,-2.94254 0.50458,-3.80067 0.0116,-2.49374 1.65401,-4.72848 4.09717,-5.39624 4.21418,-1.15151 7.10198,2.33912 7.10198,6.21572 0,0.67702 0.34835,2.82426 -0.21873,3.27399 -0.35992,0.28469 -1.88396,-0.17591 -1.88396,-0.17591 0,0 0.59254,-4.02403 -0.71521,-5.82884 -2.13671,-2.94856 -6.156,-0.95477 -6.195,2.32119 -0.0116,1.22882 -4.7e-4,2.45868 -4.7e-4,3.68761"
       id="path946" /><path
       style="fill:none;stroke:#000000;stroke-width:0.291651;stroke-dasharray:none"
       d="m 209.59525,212.68939 c -1.28714,0.67239 -0.3657,1.82656 -0.081,2.72775 0.13772,0.43167 -0.0231,0.92931 0.15971,1.34547 0.14004,0.32173 0.51153,0.47797 0.84251,0.34488 0.63536,-0.25461 0.36109,-1.16609 0.4826,-1.67808 0.11804,-0.4988 0.5312,-0.84714 0.58443,-1.37823 0.10416,-1.0705 -1.01031,-1.87239 -1.98824,-1.36179 z"
       id="path948" /><path
       style="fill:none;stroke:#000000;stroke-width:0.137149"
       d="m 203.94999,150.37028 c -3.52953,0.46342 -6.73415,-0.62245 -9.43948,2.39828 -1.89041,2.11081 -1.6696,4.63361 -1.6696,7.2688 v 15.22355 c 0,2.90976 -0.24628,5.7231 1.9838,7.96508 2.15577,2.16723 4.95033,1.90968 7.75379,1.90968 h 12.75488 c 2.1302,0 4.47943,0.33807 6.58316,0 2.42713,-0.38991 4.53484,-2.18672 5.32056,-4.52594 0.73622,-2.19192 0.4397,-4.71601 0.4397,-6.99461 v -12.48057 c 0,-2.55193 0.29117,-5.2877 -1.14986,-7.54309 -2.26447,-3.54443 -6.02647,-3.22118 -9.68492,-3.22118 -2.61886,0 -5.21729,-0.11389 -7.8175,0 -1.69517,0.0742 -3.37936,-0.22257 -5.07453,0"
       id="path954" /><path
       style="fill:none;stroke:#000000;stroke-width:0.137149"
       d="m 204.49862,164.01472 c 0,-1.5679 -0.068,-3.25648 0.7321,-4.66307 1.70285,-2.99337 5.91772,-3.81854 8.59391,-1.60068 1.19869,0.99324 1.88498,2.39271 2.03406,3.93221 0.0598,0.6169 -0.14867,1.452 0.10602,2.02638 0.43133,0.97252 1.99716,0.98884 2.43906,2.22525 0.3522,0.98569 0.22122,2.12704 0.22122,3.15442 0,2.57416 1.26296,9.9083 -1.34074,10.02966 -2.08202,0.0971 -5.0188,-0.0178 -7.02461,-0.0178 -1.9659,0 -5.30349,0.63926 -6.99331,-0.49511 -2.5197,-1.69132 -1.30744,-6.51425 -1.30744,-9.15561 0,-1.04164 -0.39732,-2.39454 0,-3.37845 0.43751,-1.0832 1.39865,-1.85371 2.53973,-2.05724"
       id="path956" /><path
       style="fill:none;stroke:#000000;stroke-width:0.396545;stroke-dasharray:none"
       d="m 209.57916,172.36135 c -1.51742,0.65351 -0.31545,1.96343 -0.0654,2.89961 0.1355,0.50717 -0.11507,1.92639 0.87638,1.56034 0.73266,-0.27045 0.46192,-1.10885 0.59592,-1.69214 0.11506,-0.50019 0.52487,-0.85225 0.59357,-1.37739 0.14648,-1.11804 -1.01024,-1.81695 -2.00045,-1.39042"
       id="path958" /><path
       style="fill:none;stroke:#000000;stroke-width:0.137149"
       d="m 209.57314,158.72966 c -1.78966,0.32477 -2.79839,1.9109 -2.87478,3.63925 -0.0177,0.40199 -0.14552,1.21967 0.2145,1.50481 0.35905,0.28444 2.45216,0.25667 2.88034,0.25667 1.42622,0 2.09667,0.24625 3.46267,-0.15928 0.8085,-0.24001 0.40692,-2.10538 0.26182,-2.69937 -0.43326,-1.77389 -2.14858,-2.86806 -3.94455,-2.54206"
       id="path960" /><path
       style="fill:none;stroke:#000000;stroke-width:0.136577"
       d="m 210.06667,101.70861 c -4.14428,0.26039 -9.76041,-1.16204 -13.11089,1.86568 -2.19412,1.98256 -2.18579,4.49066 -2.18579,7.21482 v 15.56979 c 0,3.07054 -0.22799,5.96367 2.22421,8.24713 2.24075,2.08707 5.19649,1.7231 8.01913,1.7231 6.04977,0 12.42115,0.60179 18.43793,0 2.58702,-0.25924 4.83414,-2.19343 5.63395,-4.64365 0.70595,-2.16461 0.21294,-4.97869 0.23956,-7.23866 0.0463,-4.1371 0.13656,-8.28312 0.13656,-12.42843 0,-2.28867 0.25113,-4.75418 -0.91889,-6.82886 -2.54478,-4.51415 -8.26483,-3.48115 -12.60261,-3.48092 -1.93326,2.3e-4 -3.95298,-0.12036 -5.87282,0"
       id="path964" /><path
       style="fill:none;stroke:#000000;stroke-width:0.136577"
       d="m 217.71501,115.2962 c 3.98121,0.70942 2.73156,6.7733 2.73156,9.69698 0,1.32348 0.21757,2.79464 -0.54161,3.96015 -0.88996,1.36503 -2.23798,1.16401 -3.69189,1.16401 h -7.10198 c -1.07513,0 -2.40012,0.40968 -3.41449,0 -0.96866,-0.39232 -1.72043,-1.23657 -1.9556,-2.25603 -0.22914,-0.99528 -0.0926,-2.12561 -0.0926,-3.14125 0,-2.70958 -1.09712,-8.12156 2.18521,-9.29147 1.92713,-0.68628 2.69615,0 4.73912,0 0.62726,0 3.97462,0.0463 4.45386,-0.42936 0.6342,-0.6342 0.49995,-2.94254 0.50458,-3.80067 0.0116,-2.49374 1.65401,-4.72848 4.09717,-5.39624 4.21418,-1.15151 7.10198,2.33912 7.10198,6.21572 0,0.67702 0.34835,2.82426 -0.21873,3.27399 -0.35992,0.28469 -1.88396,-0.17591 -1.88396,-0.17591 0,0 0.59254,-4.02403 -0.71521,-5.82884 -2.13671,-2.94856 -6.156,-0.95477 -6.195,2.32119 -0.0116,1.22882 -4.7e-4,2.45868 -4.7e-4,3.68761"
       id="path966" /><path
       style="fill:none;stroke:#000000;stroke-width:0.291651;stroke-dasharray:none"
       d="m 211.43505,123.63127 c -1.28714,0.67239 -0.3657,1.82656 -0.081,2.72775 0.13772,0.43167 -0.0231,0.92931 0.15971,1.34547 0.14003,0.32173 0.51153,0.47797 0.84251,0.34488 0.63536,-0.25461 0.36108,-1.16609 0.48259,-1.67808 0.11805,-0.4988 0.5312,-0.84714 0.58444,-1.37823 0.10416,-1.0705 -1.01032,-1.87239 -1.98824,-1.36179 z"
       id="path968" /><path
       style="fill:none;stroke:#000000;stroke-width:0.137149"
       d="m 205.78978,61.312158 c -3.52953,0.46342 -6.73415,-0.62245 -9.43948,2.39828 -1.89041,2.11081 -1.6696,4.63361 -1.6696,7.2688 v 15.22355 c 0,2.90976 -0.24628,5.7231 1.9838,7.96508 2.15577,2.16723 4.95033,1.90968 7.75379,1.90968 h 12.75488 c 2.1302,0 4.47943,0.33807 6.58316,0 2.42713,-0.38991 4.53484,-2.18672 5.32056,-4.52594 0.73622,-2.19192 0.4397,-4.71601 0.4397,-6.99461 v -12.48057 c 0,-2.55193 0.29117,-5.2877 -1.14986,-7.54309 -2.26447,-3.54443 -6.02647,-3.22118 -9.68492,-3.22118 -2.61886,0 -5.21729,-0.11389 -7.8175,0 -1.69517,0.0742 -3.37936,-0.22257 -5.07453,0"
       id="path974" /><path
       style="fill:none;stroke:#000000;stroke-width:0.137149"
       d="m 206.33841,74.956598 c 0,-1.5679 -0.068,-3.25648 0.7321,-4.66307 1.70285,-2.99337 5.91772,-3.81854 8.59391,-1.60068 1.19869,0.99324 1.88498,2.39271 2.03406,3.93221 0.0598,0.6169 -0.14867,1.452 0.10602,2.02638 0.43133,0.97252 1.99716,0.98884 2.43906,2.22525 0.3522,0.98569 0.22122,2.12704 0.22122,3.15442 0,2.57416 1.26296,9.9083 -1.34074,10.02966 -2.08202,0.0971 -5.0188,-0.0178 -7.02461,-0.0178 -1.9659,0 -5.30349,0.63926 -6.99331,-0.49511 -2.5197,-1.69132 -1.30744,-6.51425 -1.30744,-9.15561 0,-1.04164 -0.39732,-2.39454 0,-3.37845 0.43751,-1.0832 1.39865,-1.85371 2.53973,-2.05724"
       id="path976" /><path
       style="fill:none;stroke:#000000;stroke-width:0.396545;stroke-dasharray:none"
       d="m 211.41895,83.303228 c -1.51742,0.65351 -0.31545,1.96343 -0.0654,2.89961 0.1355,0.50717 -0.11507,1.92639 0.87638,1.56034 0.73265,-0.27045 0.46192,-1.10885 0.59592,-1.69214 0.11506,-0.50019 0.52487,-0.85225 0.59357,-1.37739 0.14648,-1.11804 -1.01024,-1.81695 -2.00045,-1.39042"
       id="path978" /><path
       style="fill:none;stroke:#000000;stroke-width:0.137149"
       d="m 211.41293,69.671538 c -1.78966,0.32477 -2.79839,1.9109 -2.87478,3.63925 -0.0177,0.40199 -0.14552,1.21967 0.2145,1.50481 0.35905,0.28444 2.45216,0.25667 2.88034,0.25667 1.42622,0 2.09667,0.24625 3.46267,-0.15928 0.8085,-0.24001 0.40692,-2.10538 0.26182,-2.69937 -0.43326,-1.77389 -2.14858,-2.86806 -3.94455,-2.54206"
       id="path980" /><path
       style="fill:none;stroke:#000000;stroke-width:0.137149"
       d="m 206.12457,313.30819 c -3.52953,0.46343 -6.73415,-0.62244 -9.43948,2.39828 -1.89041,2.11081 -1.6696,4.63362 -1.6696,7.2688 v 15.22355 c 0,2.90976 -0.24628,5.7231 1.9838,7.96508 2.15577,2.16723 4.95033,1.90969 7.75379,1.90969 h 12.75488 c 2.1302,0 4.47943,0.33806 6.58316,0 2.42713,-0.38991 4.53484,-2.18673 5.32056,-4.52594 0.73622,-2.19193 0.4397,-4.71602 0.4397,-6.99462 v -12.48057 c 0,-2.55192 0.29117,-5.28769 -1.14986,-7.54309 -2.26447,-3.54442 -6.02647,-3.22118 -9.68492,-3.22118 -2.61886,0 -5.21729,-0.11388 -7.8175,0 -1.69517,0.0742 -3.37936,-0.22256 -5.07453,0"
       id="path1076" /><path
       style="fill:none;stroke:#000000;stroke-width:0.137149"
       d="m 206.6732,326.95264 c 0,-1.5679 -0.068,-3.25648 0.7321,-4.66307 1.70285,-2.99338 5.91772,-3.81855 8.59391,-1.60069 1.19869,0.99324 1.88498,2.39271 2.03406,3.93221 0.0598,0.6169 -0.14867,1.452 0.10602,2.02638 0.43133,0.97252 1.99716,0.98884 2.43906,2.22525 0.3522,0.98569 0.22122,2.12704 0.22122,3.15442 0,2.57416 1.26296,9.9083 -1.34074,10.02966 -2.08202,0.0971 -5.0188,-0.0178 -7.02461,-0.0178 -1.9659,0 -5.30349,0.63926 -6.99331,-0.49511 -2.5197,-1.69132 -1.30744,-6.51425 -1.30744,-9.15561 0,-1.04164 -0.39732,-2.39454 0,-3.37845 0.43751,-1.0832 1.39865,-1.85371 2.53973,-2.05724"
       id="path1078" /><path
       style="fill:none;stroke:#000000;stroke-width:0.396545;stroke-dasharray:none"
       d="m 211.75374,335.29927 c -1.51742,0.6535 -0.31545,1.96342 -0.0654,2.89961 0.1355,0.50716 -0.11507,1.92638 0.87638,1.56034 0.73265,-0.27046 0.46192,-1.10886 0.59592,-1.69214 0.11506,-0.5002 0.52487,-0.85226 0.59357,-1.37739 0.14648,-1.11804 -1.01024,-1.81695 -2.00045,-1.39042"
       id="path1080" /><path
       style="fill:none;stroke:#000000;stroke-width:0.137149"
       d="m 211.74772,321.66757 c -1.78966,0.32477 -2.79839,1.9109 -2.87478,3.63925 -0.0177,0.40199 -0.14552,1.21967 0.2145,1.50481 0.35905,0.28444 2.45216,0.25667 2.88034,0.25667 1.42622,0 2.09667,0.24626 3.46267,-0.15927 0.8085,-0.24002 0.40692,-2.10539 0.26182,-2.69937 -0.43326,-1.77389 -2.14858,-2.86806 -3.94455,-2.54206"
       id="path1082" /></g></svg>
