  0
SECTION
  2
HEADER
  9
$ACADVER
  1
AC1014
  9
$HANDSEED
  5
FFFF
  9
$MEASUREMENT
 70
     1
  0
ENDSEC
  0
SECTION
  2
TABLES
  0
TABLE
  2
VPORT
  5
8
330
0
100
AcDbSymbolTable
 70
     4
  0
VPORT
  5
2E
330
8
100
AcDbSymbolTableRecord
100
AcDbViewportTableRecord
  2
*ACTIVE
 70
     0
 10
0.0
 20
0.0
 11
1.0
 21
1.0
 12
210.0
 22
148.5
 13
0.0
 23
0.0
 14
10.0
 24
10.0
 15
10.0
 25
10.0
 16
0.0
 26
0.0
 36
1.0
 17
0.0
 27
0.0
 37
0.0
 40
341.0
 41
1.24
 42
50.0
 43
0.0
 44
0.0
 50
0.0
 51
0.0
 71
     0
 72
   100
 73
     1
 74
     3
 75
     0
 76
     0
 77
     0
 78
     0
  0
ENDTAB
  0
TABLE
  2
LTYPE
  5
5
330
0
100
AcDbSymbolTable
 70
     1
  0
LTYPE
  5
14
330
5
100
AcDbSymbolTableRecord
100
AcDbLinetypeTableRecord
  2
BYBLOCK
 70
     0
  3

 72
    65
 73
     0
 40
0.0
  0
LTYPE
  5
15
330
5
100
AcDbSymbolTableRecord
100
AcDbLinetypeTableRecord
  2
BYLAYER
 70
     0
  3

 72
    65
 73
     0
 40
0.0
  0
LTYPE
  5
16
330
5
100
AcDbSymbolTableRecord
100
AcDbLinetypeTableRecord
  2
CONTINUOUS
 70
     0
  3
Solid line
 72
    65
 73
     0
 40
0.0
  0
ENDTAB
  0
TABLE
  2
LAYER
  5
2
100
AcDbSymbolTable
 70
2
  0
LAYER
  5
50
100
AcDbSymbolTableRecord
100
AcDbLayerTableRecord
  2
0
 70
0
  6
CONTINUOUS
  0
LAYER
  5
51
100
AcDbSymbolTableRecord
100
AcDbLayerTableRecord
  2
Layer_1
 70
0
  6
CONTINUOUS
  0
ENDTAB
  0
TABLE
  2
STYLE
  5
3
330
0
100
AcDbSymbolTable
 70
     1
  0
STYLE
  5
11
330
3
100
AcDbSymbolTableRecord
100
AcDbTextStyleTableRecord
  2
STANDARD
 70
     0
 40
0.0
 41
1.0
 50
0.0
 71
     0
 42
2.5
  3
txt
  4

  0
ENDTAB
  0
TABLE
  2
VIEW
  5
6
330
0
100
AcDbSymbolTable
 70
     0
  0
ENDTAB
  0
TABLE
  2
UCS
  5
7
330
0
100
AcDbSymbolTable
 70
     0
  0
ENDTAB
  0
TABLE
  2
APPID
  5
9
330
0
100
AcDbSymbolTable
 70
     2
  0
APPID
  5
12
330
9
100
AcDbSymbolTableRecord
100
AcDbRegAppTableRecord
  2
ACAD
 70
     0
  0
ENDTAB
  0
TABLE
  2
DIMSTYLE
  5
A
330
0
100
AcDbSymbolTable
 70
     1
  0
DIMSTYLE
105
27
330
A
100
AcDbSymbolTableRecord
100
AcDbDimStyleTableRecord
  2
ISO-25
 70
     0
  3

  4

  5

  6

  7

 40
1.0
 41
2.5
 42
0.625
 43
3.75
 44
1.25
 45
0.0
 46
0.0
 47
0.0
 48
0.0
140
2.5
141
2.5
142
0.0
143
0.03937007874016
144
1.0
145
0.0
146
1.0
147
0.625
 71
     0
 72
     0
 73
     0
 74
     0
 75
     0
 76
     0
 77
     1
 78
     8
170
     0
171
     3
172
     1
173
     0
174
     0
175
     0
176
     0
177
     0
178
     0
270
     2
271
     2
272
     2
273
     2
274
     3
340
11
275
     0
280
     0
281
     0
282
     0
283
     0
284
     8
285
     0
286
     0
287
     3
288
     0
  0
ENDTAB
  0
TABLE
  2
BLOCK_RECORD
  5
1
330
0
100
AcDbSymbolTable
 70
     1
  0
BLOCK_RECORD
  5
1F
330
1
100
AcDbSymbolTableRecord
100
AcDbBlockTableRecord
  2
*MODEL_SPACE
  0
BLOCK_RECORD
  5
1B
330
1
100
AcDbSymbolTableRecord
100
AcDbBlockTableRecord
  2
*PAPER_SPACE
  0
ENDTAB
  0
ENDSEC
  0
SECTION
  2
BLOCKS
  0
BLOCK
  5
20
330
1F
100
AcDbEntity
  8
0
100
AcDbBlockBegin
  2
*MODEL_SPACE
 70
     0
 10
0.0
 20
0.0
 30
0.0
  3
*MODEL_SPACE
  1

  0
ENDBLK
  5
21
330
1F
100
AcDbEntity
  8
0
100
AcDbBlockEnd
  0
BLOCK
  5
1C
330
1B
100
AcDbEntity
 67
     1
  8
0
100
AcDbBlockBegin
  2
*PAPER_SPACE
  1

  0
ENDBLK
  5
1D
330
1B
100
AcDbEntity
 67
     1
  8
0
100
AcDbBlockEnd
  0
ENDSEC
  0
SECTION
  2
ENTITIES
  0
SPLINE
  5
100
100
AcDbEntity
  8
Layer_1
 62
5
100
AcDbSpline
 70
8
 71
3
 72
8
 73
4
 74
0
 40
0
 40
0
 40
0
 40
0
 40
1
 40
1
 40
1
 40
1
 10
22.986594
 20
253.582510
 30
0.0
 10
16.088877
 20
254.816465
 30
0.0
 10
10.956079
 20
260.415793
 30
0.0
 10
10.260047
 20
267.465803
 30
0.0
  0
SPLINE
  5
101
100
AcDbEntity
  8
Layer_1
 62
5
100
AcDbSpline
 70
8
 71
3
 72
8
 73
4
 74
0
 40
0
 40
0
 40
0
 40
0
 40
1
 40
1
 40
1
 40
1
 10
10.260047
 20
267.465803
 30
0.0
 10
10.059329
 20
269.498850
 30
0.0
 10
10.312048
 20
271.650854
 30
0.0
 10
10.993297
 20
273.709718
 30
0.0
  0
SPLINE
  5
102
100
AcDbEntity
  8
Layer_1
 62
5
100
AcDbSpline
 70
8
 71
3
 72
8
 73
4
 74
0
 40
0
 40
0
 40
0
 40
0
 40
1
 40
1
 40
1
 40
1
 10
10.993297
 20
273.709718
 30
0.0
 10
13.452507
 20
281.141919
 30
0.0
 10
20.992169
 20
285.565626
 30
0.0
 10
28.665133
 20
284.078221
 30
0.0
  0
SPLINE
  5
103
100
AcDbEntity
  8
Layer_1
 62
5
100
AcDbSpline
 70
8
 71
3
 72
8
 73
4
 74
0
 40
0
 40
0
 40
0
 40
0
 40
1
 40
1
 40
1
 40
1
 10
28.665133
 20
284.078221
 30
0.0
 10
35.045709
 20
282.841346
 30
0.0
 10
40.017200
 20
277.688569
 30
0.0
 10
41.064869
 20
271.226335
 30
0.0
  0
SPLINE
  5
104
100
AcDbEntity
  8
Layer_1
 62
5
100
AcDbSpline
 70
8
 71
3
 72
8
 73
4
 74
0
 40
0
 40
0
 40
0
 40
0
 40
1
 40
1
 40
1
 40
1
 10
41.064869
 20
271.226335
 30
0.0
 10
41.258967
 20
270.029100
 30
0.0
 10
41.231160
 20
267.476036
 30
0.0
 10
41.010222
 20
266.208898
 30
0.0
  0
SPLINE
  5
105
100
AcDbEntity
  8
Layer_1
 62
5
100
AcDbSpline
 70
8
 71
3
 72
8
 73
4
 74
0
 40
0
 40
0
 40
0
 40
0
 40
1
 40
1
 40
1
 40
1
 10
41.010222
 20
266.208898
 30
0.0
 10
39.885823
 20
259.760148
 30
0.0
 10
34.811499
 20
254.680326
 30
0.0
 10
28.396588
 20
253.581601
 30
0.0
  0
SPLINE
  5
106
100
AcDbEntity
  8
Layer_1
 62
5
100
AcDbSpline
 70
8
 71
3
 72
8
 73
4
 74
0
 40
0
 40
0
 40
0
 40
0
 40
1
 40
1
 40
1
 40
1
 10
28.396588
 20
253.581601
 30
0.0
 10
26.851193
 20
253.316911
 30
0.0
 10
24.469043
 20
253.317311
 30
0.0
 10
22.986594
 20
253.582448
 30
0.0
  0
LINE
  5
107
100
AcDbEntity
  8
Layer_1
 62
5
100
AcDbLine
 10
22.986594
 20
253.582448
 30
0.0
 11
22.986594
 21
253.582510
 31
0.0
  0
SPLINE
  5
108
100
AcDbEntity
  8
Layer_1
 62
5
100
AcDbSpline
 70
8
 71
3
 72
8
 73
4
 74
0
 40
0
 40
0
 40
0
 40
0
 40
1
 40
1
 40
1
 40
1
 10
28.204189
 20
255.956702
 30
0.0
 10
29.930623
 20
256.284071
 30
0.0
 10
31.992677
 20
257.193160
 30
0.0
 10
33.491627
 20
258.287753
 30
0.0
  0
LINE
  5
109
100
AcDbEntity
  8
Layer_1
 62
5
100
AcDbLine
 10
33.491627
 20
258.287753
 30
0.0
 11
34.298486
 21
258.876954
 31
0.0
  0
LINE
  5
10a
100
AcDbEntity
  8
Layer_1
 62
5
100
AcDbLine
 10
34.298486
 20
258.876954
 30
0.0
 11
30.038198
 21
258.904301
 31
0.0
  0
SPLINE
  5
10b
100
AcDbEntity
  8
Layer_1
 62
5
100
AcDbSpline
 70
8
 71
3
 72
8
 73
4
 74
0
 40
0
 40
0
 40
0
 40
0
 40
1
 40
1
 40
1
 40
1
 10
30.038198
 20
258.904301
 30
0.0
 10
27.695037
 20
258.919344
 30
0.0
 10
23.830868
 20
258.919344
 30
0.0
 10
21.451153
 20
258.904301
 30
0.0
  0
LINE
  5
10c
100
AcDbEntity
  8
Layer_1
 62
5
100
AcDbLine
 10
21.451153
 20
258.904301
 30
0.0
 11
17.124401
 21
258.876954
 31
0.0
  0
LINE
  5
10d
100
AcDbEntity
  8
Layer_1
 62
5
100
AcDbLine
 10
17.124401
 20
258.876954
 30
0.0
 11
17.908285
 21
258.306027
 31
0.0
  0
SPLINE
  5
10e
100
AcDbEntity
  8
Layer_1
 62
5
100
AcDbSpline
 70
8
 71
3
 72
8
 73
4
 74
0
 40
0
 40
0
 40
0
 40
0
 40
1
 40
1
 40
1
 40
1
 10
17.908285
 20
258.306027
 30
0.0
 10
20.910861
 20
256.119163
 30
0.0
 10
24.609818
 20
255.275132
 30
0.0
 10
28.204189
 20
255.956702
 30
0.0
  0
LINE
  5
10f
100
AcDbEntity
  8
Layer_1
 62
5
100
AcDbLine
 10
28.204189
 20
255.956702
 30
0.0
 11
28.204189
 21
255.956702
 31
0.0
  0
SPLINE
  5
110
100
AcDbEntity
  8
Layer_1
 62
5
100
AcDbSpline
 70
8
 71
3
 72
8
 73
4
 74
0
 40
0
 40
0
 40
0
 40
0
 40
1
 40
1
 40
1
 40
1
 10
20.098623
 20
264.320625
 30
0.0
 10
22.178970
 20
266.709518
 30
0.0
 10
23.903074
 20
268.724395
 30
0.0
 10
23.929967
 20
268.798129
 30
0.0
  0
SPLINE
  5
111
100
AcDbEntity
  8
Layer_1
 62
5
100
AcDbSpline
 70
8
 71
3
 72
8
 73
4
 74
0
 40
0
 40
0
 40
0
 40
0
 40
1
 40
1
 40
1
 40
1
 10
23.929967
 20
268.798129
 30
0.0
 10
23.956863
 20
268.871865
 30
0.0
 10
22.868047
 20
270.204809
 30
0.0
 10
21.510383
 20
271.760229
 30
0.0
  0
SPLINE
  5
112
100
AcDbEntity
  8
Layer_1
 62
5
100
AcDbSpline
 70
8
 71
3
 72
8
 73
4
 74
0
 40
0
 40
0
 40
0
 40
0
 40
1
 40
1
 40
1
 40
1
 10
21.510383
 20
271.760229
 30
0.0
 10
20.152722
 20
273.315649
 30
0.0
 10
18.398186
 20
275.333766
 30
0.0
 10
17.611418
 20
276.244932
 30
0.0
  0
LINE
  5
113
100
AcDbEntity
  8
Layer_1
 62
5
100
AcDbLine
 10
17.611418
 20
276.244932
 30
0.0
 11
16.180932
 21
277.901602
 31
0.0
  0
LINE
  5
114
100
AcDbEntity
  8
Layer_1
 62
5
100
AcDbLine
 10
16.180932
 20
277.901602
 30
0.0
 11
15.788158
 21
277.449468
 31
0.0
  0
SPLINE
  5
115
100
AcDbEntity
  8
Layer_1
 62
5
100
AcDbSpline
 70
8
 71
3
 72
8
 73
4
 74
0
 40
0
 40
0
 40
0
 40
0
 40
1
 40
1
 40
1
 40
1
 10
15.788158
 20
277.449468
 30
0.0
 10
15.255559
 20
276.836374
 30
0.0
 10
14.338567
 20
275.459231
 30
0.0
 10
13.952722
 20
274.693006
 30
0.0
  0
SPLINE
  5
116
100
AcDbEntity
  8
Layer_1
 62
5
100
AcDbSpline
 70
8
 71
3
 72
8
 73
4
 74
0
 40
0
 40
0
 40
0
 40
0
 40
1
 40
1
 40
1
 40
1
 10
13.952722
 20
274.693006
 30
0.0
 10
13.778665
 20
274.347357
 30
0.0
 10
13.468468
 20
273.569649
 30
0.0
 10
13.263395
 20
272.964762
 30
0.0
  0
SPLINE
  5
117
100
AcDbEntity
  8
Layer_1
 62
5
100
AcDbSpline
 70
8
 71
3
 72
8
 73
4
 74
0
 40
0
 40
0
 40
0
 40
0
 40
1
 40
1
 40
1
 40
1
 10
13.263395
 20
272.964762
 30
0.0
 10
12.192707
 20
269.806647
 30
0.0
 10
12.394280
 20
266.374102
 30
0.0
 10
13.828247
 20
263.346056
 30
0.0
  0
SPLINE
  5
118
100
AcDbEntity
  8
Layer_1
 62
5
100
AcDbSpline
 70
8
 71
3
 72
8
 73
4
 74
0
 40
0
 40
0
 40
0
 40
0
 40
1
 40
1
 40
1
 40
1
 10
13.828247
 20
263.346056
 30
0.0
 10
14.573434
 20
261.772472
 30
0.0
 10
15.979688
 20
259.769219
 30
0.0
 10
16.230372
 20
259.924151
 30
0.0
  0
SPLINE
  5
119
100
AcDbEntity
  8
Layer_1
 62
5
100
AcDbSpline
 70
8
 71
3
 72
8
 73
4
 74
0
 40
0
 40
0
 40
0
 40
0
 40
1
 40
1
 40
1
 40
1
 10
16.230372
 20
259.924151
 30
0.0
 10
16.277565
 20
259.953318
 30
0.0
 10
18.018278
 20
261.931733
 30
0.0
 10
20.098623
 20
264.320625
 30
0.0
  0
LINE
  5
11a
100
AcDbEntity
  8
Layer_1
 62
5
100
AcDbLine
 10
20.098623
 20
264.320625
 30
0.0
 11
20.098623
 21
264.320625
 31
0.0
  0
SPLINE
  5
11b
100
AcDbEntity
  8
Layer_1
 62
5
100
AcDbSpline
 70
8
 71
3
 72
8
 73
4
 74
0
 40
0
 40
0
 40
0
 40
0
 40
1
 40
1
 40
1
 40
1
 10
36.383719
 20
261.228892
 30
0.0
 10
37.464625
 20
262.730137
 30
0.0
 10
38.191364
 20
264.406666
 30
0.0
 10
38.610551
 20
266.366011
 30
0.0
  0
SPLINE
  5
11c
100
AcDbEntity
  8
Layer_1
 62
5
100
AcDbSpline
 70
8
 71
3
 72
8
 73
4
 74
0
 40
0
 40
0
 40
0
 40
0
 40
1
 40
1
 40
1
 40
1
 10
38.610551
 20
266.366011
 30
0.0
 10
38.870196
 20
267.579623
 30
0.0
 10
38.868536
 20
270.152115
 30
0.0
 10
38.607334
 20
271.369348
 30
0.0
  0
SPLINE
  5
11d
100
AcDbEntity
  8
Layer_1
 62
5
100
AcDbSpline
 70
8
 71
3
 72
8
 73
4
 74
0
 40
0
 40
0
 40
0
 40
0
 40
1
 40
1
 40
1
 40
1
 10
38.607334
 20
271.369348
 30
0.0
 10
38.114026
 20
273.668141
 30
0.0
 10
37.074960
 20
275.778052
 30
0.0
 10
35.586893
 20
277.502604
 30
0.0
  0
LINE
  5
11e
100
AcDbEntity
  8
Layer_1
 62
5
100
AcDbLine
 10
35.586893
 20
277.502604
 30
0.0
 11
35.241289
 21
277.903137
 31
0.0
  0
LINE
  5
11f
100
AcDbEntity
  8
Layer_1
 62
5
100
AcDbLine
 10
35.241289
 20
277.903137
 30
0.0
 11
34.499211
 21
277.031265
 31
0.0
  0
SPLINE
  5
120
100
AcDbEntity
  8
Layer_1
 62
5
100
AcDbSpline
 70
8
 71
3
 72
8
 73
4
 74
0
 40
0
 40
0
 40
0
 40
0
 40
1
 40
1
 40
1
 40
1
 10
34.499211
 20
277.031265
 30
0.0
 10
33.765168
 20
276.168836
 30
0.0
 10
28.024131
 20
269.567227
 30
0.0
 10
27.618295
 20
269.118908
 30
0.0
  0
SPLINE
  5
121
100
AcDbEntity
  8
Layer_1
 62
5
100
AcDbSpline
 70
8
 71
3
 72
8
 73
4
 74
0
 40
0
 40
0
 40
0
 40
0
 40
1
 40
1
 40
1
 40
1
 10
27.618295
 20
269.118908
 30
0.0
 10
27.356458
 20
268.829667
 30
0.0
 10
27.197432
 20
269.054610
 30
0.0
 10
29.650704
 20
266.244088
 30
0.0
  0
SPLINE
  5
122
100
AcDbEntity
  8
Layer_1
 62
5
100
AcDbSpline
 70
8
 71
3
 72
8
 73
4
 74
0
 40
0
 40
0
 40
0
 40
0
 40
1
 40
1
 40
1
 40
1
 10
29.650704
 20
266.244088
 30
0.0
 10
30.723592
 20
265.014963
 30
0.0
 10
32.413826
 20
263.074580
 30
0.0
 10
33.406780
 20
261.932125
 30
0.0
  0
LINE
  5
123
100
AcDbEntity
  8
Layer_1
 62
5
100
AcDbLine
 10
33.406780
 20
261.932125
 30
0.0
 11
35.212150
 21
259.854936
 31
0.0
  0
LINE
  5
124
100
AcDbEntity
  8
Layer_1
 62
5
100
AcDbLine
 10
35.212150
 20
259.854936
 30
0.0
 11
35.506039
 21
260.136500
 31
0.0
  0
SPLINE
  5
125
100
AcDbEntity
  8
Layer_1
 62
5
100
AcDbSpline
 70
8
 71
3
 72
8
 73
4
 74
0
 40
0
 40
0
 40
0
 40
0
 40
1
 40
1
 40
1
 40
1
 10
35.506039
 20
260.136500
 30
0.0
 10
35.667679
 20
260.291361
 30
0.0
 10
36.062641
 20
260.782936
 30
0.0
 10
36.383730
 20
261.228892
 30
0.0
  0
LINE
  5
126
100
AcDbEntity
  8
Layer_1
 62
5
100
AcDbLine
 10
36.383730
 20
261.228892
 30
0.0
 11
36.383719
 21
261.228892
 31
0.0
  0
SPLINE
  5
127
100
AcDbEntity
  8
Layer_1
 62
5
100
AcDbSpline
 70
8
 71
3
 72
8
 73
4
 74
0
 40
0
 40
0
 40
0
 40
0
 40
1
 40
1
 40
1
 40
1
 10
28.460370
 20
263.764450
 30
0.0
 10
27.293254
 20
265.098780
 30
0.0
 10
26.195359
 20
266.354045
 30
0.0
 10
26.020607
 20
266.553923
 30
0.0
  0
LINE
  5
128
100
AcDbEntity
  8
Layer_1
 62
5
100
AcDbLine
 10
26.020607
 20
266.553923
 30
0.0
 11
25.702873
 21
266.917338
 31
0.0
  0
LINE
  5
129
100
AcDbEntity
  8
Layer_1
 62
5
100
AcDbLine
 10
25.702873
 20
266.917338
 30
0.0
 11
23.395503
 21
264.258793
 31
0.0
  0
SPLINE
  5
12a
100
AcDbEntity
  8
Layer_1
 62
5
100
AcDbSpline
 70
8
 71
3
 72
8
 73
4
 74
0
 40
0
 40
0
 40
0
 40
0
 40
1
 40
1
 40
1
 40
1
 10
23.395503
 20
264.258793
 30
0.0
 10
22.126451
 20
262.796591
 30
0.0
 10
21.052949
 20
261.541329
 30
0.0
 10
21.009946
 20
261.469320
 30
0.0
  0
SPLINE
  5
12b
100
AcDbEntity
  8
Layer_1
 62
5
100
AcDbSpline
 70
8
 71
3
 72
8
 73
4
 74
0
 40
0
 40
0
 40
0
 40
0
 40
1
 40
1
 40
1
 40
1
 10
21.009946
 20
261.469320
 30
0.0
 10
20.947855
 20
261.365341
 30
0.0
 10
21.924953
 20
261.338392
 30
0.0
 10
25.757082
 20
261.338392
 30
0.0
  0
LINE
  5
12c
100
AcDbEntity
  8
Layer_1
 62
5
100
AcDbLine
 10
25.757082
 20
261.338392
 30
0.0
 11
30.582399
 21
261.338392
 31
0.0
  0
LINE
  5
12d
100
AcDbEntity
  8
Layer_1
 62
5
100
AcDbLine
 10
30.582399
 20
261.338392
 30
0.0
 11
28.460370
 21
263.764450
 31
0.0
  0
LINE
  5
12e
100
AcDbEntity
  8
Layer_1
 62
5
100
AcDbLine
 10
28.460370
 20
263.764450
 30
0.0
 11
28.460370
 21
263.764450
 31
0.0
  0
SPLINE
  5
12f
100
AcDbEntity
  8
Layer_1
 62
5
100
AcDbSpline
 70
8
 71
3
 72
8
 73
4
 74
0
 40
0
 40
0
 40
0
 40
0
 40
1
 40
1
 40
1
 40
1
 10
27.252829
 20
272.545794
 30
0.0
 10
27.976148
 20
273.381113
 30
0.0
 10
28.997188
 20
274.557353
 30
0.0
 10
29.521802
 20
275.159663
 30
0.0
  0
SPLINE
  5
130
100
AcDbEntity
  8
Layer_1
 62
5
100
AcDbSpline
 70
8
 71
3
 72
8
 73
4
 74
0
 40
0
 40
0
 40
0
 40
0
 40
1
 40
1
 40
1
 40
1
 10
29.521802
 20
275.159663
 30
0.0
 10
30.046419
 20
275.761973
 30
0.0
 10
30.475651
 20
276.292229
 30
0.0
 10
30.475651
 20
276.338012
 30
0.0
  0
SPLINE
  5
131
100
AcDbEntity
  8
Layer_1
 62
5
100
AcDbSpline
 70
8
 71
3
 72
8
 73
4
 74
0
 40
0
 40
0
 40
0
 40
0
 40
1
 40
1
 40
1
 40
1
 10
30.475651
 20
276.338012
 30
0.0
 10
30.475651
 20
276.383794
 30
0.0
 10
28.331058
 20
276.421250
 30
0.0
 10
25.709889
 20
276.421250
 30
0.0
  0
SPLINE
  5
132
100
AcDbEntity
  8
Layer_1
 62
5
100
AcDbSpline
 70
8
 71
3
 72
8
 73
4
 74
0
 40
0
 40
0
 40
0
 40
0
 40
1
 40
1
 40
1
 40
1
 10
25.709889
 20
276.421250
 30
0.0
 10
23.088719
 20
276.421250
 30
0.0
 10
20.944973
 20
276.385899
 30
0.0
 10
20.946009
 20
276.342694
 30
0.0
  0
SPLINE
  5
133
100
AcDbEntity
  8
Layer_1
 62
5
100
AcDbSpline
 70
8
 71
3
 72
8
 73
4
 74
0
 40
0
 40
0
 40
0
 40
0
 40
1
 40
1
 40
1
 40
1
 10
20.946009
 20
276.342694
 30
0.0
 10
20.947138
 20
276.299488
 30
0.0
 10
21.728769
 20
275.368592
 30
0.0
 10
22.683169
 20
274.274039
 30
0.0
  0
SPLINE
  5
134
100
AcDbEntity
  8
Layer_1
 62
5
100
AcDbSpline
 70
8
 71
3
 72
8
 73
4
 74
0
 40
0
 40
0
 40
0
 40
0
 40
1
 40
1
 40
1
 40
1
 10
22.683169
 20
274.274039
 30
0.0
 10
23.637568
 20
273.179482
 30
0.0
 10
24.707678
 20
271.942561
 30
0.0
 10
25.061190
 20
271.525324
 30
0.0
  0
SPLINE
  5
135
100
AcDbEntity
  8
Layer_1
 62
5
100
AcDbSpline
 70
8
 71
3
 72
8
 73
4
 74
0
 40
0
 40
0
 40
0
 40
0
 40
1
 40
1
 40
1
 40
1
 10
25.061190
 20
271.525324
 30
0.0
 10
25.556673
 20
270.940526
 30
0.0
 10
25.730720
 20
270.796536
 30
0.0
 10
25.820822
 20
270.896872
 30
0.0
  0
SPLINE
  5
136
100
AcDbEntity
  8
Layer_1
 62
5
100
AcDbSpline
 70
8
 71
3
 72
8
 73
4
 74
0
 40
0
 40
0
 40
0
 40
0
 40
1
 40
1
 40
1
 40
1
 10
25.820822
 20
270.896872
 30
0.0
 10
25.885110
 20
270.968460
 30
0.0
 10
26.529513
 20
271.710476
 30
0.0
 10
27.252829
 20
272.545794
 30
0.0
  0
LINE
  5
137
100
AcDbEntity
  8
Layer_1
 62
5
100
AcDbLine
 10
27.252829
 20
272.545794
 30
0.0
 11
27.252829
 21
272.545794
 31
0.0
  0
SPLINE
  5
138
100
AcDbEntity
  8
Layer_1
 62
5
100
AcDbSpline
 70
8
 71
3
 72
8
 73
4
 74
0
 40
0
 40
0
 40
0
 40
0
 40
1
 40
1
 40
1
 40
1
 10
34.141624
 20
278.830852
 30
0.0
 10
34.141624
 20
279.147257
 30
0.0
 10
31.631249
 20
280.657282
 30
0.0
 10
30.225721
 20
281.186321
 30
0.0
  0
SPLINE
  5
139
100
AcDbEntity
  8
Layer_1
 62
5
100
AcDbSpline
 70
8
 71
3
 72
8
 73
4
 74
0
 40
0
 40
0
 40
0
 40
0
 40
1
 40
1
 40
1
 40
1
 10
30.225721
 20
281.186321
 30
0.0
 10
28.697744
 20
281.761451
 30
0.0
 10
27.753285
 20
281.910396
 30
0.0
 10
25.657517
 20
281.906756
 30
0.0
  0
SPLINE
  5
13a
100
AcDbEntity
  8
Layer_1
 62
5
100
AcDbSpline
 70
8
 71
3
 72
8
 73
4
 74
0
 40
0
 40
0
 40
0
 40
0
 40
1
 40
1
 40
1
 40
1
 10
25.657517
 20
281.906756
 30
0.0
 10
23.824532
 20
281.903566
 30
0.0
 10
23.651846
 20
281.885532
 30
0.0
 10
22.462883
 20
281.572985
 30
0.0
  0
SPLINE
  5
13b
100
AcDbEntity
  8
Layer_1
 62
5
100
AcDbSpline
 70
8
 71
3
 72
8
 73
4
 74
0
 40
0
 40
0
 40
0
 40
0
 40
1
 40
1
 40
1
 40
1
 10
22.462883
 20
281.572985
 30
0.0
 10
21.601357
 20
281.346513
 30
0.0
 10
20.810602
 20
281.044984
 30
0.0
 10
19.949073
 20
280.614423
 30
0.0
  0
SPLINE
  5
13c
100
AcDbEntity
  8
Layer_1
 62
5
100
AcDbSpline
 70
8
 71
3
 72
8
 73
4
 74
0
 40
0
 40
0
 40
0
 40
0
 40
1
 40
1
 40
1
 40
1
 10
19.949073
 20
280.614423
 30
0.0
 10
18.750489
 20
280.015418
 30
0.0
 10
17.278150
 20
279.027335
 30
0.0
 10
17.278150
 20
278.821976
 30
0.0
  0
SPLINE
  5
13d
100
AcDbEntity
  8
Layer_1
 62
5
100
AcDbSpline
 70
8
 71
3
 72
8
 73
4
 74
0
 40
0
 40
0
 40
0
 40
0
 40
1
 40
1
 40
1
 40
1
 10
17.278150
 20
278.821976
 30
0.0
 10
17.278150
 20
278.764070
 30
0.0
 10
20.644977
 20
278.725575
 30
0.0
 10
25.709889
 20
278.725575
 30
0.0
  0
SPLINE
  5
13e
100
AcDbEntity
  8
Layer_1
 62
5
100
AcDbSpline
 70
8
 71
3
 72
8
 73
4
 74
0
 40
0
 40
0
 40
0
 40
0
 40
1
 40
1
 40
1
 40
1
 10
25.709889
 20
278.725575
 30
0.0
 10
31.289786
 20
278.725575
 30
0.0
 10
34.141624
 20
278.761183
 30
0.0
 10
34.141624
 20
278.830852
 30
0.0
  0
LINE
  5
13f
100
AcDbEntity
  8
Layer_1
 62
5
100
AcDbLine
 10
34.141624
 20
278.830852
 30
0.0
 11
34.141624
 21
278.830852
 31
0.0
  0
SPLINE
  5
140
100
AcDbEntity
  8
Layer_1
 62
1
100
AcDbSpline
 70
8
 71
3
 72
8
 73
4
 74
0
 40
0
 40
0
 40
0
 40
0
 40
1
 40
1
 40
1
 40
1
 10
45.632218
 20
268.873934
 30
0.0
 10
45.632217
 20
257.862521
 30
0.0
 10
36.705703
 20
248.936009
 30
0.0
 10
25.694291
 20
248.936009
 30
0.0
  0
SPLINE
  5
141
100
AcDbEntity
  8
Layer_1
 62
1
100
AcDbSpline
 70
8
 71
3
 72
8
 73
4
 74
0
 40
0
 40
0
 40
0
 40
0
 40
1
 40
1
 40
1
 40
1
 10
25.694291
 20
248.936009
 30
0.0
 10
14.682879
 20
248.936010
 30
0.0
 10
5.756367
 20
257.862522
 30
0.0
 10
5.756366
 20
268.873934
 30
0.0
  0
SPLINE
  5
142
100
AcDbEntity
  8
Layer_1
 62
1
100
AcDbSpline
 70
8
 71
3
 72
8
 73
4
 74
0
 40
0
 40
0
 40
0
 40
0
 40
1
 40
1
 40
1
 40
1
 10
5.756366
 20
268.873934
 30
0.0
 10
5.756365
 20
279.885346
 30
0.0
 10
14.682878
 20
288.811860
 30
0.0
 10
25.694291
 20
288.811861
 30
0.0
  0
SPLINE
  5
143
100
AcDbEntity
  8
Layer_1
 62
1
100
AcDbSpline
 70
8
 71
3
 72
8
 73
4
 74
0
 40
0
 40
0
 40
0
 40
0
 40
1
 40
1
 40
1
 40
1
 10
25.694291
 20
288.811861
 30
0.0
 10
30.982158
 20
288.811861
 30
0.0
 10
36.053448
 20
286.711264
 30
0.0
 10
39.792534
 20
282.972178
 30
0.0
  0
SPLINE
  5
144
100
AcDbEntity
  8
Layer_1
 62
1
100
AcDbSpline
 70
8
 71
3
 72
8
 73
4
 74
0
 40
0
 40
0
 40
0
 40
0
 40
1
 40
1
 40
1
 40
1
 10
39.792534
 20
282.972178
 30
0.0
 10
43.531621
 20
279.233091
 30
0.0
 10
45.632218
 20
274.161801
 30
0.0
 10
45.632218
 20
268.873934
 30
0.0
  0
LINE
  5
145
100
AcDbEntity
  8
Layer_1
 62
1
100
AcDbLine
 10
45.632218
 20
268.873934
 30
0.0
 11
45.632218
 21
268.873934
 31
0.0
  0
SPLINE
  5
146
100
AcDbEntity
  8
Layer_1
 62
3
100
AcDbSpline
 70
8
 71
3
 72
8
 73
4
 74
0
 40
0
 40
0
 40
0
 40
0
 40
1
 40
1
 40
1
 40
1
 10
26.805253
 20
286.384742
 30
0.0
 10
26.805253
 20
286.076066
 30
0.0
 10
26.682633
 20
285.780033
 30
0.0
 10
26.464366
 20
285.561767
 30
0.0
  0
SPLINE
  5
147
100
AcDbEntity
  8
Layer_1
 62
3
100
AcDbSpline
 70
8
 71
3
 72
8
 73
4
 74
0
 40
0
 40
0
 40
0
 40
0
 40
1
 40
1
 40
1
 40
1
 10
26.464366
 20
285.561767
 30
0.0
 10
26.246099
 20
285.343500
 30
0.0
 10
25.950066
 20
285.220879
 30
0.0
 10
25.641391
 20
285.220880
 30
0.0
  0
SPLINE
  5
148
100
AcDbEntity
  8
Layer_1
 62
3
100
AcDbSpline
 70
8
 71
3
 72
8
 73
4
 74
0
 40
0
 40
0
 40
0
 40
0
 40
1
 40
1
 40
1
 40
1
 10
25.641391
 20
285.220880
 30
0.0
 10
25.332716
 20
285.220880
 30
0.0
 10
25.036684
 20
285.343501
 30
0.0
 10
24.818418
 20
285.561768
 30
0.0
  0
SPLINE
  5
149
100
AcDbEntity
  8
Layer_1
 62
3
100
AcDbSpline
 70
8
 71
3
 72
8
 73
4
 74
0
 40
0
 40
0
 40
0
 40
0
 40
1
 40
1
 40
1
 40
1
 10
24.818418
 20
285.561768
 30
0.0
 10
24.600152
 20
285.780034
 30
0.0
 10
24.477531
 20
286.076067
 30
0.0
 10
24.477532
 20
286.384742
 30
0.0
  0
SPLINE
  5
14a
100
AcDbEntity
  8
Layer_1
 62
3
100
AcDbSpline
 70
8
 71
3
 72
8
 73
4
 74
0
 40
0
 40
0
 40
0
 40
0
 40
1
 40
1
 40
1
 40
1
 10
24.477532
 20
286.384742
 30
0.0
 10
24.477532
 20
287.027523
 30
0.0
 10
24.998610
 20
287.548600
 30
0.0
 10
25.641391
 20
287.548601
 30
0.0
  0
SPLINE
  5
14b
100
AcDbEntity
  8
Layer_1
 62
3
100
AcDbSpline
 70
8
 71
3
 72
8
 73
4
 74
0
 40
0
 40
0
 40
0
 40
0
 40
1
 40
1
 40
1
 40
1
 10
25.641391
 20
287.548601
 30
0.0
 10
25.950066
 20
287.548601
 30
0.0
 10
26.246099
 20
287.425981
 30
0.0
 10
26.464365
 20
287.207715
 30
0.0
  0
SPLINE
  5
14c
100
AcDbEntity
  8
Layer_1
 62
3
100
AcDbSpline
 70
8
 71
3
 72
8
 73
4
 74
0
 40
0
 40
0
 40
0
 40
0
 40
1
 40
1
 40
1
 40
1
 10
26.464365
 20
287.207715
 30
0.0
 10
26.682631
 20
286.989449
 30
0.0
 10
26.805252
 20
286.693417
 30
0.0
 10
26.805253
 20
286.384742
 30
0.0
  0
LINE
  5
14d
100
AcDbEntity
  8
Layer_1
 62
3
100
AcDbLine
 10
26.805253
 20
286.384742
 30
0.0
 11
26.805253
 21
286.384742
 31
0.0
  0
ENDSEC
  0
SECTION
  2
OBJECTS
  0
DICTIONARY
  5
C
330
0
100
AcDbDictionary
  3
ACAD_GROUP
350
D
  3
ACAD_MLINESTYLE
350
17
  0
DICTIONARY
  5
D
330
C
100
AcDbDictionary
  0
DICTIONARY
  5
1A
330
C
100
AcDbDictionary
  0
DICTIONARY
  5
17
330
C
100
AcDbDictionary
  3
STANDARD
350
18
  0
DICTIONARY
  5
19
330
C
100
AcDbDictionary
  0
ENDSEC
  0
EOF
